<?xml version="1.0" encoding="utf-8" standalone="no"?>
<!DOCTYPE svg PUBLIC "-//W3C//DTD SVG 1.1//EN"
  "http://www.w3.org/Graphics/SVG/1.1/DTD/svg11.dtd">
<svg xmlns:xlink="http://www.w3.org/1999/xlink" width="460.8pt" height="345.6pt" viewBox="0 0 460.8 345.6" xmlns="http://www.w3.org/2000/svg" version="1.1">
 <metadata>
  <rdf:RDF xmlns:dc="http://purl.org/dc/elements/1.1/" xmlns:cc="http://creativecommons.org/ns#" xmlns:rdf="http://www.w3.org/1999/02/22-rdf-syntax-ns#">
   <cc:Work>
    <dc:type rdf:resource="http://purl.org/dc/dcmitype/StillImage"/>
    <dc:date>2024-08-23T03:28:29.421032</dc:date>
    <dc:format>image/svg+xml</dc:format>
    <dc:creator>
     <cc:Agent>
      <dc:title>Matplotlib v3.9.2, https://matplotlib.org/</dc:title>
     </cc:Agent>
    </dc:creator>
   </cc:Work>
  </rdf:RDF>
 </metadata>
 <defs>
  <style type="text/css">*{stroke-linejoin: round; stroke-linecap: butt}</style>
 </defs>
 <g id="figure_1">
  <g id="patch_1">
   <path d="M 0 345.6 
L 460.8 345.6 
L 460.8 0 
L 0 0 
z
" style="fill: #ffffff"/>
  </g>
  <g id="axes_1">
   <g id="patch_2">
    <path d="M 57.6 307.584 
L 414.72 307.584 
L 414.72 41.472 
L 57.6 41.472 
z
" style="fill: #ffffff"/>
   </g>
   <g id="matplotlib.axis_1">
    <g id="xtick_1">
     <g id="line2d_1">
      <defs>
       <path id="m59b0caf624" d="M 0 0 
L 0 3.5 
" style="stroke: #000000; stroke-width: 0.8"/>
      </defs>
      <g>
       <use xlink:href="#m59b0caf624" x="65.716364" y="307.584" style="stroke: #000000; stroke-width: 0.8"/>
      </g>
     </g>
     <g id="text_1">
      <!-- 0 -->
      <g transform="translate(62.535114 322.182437) scale(0.1 -0.1)">
       <defs>
        <path id="DejaVuSerif-30" d="M 2034 219 
Q 2513 219 2750 744 
Q 2988 1269 2988 2328 
Q 2988 3391 2750 3916 
Q 2513 4441 2034 4441 
Q 1556 4441 1318 3916 
Q 1081 3391 1081 2328 
Q 1081 1269 1318 744 
Q 1556 219 2034 219 
z
M 2034 -91 
Q 1275 -91 848 546 
Q 422 1184 422 2328 
Q 422 3475 848 4112 
Q 1275 4750 2034 4750 
Q 2797 4750 3222 4112 
Q 3647 3475 3647 2328 
Q 3647 1184 3222 546 
Q 2797 -91 2034 -91 
z
" transform="scale(0.015625)"/>
       </defs>
       <use xlink:href="#DejaVuSerif-30"/>
      </g>
     </g>
    </g>
    <g id="xtick_2">
     <g id="line2d_2">
      <g>
       <use xlink:href="#m59b0caf624" x="106.298182" y="307.584" style="stroke: #000000; stroke-width: 0.8"/>
      </g>
     </g>
     <g id="text_2">
      <!-- 5 -->
      <g transform="translate(103.116932 322.182437) scale(0.1 -0.1)">
       <defs>
        <path id="DejaVuSerif-35" d="M 3219 4666 
L 3219 4153 
L 1081 4153 
L 1081 2816 
Q 1244 2928 1461 2984 
Q 1678 3041 1947 3041 
Q 2703 3041 3140 2622 
Q 3578 2203 3578 1478 
Q 3578 738 3136 323 
Q 2694 -91 1894 -91 
Q 1572 -91 1234 -12 
Q 897 66 544 225 
L 544 1131 
L 897 1131 
Q 925 688 1179 453 
Q 1434 219 1894 219 
Q 2388 219 2653 544 
Q 2919 869 2919 1478 
Q 2919 2084 2655 2407 
Q 2391 2731 1894 2731 
Q 1613 2731 1398 2631 
Q 1184 2531 1019 2322 
L 750 2322 
L 750 4666 
L 3219 4666 
z
" transform="scale(0.015625)"/>
       </defs>
       <use xlink:href="#DejaVuSerif-35"/>
      </g>
     </g>
    </g>
    <g id="xtick_3">
     <g id="line2d_3">
      <g>
       <use xlink:href="#m59b0caf624" x="146.88" y="307.584" style="stroke: #000000; stroke-width: 0.8"/>
      </g>
     </g>
     <g id="text_3">
      <!-- 10 -->
      <g transform="translate(140.5175 322.182437) scale(0.1 -0.1)">
       <defs>
        <path id="DejaVuSerif-31" d="M 909 0 
L 909 331 
L 1722 331 
L 1722 4213 
L 781 3603 
L 781 4013 
L 1919 4750 
L 2350 4750 
L 2350 331 
L 3163 331 
L 3163 0 
L 909 0 
z
" transform="scale(0.015625)"/>
       </defs>
       <use xlink:href="#DejaVuSerif-31"/>
       <use xlink:href="#DejaVuSerif-30" x="63.623047"/>
      </g>
     </g>
    </g>
    <g id="xtick_4">
     <g id="line2d_4">
      <g>
       <use xlink:href="#m59b0caf624" x="187.461818" y="307.584" style="stroke: #000000; stroke-width: 0.8"/>
      </g>
     </g>
     <g id="text_4">
      <!-- 15 -->
      <g transform="translate(181.099318 322.182437) scale(0.1 -0.1)">
       <use xlink:href="#DejaVuSerif-31"/>
       <use xlink:href="#DejaVuSerif-35" x="63.623047"/>
      </g>
     </g>
    </g>
    <g id="xtick_5">
     <g id="line2d_5">
      <g>
       <use xlink:href="#m59b0caf624" x="228.043636" y="307.584" style="stroke: #000000; stroke-width: 0.8"/>
      </g>
     </g>
     <g id="text_5">
      <!-- 20 -->
      <g transform="translate(221.681136 322.182437) scale(0.1 -0.1)">
       <defs>
        <path id="DejaVuSerif-32" d="M 819 3553 
L 469 3553 
L 469 4384 
Q 803 4563 1142 4656 
Q 1481 4750 1806 4750 
Q 2534 4750 2956 4397 
Q 3378 4044 3378 3438 
Q 3378 2753 2422 1800 
Q 2347 1728 2309 1691 
L 1131 513 
L 3078 513 
L 3078 1088 
L 3444 1088 
L 3444 0 
L 434 0 
L 434 341 
L 1850 1753 
Q 2319 2222 2519 2614 
Q 2719 3006 2719 3438 
Q 2719 3909 2473 4175 
Q 2228 4441 1797 4441 
Q 1350 4441 1106 4219 
Q 863 3997 819 3553 
z
" transform="scale(0.015625)"/>
       </defs>
       <use xlink:href="#DejaVuSerif-32"/>
       <use xlink:href="#DejaVuSerif-30" x="63.623047"/>
      </g>
     </g>
    </g>
    <g id="xtick_6">
     <g id="line2d_6">
      <g>
       <use xlink:href="#m59b0caf624" x="268.625455" y="307.584" style="stroke: #000000; stroke-width: 0.8"/>
      </g>
     </g>
     <g id="text_6">
      <!-- 25 -->
      <g transform="translate(262.262955 322.182437) scale(0.1 -0.1)">
       <use xlink:href="#DejaVuSerif-32"/>
       <use xlink:href="#DejaVuSerif-35" x="63.623047"/>
      </g>
     </g>
    </g>
    <g id="xtick_7">
     <g id="line2d_7">
      <g>
       <use xlink:href="#m59b0caf624" x="309.207273" y="307.584" style="stroke: #000000; stroke-width: 0.8"/>
      </g>
     </g>
     <g id="text_7">
      <!-- 30 -->
      <g transform="translate(302.844773 322.182437) scale(0.1 -0.1)">
       <defs>
        <path id="DejaVuSerif-33" d="M 622 4469 
Q 988 4606 1323 4678 
Q 1659 4750 1953 4750 
Q 2638 4750 3022 4454 
Q 3406 4159 3406 3634 
Q 3406 3213 3140 2930 
Q 2875 2647 2388 2547 
Q 2963 2466 3280 2130 
Q 3597 1794 3597 1259 
Q 3597 606 3158 257 
Q 2719 -91 1894 -91 
Q 1528 -91 1179 -12 
Q 831 66 488 225 
L 488 1131 
L 838 1131 
Q 869 681 1141 450 
Q 1413 219 1906 219 
Q 2384 219 2661 495 
Q 2938 772 2938 1253 
Q 2938 1803 2653 2086 
Q 2369 2369 1819 2369 
L 1522 2369 
L 1522 2688 
L 1678 2688 
Q 2225 2688 2498 2914 
Q 2772 3141 2772 3597 
Q 2772 4006 2547 4223 
Q 2322 4441 1900 4441 
Q 1478 4441 1245 4241 
Q 1013 4041 972 3647 
L 622 3647 
L 622 4469 
z
" transform="scale(0.015625)"/>
       </defs>
       <use xlink:href="#DejaVuSerif-33"/>
       <use xlink:href="#DejaVuSerif-30" x="63.623047"/>
      </g>
     </g>
    </g>
    <g id="xtick_8">
     <g id="line2d_8">
      <g>
       <use xlink:href="#m59b0caf624" x="349.789091" y="307.584" style="stroke: #000000; stroke-width: 0.8"/>
      </g>
     </g>
     <g id="text_8">
      <!-- 35 -->
      <g transform="translate(343.426591 322.182437) scale(0.1 -0.1)">
       <use xlink:href="#DejaVuSerif-33"/>
       <use xlink:href="#DejaVuSerif-35" x="63.623047"/>
      </g>
     </g>
    </g>
    <g id="xtick_9">
     <g id="line2d_9">
      <g>
       <use xlink:href="#m59b0caf624" x="390.370909" y="307.584" style="stroke: #000000; stroke-width: 0.8"/>
      </g>
     </g>
     <g id="text_9">
      <!-- 40 -->
      <g transform="translate(384.008409 322.182437) scale(0.1 -0.1)">
       <defs>
        <path id="DejaVuSerif-34" d="M 2234 1581 
L 2234 4063 
L 641 1581 
L 2234 1581 
z
M 3609 0 
L 1484 0 
L 1484 331 
L 2234 331 
L 2234 1247 
L 197 1247 
L 197 1588 
L 2241 4750 
L 2859 4750 
L 2859 1581 
L 3750 1581 
L 3750 1247 
L 2859 1247 
L 2859 331 
L 3609 331 
L 3609 0 
z
" transform="scale(0.015625)"/>
       </defs>
       <use xlink:href="#DejaVuSerif-34"/>
       <use xlink:href="#DejaVuSerif-30" x="63.623047"/>
      </g>
     </g>
    </g>
    <g id="text_10">
     <!-- Time (s) -->
     <g transform="translate(217.456875 334.340875) scale(0.08 -0.08)">
      <defs>
       <path id="DejaVuSerif-Bold-54" d="M 1159 0 
L 1159 378 
L 1778 378 
L 1778 4238 
L 500 4238 
L 500 3500 
L 72 3500 
L 72 4666 
L 4697 4666 
L 4697 3500 
L 4275 3500 
L 4275 4238 
L 2988 4238 
L 2988 378 
L 3609 378 
L 3609 0 
L 1159 0 
z
" transform="scale(0.015625)"/>
       <path id="DejaVuSerif-Bold-69" d="M 588 4263 
Q 588 4516 763 4689 
Q 938 4863 1191 4863 
Q 1438 4863 1611 4689 
Q 1784 4516 1784 4263 
Q 1784 4016 1611 3842 
Q 1438 3669 1191 3669 
Q 938 3669 763 3841 
Q 588 4013 588 4263 
z
M 1797 378 
L 2272 378 
L 2272 0 
L 219 0 
L 219 378 
L 691 378 
L 691 2944 
L 219 2944 
L 219 3322 
L 1797 3322 
L 1797 378 
z
" transform="scale(0.015625)"/>
       <path id="DejaVuSerif-Bold-6d" d="M 3884 2778 
Q 4116 3109 4384 3261 
Q 4653 3413 5013 3413 
Q 5584 3413 5867 3089 
Q 6150 2766 6150 2113 
L 6150 378 
L 6625 378 
L 6625 0 
L 4647 0 
L 4647 378 
L 5044 378 
L 5044 1947 
Q 5044 2569 4948 2731 
Q 4853 2894 4594 2894 
Q 4300 2894 4137 2667 
Q 3975 2441 3975 2022 
L 3975 378 
L 4372 378 
L 4372 0 
L 2472 0 
L 2472 378 
L 2869 378 
L 2869 1947 
Q 2869 2569 2772 2731 
Q 2675 2894 2419 2894 
Q 2122 2894 1959 2667 
Q 1797 2441 1797 2022 
L 1797 378 
L 2194 378 
L 2194 0 
L 219 0 
L 219 378 
L 691 378 
L 691 2944 
L 219 2944 
L 219 3322 
L 1797 3322 
L 1797 2853 
Q 1991 3144 2241 3278 
Q 2491 3413 2834 3413 
Q 3241 3413 3494 3258 
Q 3747 3103 3884 2778 
z
" transform="scale(0.015625)"/>
       <path id="DejaVuSerif-Bold-65" d="M 2566 1875 
Q 2566 2531 2444 2795 
Q 2322 3059 2028 3059 
Q 1744 3059 1620 2800 
Q 1497 2541 1497 1931 
L 1497 1875 
L 2566 1875 
z
M 3781 1503 
L 1497 1503 
L 1497 1478 
Q 1497 834 1690 548 
Q 1884 263 2316 263 
Q 2675 263 2897 453 
Q 3119 644 3181 1006 
L 3700 1006 
Q 3566 441 3166 175 
Q 2766 -91 2047 -91 
Q 1184 -91 723 364 
Q 263 819 263 1663 
Q 263 2488 734 2950 
Q 1206 3413 2047 3413 
Q 2872 3413 3312 2927 
Q 3753 2441 3781 1503 
z
" transform="scale(0.015625)"/>
       <path id="DejaVuSerif-Bold-20" transform="scale(0.015625)"/>
       <path id="DejaVuSerif-Bold-28" d="M 2694 -997 
Q 1641 -606 1122 122 
Q 603 850 603 1931 
Q 603 3013 1115 3731 
Q 1628 4450 2694 4863 
L 2694 4488 
Q 2200 4188 1983 3598 
Q 1766 3009 1766 1931 
Q 1766 856 1983 267 
Q 2200 -322 2694 -622 
L 2694 -997 
z
" transform="scale(0.015625)"/>
       <path id="DejaVuSerif-Bold-73" d="M 300 97 
L 300 1025 
L 653 1025 
Q 697 653 931 458 
Q 1166 263 1569 263 
Q 1906 263 2086 380 
Q 2266 497 2266 716 
Q 2266 916 2152 1025 
Q 2038 1134 1709 1216 
L 1253 1331 
Q 738 1459 506 1698 
Q 275 1938 275 2344 
Q 275 2884 650 3148 
Q 1025 3413 1806 3413 
Q 2100 3413 2433 3364 
Q 2766 3316 3169 3213 
L 3169 2375 
L 2816 2375 
Q 2788 2716 2573 2887 
Q 2359 3059 1959 3059 
Q 1622 3059 1448 2951 
Q 1275 2844 1275 2638 
Q 1275 2469 1375 2372 
Q 1475 2275 1734 2209 
L 2188 2094 
Q 2841 1928 3091 1684 
Q 3341 1441 3341 1006 
Q 3341 444 2939 176 
Q 2538 -91 1691 -91 
Q 1381 -91 1034 -44 
Q 688 3 300 97 
z
" transform="scale(0.015625)"/>
       <path id="DejaVuSerif-Bold-29" d="M 325 -997 
L 325 -622 
Q 819 -322 1036 267 
Q 1253 856 1253 1931 
Q 1253 3009 1036 3598 
Q 819 4188 325 4488 
L 325 4863 
Q 1391 4450 1905 3731 
Q 2419 3013 2419 1931 
Q 2419 850 1898 122 
Q 1378 -606 325 -997 
z
" transform="scale(0.015625)"/>
      </defs>
      <use xlink:href="#DejaVuSerif-Bold-54"/>
      <use xlink:href="#DejaVuSerif-Bold-69" x="74.414062"/>
      <use xlink:href="#DejaVuSerif-Bold-6d" x="112.402344"/>
      <use xlink:href="#DejaVuSerif-Bold-65" x="218.212891"/>
      <use xlink:href="#DejaVuSerif-Bold-20" x="281.835938"/>
      <use xlink:href="#DejaVuSerif-Bold-28" x="316.650391"/>
      <use xlink:href="#DejaVuSerif-Bold-73" x="363.964844"/>
      <use xlink:href="#DejaVuSerif-Bold-29" x="420.263672"/>
     </g>
    </g>
   </g>
   <g id="matplotlib.axis_2">
    <g id="ytick_1">
     <g id="line2d_10">
      <defs>
       <path id="m762344c497" d="M 0 0 
L -3.5 0 
" style="stroke: #000000; stroke-width: 0.8"/>
      </defs>
      <g>
       <use xlink:href="#m762344c497" x="57.6" y="307.584" style="stroke: #000000; stroke-width: 0.8"/>
      </g>
     </g>
     <g id="text_11">
      <!-- 0 -->
      <g transform="translate(44.2375 311.383219) scale(0.1 -0.1)">
       <use xlink:href="#DejaVuSerif-30"/>
      </g>
     </g>
    </g>
    <g id="ytick_2">
     <g id="line2d_11">
      <g>
       <use xlink:href="#m762344c497" x="57.6" y="255.911767" style="stroke: #000000; stroke-width: 0.8"/>
      </g>
     </g>
     <g id="text_12">
      <!-- 20 -->
      <g transform="translate(37.875 259.710986) scale(0.1 -0.1)">
       <use xlink:href="#DejaVuSerif-32"/>
       <use xlink:href="#DejaVuSerif-30" x="63.623047"/>
      </g>
     </g>
    </g>
    <g id="ytick_3">
     <g id="line2d_12">
      <g>
       <use xlink:href="#m762344c497" x="57.6" y="204.239534" style="stroke: #000000; stroke-width: 0.8"/>
      </g>
     </g>
     <g id="text_13">
      <!-- 40 -->
      <g transform="translate(37.875 208.038753) scale(0.1 -0.1)">
       <use xlink:href="#DejaVuSerif-34"/>
       <use xlink:href="#DejaVuSerif-30" x="63.623047"/>
      </g>
     </g>
    </g>
    <g id="ytick_4">
     <g id="line2d_13">
      <g>
       <use xlink:href="#m762344c497" x="57.6" y="152.567301" style="stroke: #000000; stroke-width: 0.8"/>
      </g>
     </g>
     <g id="text_14">
      <!-- 60 -->
      <g transform="translate(37.875 156.36652) scale(0.1 -0.1)">
       <defs>
        <path id="DejaVuSerif-36" d="M 2094 219 
Q 2534 219 2771 542 
Q 3009 866 3009 1472 
Q 3009 2078 2771 2401 
Q 2534 2725 2094 2725 
Q 1647 2725 1412 2412 
Q 1178 2100 1178 1509 
Q 1178 888 1415 553 
Q 1653 219 2094 219 
z
M 1075 2569 
Q 1288 2803 1556 2918 
Q 1825 3034 2163 3034 
Q 2859 3034 3264 2615 
Q 3669 2197 3669 1472 
Q 3669 763 3233 336 
Q 2797 -91 2069 -91 
Q 1278 -91 853 498 
Q 428 1088 428 2181 
Q 428 3406 931 4078 
Q 1434 4750 2350 4750 
Q 2597 4750 2869 4703 
Q 3141 4656 3425 4563 
L 3425 3794 
L 3072 3794 
Q 3034 4109 2831 4275 
Q 2628 4441 2284 4441 
Q 1678 4441 1381 3981 
Q 1084 3522 1075 2569 
z
" transform="scale(0.015625)"/>
       </defs>
       <use xlink:href="#DejaVuSerif-36"/>
       <use xlink:href="#DejaVuSerif-30" x="63.623047"/>
      </g>
     </g>
    </g>
    <g id="ytick_5">
     <g id="line2d_14">
      <g>
       <use xlink:href="#m762344c497" x="57.6" y="100.895068" style="stroke: #000000; stroke-width: 0.8"/>
      </g>
     </g>
     <g id="text_15">
      <!-- 80 -->
      <g transform="translate(37.875 104.694287) scale(0.1 -0.1)">
       <defs>
        <path id="DejaVuSerif-38" d="M 2981 1275 
Q 2981 1775 2732 2051 
Q 2484 2328 2034 2328 
Q 1584 2328 1336 2051 
Q 1088 1775 1088 1275 
Q 1088 772 1336 495 
Q 1584 219 2034 219 
Q 2484 219 2732 495 
Q 2981 772 2981 1275 
z
M 2853 3541 
Q 2853 3966 2637 4203 
Q 2422 4441 2034 4441 
Q 1650 4441 1433 4203 
Q 1216 3966 1216 3541 
Q 1216 3113 1433 2875 
Q 1650 2638 2034 2638 
Q 2422 2638 2637 2875 
Q 2853 3113 2853 3541 
z
M 2516 2484 
Q 3047 2413 3344 2092 
Q 3641 1772 3641 1275 
Q 3641 619 3225 264 
Q 2809 -91 2034 -91 
Q 1263 -91 845 264 
Q 428 619 428 1275 
Q 428 1772 725 2092 
Q 1022 2413 1556 2484 
Q 1084 2569 832 2842 
Q 581 3116 581 3541 
Q 581 4103 968 4426 
Q 1356 4750 2034 4750 
Q 2713 4750 3100 4426 
Q 3488 4103 3488 3541 
Q 3488 3116 3236 2842 
Q 2984 2569 2516 2484 
z
" transform="scale(0.015625)"/>
       </defs>
       <use xlink:href="#DejaVuSerif-38"/>
       <use xlink:href="#DejaVuSerif-30" x="63.623047"/>
      </g>
     </g>
    </g>
    <g id="ytick_6">
     <g id="line2d_15">
      <g>
       <use xlink:href="#m762344c497" x="57.6" y="49.222835" style="stroke: #000000; stroke-width: 0.8"/>
      </g>
     </g>
     <g id="text_16">
      <!-- 100 -->
      <g transform="translate(31.5125 53.022054) scale(0.1 -0.1)">
       <use xlink:href="#DejaVuSerif-31"/>
       <use xlink:href="#DejaVuSerif-30" x="63.623047"/>
       <use xlink:href="#DejaVuSerif-30" x="127.246094"/>
      </g>
     </g>
    </g>
    <g id="text_17">
     <!-- Throughput (Mbits/sec) -->
     <g transform="translate(25.735 228.068625) rotate(-90) scale(0.08 -0.08)">
      <defs>
       <path id="DejaVuSerif-Bold-68" d="M 219 0 
L 219 378 
L 691 378 
L 691 4488 
L 197 4488 
L 197 4863 
L 1797 4863 
L 1797 2853 
Q 1997 3150 2253 3281 
Q 2509 3413 2900 3413 
Q 3459 3413 3745 3083 
Q 4031 2753 4031 2113 
L 4031 378 
L 4506 378 
L 4506 0 
L 2522 0 
L 2522 378 
L 2925 378 
L 2925 2144 
Q 2925 2566 2817 2730 
Q 2709 2894 2444 2894 
Q 2109 2894 1953 2648 
Q 1797 2403 1797 1869 
L 1797 378 
L 2203 378 
L 2203 0 
L 219 0 
z
" transform="scale(0.015625)"/>
       <path id="DejaVuSerif-Bold-72" d="M 3438 3359 
L 3438 2369 
L 3084 2369 
Q 3066 2634 2941 2764 
Q 2816 2894 2578 2894 
Q 2216 2894 2006 2575 
Q 1797 2256 1797 1691 
L 1797 378 
L 2400 378 
L 2400 0 
L 219 0 
L 219 378 
L 691 378 
L 691 2944 
L 184 2944 
L 184 3322 
L 1797 3322 
L 1797 2731 
Q 1959 3078 2226 3245 
Q 2494 3413 2881 3413 
Q 2978 3413 3117 3398 
Q 3256 3384 3438 3359 
z
" transform="scale(0.015625)"/>
       <path id="DejaVuSerif-Bold-6f" d="M 2138 263 
Q 2488 263 2630 563 
Q 2772 863 2772 1663 
Q 2772 2463 2631 2761 
Q 2491 3059 2138 3059 
Q 1784 3059 1640 2757 
Q 1497 2456 1497 1663 
Q 1497 869 1640 566 
Q 1784 263 2138 263 
z
M 2138 -91 
Q 1259 -91 761 376 
Q 263 844 263 1663 
Q 263 2484 761 2948 
Q 1259 3413 2138 3413 
Q 3019 3413 3516 2948 
Q 4013 2484 4013 1663 
Q 4013 844 3514 376 
Q 3016 -91 2138 -91 
z
" transform="scale(0.015625)"/>
       <path id="DejaVuSerif-Bold-75" d="M 3963 3322 
L 3963 378 
L 4434 378 
L 4434 0 
L 2853 0 
L 2853 469 
Q 2656 172 2400 40 
Q 2144 -91 1753 -91 
Q 1194 -91 908 239 
Q 622 569 622 1209 
L 622 2944 
L 147 2944 
L 147 3322 
L 1728 3322 
L 1728 1381 
Q 1728 763 1831 595 
Q 1934 428 2209 428 
Q 2544 428 2698 675 
Q 2853 922 2853 1459 
L 2853 2944 
L 2450 2944 
L 2450 3322 
L 3963 3322 
z
" transform="scale(0.015625)"/>
       <path id="DejaVuSerif-Bold-67" d="M 3853 2944 
L 3853 44 
Q 3853 -656 3354 -1039 
Q 2856 -1422 1947 -1422 
Q 1616 -1422 1275 -1370 
Q 934 -1319 575 -1216 
L 575 -422 
L 928 -422 
Q 975 -750 1192 -909 
Q 1409 -1069 1813 -1069 
Q 2325 -1069 2536 -823 
Q 2747 -578 2747 44 
L 2747 422 
Q 2606 163 2367 36 
Q 2128 -91 1778 -91 
Q 1072 -91 667 378 
Q 263 847 263 1663 
Q 263 2481 667 2947 
Q 1072 3413 1778 3413 
Q 2128 3413 2367 3286 
Q 2606 3159 2747 2900 
L 2747 3322 
L 4325 3322 
L 4325 2944 
L 3853 2944 
z
M 2747 1825 
Q 2747 2406 2597 2665 
Q 2447 2925 2119 2925 
Q 1775 2925 1636 2651 
Q 1497 2378 1497 1663 
Q 1497 947 1637 672 
Q 1778 397 2119 397 
Q 2447 397 2597 656 
Q 2747 916 2747 1497 
L 2747 1825 
z
" transform="scale(0.015625)"/>
       <path id="DejaVuSerif-Bold-70" d="M 1728 1825 
L 1728 1497 
Q 1728 916 1876 656 
Q 2025 397 2356 397 
Q 2697 397 2836 672 
Q 2975 947 2975 1663 
Q 2975 2378 2836 2651 
Q 2697 2925 2356 2925 
Q 2025 2925 1876 2665 
Q 1728 2406 1728 1825 
z
M 622 2944 
L 147 2944 
L 147 3322 
L 1728 3322 
L 1728 2900 
Q 1869 3159 2106 3286 
Q 2344 3413 2694 3413 
Q 3403 3413 3811 2945 
Q 4219 2478 4219 1663 
Q 4219 847 3811 378 
Q 3403 -91 2694 -91 
Q 2344 -91 2106 36 
Q 1869 163 1728 422 
L 1728 -953 
L 2241 -953 
L 2241 -1331 
L 147 -1331 
L 147 -953 
L 622 -953 
L 622 2944 
z
" transform="scale(0.015625)"/>
       <path id="DejaVuSerif-Bold-74" d="M 634 2944 
L 153 2944 
L 153 3322 
L 634 3322 
L 634 4353 
L 1741 4353 
L 1741 3322 
L 2663 3322 
L 2663 2944 
L 1741 2944 
L 1741 909 
Q 1741 475 1809 369 
Q 1878 263 2059 263 
Q 2259 263 2356 397 
Q 2453 531 2459 813 
L 2925 813 
Q 2897 313 2651 111 
Q 2406 -91 1806 -91 
Q 1122 -91 878 123 
Q 634 338 634 909 
L 634 2944 
z
" transform="scale(0.015625)"/>
       <path id="DejaVuSerif-Bold-4d" d="M 269 0 
L 269 378 
L 863 378 
L 863 4288 
L 269 4288 
L 269 4666 
L 2194 4666 
L 3525 1672 
L 4863 4666 
L 6784 4666 
L 6784 4288 
L 6188 4288 
L 6188 378 
L 6784 378 
L 6784 0 
L 4384 0 
L 4384 378 
L 4978 378 
L 4978 3938 
L 3531 684 
L 2741 684 
L 1300 3938 
L 1300 378 
L 1894 378 
L 1894 0 
L 269 0 
z
" transform="scale(0.015625)"/>
       <path id="DejaVuSerif-Bold-62" d="M 622 378 
L 622 4488 
L 147 4488 
L 147 4863 
L 1728 4863 
L 1728 2900 
Q 1869 3159 2106 3286 
Q 2344 3413 2694 3413 
Q 3403 3413 3811 2945 
Q 4219 2478 4219 1663 
Q 4219 847 3811 378 
Q 3403 -91 2694 -91 
Q 2344 -91 2106 36 
Q 1869 163 1728 422 
L 1728 0 
L 147 0 
L 147 378 
L 622 378 
z
M 1728 1497 
Q 1728 916 1876 656 
Q 2025 397 2356 397 
Q 2697 397 2836 672 
Q 2975 947 2975 1663 
Q 2975 2378 2836 2651 
Q 2697 2925 2356 2925 
Q 2025 2925 1876 2665 
Q 1728 2406 1728 1825 
L 1728 1497 
z
" transform="scale(0.015625)"/>
       <path id="DejaVuSerif-Bold-2f" d="M 1644 4666 
L 2338 4666 
L 691 -594 
L 0 -594 
L 1644 4666 
z
" transform="scale(0.015625)"/>
       <path id="DejaVuSerif-Bold-63" d="M 3609 1038 
Q 3491 469 3123 189 
Q 2756 -91 2125 -91 
Q 1238 -91 750 368 
Q 263 828 263 1663 
Q 263 2488 744 2950 
Q 1225 3413 2081 3413 
Q 2428 3413 2781 3347 
Q 3134 3281 3500 3150 
L 3500 2228 
L 3150 2228 
Q 3100 2650 2903 2854 
Q 2706 3059 2350 3059 
Q 1888 3059 1692 2746 
Q 1497 2434 1497 1663 
Q 1497 909 1687 586 
Q 1878 263 2309 263 
Q 2644 263 2845 463 
Q 3047 663 3091 1038 
L 3609 1038 
z
" transform="scale(0.015625)"/>
      </defs>
      <use xlink:href="#DejaVuSerif-Bold-54"/>
      <use xlink:href="#DejaVuSerif-Bold-68" x="74.414062"/>
      <use xlink:href="#DejaVuSerif-Bold-72" x="147.119141"/>
      <use xlink:href="#DejaVuSerif-Bold-6f" x="199.804688"/>
      <use xlink:href="#DejaVuSerif-Bold-75" x="266.503906"/>
      <use xlink:href="#DejaVuSerif-Bold-67" x="339.208984"/>
      <use xlink:href="#DejaVuSerif-Bold-68" x="409.130859"/>
      <use xlink:href="#DejaVuSerif-Bold-70" x="481.835938"/>
      <use xlink:href="#DejaVuSerif-Bold-75" x="551.757812"/>
      <use xlink:href="#DejaVuSerif-Bold-74" x="624.462891"/>
      <use xlink:href="#DejaVuSerif-Bold-20" x="670.654297"/>
      <use xlink:href="#DejaVuSerif-Bold-28" x="705.46875"/>
      <use xlink:href="#DejaVuSerif-Bold-4d" x="752.783203"/>
      <use xlink:href="#DejaVuSerif-Bold-62" x="863.476562"/>
      <use xlink:href="#DejaVuSerif-Bold-69" x="933.398438"/>
      <use xlink:href="#DejaVuSerif-Bold-74" x="971.386719"/>
      <use xlink:href="#DejaVuSerif-Bold-73" x="1017.578125"/>
      <use xlink:href="#DejaVuSerif-Bold-2f" x="1073.876953"/>
      <use xlink:href="#DejaVuSerif-Bold-73" x="1110.400391"/>
      <use xlink:href="#DejaVuSerif-Bold-65" x="1166.699219"/>
      <use xlink:href="#DejaVuSerif-Bold-63" x="1230.322266"/>
      <use xlink:href="#DejaVuSerif-Bold-29" x="1291.210938"/>
     </g>
    </g>
   </g>
   <g id="line2d_16">
    <path d="M 73.832727 208.373313 
L 81.949091 128.539713 
L 90.065455 133.448575 
L 98.181818 126.731184 
L 106.298182 131.123324 
L 114.414545 134.223658 
L 122.530909 130.864963 
L 130.647273 137.323992 
L 138.763636 144.558105 
L 146.88 138.874159 
L 154.996364 131.640047 
L 163.112727 129.831518 
L 171.229091 128.798074 
L 179.345455 131.381685 
L 187.461818 131.123324 
L 195.578182 130.348241 
L 203.694545 132.156769 
L 211.810909 132.156769 
L 219.927273 131.640047 
L 228.043636 129.831518 
L 236.16 128.798074 
L 244.276364 131.898408 
L 252.392727 127.506268 
L 260.509091 130.08988 
L 268.625455 136.032186 
L 276.741818 129.056435 
L 284.858182 132.41513 
L 292.974545 128.798074 
L 301.090909 128.02299 
L 309.207273 133.706936 
L 317.323636 129.056435 
L 325.44 171.427666 
L 333.556364 143.52466 
L 341.672727 74.542229 
L 349.789091 131.898408 
L 357.905455 134.998742 
L 366.021818 134.223658 
L 374.138182 130.606602 
L 382.254545 134.482019 
L 390.370909 134.740381 
L 398.487273 291.488099 
" clip-path="url(#pb703abd4da)" style="fill: none; stroke: #1f77b4; stroke-width: 1.5; stroke-linecap: square"/>
    <defs>
     <path id="mc9907507ac" d="M 0 1.5 
C 0.397805 1.5 0.77937 1.341951 1.06066 1.06066 
C 1.341951 0.77937 1.5 0.397805 1.5 0 
C 1.5 -0.397805 1.341951 -0.77937 1.06066 -1.06066 
C 0.77937 -1.341951 0.397805 -1.5 0 -1.5 
C -0.397805 -1.5 -0.77937 -1.341951 -1.06066 -1.06066 
C -1.341951 -0.77937 -1.5 -0.397805 -1.5 0 
C -1.5 0.397805 -1.341951 0.77937 -1.06066 1.06066 
C -0.77937 1.341951 -0.397805 1.5 0 1.5 
z
" style="stroke: #1f77b4"/>
    </defs>
    <g clip-path="url(#pb703abd4da)">
     <use xlink:href="#mc9907507ac" x="73.832727" y="208.373313" style="fill: #1f77b4; stroke: #1f77b4"/>
     <use xlink:href="#mc9907507ac" x="81.949091" y="128.539713" style="fill: #1f77b4; stroke: #1f77b4"/>
     <use xlink:href="#mc9907507ac" x="90.065455" y="133.448575" style="fill: #1f77b4; stroke: #1f77b4"/>
     <use xlink:href="#mc9907507ac" x="98.181818" y="126.731184" style="fill: #1f77b4; stroke: #1f77b4"/>
     <use xlink:href="#mc9907507ac" x="106.298182" y="131.123324" style="fill: #1f77b4; stroke: #1f77b4"/>
     <use xlink:href="#mc9907507ac" x="114.414545" y="134.223658" style="fill: #1f77b4; stroke: #1f77b4"/>
     <use xlink:href="#mc9907507ac" x="122.530909" y="130.864963" style="fill: #1f77b4; stroke: #1f77b4"/>
     <use xlink:href="#mc9907507ac" x="130.647273" y="137.323992" style="fill: #1f77b4; stroke: #1f77b4"/>
     <use xlink:href="#mc9907507ac" x="138.763636" y="144.558105" style="fill: #1f77b4; stroke: #1f77b4"/>
     <use xlink:href="#mc9907507ac" x="146.88" y="138.874159" style="fill: #1f77b4; stroke: #1f77b4"/>
     <use xlink:href="#mc9907507ac" x="154.996364" y="131.640047" style="fill: #1f77b4; stroke: #1f77b4"/>
     <use xlink:href="#mc9907507ac" x="163.112727" y="129.831518" style="fill: #1f77b4; stroke: #1f77b4"/>
     <use xlink:href="#mc9907507ac" x="171.229091" y="128.798074" style="fill: #1f77b4; stroke: #1f77b4"/>
     <use xlink:href="#mc9907507ac" x="179.345455" y="131.381685" style="fill: #1f77b4; stroke: #1f77b4"/>
     <use xlink:href="#mc9907507ac" x="187.461818" y="131.123324" style="fill: #1f77b4; stroke: #1f77b4"/>
     <use xlink:href="#mc9907507ac" x="195.578182" y="130.348241" style="fill: #1f77b4; stroke: #1f77b4"/>
     <use xlink:href="#mc9907507ac" x="203.694545" y="132.156769" style="fill: #1f77b4; stroke: #1f77b4"/>
     <use xlink:href="#mc9907507ac" x="211.810909" y="132.156769" style="fill: #1f77b4; stroke: #1f77b4"/>
     <use xlink:href="#mc9907507ac" x="219.927273" y="131.640047" style="fill: #1f77b4; stroke: #1f77b4"/>
     <use xlink:href="#mc9907507ac" x="228.043636" y="129.831518" style="fill: #1f77b4; stroke: #1f77b4"/>
     <use xlink:href="#mc9907507ac" x="236.16" y="128.798074" style="fill: #1f77b4; stroke: #1f77b4"/>
     <use xlink:href="#mc9907507ac" x="244.276364" y="131.898408" style="fill: #1f77b4; stroke: #1f77b4"/>
     <use xlink:href="#mc9907507ac" x="252.392727" y="127.506268" style="fill: #1f77b4; stroke: #1f77b4"/>
     <use xlink:href="#mc9907507ac" x="260.509091" y="130.08988" style="fill: #1f77b4; stroke: #1f77b4"/>
     <use xlink:href="#mc9907507ac" x="268.625455" y="136.032186" style="fill: #1f77b4; stroke: #1f77b4"/>
     <use xlink:href="#mc9907507ac" x="276.741818" y="129.056435" style="fill: #1f77b4; stroke: #1f77b4"/>
     <use xlink:href="#mc9907507ac" x="284.858182" y="132.41513" style="fill: #1f77b4; stroke: #1f77b4"/>
     <use xlink:href="#mc9907507ac" x="292.974545" y="128.798074" style="fill: #1f77b4; stroke: #1f77b4"/>
     <use xlink:href="#mc9907507ac" x="301.090909" y="128.02299" style="fill: #1f77b4; stroke: #1f77b4"/>
     <use xlink:href="#mc9907507ac" x="309.207273" y="133.706936" style="fill: #1f77b4; stroke: #1f77b4"/>
     <use xlink:href="#mc9907507ac" x="317.323636" y="129.056435" style="fill: #1f77b4; stroke: #1f77b4"/>
     <use xlink:href="#mc9907507ac" x="325.44" y="171.427666" style="fill: #1f77b4; stroke: #1f77b4"/>
     <use xlink:href="#mc9907507ac" x="333.556364" y="143.52466" style="fill: #1f77b4; stroke: #1f77b4"/>
     <use xlink:href="#mc9907507ac" x="341.672727" y="74.542229" style="fill: #1f77b4; stroke: #1f77b4"/>
     <use xlink:href="#mc9907507ac" x="349.789091" y="131.898408" style="fill: #1f77b4; stroke: #1f77b4"/>
     <use xlink:href="#mc9907507ac" x="357.905455" y="134.998742" style="fill: #1f77b4; stroke: #1f77b4"/>
     <use xlink:href="#mc9907507ac" x="366.021818" y="134.223658" style="fill: #1f77b4; stroke: #1f77b4"/>
     <use xlink:href="#mc9907507ac" x="374.138182" y="130.606602" style="fill: #1f77b4; stroke: #1f77b4"/>
     <use xlink:href="#mc9907507ac" x="382.254545" y="134.482019" style="fill: #1f77b4; stroke: #1f77b4"/>
     <use xlink:href="#mc9907507ac" x="390.370909" y="134.740381" style="fill: #1f77b4; stroke: #1f77b4"/>
     <use xlink:href="#mc9907507ac" x="398.487273" y="291.488099" style="fill: #1f77b4; stroke: #1f77b4"/>
    </g>
   </g>
   <g id="line2d_17">
    <path d="M 73.832727 203.46445 
L 81.949091 132.931852 
L 90.065455 132.673491 
L 98.181818 134.223658 
L 106.298182 129.056435 
L 114.414545 135.773825 
L 122.530909 133.706936 
L 130.647273 131.123324 
L 138.763636 129.056435 
L 146.88 134.482019 
L 154.996364 128.281351 
L 163.112727 133.965297 
L 171.229091 131.898408 
L 179.345455 131.898408 
L 187.461818 135.257103 
L 195.578182 130.08988 
L 203.694545 131.898408 
L 211.810909 130.348241 
L 219.927273 130.348241 
L 228.043636 132.156769 
L 236.16 131.898408 
L 244.276364 131.640047 
L 252.392727 133.448575 
L 260.509091 129.056435 
L 268.625455 136.548909 
L 276.741818 129.314796 
L 284.858182 132.673491 
L 292.974545 132.931852 
L 301.090909 131.123324 
L 309.207273 132.156769 
L 317.323636 132.41513 
L 325.44 138.615798 
L 333.556364 133.965297 
L 341.672727 131.898408 
L 349.789091 130.606602 
L 357.905455 133.190214 
L 366.021818 152.567301 
L 374.138182 109.420986 
L 382.254545 132.673491 
L 390.370909 136.80727 
L 398.487273 107.612458 
" clip-path="url(#pb703abd4da)" style="fill: none; stroke: #ff7f0e; stroke-width: 1.5; stroke-linecap: square"/>
    <defs>
     <path id="m22d0f5db7e" d="M 0 1.5 
C 0.397805 1.5 0.77937 1.341951 1.06066 1.06066 
C 1.341951 0.77937 1.5 0.397805 1.5 0 
C 1.5 -0.397805 1.341951 -0.77937 1.06066 -1.06066 
C 0.77937 -1.341951 0.397805 -1.5 0 -1.5 
C -0.397805 -1.5 -0.77937 -1.341951 -1.06066 -1.06066 
C -1.341951 -0.77937 -1.5 -0.397805 -1.5 0 
C -1.5 0.397805 -1.341951 0.77937 -1.06066 1.06066 
C -0.77937 1.341951 -0.397805 1.5 0 1.5 
z
" style="stroke: #ff7f0e"/>
    </defs>
    <g clip-path="url(#pb703abd4da)">
     <use xlink:href="#m22d0f5db7e" x="73.832727" y="203.46445" style="fill: #ff7f0e; stroke: #ff7f0e"/>
     <use xlink:href="#m22d0f5db7e" x="81.949091" y="132.931852" style="fill: #ff7f0e; stroke: #ff7f0e"/>
     <use xlink:href="#m22d0f5db7e" x="90.065455" y="132.673491" style="fill: #ff7f0e; stroke: #ff7f0e"/>
     <use xlink:href="#m22d0f5db7e" x="98.181818" y="134.223658" style="fill: #ff7f0e; stroke: #ff7f0e"/>
     <use xlink:href="#m22d0f5db7e" x="106.298182" y="129.056435" style="fill: #ff7f0e; stroke: #ff7f0e"/>
     <use xlink:href="#m22d0f5db7e" x="114.414545" y="135.773825" style="fill: #ff7f0e; stroke: #ff7f0e"/>
     <use xlink:href="#m22d0f5db7e" x="122.530909" y="133.706936" style="fill: #ff7f0e; stroke: #ff7f0e"/>
     <use xlink:href="#m22d0f5db7e" x="130.647273" y="131.123324" style="fill: #ff7f0e; stroke: #ff7f0e"/>
     <use xlink:href="#m22d0f5db7e" x="138.763636" y="129.056435" style="fill: #ff7f0e; stroke: #ff7f0e"/>
     <use xlink:href="#m22d0f5db7e" x="146.88" y="134.482019" style="fill: #ff7f0e; stroke: #ff7f0e"/>
     <use xlink:href="#m22d0f5db7e" x="154.996364" y="128.281351" style="fill: #ff7f0e; stroke: #ff7f0e"/>
     <use xlink:href="#m22d0f5db7e" x="163.112727" y="133.965297" style="fill: #ff7f0e; stroke: #ff7f0e"/>
     <use xlink:href="#m22d0f5db7e" x="171.229091" y="131.898408" style="fill: #ff7f0e; stroke: #ff7f0e"/>
     <use xlink:href="#m22d0f5db7e" x="179.345455" y="131.898408" style="fill: #ff7f0e; stroke: #ff7f0e"/>
     <use xlink:href="#m22d0f5db7e" x="187.461818" y="135.257103" style="fill: #ff7f0e; stroke: #ff7f0e"/>
     <use xlink:href="#m22d0f5db7e" x="195.578182" y="130.08988" style="fill: #ff7f0e; stroke: #ff7f0e"/>
     <use xlink:href="#m22d0f5db7e" x="203.694545" y="131.898408" style="fill: #ff7f0e; stroke: #ff7f0e"/>
     <use xlink:href="#m22d0f5db7e" x="211.810909" y="130.348241" style="fill: #ff7f0e; stroke: #ff7f0e"/>
     <use xlink:href="#m22d0f5db7e" x="219.927273" y="130.348241" style="fill: #ff7f0e; stroke: #ff7f0e"/>
     <use xlink:href="#m22d0f5db7e" x="228.043636" y="132.156769" style="fill: #ff7f0e; stroke: #ff7f0e"/>
     <use xlink:href="#m22d0f5db7e" x="236.16" y="131.898408" style="fill: #ff7f0e; stroke: #ff7f0e"/>
     <use xlink:href="#m22d0f5db7e" x="244.276364" y="131.640047" style="fill: #ff7f0e; stroke: #ff7f0e"/>
     <use xlink:href="#m22d0f5db7e" x="252.392727" y="133.448575" style="fill: #ff7f0e; stroke: #ff7f0e"/>
     <use xlink:href="#m22d0f5db7e" x="260.509091" y="129.056435" style="fill: #ff7f0e; stroke: #ff7f0e"/>
     <use xlink:href="#m22d0f5db7e" x="268.625455" y="136.548909" style="fill: #ff7f0e; stroke: #ff7f0e"/>
     <use xlink:href="#m22d0f5db7e" x="276.741818" y="129.314796" style="fill: #ff7f0e; stroke: #ff7f0e"/>
     <use xlink:href="#m22d0f5db7e" x="284.858182" y="132.673491" style="fill: #ff7f0e; stroke: #ff7f0e"/>
     <use xlink:href="#m22d0f5db7e" x="292.974545" y="132.931852" style="fill: #ff7f0e; stroke: #ff7f0e"/>
     <use xlink:href="#m22d0f5db7e" x="301.090909" y="131.123324" style="fill: #ff7f0e; stroke: #ff7f0e"/>
     <use xlink:href="#m22d0f5db7e" x="309.207273" y="132.156769" style="fill: #ff7f0e; stroke: #ff7f0e"/>
     <use xlink:href="#m22d0f5db7e" x="317.323636" y="132.41513" style="fill: #ff7f0e; stroke: #ff7f0e"/>
     <use xlink:href="#m22d0f5db7e" x="325.44" y="138.615798" style="fill: #ff7f0e; stroke: #ff7f0e"/>
     <use xlink:href="#m22d0f5db7e" x="333.556364" y="133.965297" style="fill: #ff7f0e; stroke: #ff7f0e"/>
     <use xlink:href="#m22d0f5db7e" x="341.672727" y="131.898408" style="fill: #ff7f0e; stroke: #ff7f0e"/>
     <use xlink:href="#m22d0f5db7e" x="349.789091" y="130.606602" style="fill: #ff7f0e; stroke: #ff7f0e"/>
     <use xlink:href="#m22d0f5db7e" x="357.905455" y="133.190214" style="fill: #ff7f0e; stroke: #ff7f0e"/>
     <use xlink:href="#m22d0f5db7e" x="366.021818" y="152.567301" style="fill: #ff7f0e; stroke: #ff7f0e"/>
     <use xlink:href="#m22d0f5db7e" x="374.138182" y="109.420986" style="fill: #ff7f0e; stroke: #ff7f0e"/>
     <use xlink:href="#m22d0f5db7e" x="382.254545" y="132.673491" style="fill: #ff7f0e; stroke: #ff7f0e"/>
     <use xlink:href="#m22d0f5db7e" x="390.370909" y="136.80727" style="fill: #ff7f0e; stroke: #ff7f0e"/>
     <use xlink:href="#m22d0f5db7e" x="398.487273" y="107.612458" style="fill: #ff7f0e; stroke: #ff7f0e"/>
    </g>
   </g>
   <g id="line2d_18">
    <path d="M 73.832727 150.758773 
L 81.949091 147.141717 
L 90.065455 144.558105 
L 98.181818 149.466967 
L 106.298182 149.208606 
L 114.414545 146.108272 
L 122.530909 143.783021 
L 130.647273 149.983689 
L 138.763636 154.63419 
L 146.88 134.223658 
L 154.996364 137.582353 
L 163.112727 148.691883 
L 171.229091 149.466967 
L 179.345455 152.050579 
L 187.461818 150.758773 
L 195.578182 145.333188 
L 203.694545 150.500412 
L 211.810909 149.208606 
L 219.927273 145.849911 
L 228.043636 140.424326 
L 236.16 147.141717 
L 244.276364 148.691883 
L 252.392727 138.357437 
L 260.509091 139.649243 
L 268.625455 148.433522 
L 276.741818 146.624994 
L 284.858182 156.70108 
L 292.974545 152.825662 
L 301.090909 158.251247 
L 309.207273 147.400078 
L 317.323636 136.290548 
L 325.44 152.825662 
L 333.556364 145.074827 
L 341.672727 150.500412 
L 349.789091 141.19941 
L 357.905455 130.348241 
L 366.021818 152.825662 
L 374.138182 145.333188 
L 382.254545 145.849911 
L 390.370909 138.357437 
L 398.487273 142.491216 
" clip-path="url(#pb703abd4da)" style="fill: none; stroke: #2ca02c; stroke-width: 1.5; stroke-linecap: square"/>
    <defs>
     <path id="m1ff8715671" d="M 0 1.5 
C 0.397805 1.5 0.77937 1.341951 1.06066 1.06066 
C 1.341951 0.77937 1.5 0.397805 1.5 0 
C 1.5 -0.397805 1.341951 -0.77937 1.06066 -1.06066 
C 0.77937 -1.341951 0.397805 -1.5 0 -1.5 
C -0.397805 -1.5 -0.77937 -1.341951 -1.06066 -1.06066 
C -1.341951 -0.77937 -1.5 -0.397805 -1.5 0 
C -1.5 0.397805 -1.341951 0.77937 -1.06066 1.06066 
C -0.77937 1.341951 -0.397805 1.5 0 1.5 
z
" style="stroke: #2ca02c"/>
    </defs>
    <g clip-path="url(#pb703abd4da)">
     <use xlink:href="#m1ff8715671" x="73.832727" y="150.758773" style="fill: #2ca02c; stroke: #2ca02c"/>
     <use xlink:href="#m1ff8715671" x="81.949091" y="147.141717" style="fill: #2ca02c; stroke: #2ca02c"/>
     <use xlink:href="#m1ff8715671" x="90.065455" y="144.558105" style="fill: #2ca02c; stroke: #2ca02c"/>
     <use xlink:href="#m1ff8715671" x="98.181818" y="149.466967" style="fill: #2ca02c; stroke: #2ca02c"/>
     <use xlink:href="#m1ff8715671" x="106.298182" y="149.208606" style="fill: #2ca02c; stroke: #2ca02c"/>
     <use xlink:href="#m1ff8715671" x="114.414545" y="146.108272" style="fill: #2ca02c; stroke: #2ca02c"/>
     <use xlink:href="#m1ff8715671" x="122.530909" y="143.783021" style="fill: #2ca02c; stroke: #2ca02c"/>
     <use xlink:href="#m1ff8715671" x="130.647273" y="149.983689" style="fill: #2ca02c; stroke: #2ca02c"/>
     <use xlink:href="#m1ff8715671" x="138.763636" y="154.63419" style="fill: #2ca02c; stroke: #2ca02c"/>
     <use xlink:href="#m1ff8715671" x="146.88" y="134.223658" style="fill: #2ca02c; stroke: #2ca02c"/>
     <use xlink:href="#m1ff8715671" x="154.996364" y="137.582353" style="fill: #2ca02c; stroke: #2ca02c"/>
     <use xlink:href="#m1ff8715671" x="163.112727" y="148.691883" style="fill: #2ca02c; stroke: #2ca02c"/>
     <use xlink:href="#m1ff8715671" x="171.229091" y="149.466967" style="fill: #2ca02c; stroke: #2ca02c"/>
     <use xlink:href="#m1ff8715671" x="179.345455" y="152.050579" style="fill: #2ca02c; stroke: #2ca02c"/>
     <use xlink:href="#m1ff8715671" x="187.461818" y="150.758773" style="fill: #2ca02c; stroke: #2ca02c"/>
     <use xlink:href="#m1ff8715671" x="195.578182" y="145.333188" style="fill: #2ca02c; stroke: #2ca02c"/>
     <use xlink:href="#m1ff8715671" x="203.694545" y="150.500412" style="fill: #2ca02c; stroke: #2ca02c"/>
     <use xlink:href="#m1ff8715671" x="211.810909" y="149.208606" style="fill: #2ca02c; stroke: #2ca02c"/>
     <use xlink:href="#m1ff8715671" x="219.927273" y="145.849911" style="fill: #2ca02c; stroke: #2ca02c"/>
     <use xlink:href="#m1ff8715671" x="228.043636" y="140.424326" style="fill: #2ca02c; stroke: #2ca02c"/>
     <use xlink:href="#m1ff8715671" x="236.16" y="147.141717" style="fill: #2ca02c; stroke: #2ca02c"/>
     <use xlink:href="#m1ff8715671" x="244.276364" y="148.691883" style="fill: #2ca02c; stroke: #2ca02c"/>
     <use xlink:href="#m1ff8715671" x="252.392727" y="138.357437" style="fill: #2ca02c; stroke: #2ca02c"/>
     <use xlink:href="#m1ff8715671" x="260.509091" y="139.649243" style="fill: #2ca02c; stroke: #2ca02c"/>
     <use xlink:href="#m1ff8715671" x="268.625455" y="148.433522" style="fill: #2ca02c; stroke: #2ca02c"/>
     <use xlink:href="#m1ff8715671" x="276.741818" y="146.624994" style="fill: #2ca02c; stroke: #2ca02c"/>
     <use xlink:href="#m1ff8715671" x="284.858182" y="156.70108" style="fill: #2ca02c; stroke: #2ca02c"/>
     <use xlink:href="#m1ff8715671" x="292.974545" y="152.825662" style="fill: #2ca02c; stroke: #2ca02c"/>
     <use xlink:href="#m1ff8715671" x="301.090909" y="158.251247" style="fill: #2ca02c; stroke: #2ca02c"/>
     <use xlink:href="#m1ff8715671" x="309.207273" y="147.400078" style="fill: #2ca02c; stroke: #2ca02c"/>
     <use xlink:href="#m1ff8715671" x="317.323636" y="136.290548" style="fill: #2ca02c; stroke: #2ca02c"/>
     <use xlink:href="#m1ff8715671" x="325.44" y="152.825662" style="fill: #2ca02c; stroke: #2ca02c"/>
     <use xlink:href="#m1ff8715671" x="333.556364" y="145.074827" style="fill: #2ca02c; stroke: #2ca02c"/>
     <use xlink:href="#m1ff8715671" x="341.672727" y="150.500412" style="fill: #2ca02c; stroke: #2ca02c"/>
     <use xlink:href="#m1ff8715671" x="349.789091" y="141.19941" style="fill: #2ca02c; stroke: #2ca02c"/>
     <use xlink:href="#m1ff8715671" x="357.905455" y="130.348241" style="fill: #2ca02c; stroke: #2ca02c"/>
     <use xlink:href="#m1ff8715671" x="366.021818" y="152.825662" style="fill: #2ca02c; stroke: #2ca02c"/>
     <use xlink:href="#m1ff8715671" x="374.138182" y="145.333188" style="fill: #2ca02c; stroke: #2ca02c"/>
     <use xlink:href="#m1ff8715671" x="382.254545" y="145.849911" style="fill: #2ca02c; stroke: #2ca02c"/>
     <use xlink:href="#m1ff8715671" x="390.370909" y="138.357437" style="fill: #2ca02c; stroke: #2ca02c"/>
     <use xlink:href="#m1ff8715671" x="398.487273" y="142.491216" style="fill: #2ca02c; stroke: #2ca02c"/>
    </g>
   </g>
   <g id="line2d_19">
    <path d="M 73.832727 278.389188 
L 81.949091 278.905911 
L 90.065455 282.264606 
L 98.181818 278.389188 
L 106.298182 280.197717 
L 114.414545 283.788937 
L 122.530909 281.231161 
L 130.647273 278.905911 
L 138.763636 285.649137 
L 146.88 280.714439 
L 154.996364 282.858837 
L 163.112727 280.9728 
L 171.229091 283.530576 
L 179.345455 279.680994 
L 187.461818 280.714439 
L 195.578182 275.030493 
L 203.694545 283.63392 
L 211.810909 280.456078 
L 219.927273 279.939355 
L 228.043636 281.231161 
L 236.16 281.77372 
L 244.276364 276.58066 
L 252.392727 282.522967 
L 260.509091 280.714439 
L 268.625455 282.36795 
L 276.741818 276.063938 
L 284.858182 285.752482 
L 292.974545 282.187097 
L 301.090909 282.109589 
L 309.207273 280.456078 
L 317.323636 282.600475 
L 325.44 283.96979 
L 333.556364 281.489522 
L 341.672727 276.839021 
L 349.789091 285.752482 
L 357.905455 285.49412 
L 366.021818 284.124806 
L 374.138182 276.58066 
L 382.254545 286.320876 
L 390.370909 278.905911 
L 398.487273 272.18852 
" clip-path="url(#pb703abd4da)" style="fill: none; stroke: #d62728; stroke-width: 1.5; stroke-linecap: square"/>
    <defs>
     <path id="m48dc092f58" d="M 0 1.5 
C 0.397805 1.5 0.77937 1.341951 1.06066 1.06066 
C 1.341951 0.77937 1.5 0.397805 1.5 0 
C 1.5 -0.397805 1.341951 -0.77937 1.06066 -1.06066 
C 0.77937 -1.341951 0.397805 -1.5 0 -1.5 
C -0.397805 -1.5 -0.77937 -1.341951 -1.06066 -1.06066 
C -1.341951 -0.77937 -1.5 -0.397805 -1.5 0 
C -1.5 0.397805 -1.341951 0.77937 -1.06066 1.06066 
C -0.77937 1.341951 -0.397805 1.5 0 1.5 
z
" style="stroke: #d62728"/>
    </defs>
    <g clip-path="url(#pb703abd4da)">
     <use xlink:href="#m48dc092f58" x="73.832727" y="278.389188" style="fill: #d62728; stroke: #d62728"/>
     <use xlink:href="#m48dc092f58" x="81.949091" y="278.905911" style="fill: #d62728; stroke: #d62728"/>
     <use xlink:href="#m48dc092f58" x="90.065455" y="282.264606" style="fill: #d62728; stroke: #d62728"/>
     <use xlink:href="#m48dc092f58" x="98.181818" y="278.389188" style="fill: #d62728; stroke: #d62728"/>
     <use xlink:href="#m48dc092f58" x="106.298182" y="280.197717" style="fill: #d62728; stroke: #d62728"/>
     <use xlink:href="#m48dc092f58" x="114.414545" y="283.788937" style="fill: #d62728; stroke: #d62728"/>
     <use xlink:href="#m48dc092f58" x="122.530909" y="281.231161" style="fill: #d62728; stroke: #d62728"/>
     <use xlink:href="#m48dc092f58" x="130.647273" y="278.905911" style="fill: #d62728; stroke: #d62728"/>
     <use xlink:href="#m48dc092f58" x="138.763636" y="285.649137" style="fill: #d62728; stroke: #d62728"/>
     <use xlink:href="#m48dc092f58" x="146.88" y="280.714439" style="fill: #d62728; stroke: #d62728"/>
     <use xlink:href="#m48dc092f58" x="154.996364" y="282.858837" style="fill: #d62728; stroke: #d62728"/>
     <use xlink:href="#m48dc092f58" x="163.112727" y="280.9728" style="fill: #d62728; stroke: #d62728"/>
     <use xlink:href="#m48dc092f58" x="171.229091" y="283.530576" style="fill: #d62728; stroke: #d62728"/>
     <use xlink:href="#m48dc092f58" x="179.345455" y="279.680994" style="fill: #d62728; stroke: #d62728"/>
     <use xlink:href="#m48dc092f58" x="187.461818" y="280.714439" style="fill: #d62728; stroke: #d62728"/>
     <use xlink:href="#m48dc092f58" x="195.578182" y="275.030493" style="fill: #d62728; stroke: #d62728"/>
     <use xlink:href="#m48dc092f58" x="203.694545" y="283.63392" style="fill: #d62728; stroke: #d62728"/>
     <use xlink:href="#m48dc092f58" x="211.810909" y="280.456078" style="fill: #d62728; stroke: #d62728"/>
     <use xlink:href="#m48dc092f58" x="219.927273" y="279.939355" style="fill: #d62728; stroke: #d62728"/>
     <use xlink:href="#m48dc092f58" x="228.043636" y="281.231161" style="fill: #d62728; stroke: #d62728"/>
     <use xlink:href="#m48dc092f58" x="236.16" y="281.77372" style="fill: #d62728; stroke: #d62728"/>
     <use xlink:href="#m48dc092f58" x="244.276364" y="276.58066" style="fill: #d62728; stroke: #d62728"/>
     <use xlink:href="#m48dc092f58" x="252.392727" y="282.522967" style="fill: #d62728; stroke: #d62728"/>
     <use xlink:href="#m48dc092f58" x="260.509091" y="280.714439" style="fill: #d62728; stroke: #d62728"/>
     <use xlink:href="#m48dc092f58" x="268.625455" y="282.36795" style="fill: #d62728; stroke: #d62728"/>
     <use xlink:href="#m48dc092f58" x="276.741818" y="276.063938" style="fill: #d62728; stroke: #d62728"/>
     <use xlink:href="#m48dc092f58" x="284.858182" y="285.752482" style="fill: #d62728; stroke: #d62728"/>
     <use xlink:href="#m48dc092f58" x="292.974545" y="282.187097" style="fill: #d62728; stroke: #d62728"/>
     <use xlink:href="#m48dc092f58" x="301.090909" y="282.109589" style="fill: #d62728; stroke: #d62728"/>
     <use xlink:href="#m48dc092f58" x="309.207273" y="280.456078" style="fill: #d62728; stroke: #d62728"/>
     <use xlink:href="#m48dc092f58" x="317.323636" y="282.600475" style="fill: #d62728; stroke: #d62728"/>
     <use xlink:href="#m48dc092f58" x="325.44" y="283.96979" style="fill: #d62728; stroke: #d62728"/>
     <use xlink:href="#m48dc092f58" x="333.556364" y="281.489522" style="fill: #d62728; stroke: #d62728"/>
     <use xlink:href="#m48dc092f58" x="341.672727" y="276.839021" style="fill: #d62728; stroke: #d62728"/>
     <use xlink:href="#m48dc092f58" x="349.789091" y="285.752482" style="fill: #d62728; stroke: #d62728"/>
     <use xlink:href="#m48dc092f58" x="357.905455" y="285.49412" style="fill: #d62728; stroke: #d62728"/>
     <use xlink:href="#m48dc092f58" x="366.021818" y="284.124806" style="fill: #d62728; stroke: #d62728"/>
     <use xlink:href="#m48dc092f58" x="374.138182" y="276.58066" style="fill: #d62728; stroke: #d62728"/>
     <use xlink:href="#m48dc092f58" x="382.254545" y="286.320876" style="fill: #d62728; stroke: #d62728"/>
     <use xlink:href="#m48dc092f58" x="390.370909" y="278.905911" style="fill: #d62728; stroke: #d62728"/>
     <use xlink:href="#m48dc092f58" x="398.487273" y="272.18852" style="fill: #d62728; stroke: #d62728"/>
    </g>
   </g>
   <g id="line2d_20">
    <path d="M 73.832727 305.646291 
L 81.949091 268.571464 
L 90.065455 222.066454 
L 98.181818 226.975317 
L 106.298182 238.343208 
L 114.414545 229.558928 
L 122.530909 241.185181 
L 130.647273 241.701903 
L 138.763636 248.677654 
L 146.88 252.811433 
L 154.996364 251.002905 
L 163.112727 263.920963 
L 171.229091 233.692707 
L 179.345455 233.434346 
L 187.461818 212.24873 
L 195.578182 222.324816 
L 203.694545 238.85993 
L 211.810909 224.391705 
L 219.927273 237.568124 
L 228.043636 217.157592 
L 236.16 214.315619 
L 244.276364 278.389188 
L 252.392727 290.997213 
L 260.509091 224.133344 
L 268.625455 210.440202 
L 276.741818 204.239534 
L 284.858182 176.594889 
L 292.974545 145.333188 
L 301.090909 129.314796 
L 309.207273 99.344901 
L 317.323636 85.135037 
L 325.44 177.628334 
L 333.556364 155.150913 
L 341.672727 89.527177 
L 349.789091 121.3056 
L 357.905455 130.606602 
L 366.021818 138.357437 
L 374.138182 144.816466 
L 382.254545 127.764629 
L 390.370909 109.937709 
L 398.487273 67.308117 
" clip-path="url(#pb703abd4da)" style="fill: none; stroke: #9467bd; stroke-width: 1.5; stroke-linecap: square"/>
    <defs>
     <path id="m5ba2864e63" d="M 0 1.5 
C 0.397805 1.5 0.77937 1.341951 1.06066 1.06066 
C 1.341951 0.77937 1.5 0.397805 1.5 0 
C 1.5 -0.397805 1.341951 -0.77937 1.06066 -1.06066 
C 0.77937 -1.341951 0.397805 -1.5 0 -1.5 
C -0.397805 -1.5 -0.77937 -1.341951 -1.06066 -1.06066 
C -1.341951 -0.77937 -1.5 -0.397805 -1.5 0 
C -1.5 0.397805 -1.341951 0.77937 -1.06066 1.06066 
C -0.77937 1.341951 -0.397805 1.5 0 1.5 
z
" style="stroke: #9467bd"/>
    </defs>
    <g clip-path="url(#pb703abd4da)">
     <use xlink:href="#m5ba2864e63" x="73.832727" y="305.646291" style="fill: #9467bd; stroke: #9467bd"/>
     <use xlink:href="#m5ba2864e63" x="81.949091" y="268.571464" style="fill: #9467bd; stroke: #9467bd"/>
     <use xlink:href="#m5ba2864e63" x="90.065455" y="222.066454" style="fill: #9467bd; stroke: #9467bd"/>
     <use xlink:href="#m5ba2864e63" x="98.181818" y="226.975317" style="fill: #9467bd; stroke: #9467bd"/>
     <use xlink:href="#m5ba2864e63" x="106.298182" y="238.343208" style="fill: #9467bd; stroke: #9467bd"/>
     <use xlink:href="#m5ba2864e63" x="114.414545" y="229.558928" style="fill: #9467bd; stroke: #9467bd"/>
     <use xlink:href="#m5ba2864e63" x="122.530909" y="241.185181" style="fill: #9467bd; stroke: #9467bd"/>
     <use xlink:href="#m5ba2864e63" x="130.647273" y="241.701903" style="fill: #9467bd; stroke: #9467bd"/>
     <use xlink:href="#m5ba2864e63" x="138.763636" y="248.677654" style="fill: #9467bd; stroke: #9467bd"/>
     <use xlink:href="#m5ba2864e63" x="146.88" y="252.811433" style="fill: #9467bd; stroke: #9467bd"/>
     <use xlink:href="#m5ba2864e63" x="154.996364" y="251.002905" style="fill: #9467bd; stroke: #9467bd"/>
     <use xlink:href="#m5ba2864e63" x="163.112727" y="263.920963" style="fill: #9467bd; stroke: #9467bd"/>
     <use xlink:href="#m5ba2864e63" x="171.229091" y="233.692707" style="fill: #9467bd; stroke: #9467bd"/>
     <use xlink:href="#m5ba2864e63" x="179.345455" y="233.434346" style="fill: #9467bd; stroke: #9467bd"/>
     <use xlink:href="#m5ba2864e63" x="187.461818" y="212.24873" style="fill: #9467bd; stroke: #9467bd"/>
     <use xlink:href="#m5ba2864e63" x="195.578182" y="222.324816" style="fill: #9467bd; stroke: #9467bd"/>
     <use xlink:href="#m5ba2864e63" x="203.694545" y="238.85993" style="fill: #9467bd; stroke: #9467bd"/>
     <use xlink:href="#m5ba2864e63" x="211.810909" y="224.391705" style="fill: #9467bd; stroke: #9467bd"/>
     <use xlink:href="#m5ba2864e63" x="219.927273" y="237.568124" style="fill: #9467bd; stroke: #9467bd"/>
     <use xlink:href="#m5ba2864e63" x="228.043636" y="217.157592" style="fill: #9467bd; stroke: #9467bd"/>
     <use xlink:href="#m5ba2864e63" x="236.16" y="214.315619" style="fill: #9467bd; stroke: #9467bd"/>
     <use xlink:href="#m5ba2864e63" x="244.276364" y="278.389188" style="fill: #9467bd; stroke: #9467bd"/>
     <use xlink:href="#m5ba2864e63" x="252.392727" y="290.997213" style="fill: #9467bd; stroke: #9467bd"/>
     <use xlink:href="#m5ba2864e63" x="260.509091" y="224.133344" style="fill: #9467bd; stroke: #9467bd"/>
     <use xlink:href="#m5ba2864e63" x="268.625455" y="210.440202" style="fill: #9467bd; stroke: #9467bd"/>
     <use xlink:href="#m5ba2864e63" x="276.741818" y="204.239534" style="fill: #9467bd; stroke: #9467bd"/>
     <use xlink:href="#m5ba2864e63" x="284.858182" y="176.594889" style="fill: #9467bd; stroke: #9467bd"/>
     <use xlink:href="#m5ba2864e63" x="292.974545" y="145.333188" style="fill: #9467bd; stroke: #9467bd"/>
     <use xlink:href="#m5ba2864e63" x="301.090909" y="129.314796" style="fill: #9467bd; stroke: #9467bd"/>
     <use xlink:href="#m5ba2864e63" x="309.207273" y="99.344901" style="fill: #9467bd; stroke: #9467bd"/>
     <use xlink:href="#m5ba2864e63" x="317.323636" y="85.135037" style="fill: #9467bd; stroke: #9467bd"/>
     <use xlink:href="#m5ba2864e63" x="325.44" y="177.628334" style="fill: #9467bd; stroke: #9467bd"/>
     <use xlink:href="#m5ba2864e63" x="333.556364" y="155.150913" style="fill: #9467bd; stroke: #9467bd"/>
     <use xlink:href="#m5ba2864e63" x="341.672727" y="89.527177" style="fill: #9467bd; stroke: #9467bd"/>
     <use xlink:href="#m5ba2864e63" x="349.789091" y="121.3056" style="fill: #9467bd; stroke: #9467bd"/>
     <use xlink:href="#m5ba2864e63" x="357.905455" y="130.606602" style="fill: #9467bd; stroke: #9467bd"/>
     <use xlink:href="#m5ba2864e63" x="366.021818" y="138.357437" style="fill: #9467bd; stroke: #9467bd"/>
     <use xlink:href="#m5ba2864e63" x="374.138182" y="144.816466" style="fill: #9467bd; stroke: #9467bd"/>
     <use xlink:href="#m5ba2864e63" x="382.254545" y="127.764629" style="fill: #9467bd; stroke: #9467bd"/>
     <use xlink:href="#m5ba2864e63" x="390.370909" y="109.937709" style="fill: #9467bd; stroke: #9467bd"/>
     <use xlink:href="#m5ba2864e63" x="398.487273" y="67.308117" style="fill: #9467bd; stroke: #9467bd"/>
    </g>
   </g>
   <g id="patch_3">
    <path d="M 57.6 307.584 
L 57.6 41.472 
" style="fill: none; stroke: #000000; stroke-width: 0.8; stroke-linejoin: miter; stroke-linecap: square"/>
   </g>
   <g id="patch_4">
    <path d="M 414.72 307.584 
L 414.72 41.472 
" style="fill: none; stroke: #000000; stroke-width: 0.8; stroke-linejoin: miter; stroke-linecap: square"/>
   </g>
   <g id="patch_5">
    <path d="M 57.6 307.584 
L 414.72 307.584 
" style="fill: none; stroke: #000000; stroke-width: 0.8; stroke-linejoin: miter; stroke-linecap: square"/>
   </g>
   <g id="patch_6">
    <path d="M 57.6 41.472 
L 414.72 41.472 
" style="fill: none; stroke: #000000; stroke-width: 0.8; stroke-linejoin: miter; stroke-linecap: square"/>
   </g>
   <g id="text_18">
    <!-- Iperf3 throughput analyze -->
    <g transform="translate(162.337344 35.472) scale(0.1 -0.1)">
     <defs>
      <path id="DejaVuSerif-Bold-49" d="M 300 0 
L 300 378 
L 897 378 
L 897 4288 
L 300 4288 
L 300 4666 
L 2700 4666 
L 2700 4288 
L 2100 4288 
L 2100 378 
L 2700 378 
L 2700 0 
L 300 0 
z
" transform="scale(0.015625)"/>
      <path id="DejaVuSerif-Bold-66" d="M 3097 4031 
L 2747 4031 
Q 2722 4275 2605 4394 
Q 2488 4513 2272 4513 
Q 2022 4513 1909 4333 
Q 1797 4153 1797 3750 
L 1797 3322 
L 2631 3322 
L 2631 2944 
L 1797 2944 
L 1797 378 
L 2438 378 
L 2438 0 
L 219 0 
L 219 378 
L 691 378 
L 691 2944 
L 197 2944 
L 197 3322 
L 691 3322 
L 691 3738 
Q 691 4291 1044 4577 
Q 1397 4863 2081 4863 
Q 2347 4863 2600 4833 
Q 2853 4803 3097 4744 
L 3097 4031 
z
" transform="scale(0.015625)"/>
      <path id="DejaVuSerif-Bold-33" d="M 550 4531 
Q 963 4641 1350 4695 
Q 1738 4750 2106 4750 
Q 2950 4750 3401 4448 
Q 3853 4147 3853 3584 
Q 3853 3163 3593 2900 
Q 3334 2638 2834 2547 
Q 3444 2450 3744 2131 
Q 4044 1813 4044 1259 
Q 4044 606 3526 257 
Q 3009 -91 2028 -91 
Q 1659 -91 1267 -28 
Q 875 34 447 159 
L 447 1184 
L 825 1184 
Q 859 741 1103 508 
Q 1347 275 1778 275 
Q 2253 275 2512 539 
Q 2772 803 2772 1288 
Q 2772 1794 2501 2069 
Q 2231 2344 1734 2344 
L 1528 2344 
L 1528 2719 
L 1691 2719 
Q 2150 2719 2381 2931 
Q 2613 3144 2613 3566 
Q 2613 3963 2395 4173 
Q 2178 4384 1772 4384 
Q 1403 4384 1187 4182 
Q 972 3981 928 3597 
L 550 3597 
L 550 4531 
z
" transform="scale(0.015625)"/>
      <path id="DejaVuSerif-Bold-61" d="M 3525 2041 
L 3525 378 
L 4000 378 
L 4000 0 
L 2419 0 
L 2419 422 
Q 2200 159 1931 34 
Q 1663 -91 1319 -91 
Q 809 -91 536 182 
Q 263 456 263 966 
Q 263 1525 655 1803 
Q 1047 2081 1838 2081 
L 2419 2081 
L 2419 2278 
Q 2419 2681 2228 2873 
Q 2038 3066 1638 3066 
Q 1306 3066 1126 2930 
Q 947 2794 872 2484 
L 519 2484 
L 519 3200 
Q 816 3306 1134 3359 
Q 1453 3413 1806 3413 
Q 2697 3413 3111 3081 
Q 3525 2750 3525 2041 
z
M 2419 1044 
L 2419 1709 
L 2003 1709 
Q 1694 1709 1528 1540 
Q 1363 1372 1363 1056 
Q 1363 741 1483 584 
Q 1603 428 1850 428 
Q 2106 428 2262 597 
Q 2419 766 2419 1044 
z
" transform="scale(0.015625)"/>
      <path id="DejaVuSerif-Bold-6e" d="M 219 0 
L 219 378 
L 691 378 
L 691 2944 
L 219 2944 
L 219 3322 
L 1797 3322 
L 1797 2853 
Q 1997 3150 2253 3281 
Q 2509 3413 2900 3413 
Q 3459 3413 3745 3083 
Q 4031 2753 4031 2113 
L 4031 378 
L 4506 378 
L 4506 0 
L 2522 0 
L 2522 378 
L 2925 378 
L 2925 2144 
Q 2925 2566 2817 2730 
Q 2709 2894 2444 2894 
Q 2109 2894 1953 2648 
Q 1797 2403 1797 1869 
L 1797 378 
L 2203 378 
L 2203 0 
L 219 0 
z
" transform="scale(0.015625)"/>
      <path id="DejaVuSerif-Bold-6c" d="M 1797 378 
L 2272 378 
L 2272 0 
L 219 0 
L 219 378 
L 691 378 
L 691 4488 
L 219 4488 
L 219 4863 
L 1797 4863 
L 1797 378 
z
" transform="scale(0.015625)"/>
      <path id="DejaVuSerif-Bold-79" d="M 1997 -750 
Q 1847 -1116 1634 -1269 
Q 1422 -1422 1063 -1422 
Q 909 -1422 721 -1387 
Q 534 -1353 313 -1288 
L 313 -594 
L 666 -597 
Q 675 -838 779 -953 
Q 884 -1069 1094 -1069 
Q 1297 -1069 1422 -958 
Q 1547 -847 1672 -538 
L 1722 -422 
L 275 2944 
L -84 2944 
L -84 3322 
L 1831 3322 
L 1831 2944 
L 1434 2944 
L 2278 978 
L 3066 2944 
L 2625 2944 
L 2625 3322 
L 3872 3322 
L 3872 2944 
L 3469 2944 
L 1997 -750 
z
" transform="scale(0.015625)"/>
      <path id="DejaVuSerif-Bold-7a" d="M 225 0 
L 225 378 
L 2131 2956 
L 697 2956 
L 697 2388 
L 325 2388 
L 325 3322 
L 3419 3322 
L 3419 2950 
L 1509 372 
L 3047 372 
L 3047 972 
L 3419 972 
L 3419 0 
L 225 0 
z
" transform="scale(0.015625)"/>
     </defs>
     <use xlink:href="#DejaVuSerif-Bold-49"/>
     <use xlink:href="#DejaVuSerif-Bold-70" x="46.777344"/>
     <use xlink:href="#DejaVuSerif-Bold-65" x="116.699219"/>
     <use xlink:href="#DejaVuSerif-Bold-72" x="180.322266"/>
     <use xlink:href="#DejaVuSerif-Bold-66" x="233.007812"/>
     <use xlink:href="#DejaVuSerif-Bold-33" x="276.025391"/>
     <use xlink:href="#DejaVuSerif-Bold-20" x="345.605469"/>
     <use xlink:href="#DejaVuSerif-Bold-74" x="380.419922"/>
     <use xlink:href="#DejaVuSerif-Bold-68" x="426.611328"/>
     <use xlink:href="#DejaVuSerif-Bold-72" x="499.316406"/>
     <use xlink:href="#DejaVuSerif-Bold-6f" x="552.001953"/>
     <use xlink:href="#DejaVuSerif-Bold-75" x="618.701172"/>
     <use xlink:href="#DejaVuSerif-Bold-67" x="691.40625"/>
     <use xlink:href="#DejaVuSerif-Bold-68" x="761.328125"/>
     <use xlink:href="#DejaVuSerif-Bold-70" x="834.033203"/>
     <use xlink:href="#DejaVuSerif-Bold-75" x="903.955078"/>
     <use xlink:href="#DejaVuSerif-Bold-74" x="976.660156"/>
     <use xlink:href="#DejaVuSerif-Bold-20" x="1022.851562"/>
     <use xlink:href="#DejaVuSerif-Bold-61" x="1057.666016"/>
     <use xlink:href="#DejaVuSerif-Bold-6e" x="1122.460938"/>
     <use xlink:href="#DejaVuSerif-Bold-61" x="1195.166016"/>
     <use xlink:href="#DejaVuSerif-Bold-6c" x="1259.960938"/>
     <use xlink:href="#DejaVuSerif-Bold-79" x="1297.949219"/>
     <use xlink:href="#DejaVuSerif-Bold-7a" x="1356.054688"/>
     <use xlink:href="#DejaVuSerif-Bold-65" x="1412.841797"/>
    </g>
   </g>
   <g id="legend_1">
    <g id="patch_7">
     <path d="M 329.97375 303.584 
L 409.12 303.584 
Q 410.72 303.584 410.72 301.984 
L 410.72 244.0715 
Q 410.72 242.4715 409.12 242.4715 
L 329.97375 242.4715 
Q 328.37375 242.4715 328.37375 244.0715 
L 328.37375 301.984 
Q 328.37375 303.584 329.97375 303.584 
z
" style="fill: #ffffff; opacity: 0.8; stroke: #cccccc; stroke-linejoin: miter"/>
    </g>
    <g id="line2d_21">
     <path d="M 331.57375 248.95025 
L 339.57375 248.95025 
L 347.57375 248.95025 
" style="fill: none; stroke: #1f77b4; stroke-width: 1.5; stroke-linecap: square"/>
     <g>
      <use xlink:href="#mc9907507ac" x="339.57375" y="248.95025" style="fill: #1f77b4; stroke: #1f77b4"/>
     </g>
    </g>
    <g id="text_19">
     <!-- BTP -->
     <g transform="translate(353.97375 251.75025) scale(0.08 -0.08)">
      <defs>
       <path id="DejaVuSerif-42" d="M 1581 331 
L 2516 331 
Q 3078 331 3337 575 
Q 3597 819 3597 1350 
Q 3597 1878 3339 2120 
Q 3081 2363 2516 2363 
L 1581 2363 
L 1581 331 
z
M 1581 2694 
L 2375 2694 
Q 2888 2694 3123 2891 
Q 3359 3088 3359 3513 
Q 3359 3941 3123 4136 
Q 2888 4331 2375 4331 
L 1581 4331 
L 1581 2694 
z
M 353 0 
L 353 331 
L 947 331 
L 947 4331 
L 353 4331 
L 353 4666 
L 2656 4666 
Q 3363 4666 3720 4377 
Q 4078 4088 4078 3513 
Q 4078 3097 3829 2850 
Q 3581 2603 3103 2547 
Q 3697 2472 4005 2167 
Q 4313 1863 4313 1350 
Q 4313 656 3875 328 
Q 3438 0 2509 0 
L 353 0 
z
" transform="scale(0.015625)"/>
       <path id="DejaVuSerif-54" d="M 1222 0 
L 1222 331 
L 1819 331 
L 1819 4294 
L 447 4294 
L 447 3566 
L 63 3566 
L 63 4666 
L 4206 4666 
L 4206 3566 
L 3822 3566 
L 3822 4294 
L 2450 4294 
L 2450 331 
L 3047 331 
L 3047 0 
L 1222 0 
z
" transform="scale(0.015625)"/>
       <path id="DejaVuSerif-50" d="M 1581 2375 
L 2406 2375 
Q 2872 2375 3115 2626 
Q 3359 2878 3359 3353 
Q 3359 3831 3115 4081 
Q 2872 4331 2406 4331 
L 1581 4331 
L 1581 2375 
z
M 353 0 
L 353 331 
L 947 331 
L 947 4331 
L 353 4331 
L 353 4666 
L 2559 4666 
Q 3259 4666 3668 4311 
Q 4078 3956 4078 3353 
Q 4078 2753 3668 2397 
Q 3259 2041 2559 2041 
L 1581 2041 
L 1581 331 
L 2303 331 
L 2303 0 
L 353 0 
z
" transform="scale(0.015625)"/>
      </defs>
      <use xlink:href="#DejaVuSerif-42"/>
      <use xlink:href="#DejaVuSerif-54" x="73.486328"/>
      <use xlink:href="#DejaVuSerif-50" x="140.185547"/>
     </g>
    </g>
    <g id="line2d_22">
     <path d="M 331.57375 260.69275 
L 339.57375 260.69275 
L 347.57375 260.69275 
" style="fill: none; stroke: #ff7f0e; stroke-width: 1.5; stroke-linecap: square"/>
     <g>
      <use xlink:href="#m22d0f5db7e" x="339.57375" y="260.69275" style="fill: #ff7f0e; stroke: #ff7f0e"/>
     </g>
    </g>
    <g id="text_20">
     <!-- BRTP -->
     <g transform="translate(353.97375 263.49275) scale(0.08 -0.08)">
      <defs>
       <path id="DejaVuSerif-52" d="M 3066 2316 
Q 3284 2256 3442 2114 
Q 3600 1972 3725 1716 
L 4403 331 
L 4972 331 
L 4972 0 
L 3872 0 
L 3144 1484 
Q 2934 1916 2759 2042 
Q 2584 2169 2278 2169 
L 1581 2169 
L 1581 331 
L 2241 331 
L 2241 0 
L 353 0 
L 353 331 
L 947 331 
L 947 4331 
L 353 4331 
L 353 4666 
L 2719 4666 
Q 3400 4666 3770 4341 
Q 4141 4016 4141 3419 
Q 4141 2938 3870 2661 
Q 3600 2384 3066 2316 
z
M 1581 2503 
L 2503 2503 
Q 2975 2503 3200 2726 
Q 3425 2950 3425 3419 
Q 3425 3888 3200 4109 
Q 2975 4331 2503 4331 
L 1581 4331 
L 1581 2503 
z
" transform="scale(0.015625)"/>
      </defs>
      <use xlink:href="#DejaVuSerif-42"/>
      <use xlink:href="#DejaVuSerif-52" x="73.486328"/>
      <use xlink:href="#DejaVuSerif-54" x="147.029297"/>
      <use xlink:href="#DejaVuSerif-50" x="213.728516"/>
     </g>
    </g>
    <g id="line2d_23">
     <path d="M 331.57375 272.43525 
L 339.57375 272.43525 
L 347.57375 272.43525 
" style="fill: none; stroke: #2ca02c; stroke-width: 1.5; stroke-linecap: square"/>
     <g>
      <use xlink:href="#m1ff8715671" x="339.57375" y="272.43525" style="fill: #2ca02c; stroke: #2ca02c"/>
     </g>
    </g>
    <g id="text_21">
     <!-- BRTP-PROXY -->
     <g transform="translate(353.97375 275.23525) scale(0.08 -0.08)">
      <defs>
       <path id="DejaVuSerif-2d" d="M 281 1959 
L 1881 1959 
L 1881 1472 
L 281 1472 
L 281 1959 
z
" transform="scale(0.015625)"/>
       <path id="DejaVuSerif-4f" d="M 2625 244 
Q 3391 244 3781 770 
Q 4172 1297 4172 2328 
Q 4172 3363 3781 3889 
Q 3391 4416 2625 4416 
Q 1856 4416 1465 3889 
Q 1075 3363 1075 2328 
Q 1075 1297 1465 770 
Q 1856 244 2625 244 
z
M 2625 -91 
Q 2150 -91 1751 65 
Q 1353 222 1050 525 
Q 700 875 529 1319 
Q 359 1763 359 2328 
Q 359 2894 529 3339 
Q 700 3784 1050 4134 
Q 1356 4441 1750 4595 
Q 2144 4750 2625 4750 
Q 3641 4750 4266 4084 
Q 4891 3419 4891 2328 
Q 4891 1769 4719 1320 
Q 4547 872 4197 525 
Q 3891 219 3497 64 
Q 3103 -91 2625 -91 
z
" transform="scale(0.015625)"/>
       <path id="DejaVuSerif-58" d="M 2119 1997 
L 978 331 
L 1581 331 
L 1581 0 
L 38 0 
L 38 331 
L 575 331 
L 1919 2291 
L 556 4331 
L 56 4331 
L 56 4666 
L 1906 4666 
L 1906 4331 
L 1356 4331 
L 2356 2828 
L 3384 4331 
L 2784 4331 
L 2784 4666 
L 4313 4666 
L 4313 4331 
L 3788 4331 
L 2553 2534 
L 4025 331 
L 4525 331 
L 4525 0 
L 2675 0 
L 2675 331 
L 3231 331 
L 2119 1997 
z
" transform="scale(0.015625)"/>
       <path id="DejaVuSerif-59" d="M 1209 0 
L 1209 331 
L 1806 331 
L 1806 2009 
L 366 4331 
L -72 4331 
L -72 4666 
L 1663 4666 
L 1663 4331 
L 1119 4331 
L 2284 2444 
L 3450 4331 
L 2925 4331 
L 2925 4666 
L 4281 4666 
L 4281 4331 
L 3841 4331 
L 2438 2069 
L 2438 331 
L 3034 331 
L 3034 0 
L 1209 0 
z
" transform="scale(0.015625)"/>
      </defs>
      <use xlink:href="#DejaVuSerif-42"/>
      <use xlink:href="#DejaVuSerif-52" x="73.486328"/>
      <use xlink:href="#DejaVuSerif-54" x="147.029297"/>
      <use xlink:href="#DejaVuSerif-50" x="213.728516"/>
      <use xlink:href="#DejaVuSerif-2d" x="275.513672"/>
      <use xlink:href="#DejaVuSerif-50" x="309.302734"/>
      <use xlink:href="#DejaVuSerif-52" x="376.587891"/>
      <use xlink:href="#DejaVuSerif-4f" x="451.880859"/>
      <use xlink:href="#DejaVuSerif-58" x="532.113281"/>
      <use xlink:href="#DejaVuSerif-59" x="603.304688"/>
     </g>
    </g>
    <g id="line2d_24">
     <path d="M 331.57375 284.17775 
L 339.57375 284.17775 
L 347.57375 284.17775 
" style="fill: none; stroke: #d62728; stroke-width: 1.5; stroke-linecap: square"/>
     <g>
      <use xlink:href="#m48dc092f58" x="339.57375" y="284.17775" style="fill: #d62728; stroke: #d62728"/>
     </g>
    </g>
    <g id="text_22">
     <!-- KCP -->
     <g transform="translate(353.97375 286.97775) scale(0.08 -0.08)">
      <defs>
       <path id="DejaVuSerif-4b" d="M 353 0 
L 353 331 
L 947 331 
L 947 4331 
L 353 4331 
L 353 4666 
L 2175 4666 
L 2175 4331 
L 1581 4331 
L 1581 2566 
L 3591 4331 
L 3084 4331 
L 3084 4666 
L 4634 4666 
L 4634 4331 
L 4109 4331 
L 2106 2572 
L 4347 331 
L 4878 331 
L 4878 0 
L 3794 0 
L 1581 2216 
L 1581 331 
L 2175 331 
L 2175 0 
L 353 0 
z
" transform="scale(0.015625)"/>
       <path id="DejaVuSerif-43" d="M 4513 1234 
Q 4306 581 3820 245 
Q 3334 -91 2591 -91 
Q 2134 -91 1743 65 
Q 1353 222 1050 525 
Q 700 875 529 1320 
Q 359 1766 359 2328 
Q 359 3416 987 4083 
Q 1616 4750 2644 4750 
Q 3025 4750 3456 4650 
Q 3888 4550 4384 4347 
L 4384 3272 
L 4031 3272 
Q 3916 3859 3567 4137 
Q 3219 4416 2591 4416 
Q 1844 4416 1459 3886 
Q 1075 3356 1075 2328 
Q 1075 1303 1459 773 
Q 1844 244 2591 244 
Q 3113 244 3450 492 
Q 3788 741 3938 1234 
L 4513 1234 
z
" transform="scale(0.015625)"/>
      </defs>
      <use xlink:href="#DejaVuSerif-4b"/>
      <use xlink:href="#DejaVuSerif-43" x="72.082031"/>
      <use xlink:href="#DejaVuSerif-50" x="148.595703"/>
     </g>
    </g>
    <g id="line2d_25">
     <path d="M 331.57375 295.92025 
L 339.57375 295.92025 
L 347.57375 295.92025 
" style="fill: none; stroke: #9467bd; stroke-width: 1.5; stroke-linecap: square"/>
     <g>
      <use xlink:href="#m5ba2864e63" x="339.57375" y="295.92025" style="fill: #9467bd; stroke: #9467bd"/>
     </g>
    </g>
    <g id="text_23">
     <!-- TCP-BBR -->
     <g transform="translate(353.97375 298.72025) scale(0.08 -0.08)">
      <use xlink:href="#DejaVuSerif-54"/>
      <use xlink:href="#DejaVuSerif-43" x="66.699219"/>
      <use xlink:href="#DejaVuSerif-50" x="143.212891"/>
      <use xlink:href="#DejaVuSerif-2d" x="204.998047"/>
      <use xlink:href="#DejaVuSerif-42" x="238.787109"/>
      <use xlink:href="#DejaVuSerif-42" x="312.273438"/>
      <use xlink:href="#DejaVuSerif-52" x="385.759766"/>
     </g>
    </g>
   </g>
  </g>
 </g>
 <defs>
  <clipPath id="pb703abd4da">
   <rect x="57.6" y="41.472" width="357.12" height="266.112"/>
  </clipPath>
 </defs>
</svg>
