<?xml version="1.0" encoding="utf-8" standalone="no"?>
<!DOCTYPE svg PUBLIC "-//W3C//DTD SVG 1.1//EN"
  "http://www.w3.org/Graphics/SVG/1.1/DTD/svg11.dtd">
<svg xmlns:xlink="http://www.w3.org/1999/xlink" width="720pt" height="576pt" viewBox="0 0 720 576" xmlns="http://www.w3.org/2000/svg" version="1.1">
 <metadata>
  <rdf:RDF xmlns:dc="http://purl.org/dc/elements/1.1/" xmlns:cc="http://creativecommons.org/ns#" xmlns:rdf="http://www.w3.org/1999/02/22-rdf-syntax-ns#">
   <cc:Work>
    <dc:type rdf:resource="http://purl.org/dc/dcmitype/StillImage"/>
    <dc:date>2024-08-30T06:49:00.387612</dc:date>
    <dc:format>image/svg+xml</dc:format>
    <dc:creator>
     <cc:Agent>
      <dc:title>Matplotlib v3.9.2, https://matplotlib.org/</dc:title>
     </cc:Agent>
    </dc:creator>
   </cc:Work>
  </rdf:RDF>
 </metadata>
 <defs>
  <style type="text/css">*{stroke-linejoin: round; stroke-linecap: butt}</style>
 </defs>
 <g id="figure_1">
  <g id="patch_1">
   <path d="M 0 576 
L 720 576 
L 720 0 
L 0 0 
z
" style="fill: #ffffff"/>
  </g>
  <g id="axes_1">
   <g id="patch_2">
    <path d="M 55.28 289.312 
L 709.2 289.312 
L 709.2 99.024 
L 55.28 99.024 
z
" style="fill: #ffffff"/>
   </g>
   <g id="matplotlib.axis_1">
    <g id="xtick_1">
     <g id="line2d_1">
      <path d="M 73.114182 289.312 
L 73.114182 99.024 
" clip-path="url(#pca459afd59)" style="fill: none; stroke: #b0b0b0; stroke-width: 0.8; stroke-linecap: square"/>
     </g>
     <g id="line2d_2">
      <defs>
       <path id="maf8d2f93ea" d="M 0 0 
L 0 3.5 
" style="stroke: #000000; stroke-width: 0.8"/>
      </defs>
      <g>
       <use xlink:href="#maf8d2f93ea" x="73.114182" y="289.312" style="stroke: #000000; stroke-width: 0.8"/>
      </g>
     </g>
     <g id="text_1">
      <!-- 0 -->
      <g transform="translate(69.932932 303.910438) scale(0.1 -0.1)">
       <defs>
        <path id="DejaVuSerif-30" d="M 2034 219 
Q 2513 219 2750 744 
Q 2988 1269 2988 2328 
Q 2988 3391 2750 3916 
Q 2513 4441 2034 4441 
Q 1556 4441 1318 3916 
Q 1081 3391 1081 2328 
Q 1081 1269 1318 744 
Q 1556 219 2034 219 
z
M 2034 -91 
Q 1275 -91 848 546 
Q 422 1184 422 2328 
Q 422 3475 848 4112 
Q 1275 4750 2034 4750 
Q 2797 4750 3222 4112 
Q 3647 3475 3647 2328 
Q 3647 1184 3222 546 
Q 2797 -91 2034 -91 
z
" transform="scale(0.015625)"/>
       </defs>
       <use xlink:href="#DejaVuSerif-30"/>
      </g>
     </g>
    </g>
    <g id="xtick_2">
     <g id="line2d_3">
      <path d="M 192.008727 289.312 
L 192.008727 99.024 
" clip-path="url(#pca459afd59)" style="fill: none; stroke: #b0b0b0; stroke-width: 0.8; stroke-linecap: square"/>
     </g>
     <g id="line2d_4">
      <g>
       <use xlink:href="#maf8d2f93ea" x="192.008727" y="289.312" style="stroke: #000000; stroke-width: 0.8"/>
      </g>
     </g>
     <g id="text_2">
      <!-- 10 -->
      <g transform="translate(185.646227 303.910438) scale(0.1 -0.1)">
       <defs>
        <path id="DejaVuSerif-31" d="M 909 0 
L 909 331 
L 1722 331 
L 1722 4213 
L 781 3603 
L 781 4013 
L 1919 4750 
L 2350 4750 
L 2350 331 
L 3163 331 
L 3163 0 
L 909 0 
z
" transform="scale(0.015625)"/>
       </defs>
       <use xlink:href="#DejaVuSerif-31"/>
       <use xlink:href="#DejaVuSerif-30" x="63.623047"/>
      </g>
     </g>
    </g>
    <g id="xtick_3">
     <g id="line2d_5">
      <path d="M 310.903273 289.312 
L 310.903273 99.024 
" clip-path="url(#pca459afd59)" style="fill: none; stroke: #b0b0b0; stroke-width: 0.8; stroke-linecap: square"/>
     </g>
     <g id="line2d_6">
      <g>
       <use xlink:href="#maf8d2f93ea" x="310.903273" y="289.312" style="stroke: #000000; stroke-width: 0.8"/>
      </g>
     </g>
     <g id="text_3">
      <!-- 20 -->
      <g transform="translate(304.540773 303.910438) scale(0.1 -0.1)">
       <defs>
        <path id="DejaVuSerif-32" d="M 819 3553 
L 469 3553 
L 469 4384 
Q 803 4563 1142 4656 
Q 1481 4750 1806 4750 
Q 2534 4750 2956 4397 
Q 3378 4044 3378 3438 
Q 3378 2753 2422 1800 
Q 2347 1728 2309 1691 
L 1131 513 
L 3078 513 
L 3078 1088 
L 3444 1088 
L 3444 0 
L 434 0 
L 434 341 
L 1850 1753 
Q 2319 2222 2519 2614 
Q 2719 3006 2719 3438 
Q 2719 3909 2473 4175 
Q 2228 4441 1797 4441 
Q 1350 4441 1106 4219 
Q 863 3997 819 3553 
z
" transform="scale(0.015625)"/>
       </defs>
       <use xlink:href="#DejaVuSerif-32"/>
       <use xlink:href="#DejaVuSerif-30" x="63.623047"/>
      </g>
     </g>
    </g>
    <g id="xtick_4">
     <g id="line2d_7">
      <path d="M 429.797818 289.312 
L 429.797818 99.024 
" clip-path="url(#pca459afd59)" style="fill: none; stroke: #b0b0b0; stroke-width: 0.8; stroke-linecap: square"/>
     </g>
     <g id="line2d_8">
      <g>
       <use xlink:href="#maf8d2f93ea" x="429.797818" y="289.312" style="stroke: #000000; stroke-width: 0.8"/>
      </g>
     </g>
     <g id="text_4">
      <!-- 30 -->
      <g transform="translate(423.435318 303.910438) scale(0.1 -0.1)">
       <defs>
        <path id="DejaVuSerif-33" d="M 622 4469 
Q 988 4606 1323 4678 
Q 1659 4750 1953 4750 
Q 2638 4750 3022 4454 
Q 3406 4159 3406 3634 
Q 3406 3213 3140 2930 
Q 2875 2647 2388 2547 
Q 2963 2466 3280 2130 
Q 3597 1794 3597 1259 
Q 3597 606 3158 257 
Q 2719 -91 1894 -91 
Q 1528 -91 1179 -12 
Q 831 66 488 225 
L 488 1131 
L 838 1131 
Q 869 681 1141 450 
Q 1413 219 1906 219 
Q 2384 219 2661 495 
Q 2938 772 2938 1253 
Q 2938 1803 2653 2086 
Q 2369 2369 1819 2369 
L 1522 2369 
L 1522 2688 
L 1678 2688 
Q 2225 2688 2498 2914 
Q 2772 3141 2772 3597 
Q 2772 4006 2547 4223 
Q 2322 4441 1900 4441 
Q 1478 4441 1245 4241 
Q 1013 4041 972 3647 
L 622 3647 
L 622 4469 
z
" transform="scale(0.015625)"/>
       </defs>
       <use xlink:href="#DejaVuSerif-33"/>
       <use xlink:href="#DejaVuSerif-30" x="63.623047"/>
      </g>
     </g>
    </g>
    <g id="xtick_5">
     <g id="line2d_9">
      <path d="M 548.692364 289.312 
L 548.692364 99.024 
" clip-path="url(#pca459afd59)" style="fill: none; stroke: #b0b0b0; stroke-width: 0.8; stroke-linecap: square"/>
     </g>
     <g id="line2d_10">
      <g>
       <use xlink:href="#maf8d2f93ea" x="548.692364" y="289.312" style="stroke: #000000; stroke-width: 0.8"/>
      </g>
     </g>
     <g id="text_5">
      <!-- 40 -->
      <g transform="translate(542.329864 303.910438) scale(0.1 -0.1)">
       <defs>
        <path id="DejaVuSerif-34" d="M 2234 1581 
L 2234 4063 
L 641 1581 
L 2234 1581 
z
M 3609 0 
L 1484 0 
L 1484 331 
L 2234 331 
L 2234 1247 
L 197 1247 
L 197 1588 
L 2241 4750 
L 2859 4750 
L 2859 1581 
L 3750 1581 
L 3750 1247 
L 2859 1247 
L 2859 331 
L 3609 331 
L 3609 0 
z
" transform="scale(0.015625)"/>
       </defs>
       <use xlink:href="#DejaVuSerif-34"/>
       <use xlink:href="#DejaVuSerif-30" x="63.623047"/>
      </g>
     </g>
    </g>
    <g id="xtick_6">
     <g id="line2d_11">
      <path d="M 667.586909 289.312 
L 667.586909 99.024 
" clip-path="url(#pca459afd59)" style="fill: none; stroke: #b0b0b0; stroke-width: 0.8; stroke-linecap: square"/>
     </g>
     <g id="line2d_12">
      <g>
       <use xlink:href="#maf8d2f93ea" x="667.586909" y="289.312" style="stroke: #000000; stroke-width: 0.8"/>
      </g>
     </g>
     <g id="text_6">
      <!-- 50 -->
      <g transform="translate(661.224409 303.910438) scale(0.1 -0.1)">
       <defs>
        <path id="DejaVuSerif-35" d="M 3219 4666 
L 3219 4153 
L 1081 4153 
L 1081 2816 
Q 1244 2928 1461 2984 
Q 1678 3041 1947 3041 
Q 2703 3041 3140 2622 
Q 3578 2203 3578 1478 
Q 3578 738 3136 323 
Q 2694 -91 1894 -91 
Q 1572 -91 1234 -12 
Q 897 66 544 225 
L 544 1131 
L 897 1131 
Q 925 688 1179 453 
Q 1434 219 1894 219 
Q 2388 219 2653 544 
Q 2919 869 2919 1478 
Q 2919 2084 2655 2407 
Q 2391 2731 1894 2731 
Q 1613 2731 1398 2631 
Q 1184 2531 1019 2322 
L 750 2322 
L 750 4666 
L 3219 4666 
z
" transform="scale(0.015625)"/>
       </defs>
       <use xlink:href="#DejaVuSerif-35"/>
       <use xlink:href="#DejaVuSerif-30" x="63.623047"/>
      </g>
     </g>
    </g>
    <g id="text_7">
     <!-- Time (s) -->
     <g transform="translate(363.617734 316.828719) scale(0.09 -0.09)">
      <defs>
       <path id="DejaVuSerif-54" d="M 1222 0 
L 1222 331 
L 1819 331 
L 1819 4294 
L 447 4294 
L 447 3566 
L 63 3566 
L 63 4666 
L 4206 4666 
L 4206 3566 
L 3822 3566 
L 3822 4294 
L 2450 4294 
L 2450 331 
L 3047 331 
L 3047 0 
L 1222 0 
z
" transform="scale(0.015625)"/>
       <path id="DejaVuSerif-69" d="M 622 4353 
Q 622 4497 726 4603 
Q 831 4709 978 4709 
Q 1122 4709 1226 4603 
Q 1331 4497 1331 4353 
Q 1331 4206 1228 4103 
Q 1125 4000 978 4000 
Q 831 4000 726 4103 
Q 622 4206 622 4353 
z
M 1356 331 
L 1900 331 
L 1900 0 
L 231 0 
L 231 331 
L 781 331 
L 781 2988 
L 231 2988 
L 231 3322 
L 1356 3322 
L 1356 331 
z
" transform="scale(0.015625)"/>
       <path id="DejaVuSerif-6d" d="M 3316 2675 
Q 3481 3041 3739 3227 
Q 3997 3413 4341 3413 
Q 4863 3413 5119 3089 
Q 5375 2766 5375 2113 
L 5375 331 
L 5894 331 
L 5894 0 
L 4300 0 
L 4300 331 
L 4800 331 
L 4800 2047 
Q 4800 2556 4650 2772 
Q 4500 2988 4153 2988 
Q 3769 2988 3567 2697 
Q 3366 2406 3366 1850 
L 3366 331 
L 3866 331 
L 3866 0 
L 2291 0 
L 2291 331 
L 2791 331 
L 2791 2069 
Q 2791 2566 2641 2777 
Q 2491 2988 2144 2988 
Q 1759 2988 1557 2697 
Q 1356 2406 1356 1850 
L 1356 331 
L 1856 331 
L 1856 0 
L 263 0 
L 263 331 
L 781 331 
L 781 2994 
L 231 2994 
L 231 3322 
L 1356 3322 
L 1356 2731 
Q 1516 3063 1762 3238 
Q 2009 3413 2322 3413 
Q 2709 3413 2968 3220 
Q 3228 3028 3316 2675 
z
" transform="scale(0.015625)"/>
       <path id="DejaVuSerif-65" d="M 3469 1600 
L 991 1600 
L 991 1575 
Q 991 903 1244 561 
Q 1497 219 1991 219 
Q 2369 219 2611 417 
Q 2853 616 2950 1006 
L 3413 1006 
Q 3275 459 2904 184 
Q 2534 -91 1931 -91 
Q 1203 -91 761 389 
Q 319 869 319 1663 
Q 319 2450 753 2931 
Q 1188 3413 1894 3413 
Q 2647 3413 3050 2948 
Q 3453 2484 3469 1600 
z
M 2791 1931 
Q 2772 2513 2545 2808 
Q 2319 3103 1894 3103 
Q 1497 3103 1269 2806 
Q 1041 2509 991 1931 
L 2791 1931 
z
" transform="scale(0.015625)"/>
       <path id="DejaVuSerif-20" transform="scale(0.015625)"/>
       <path id="DejaVuSerif-28" d="M 2041 -997 
Q 1281 -656 893 83 
Q 506 822 506 1931 
Q 506 3044 893 3783 
Q 1281 4522 2041 4863 
L 2041 4556 
Q 1559 4225 1350 3623 
Q 1141 3022 1141 1931 
Q 1141 844 1350 242 
Q 1559 -359 2041 -691 
L 2041 -997 
z
" transform="scale(0.015625)"/>
       <path id="DejaVuSerif-73" d="M 359 184 
L 359 959 
L 691 959 
Q 703 588 923 403 
Q 1144 219 1575 219 
Q 1963 219 2166 364 
Q 2369 509 2369 788 
Q 2369 1006 2220 1140 
Q 2072 1275 1594 1428 
L 1178 1569 
Q 750 1706 558 1912 
Q 366 2119 366 2438 
Q 366 2894 700 3153 
Q 1034 3413 1625 3413 
Q 1888 3413 2178 3344 
Q 2469 3275 2778 3144 
L 2778 2419 
L 2447 2419 
Q 2434 2741 2221 2922 
Q 2009 3103 1644 3103 
Q 1281 3103 1095 2975 
Q 909 2847 909 2591 
Q 909 2381 1050 2254 
Q 1191 2128 1613 1997 
L 2069 1856 
Q 2541 1709 2748 1489 
Q 2956 1269 2956 922 
Q 2956 450 2595 179 
Q 2234 -91 1600 -91 
Q 1278 -91 972 -22 
Q 666 47 359 184 
z
" transform="scale(0.015625)"/>
       <path id="DejaVuSerif-29" d="M 453 -997 
L 453 -691 
Q 934 -359 1145 242 
Q 1356 844 1356 1931 
Q 1356 3022 1145 3623 
Q 934 4225 453 4556 
L 453 4863 
Q 1216 4522 1603 3783 
Q 1991 3044 1991 1931 
Q 1991 822 1603 83 
Q 1216 -656 453 -997 
z
" transform="scale(0.015625)"/>
      </defs>
      <use xlink:href="#DejaVuSerif-54"/>
      <use xlink:href="#DejaVuSerif-69" x="66.699219"/>
      <use xlink:href="#DejaVuSerif-6d" x="98.681641"/>
      <use xlink:href="#DejaVuSerif-65" x="193.505859"/>
      <use xlink:href="#DejaVuSerif-20" x="252.685547"/>
      <use xlink:href="#DejaVuSerif-28" x="284.472656"/>
      <use xlink:href="#DejaVuSerif-73" x="323.486328"/>
      <use xlink:href="#DejaVuSerif-29" x="374.804688"/>
     </g>
    </g>
   </g>
   <g id="matplotlib.axis_2">
    <g id="ytick_1">
     <g id="line2d_13">
      <path d="M 55.28 270.2832 
L 709.2 270.2832 
" clip-path="url(#pca459afd59)" style="fill: none; stroke: #b0b0b0; stroke-width: 0.8; stroke-linecap: square"/>
     </g>
     <g id="line2d_14">
      <defs>
       <path id="ma31c9e4b28" d="M 0 0 
L -3.5 0 
" style="stroke: #000000; stroke-width: 0.8"/>
      </defs>
      <g>
       <use xlink:href="#ma31c9e4b28" x="55.28" y="270.2832" style="stroke: #000000; stroke-width: 0.8"/>
      </g>
     </g>
     <g id="text_8">
      <!-- −0.4 -->
      <g transform="translate(23.997187 274.082419) scale(0.1 -0.1)">
       <defs>
        <path id="DejaVuSerif-2212" d="M 678 2259 
L 4684 2259 
L 4684 1753 
L 678 1753 
L 678 2259 
z
" transform="scale(0.015625)"/>
        <path id="DejaVuSerif-2e" d="M 603 325 
Q 603 500 722 622 
Q 841 744 1019 744 
Q 1191 744 1312 622 
Q 1434 500 1434 325 
Q 1434 153 1312 31 
Q 1191 -91 1019 -91 
Q 841 -91 722 29 
Q 603 150 603 325 
z
" transform="scale(0.015625)"/>
       </defs>
       <use xlink:href="#DejaVuSerif-2212"/>
       <use xlink:href="#DejaVuSerif-30" x="83.789062"/>
       <use xlink:href="#DejaVuSerif-2e" x="147.412109"/>
       <use xlink:href="#DejaVuSerif-34" x="179.199219"/>
      </g>
     </g>
    </g>
    <g id="ytick_2">
     <g id="line2d_15">
      <path d="M 55.28 232.2256 
L 709.2 232.2256 
" clip-path="url(#pca459afd59)" style="fill: none; stroke: #b0b0b0; stroke-width: 0.8; stroke-linecap: square"/>
     </g>
     <g id="line2d_16">
      <g>
       <use xlink:href="#ma31c9e4b28" x="55.28" y="232.2256" style="stroke: #000000; stroke-width: 0.8"/>
      </g>
     </g>
     <g id="text_9">
      <!-- −0.2 -->
      <g transform="translate(23.997187 236.024819) scale(0.1 -0.1)">
       <use xlink:href="#DejaVuSerif-2212"/>
       <use xlink:href="#DejaVuSerif-30" x="83.789062"/>
       <use xlink:href="#DejaVuSerif-2e" x="147.412109"/>
       <use xlink:href="#DejaVuSerif-32" x="179.199219"/>
      </g>
     </g>
    </g>
    <g id="ytick_3">
     <g id="line2d_17">
      <path d="M 55.28 194.168 
L 709.2 194.168 
" clip-path="url(#pca459afd59)" style="fill: none; stroke: #b0b0b0; stroke-width: 0.8; stroke-linecap: square"/>
     </g>
     <g id="line2d_18">
      <g>
       <use xlink:href="#ma31c9e4b28" x="55.28" y="194.168" style="stroke: #000000; stroke-width: 0.8"/>
      </g>
     </g>
     <g id="text_10">
      <!-- 0.0 -->
      <g transform="translate(32.376875 197.967219) scale(0.1 -0.1)">
       <use xlink:href="#DejaVuSerif-30"/>
       <use xlink:href="#DejaVuSerif-2e" x="63.623047"/>
       <use xlink:href="#DejaVuSerif-30" x="95.410156"/>
      </g>
     </g>
    </g>
    <g id="ytick_4">
     <g id="line2d_19">
      <path d="M 55.28 156.1104 
L 709.2 156.1104 
" clip-path="url(#pca459afd59)" style="fill: none; stroke: #b0b0b0; stroke-width: 0.8; stroke-linecap: square"/>
     </g>
     <g id="line2d_20">
      <g>
       <use xlink:href="#ma31c9e4b28" x="55.28" y="156.1104" style="stroke: #000000; stroke-width: 0.8"/>
      </g>
     </g>
     <g id="text_11">
      <!-- 0.2 -->
      <g transform="translate(32.376875 159.909619) scale(0.1 -0.1)">
       <use xlink:href="#DejaVuSerif-30"/>
       <use xlink:href="#DejaVuSerif-2e" x="63.623047"/>
       <use xlink:href="#DejaVuSerif-32" x="95.410156"/>
      </g>
     </g>
    </g>
    <g id="ytick_5">
     <g id="line2d_21">
      <path d="M 55.28 118.0528 
L 709.2 118.0528 
" clip-path="url(#pca459afd59)" style="fill: none; stroke: #b0b0b0; stroke-width: 0.8; stroke-linecap: square"/>
     </g>
     <g id="line2d_22">
      <g>
       <use xlink:href="#ma31c9e4b28" x="55.28" y="118.0528" style="stroke: #000000; stroke-width: 0.8"/>
      </g>
     </g>
     <g id="text_12">
      <!-- 0.4 -->
      <g transform="translate(32.376875 121.852019) scale(0.1 -0.1)">
       <use xlink:href="#DejaVuSerif-30"/>
       <use xlink:href="#DejaVuSerif-2e" x="63.623047"/>
       <use xlink:href="#DejaVuSerif-34" x="95.410156"/>
      </g>
     </g>
    </g>
    <g id="text_13">
     <!-- Loss Rate (%) -->
     <g transform="translate(18.125469 225.775578) rotate(-90) scale(0.09 -0.09)">
      <defs>
       <path id="DejaVuSerif-4c" d="M 353 0 
L 353 331 
L 947 331 
L 947 4331 
L 353 4331 
L 353 4666 
L 2175 4666 
L 2175 4331 
L 1581 4331 
L 1581 384 
L 3713 384 
L 3713 1166 
L 4097 1166 
L 4097 0 
L 353 0 
z
" transform="scale(0.015625)"/>
       <path id="DejaVuSerif-6f" d="M 1925 219 
Q 2388 219 2623 584 
Q 2859 950 2859 1663 
Q 2859 2375 2623 2739 
Q 2388 3103 1925 3103 
Q 1463 3103 1227 2739 
Q 991 2375 991 1663 
Q 991 950 1228 584 
Q 1466 219 1925 219 
z
M 1925 -91 
Q 1200 -91 759 389 
Q 319 869 319 1663 
Q 319 2456 758 2934 
Q 1197 3413 1925 3413 
Q 2653 3413 3092 2934 
Q 3531 2456 3531 1663 
Q 3531 869 3092 389 
Q 2653 -91 1925 -91 
z
" transform="scale(0.015625)"/>
       <path id="DejaVuSerif-52" d="M 3066 2316 
Q 3284 2256 3442 2114 
Q 3600 1972 3725 1716 
L 4403 331 
L 4972 331 
L 4972 0 
L 3872 0 
L 3144 1484 
Q 2934 1916 2759 2042 
Q 2584 2169 2278 2169 
L 1581 2169 
L 1581 331 
L 2241 331 
L 2241 0 
L 353 0 
L 353 331 
L 947 331 
L 947 4331 
L 353 4331 
L 353 4666 
L 2719 4666 
Q 3400 4666 3770 4341 
Q 4141 4016 4141 3419 
Q 4141 2938 3870 2661 
Q 3600 2384 3066 2316 
z
M 1581 2503 
L 2503 2503 
Q 2975 2503 3200 2726 
Q 3425 2950 3425 3419 
Q 3425 3888 3200 4109 
Q 2975 4331 2503 4331 
L 1581 4331 
L 1581 2503 
z
" transform="scale(0.015625)"/>
       <path id="DejaVuSerif-61" d="M 2547 1044 
L 2547 1747 
L 1806 1747 
Q 1378 1747 1168 1562 
Q 959 1378 959 997 
Q 959 650 1171 447 
Q 1384 244 1747 244 
Q 2106 244 2326 466 
Q 2547 688 2547 1044 
z
M 3122 2075 
L 3122 331 
L 3634 331 
L 3634 0 
L 2547 0 
L 2547 359 
Q 2356 128 2106 18 
Q 1856 -91 1522 -91 
Q 969 -91 644 203 
Q 319 497 319 997 
Q 319 1513 691 1797 
Q 1063 2081 1741 2081 
L 2547 2081 
L 2547 2309 
Q 2547 2688 2317 2895 
Q 2088 3103 1672 3103 
Q 1328 3103 1125 2947 
Q 922 2791 872 2484 
L 575 2484 
L 575 3156 
Q 875 3284 1158 3348 
Q 1441 3413 1709 3413 
Q 2400 3413 2761 3070 
Q 3122 2728 3122 2075 
z
" transform="scale(0.015625)"/>
       <path id="DejaVuSerif-74" d="M 691 2988 
L 184 2988 
L 184 3322 
L 691 3322 
L 691 4353 
L 1269 4353 
L 1269 3322 
L 2350 3322 
L 2350 2988 
L 1269 2988 
L 1269 878 
Q 1269 456 1350 337 
Q 1431 219 1650 219 
Q 1875 219 1978 351 
Q 2081 484 2088 781 
L 2522 781 
Q 2497 328 2275 118 
Q 2053 -91 1600 -91 
Q 1103 -91 897 129 
Q 691 350 691 878 
L 691 2988 
z
" transform="scale(0.015625)"/>
       <path id="DejaVuSerif-25" d="M 1434 4459 
Q 1159 4459 1004 4200 
Q 850 3941 850 3475 
Q 850 3016 1008 2753 
Q 1166 2491 1434 2491 
Q 1700 2491 1854 2752 
Q 2009 3013 2009 3475 
Q 2009 3938 1854 4198 
Q 1700 4459 1434 4459 
z
M 4653 2169 
Q 4381 2169 4226 1906 
Q 4072 1644 4072 1178 
Q 4072 719 4228 458 
Q 4384 197 4653 197 
Q 4922 197 5075 458 
Q 5228 719 5228 1178 
Q 5228 1641 5073 1905 
Q 4919 2169 4653 2169 
z
M 4653 2450 
Q 5147 2450 5437 2106 
Q 5728 1763 5728 1178 
Q 5728 594 5436 251 
Q 5144 -91 4653 -91 
Q 4153 -91 3862 251 
Q 3572 594 3572 1178 
Q 3572 1766 3864 2108 
Q 4156 2450 4653 2450 
z
M 4263 4750 
L 4738 4750 
L 1819 -91 
L 1344 -91 
L 4263 4750 
z
M 1428 4750 
Q 1922 4750 2215 4408 
Q 2509 4066 2509 3481 
Q 2509 2891 2217 2550 
Q 1925 2209 1428 2209 
Q 931 2209 642 2551 
Q 353 2894 353 3481 
Q 353 4063 643 4406 
Q 934 4750 1428 4750 
z
" transform="scale(0.015625)"/>
      </defs>
      <use xlink:href="#DejaVuSerif-4c"/>
      <use xlink:href="#DejaVuSerif-6f" x="66.40625"/>
      <use xlink:href="#DejaVuSerif-73" x="126.611328"/>
      <use xlink:href="#DejaVuSerif-73" x="177.929688"/>
      <use xlink:href="#DejaVuSerif-20" x="229.248047"/>
      <use xlink:href="#DejaVuSerif-52" x="261.035156"/>
      <use xlink:href="#DejaVuSerif-61" x="338.578125"/>
      <use xlink:href="#DejaVuSerif-74" x="398.197266"/>
      <use xlink:href="#DejaVuSerif-65" x="438.382812"/>
      <use xlink:href="#DejaVuSerif-20" x="497.5625"/>
      <use xlink:href="#DejaVuSerif-28" x="529.349609"/>
      <use xlink:href="#DejaVuSerif-25" x="568.363281"/>
      <use xlink:href="#DejaVuSerif-29" x="663.382812"/>
     </g>
    </g>
   </g>
   <g id="line2d_23">
    <path d="M 85.003636 194.168 
L 96.893091 194.168 
L 108.782545 194.168 
L 120.672 106.63552 
L 132.561455 281.70048 
L 144.450909 150.40176 
L 156.340364 237.93424 
L 168.229818 194.168 
L 180.119273 194.168 
L 192.008727 194.168 
L 203.898182 150.40176 
L 215.787636 237.93424 
L 227.677091 150.40176 
L 239.566545 237.93424 
L 251.456 194.168 
L 263.345455 194.168 
L 275.234909 194.168 
L 287.124364 194.168 
L 299.013818 194.168 
L 310.903273 194.168 
L 322.792727 194.168 
L 334.682182 194.168 
L 346.571636 194.168 
L 358.461091 194.168 
L 370.350545 194.168 
L 382.24 194.168 
L 394.129455 194.168 
L 406.018909 194.168 
L 417.908364 194.168 
L 429.797818 194.168 
L 441.687273 194.168 
L 453.576727 194.168 
L 465.466182 194.168 
L 477.355636 194.168 
L 489.245091 116.14992 
L 501.134545 272.18608 
L 513.024 194.168 
L 524.913455 194.168 
L 536.802909 194.168 
L 548.692364 194.168 
L 560.581818 194.168 
L 572.471273 194.168 
L 584.360727 194.168 
L 596.250182 194.168 
L 608.139636 194.168 
L 620.029091 194.168 
L 631.918545 194.168 
L 643.808 194.168 
L 655.697455 194.168 
L 667.586909 194.168 
L 679.476364 194.168 
" clip-path="url(#pca459afd59)" style="fill: none; stroke: #1f77b4; stroke-width: 1.5; stroke-linecap: square"/>
    <defs>
     <path id="m2d6775e175" d="M 0 2 
C 0.530406 2 1.03916 1.789267 1.414214 1.414214 
C 1.789267 1.03916 2 0.530406 2 0 
C 2 -0.530406 1.789267 -1.03916 1.414214 -1.414214 
C 1.03916 -1.789267 0.530406 -2 0 -2 
C -0.530406 -2 -1.03916 -1.789267 -1.414214 -1.414214 
C -1.789267 -1.03916 -2 -0.530406 -2 0 
C -2 0.530406 -1.789267 1.03916 -1.414214 1.414214 
C -1.03916 1.789267 -0.530406 2 0 2 
z
" style="stroke: #1f77b4"/>
    </defs>
    <g clip-path="url(#pca459afd59)">
     <use xlink:href="#m2d6775e175" x="85.003636" y="194.168" style="fill: #1f77b4; stroke: #1f77b4"/>
     <use xlink:href="#m2d6775e175" x="96.893091" y="194.168" style="fill: #1f77b4; stroke: #1f77b4"/>
     <use xlink:href="#m2d6775e175" x="108.782545" y="194.168" style="fill: #1f77b4; stroke: #1f77b4"/>
     <use xlink:href="#m2d6775e175" x="120.672" y="106.63552" style="fill: #1f77b4; stroke: #1f77b4"/>
     <use xlink:href="#m2d6775e175" x="132.561455" y="281.70048" style="fill: #1f77b4; stroke: #1f77b4"/>
     <use xlink:href="#m2d6775e175" x="144.450909" y="150.40176" style="fill: #1f77b4; stroke: #1f77b4"/>
     <use xlink:href="#m2d6775e175" x="156.340364" y="237.93424" style="fill: #1f77b4; stroke: #1f77b4"/>
     <use xlink:href="#m2d6775e175" x="168.229818" y="194.168" style="fill: #1f77b4; stroke: #1f77b4"/>
     <use xlink:href="#m2d6775e175" x="180.119273" y="194.168" style="fill: #1f77b4; stroke: #1f77b4"/>
     <use xlink:href="#m2d6775e175" x="192.008727" y="194.168" style="fill: #1f77b4; stroke: #1f77b4"/>
     <use xlink:href="#m2d6775e175" x="203.898182" y="150.40176" style="fill: #1f77b4; stroke: #1f77b4"/>
     <use xlink:href="#m2d6775e175" x="215.787636" y="237.93424" style="fill: #1f77b4; stroke: #1f77b4"/>
     <use xlink:href="#m2d6775e175" x="227.677091" y="150.40176" style="fill: #1f77b4; stroke: #1f77b4"/>
     <use xlink:href="#m2d6775e175" x="239.566545" y="237.93424" style="fill: #1f77b4; stroke: #1f77b4"/>
     <use xlink:href="#m2d6775e175" x="251.456" y="194.168" style="fill: #1f77b4; stroke: #1f77b4"/>
     <use xlink:href="#m2d6775e175" x="263.345455" y="194.168" style="fill: #1f77b4; stroke: #1f77b4"/>
     <use xlink:href="#m2d6775e175" x="275.234909" y="194.168" style="fill: #1f77b4; stroke: #1f77b4"/>
     <use xlink:href="#m2d6775e175" x="287.124364" y="194.168" style="fill: #1f77b4; stroke: #1f77b4"/>
     <use xlink:href="#m2d6775e175" x="299.013818" y="194.168" style="fill: #1f77b4; stroke: #1f77b4"/>
     <use xlink:href="#m2d6775e175" x="310.903273" y="194.168" style="fill: #1f77b4; stroke: #1f77b4"/>
     <use xlink:href="#m2d6775e175" x="322.792727" y="194.168" style="fill: #1f77b4; stroke: #1f77b4"/>
     <use xlink:href="#m2d6775e175" x="334.682182" y="194.168" style="fill: #1f77b4; stroke: #1f77b4"/>
     <use xlink:href="#m2d6775e175" x="346.571636" y="194.168" style="fill: #1f77b4; stroke: #1f77b4"/>
     <use xlink:href="#m2d6775e175" x="358.461091" y="194.168" style="fill: #1f77b4; stroke: #1f77b4"/>
     <use xlink:href="#m2d6775e175" x="370.350545" y="194.168" style="fill: #1f77b4; stroke: #1f77b4"/>
     <use xlink:href="#m2d6775e175" x="382.24" y="194.168" style="fill: #1f77b4; stroke: #1f77b4"/>
     <use xlink:href="#m2d6775e175" x="394.129455" y="194.168" style="fill: #1f77b4; stroke: #1f77b4"/>
     <use xlink:href="#m2d6775e175" x="406.018909" y="194.168" style="fill: #1f77b4; stroke: #1f77b4"/>
     <use xlink:href="#m2d6775e175" x="417.908364" y="194.168" style="fill: #1f77b4; stroke: #1f77b4"/>
     <use xlink:href="#m2d6775e175" x="429.797818" y="194.168" style="fill: #1f77b4; stroke: #1f77b4"/>
     <use xlink:href="#m2d6775e175" x="441.687273" y="194.168" style="fill: #1f77b4; stroke: #1f77b4"/>
     <use xlink:href="#m2d6775e175" x="453.576727" y="194.168" style="fill: #1f77b4; stroke: #1f77b4"/>
     <use xlink:href="#m2d6775e175" x="465.466182" y="194.168" style="fill: #1f77b4; stroke: #1f77b4"/>
     <use xlink:href="#m2d6775e175" x="477.355636" y="194.168" style="fill: #1f77b4; stroke: #1f77b4"/>
     <use xlink:href="#m2d6775e175" x="489.245091" y="116.14992" style="fill: #1f77b4; stroke: #1f77b4"/>
     <use xlink:href="#m2d6775e175" x="501.134545" y="272.18608" style="fill: #1f77b4; stroke: #1f77b4"/>
     <use xlink:href="#m2d6775e175" x="513.024" y="194.168" style="fill: #1f77b4; stroke: #1f77b4"/>
     <use xlink:href="#m2d6775e175" x="524.913455" y="194.168" style="fill: #1f77b4; stroke: #1f77b4"/>
     <use xlink:href="#m2d6775e175" x="536.802909" y="194.168" style="fill: #1f77b4; stroke: #1f77b4"/>
     <use xlink:href="#m2d6775e175" x="548.692364" y="194.168" style="fill: #1f77b4; stroke: #1f77b4"/>
     <use xlink:href="#m2d6775e175" x="560.581818" y="194.168" style="fill: #1f77b4; stroke: #1f77b4"/>
     <use xlink:href="#m2d6775e175" x="572.471273" y="194.168" style="fill: #1f77b4; stroke: #1f77b4"/>
     <use xlink:href="#m2d6775e175" x="584.360727" y="194.168" style="fill: #1f77b4; stroke: #1f77b4"/>
     <use xlink:href="#m2d6775e175" x="596.250182" y="194.168" style="fill: #1f77b4; stroke: #1f77b4"/>
     <use xlink:href="#m2d6775e175" x="608.139636" y="194.168" style="fill: #1f77b4; stroke: #1f77b4"/>
     <use xlink:href="#m2d6775e175" x="620.029091" y="194.168" style="fill: #1f77b4; stroke: #1f77b4"/>
     <use xlink:href="#m2d6775e175" x="631.918545" y="194.168" style="fill: #1f77b4; stroke: #1f77b4"/>
     <use xlink:href="#m2d6775e175" x="643.808" y="194.168" style="fill: #1f77b4; stroke: #1f77b4"/>
     <use xlink:href="#m2d6775e175" x="655.697455" y="194.168" style="fill: #1f77b4; stroke: #1f77b4"/>
     <use xlink:href="#m2d6775e175" x="667.586909" y="194.168" style="fill: #1f77b4; stroke: #1f77b4"/>
     <use xlink:href="#m2d6775e175" x="679.476364" y="194.168" style="fill: #1f77b4; stroke: #1f77b4"/>
    </g>
   </g>
   <g id="patch_3">
    <path d="M 55.28 289.312 
L 55.28 99.024 
" style="fill: none; stroke: #000000; stroke-width: 0.8; stroke-linejoin: miter; stroke-linecap: square"/>
   </g>
   <g id="patch_4">
    <path d="M 709.2 289.312 
L 709.2 99.024 
" style="fill: none; stroke: #000000; stroke-width: 0.8; stroke-linejoin: miter; stroke-linecap: square"/>
   </g>
   <g id="patch_5">
    <path d="M 55.28 289.312 
L 709.2 289.312 
" style="fill: none; stroke: #000000; stroke-width: 0.8; stroke-linejoin: miter; stroke-linecap: square"/>
   </g>
   <g id="patch_6">
    <path d="M 55.28 99.024 
L 709.2 99.024 
" style="fill: none; stroke: #000000; stroke-width: 0.8; stroke-linejoin: miter; stroke-linecap: square"/>
   </g>
   <g id="text_14">
    <!-- Loss Rate -->
    <g transform="translate(357.361875 93.024) scale(0.1 -0.1)">
     <use xlink:href="#DejaVuSerif-4c"/>
     <use xlink:href="#DejaVuSerif-6f" x="66.40625"/>
     <use xlink:href="#DejaVuSerif-73" x="126.611328"/>
     <use xlink:href="#DejaVuSerif-73" x="177.929688"/>
     <use xlink:href="#DejaVuSerif-20" x="229.248047"/>
     <use xlink:href="#DejaVuSerif-52" x="261.035156"/>
     <use xlink:href="#DejaVuSerif-61" x="338.578125"/>
     <use xlink:href="#DejaVuSerif-74" x="398.197266"/>
     <use xlink:href="#DejaVuSerif-65" x="438.382812"/>
    </g>
   </g>
   <g id="legend_1">
    <g id="patch_7">
     <path d="M 661.4025 117.1665 
L 703.6 117.1665 
Q 705.2 117.1665 705.2 115.5665 
L 705.2 104.624 
Q 705.2 103.024 703.6 103.024 
L 661.4025 103.024 
Q 659.8025 103.024 659.8025 104.624 
L 659.8025 115.5665 
Q 659.8025 117.1665 661.4025 117.1665 
z
" style="fill: #ffffff; opacity: 0.8; stroke: #cccccc; stroke-linejoin: miter"/>
    </g>
    <g id="line2d_24">
     <path d="M 663.0025 109.50275 
L 671.0025 109.50275 
L 679.0025 109.50275 
" style="fill: none; stroke: #1f77b4; stroke-width: 1.5; stroke-linecap: square"/>
     <g>
      <use xlink:href="#m2d6775e175" x="671.0025" y="109.50275" style="fill: #1f77b4; stroke: #1f77b4"/>
     </g>
    </g>
    <g id="text_15">
     <!-- BTP -->
     <g transform="translate(685.4025 112.30275) scale(0.08 -0.08)">
      <defs>
       <path id="DejaVuSerif-42" d="M 1581 331 
L 2516 331 
Q 3078 331 3337 575 
Q 3597 819 3597 1350 
Q 3597 1878 3339 2120 
Q 3081 2363 2516 2363 
L 1581 2363 
L 1581 331 
z
M 1581 2694 
L 2375 2694 
Q 2888 2694 3123 2891 
Q 3359 3088 3359 3513 
Q 3359 3941 3123 4136 
Q 2888 4331 2375 4331 
L 1581 4331 
L 1581 2694 
z
M 353 0 
L 353 331 
L 947 331 
L 947 4331 
L 353 4331 
L 353 4666 
L 2656 4666 
Q 3363 4666 3720 4377 
Q 4078 4088 4078 3513 
Q 4078 3097 3829 2850 
Q 3581 2603 3103 2547 
Q 3697 2472 4005 2167 
Q 4313 1863 4313 1350 
Q 4313 656 3875 328 
Q 3438 0 2509 0 
L 353 0 
z
" transform="scale(0.015625)"/>
       <path id="DejaVuSerif-50" d="M 1581 2375 
L 2406 2375 
Q 2872 2375 3115 2626 
Q 3359 2878 3359 3353 
Q 3359 3831 3115 4081 
Q 2872 4331 2406 4331 
L 1581 4331 
L 1581 2375 
z
M 353 0 
L 353 331 
L 947 331 
L 947 4331 
L 353 4331 
L 353 4666 
L 2559 4666 
Q 3259 4666 3668 4311 
Q 4078 3956 4078 3353 
Q 4078 2753 3668 2397 
Q 3259 2041 2559 2041 
L 1581 2041 
L 1581 331 
L 2303 331 
L 2303 0 
L 353 0 
z
" transform="scale(0.015625)"/>
      </defs>
      <use xlink:href="#DejaVuSerif-42"/>
      <use xlink:href="#DejaVuSerif-54" x="73.486328"/>
      <use xlink:href="#DejaVuSerif-50" x="140.185547"/>
     </g>
    </g>
   </g>
  </g>
  <g id="axes_2">
   <g id="patch_8">
    <path d="M 55.28 534.76 
L 709.2 534.76 
L 709.2 344.472 
L 55.28 344.472 
z
" style="fill: #ffffff"/>
   </g>
   <g id="matplotlib.axis_3">
    <g id="xtick_7">
     <g id="line2d_25">
      <path d="M 73.114182 534.76 
L 73.114182 344.472 
" clip-path="url(#p12a12bb8ed)" style="fill: none; stroke: #b0b0b0; stroke-width: 0.8; stroke-linecap: square"/>
     </g>
     <g id="line2d_26">
      <g>
       <use xlink:href="#maf8d2f93ea" x="73.114182" y="534.76" style="stroke: #000000; stroke-width: 0.8"/>
      </g>
     </g>
     <g id="text_16">
      <!-- 0 -->
      <g transform="translate(69.932932 549.358438) scale(0.1 -0.1)">
       <use xlink:href="#DejaVuSerif-30"/>
      </g>
     </g>
    </g>
    <g id="xtick_8">
     <g id="line2d_27">
      <path d="M 192.008727 534.76 
L 192.008727 344.472 
" clip-path="url(#p12a12bb8ed)" style="fill: none; stroke: #b0b0b0; stroke-width: 0.8; stroke-linecap: square"/>
     </g>
     <g id="line2d_28">
      <g>
       <use xlink:href="#maf8d2f93ea" x="192.008727" y="534.76" style="stroke: #000000; stroke-width: 0.8"/>
      </g>
     </g>
     <g id="text_17">
      <!-- 10 -->
      <g transform="translate(185.646227 549.358438) scale(0.1 -0.1)">
       <use xlink:href="#DejaVuSerif-31"/>
       <use xlink:href="#DejaVuSerif-30" x="63.623047"/>
      </g>
     </g>
    </g>
    <g id="xtick_9">
     <g id="line2d_29">
      <path d="M 310.903273 534.76 
L 310.903273 344.472 
" clip-path="url(#p12a12bb8ed)" style="fill: none; stroke: #b0b0b0; stroke-width: 0.8; stroke-linecap: square"/>
     </g>
     <g id="line2d_30">
      <g>
       <use xlink:href="#maf8d2f93ea" x="310.903273" y="534.76" style="stroke: #000000; stroke-width: 0.8"/>
      </g>
     </g>
     <g id="text_18">
      <!-- 20 -->
      <g transform="translate(304.540773 549.358438) scale(0.1 -0.1)">
       <use xlink:href="#DejaVuSerif-32"/>
       <use xlink:href="#DejaVuSerif-30" x="63.623047"/>
      </g>
     </g>
    </g>
    <g id="xtick_10">
     <g id="line2d_31">
      <path d="M 429.797818 534.76 
L 429.797818 344.472 
" clip-path="url(#p12a12bb8ed)" style="fill: none; stroke: #b0b0b0; stroke-width: 0.8; stroke-linecap: square"/>
     </g>
     <g id="line2d_32">
      <g>
       <use xlink:href="#maf8d2f93ea" x="429.797818" y="534.76" style="stroke: #000000; stroke-width: 0.8"/>
      </g>
     </g>
     <g id="text_19">
      <!-- 30 -->
      <g transform="translate(423.435318 549.358438) scale(0.1 -0.1)">
       <use xlink:href="#DejaVuSerif-33"/>
       <use xlink:href="#DejaVuSerif-30" x="63.623047"/>
      </g>
     </g>
    </g>
    <g id="xtick_11">
     <g id="line2d_33">
      <path d="M 548.692364 534.76 
L 548.692364 344.472 
" clip-path="url(#p12a12bb8ed)" style="fill: none; stroke: #b0b0b0; stroke-width: 0.8; stroke-linecap: square"/>
     </g>
     <g id="line2d_34">
      <g>
       <use xlink:href="#maf8d2f93ea" x="548.692364" y="534.76" style="stroke: #000000; stroke-width: 0.8"/>
      </g>
     </g>
     <g id="text_20">
      <!-- 40 -->
      <g transform="translate(542.329864 549.358438) scale(0.1 -0.1)">
       <use xlink:href="#DejaVuSerif-34"/>
       <use xlink:href="#DejaVuSerif-30" x="63.623047"/>
      </g>
     </g>
    </g>
    <g id="xtick_12">
     <g id="line2d_35">
      <path d="M 667.586909 534.76 
L 667.586909 344.472 
" clip-path="url(#p12a12bb8ed)" style="fill: none; stroke: #b0b0b0; stroke-width: 0.8; stroke-linecap: square"/>
     </g>
     <g id="line2d_36">
      <g>
       <use xlink:href="#maf8d2f93ea" x="667.586909" y="534.76" style="stroke: #000000; stroke-width: 0.8"/>
      </g>
     </g>
     <g id="text_21">
      <!-- 50 -->
      <g transform="translate(661.224409 549.358438) scale(0.1 -0.1)">
       <use xlink:href="#DejaVuSerif-35"/>
       <use xlink:href="#DejaVuSerif-30" x="63.623047"/>
      </g>
     </g>
    </g>
    <g id="text_22">
     <!-- Time (s) -->
     <g transform="translate(363.617734 562.276719) scale(0.09 -0.09)">
      <use xlink:href="#DejaVuSerif-54"/>
      <use xlink:href="#DejaVuSerif-69" x="66.699219"/>
      <use xlink:href="#DejaVuSerif-6d" x="98.681641"/>
      <use xlink:href="#DejaVuSerif-65" x="193.505859"/>
      <use xlink:href="#DejaVuSerif-20" x="252.685547"/>
      <use xlink:href="#DejaVuSerif-28" x="284.472656"/>
      <use xlink:href="#DejaVuSerif-73" x="323.486328"/>
      <use xlink:href="#DejaVuSerif-29" x="374.804688"/>
     </g>
    </g>
   </g>
   <g id="matplotlib.axis_4">
    <g id="ytick_6">
     <g id="line2d_37">
      <path d="M 55.28 517.813104 
L 709.2 517.813104 
" clip-path="url(#p12a12bb8ed)" style="fill: none; stroke: #b0b0b0; stroke-width: 0.8; stroke-linecap: square"/>
     </g>
     <g id="line2d_38">
      <g>
       <use xlink:href="#ma31c9e4b28" x="55.28" y="517.813104" style="stroke: #000000; stroke-width: 0.8"/>
      </g>
     </g>
     <g id="text_23">
      <!-- 0.6 -->
      <g transform="translate(32.376875 521.612322) scale(0.1 -0.1)">
       <defs>
        <path id="DejaVuSerif-36" d="M 2094 219 
Q 2534 219 2771 542 
Q 3009 866 3009 1472 
Q 3009 2078 2771 2401 
Q 2534 2725 2094 2725 
Q 1647 2725 1412 2412 
Q 1178 2100 1178 1509 
Q 1178 888 1415 553 
Q 1653 219 2094 219 
z
M 1075 2569 
Q 1288 2803 1556 2918 
Q 1825 3034 2163 3034 
Q 2859 3034 3264 2615 
Q 3669 2197 3669 1472 
Q 3669 763 3233 336 
Q 2797 -91 2069 -91 
Q 1278 -91 853 498 
Q 428 1088 428 2181 
Q 428 3406 931 4078 
Q 1434 4750 2350 4750 
Q 2597 4750 2869 4703 
Q 3141 4656 3425 4563 
L 3425 3794 
L 3072 3794 
Q 3034 4109 2831 4275 
Q 2628 4441 2284 4441 
Q 1678 4441 1381 3981 
Q 1084 3522 1075 2569 
z
" transform="scale(0.015625)"/>
       </defs>
       <use xlink:href="#DejaVuSerif-30"/>
       <use xlink:href="#DejaVuSerif-2e" x="63.623047"/>
       <use xlink:href="#DejaVuSerif-36" x="95.410156"/>
      </g>
     </g>
    </g>
    <g id="ytick_7">
     <g id="line2d_39">
      <path d="M 55.28 492.66934 
L 709.2 492.66934 
" clip-path="url(#p12a12bb8ed)" style="fill: none; stroke: #b0b0b0; stroke-width: 0.8; stroke-linecap: square"/>
     </g>
     <g id="line2d_40">
      <g>
       <use xlink:href="#ma31c9e4b28" x="55.28" y="492.66934" style="stroke: #000000; stroke-width: 0.8"/>
      </g>
     </g>
     <g id="text_24">
      <!-- 0.8 -->
      <g transform="translate(32.376875 496.468559) scale(0.1 -0.1)">
       <defs>
        <path id="DejaVuSerif-38" d="M 2981 1275 
Q 2981 1775 2732 2051 
Q 2484 2328 2034 2328 
Q 1584 2328 1336 2051 
Q 1088 1775 1088 1275 
Q 1088 772 1336 495 
Q 1584 219 2034 219 
Q 2484 219 2732 495 
Q 2981 772 2981 1275 
z
M 2853 3541 
Q 2853 3966 2637 4203 
Q 2422 4441 2034 4441 
Q 1650 4441 1433 4203 
Q 1216 3966 1216 3541 
Q 1216 3113 1433 2875 
Q 1650 2638 2034 2638 
Q 2422 2638 2637 2875 
Q 2853 3113 2853 3541 
z
M 2516 2484 
Q 3047 2413 3344 2092 
Q 3641 1772 3641 1275 
Q 3641 619 3225 264 
Q 2809 -91 2034 -91 
Q 1263 -91 845 264 
Q 428 619 428 1275 
Q 428 1772 725 2092 
Q 1022 2413 1556 2484 
Q 1084 2569 832 2842 
Q 581 3116 581 3541 
Q 581 4103 968 4426 
Q 1356 4750 2034 4750 
Q 2713 4750 3100 4426 
Q 3488 4103 3488 3541 
Q 3488 3116 3236 2842 
Q 2984 2569 2516 2484 
z
" transform="scale(0.015625)"/>
       </defs>
       <use xlink:href="#DejaVuSerif-30"/>
       <use xlink:href="#DejaVuSerif-2e" x="63.623047"/>
       <use xlink:href="#DejaVuSerif-38" x="95.410156"/>
      </g>
     </g>
    </g>
    <g id="ytick_8">
     <g id="line2d_41">
      <path d="M 55.28 467.525577 
L 709.2 467.525577 
" clip-path="url(#p12a12bb8ed)" style="fill: none; stroke: #b0b0b0; stroke-width: 0.8; stroke-linecap: square"/>
     </g>
     <g id="line2d_42">
      <g>
       <use xlink:href="#ma31c9e4b28" x="55.28" y="467.525577" style="stroke: #000000; stroke-width: 0.8"/>
      </g>
     </g>
     <g id="text_25">
      <!-- 1.0 -->
      <g transform="translate(32.376875 471.324796) scale(0.1 -0.1)">
       <use xlink:href="#DejaVuSerif-31"/>
       <use xlink:href="#DejaVuSerif-2e" x="63.623047"/>
       <use xlink:href="#DejaVuSerif-30" x="95.410156"/>
      </g>
     </g>
    </g>
    <g id="ytick_9">
     <g id="line2d_43">
      <path d="M 55.28 442.381814 
L 709.2 442.381814 
" clip-path="url(#p12a12bb8ed)" style="fill: none; stroke: #b0b0b0; stroke-width: 0.8; stroke-linecap: square"/>
     </g>
     <g id="line2d_44">
      <g>
       <use xlink:href="#ma31c9e4b28" x="55.28" y="442.381814" style="stroke: #000000; stroke-width: 0.8"/>
      </g>
     </g>
     <g id="text_26">
      <!-- 1.2 -->
      <g transform="translate(32.376875 446.181033) scale(0.1 -0.1)">
       <use xlink:href="#DejaVuSerif-31"/>
       <use xlink:href="#DejaVuSerif-2e" x="63.623047"/>
       <use xlink:href="#DejaVuSerif-32" x="95.410156"/>
      </g>
     </g>
    </g>
    <g id="ytick_10">
     <g id="line2d_45">
      <path d="M 55.28 417.238051 
L 709.2 417.238051 
" clip-path="url(#p12a12bb8ed)" style="fill: none; stroke: #b0b0b0; stroke-width: 0.8; stroke-linecap: square"/>
     </g>
     <g id="line2d_46">
      <g>
       <use xlink:href="#ma31c9e4b28" x="55.28" y="417.238051" style="stroke: #000000; stroke-width: 0.8"/>
      </g>
     </g>
     <g id="text_27">
      <!-- 1.4 -->
      <g transform="translate(32.376875 421.037269) scale(0.1 -0.1)">
       <use xlink:href="#DejaVuSerif-31"/>
       <use xlink:href="#DejaVuSerif-2e" x="63.623047"/>
       <use xlink:href="#DejaVuSerif-34" x="95.410156"/>
      </g>
     </g>
    </g>
    <g id="ytick_11">
     <g id="line2d_47">
      <path d="M 55.28 392.094288 
L 709.2 392.094288 
" clip-path="url(#p12a12bb8ed)" style="fill: none; stroke: #b0b0b0; stroke-width: 0.8; stroke-linecap: square"/>
     </g>
     <g id="line2d_48">
      <g>
       <use xlink:href="#ma31c9e4b28" x="55.28" y="392.094288" style="stroke: #000000; stroke-width: 0.8"/>
      </g>
     </g>
     <g id="text_28">
      <!-- 1.6 -->
      <g transform="translate(32.376875 395.893506) scale(0.1 -0.1)">
       <use xlink:href="#DejaVuSerif-31"/>
       <use xlink:href="#DejaVuSerif-2e" x="63.623047"/>
       <use xlink:href="#DejaVuSerif-36" x="95.410156"/>
      </g>
     </g>
    </g>
    <g id="ytick_12">
     <g id="line2d_49">
      <path d="M 55.28 366.950524 
L 709.2 366.950524 
" clip-path="url(#p12a12bb8ed)" style="fill: none; stroke: #b0b0b0; stroke-width: 0.8; stroke-linecap: square"/>
     </g>
     <g id="line2d_50">
      <g>
       <use xlink:href="#ma31c9e4b28" x="55.28" y="366.950524" style="stroke: #000000; stroke-width: 0.8"/>
      </g>
     </g>
     <g id="text_29">
      <!-- 1.8 -->
      <g transform="translate(32.376875 370.749743) scale(0.1 -0.1)">
       <use xlink:href="#DejaVuSerif-31"/>
       <use xlink:href="#DejaVuSerif-2e" x="63.623047"/>
       <use xlink:href="#DejaVuSerif-38" x="95.410156"/>
      </g>
     </g>
    </g>
    <g id="text_30">
     <!-- Jitter (ms) -->
     <g transform="translate(26.505156 462.808578) rotate(-90) scale(0.09 -0.09)">
      <defs>
       <path id="DejaVuSerif-4a" d="M -538 -1119 
L -538 -384 
L -181 -384 
Q -172 -694 -34 -845 
Q 103 -997 378 -997 
Q 750 -997 897 -762 
Q 1044 -528 1044 153 
L 1044 4331 
L 319 4331 
L 319 4666 
L 2272 4666 
L 2272 4331 
L 1678 4331 
L 1678 128 
Q 1678 -644 1368 -987 
Q 1059 -1331 372 -1331 
Q 150 -1331 -79 -1278 
Q -309 -1225 -538 -1119 
z
" transform="scale(0.015625)"/>
       <path id="DejaVuSerif-72" d="M 3059 3328 
L 3059 2497 
L 2728 2497 
Q 2713 2744 2591 2866 
Q 2469 2988 2234 2988 
Q 1809 2988 1582 2694 
Q 1356 2400 1356 1850 
L 1356 331 
L 2022 331 
L 2022 0 
L 263 0 
L 263 331 
L 781 331 
L 781 2994 
L 231 2994 
L 231 3322 
L 1356 3322 
L 1356 2731 
Q 1525 3078 1790 3245 
Q 2056 3413 2438 3413 
Q 2578 3413 2733 3391 
Q 2888 3369 3059 3328 
z
" transform="scale(0.015625)"/>
      </defs>
      <use xlink:href="#DejaVuSerif-4a"/>
      <use xlink:href="#DejaVuSerif-69" x="40.087891"/>
      <use xlink:href="#DejaVuSerif-74" x="72.070312"/>
      <use xlink:href="#DejaVuSerif-74" x="112.255859"/>
      <use xlink:href="#DejaVuSerif-65" x="152.441406"/>
      <use xlink:href="#DejaVuSerif-72" x="211.621094"/>
      <use xlink:href="#DejaVuSerif-20" x="259.423828"/>
      <use xlink:href="#DejaVuSerif-28" x="291.210938"/>
      <use xlink:href="#DejaVuSerif-6d" x="330.224609"/>
      <use xlink:href="#DejaVuSerif-73" x="425.048828"/>
      <use xlink:href="#DejaVuSerif-29" x="476.367188"/>
     </g>
    </g>
   </g>
   <g id="line2d_51">
    <path d="M 85.003636 521.836106 
L 96.893091 353.121455 
L 108.782545 522.338981 
L 120.672 457.216634 
L 132.561455 508.007036 
L 144.450909 509.515662 
L 156.340364 523.47045 
L 168.229818 525.984827 
L 180.119273 520.956074 
L 192.008727 485.754805 
L 203.898182 521.458949 
L 215.787636 524.979076 
L 227.677091 518.315979 
L 239.566545 524.727638 
L 251.456 521.710387 
L 263.345455 522.590419 
L 275.234909 521.207512 
L 287.124364 523.344732 
L 299.013818 520.704636 
L 310.903273 523.093294 
L 322.792727 520.578918 
L 334.682182 496.315186 
L 346.571636 520.704636 
L 358.461091 522.4647 
L 370.350545 519.824605 
L 382.24 522.967575 
L 394.129455 520.453199 
L 406.018909 516.807353 
L 417.908364 521.584668 
L 429.797818 504.612628 
L 441.687273 518.064541 
L 453.576727 522.967575 
L 465.466182 526.110545 
L 477.355636 522.590419 
L 489.245091 522.967575 
L 501.134545 522.4647 
L 513.024 523.721888 
L 524.913455 521.33323 
L 536.802909 525.230514 
L 548.692364 519.573167 
L 560.581818 523.721888 
L 572.471273 437.855937 
L 584.360727 524.853357 
L 596.250182 516.05304 
L 608.139636 524.60192 
L 620.029091 520.956074 
L 631.918545 523.721888 
L 643.808 521.081793 
L 655.697455 514.167258 
L 667.586909 520.578918 
L 679.476364 522.716137 
" clip-path="url(#p12a12bb8ed)" style="fill: none; stroke: #1f77b4; stroke-width: 1.5; stroke-linecap: square"/>
    <g clip-path="url(#p12a12bb8ed)">
     <use xlink:href="#m2d6775e175" x="85.003636" y="521.836106" style="fill: #1f77b4; stroke: #1f77b4"/>
     <use xlink:href="#m2d6775e175" x="96.893091" y="353.121455" style="fill: #1f77b4; stroke: #1f77b4"/>
     <use xlink:href="#m2d6775e175" x="108.782545" y="522.338981" style="fill: #1f77b4; stroke: #1f77b4"/>
     <use xlink:href="#m2d6775e175" x="120.672" y="457.216634" style="fill: #1f77b4; stroke: #1f77b4"/>
     <use xlink:href="#m2d6775e175" x="132.561455" y="508.007036" style="fill: #1f77b4; stroke: #1f77b4"/>
     <use xlink:href="#m2d6775e175" x="144.450909" y="509.515662" style="fill: #1f77b4; stroke: #1f77b4"/>
     <use xlink:href="#m2d6775e175" x="156.340364" y="523.47045" style="fill: #1f77b4; stroke: #1f77b4"/>
     <use xlink:href="#m2d6775e175" x="168.229818" y="525.984827" style="fill: #1f77b4; stroke: #1f77b4"/>
     <use xlink:href="#m2d6775e175" x="180.119273" y="520.956074" style="fill: #1f77b4; stroke: #1f77b4"/>
     <use xlink:href="#m2d6775e175" x="192.008727" y="485.754805" style="fill: #1f77b4; stroke: #1f77b4"/>
     <use xlink:href="#m2d6775e175" x="203.898182" y="521.458949" style="fill: #1f77b4; stroke: #1f77b4"/>
     <use xlink:href="#m2d6775e175" x="215.787636" y="524.979076" style="fill: #1f77b4; stroke: #1f77b4"/>
     <use xlink:href="#m2d6775e175" x="227.677091" y="518.315979" style="fill: #1f77b4; stroke: #1f77b4"/>
     <use xlink:href="#m2d6775e175" x="239.566545" y="524.727638" style="fill: #1f77b4; stroke: #1f77b4"/>
     <use xlink:href="#m2d6775e175" x="251.456" y="521.710387" style="fill: #1f77b4; stroke: #1f77b4"/>
     <use xlink:href="#m2d6775e175" x="263.345455" y="522.590419" style="fill: #1f77b4; stroke: #1f77b4"/>
     <use xlink:href="#m2d6775e175" x="275.234909" y="521.207512" style="fill: #1f77b4; stroke: #1f77b4"/>
     <use xlink:href="#m2d6775e175" x="287.124364" y="523.344732" style="fill: #1f77b4; stroke: #1f77b4"/>
     <use xlink:href="#m2d6775e175" x="299.013818" y="520.704636" style="fill: #1f77b4; stroke: #1f77b4"/>
     <use xlink:href="#m2d6775e175" x="310.903273" y="523.093294" style="fill: #1f77b4; stroke: #1f77b4"/>
     <use xlink:href="#m2d6775e175" x="322.792727" y="520.578918" style="fill: #1f77b4; stroke: #1f77b4"/>
     <use xlink:href="#m2d6775e175" x="334.682182" y="496.315186" style="fill: #1f77b4; stroke: #1f77b4"/>
     <use xlink:href="#m2d6775e175" x="346.571636" y="520.704636" style="fill: #1f77b4; stroke: #1f77b4"/>
     <use xlink:href="#m2d6775e175" x="358.461091" y="522.4647" style="fill: #1f77b4; stroke: #1f77b4"/>
     <use xlink:href="#m2d6775e175" x="370.350545" y="519.824605" style="fill: #1f77b4; stroke: #1f77b4"/>
     <use xlink:href="#m2d6775e175" x="382.24" y="522.967575" style="fill: #1f77b4; stroke: #1f77b4"/>
     <use xlink:href="#m2d6775e175" x="394.129455" y="520.453199" style="fill: #1f77b4; stroke: #1f77b4"/>
     <use xlink:href="#m2d6775e175" x="406.018909" y="516.807353" style="fill: #1f77b4; stroke: #1f77b4"/>
     <use xlink:href="#m2d6775e175" x="417.908364" y="521.584668" style="fill: #1f77b4; stroke: #1f77b4"/>
     <use xlink:href="#m2d6775e175" x="429.797818" y="504.612628" style="fill: #1f77b4; stroke: #1f77b4"/>
     <use xlink:href="#m2d6775e175" x="441.687273" y="518.064541" style="fill: #1f77b4; stroke: #1f77b4"/>
     <use xlink:href="#m2d6775e175" x="453.576727" y="522.967575" style="fill: #1f77b4; stroke: #1f77b4"/>
     <use xlink:href="#m2d6775e175" x="465.466182" y="526.110545" style="fill: #1f77b4; stroke: #1f77b4"/>
     <use xlink:href="#m2d6775e175" x="477.355636" y="522.590419" style="fill: #1f77b4; stroke: #1f77b4"/>
     <use xlink:href="#m2d6775e175" x="489.245091" y="522.967575" style="fill: #1f77b4; stroke: #1f77b4"/>
     <use xlink:href="#m2d6775e175" x="501.134545" y="522.4647" style="fill: #1f77b4; stroke: #1f77b4"/>
     <use xlink:href="#m2d6775e175" x="513.024" y="523.721888" style="fill: #1f77b4; stroke: #1f77b4"/>
     <use xlink:href="#m2d6775e175" x="524.913455" y="521.33323" style="fill: #1f77b4; stroke: #1f77b4"/>
     <use xlink:href="#m2d6775e175" x="536.802909" y="525.230514" style="fill: #1f77b4; stroke: #1f77b4"/>
     <use xlink:href="#m2d6775e175" x="548.692364" y="519.573167" style="fill: #1f77b4; stroke: #1f77b4"/>
     <use xlink:href="#m2d6775e175" x="560.581818" y="523.721888" style="fill: #1f77b4; stroke: #1f77b4"/>
     <use xlink:href="#m2d6775e175" x="572.471273" y="437.855937" style="fill: #1f77b4; stroke: #1f77b4"/>
     <use xlink:href="#m2d6775e175" x="584.360727" y="524.853357" style="fill: #1f77b4; stroke: #1f77b4"/>
     <use xlink:href="#m2d6775e175" x="596.250182" y="516.05304" style="fill: #1f77b4; stroke: #1f77b4"/>
     <use xlink:href="#m2d6775e175" x="608.139636" y="524.60192" style="fill: #1f77b4; stroke: #1f77b4"/>
     <use xlink:href="#m2d6775e175" x="620.029091" y="520.956074" style="fill: #1f77b4; stroke: #1f77b4"/>
     <use xlink:href="#m2d6775e175" x="631.918545" y="523.721888" style="fill: #1f77b4; stroke: #1f77b4"/>
     <use xlink:href="#m2d6775e175" x="643.808" y="521.081793" style="fill: #1f77b4; stroke: #1f77b4"/>
     <use xlink:href="#m2d6775e175" x="655.697455" y="514.167258" style="fill: #1f77b4; stroke: #1f77b4"/>
     <use xlink:href="#m2d6775e175" x="667.586909" y="520.578918" style="fill: #1f77b4; stroke: #1f77b4"/>
     <use xlink:href="#m2d6775e175" x="679.476364" y="522.716137" style="fill: #1f77b4; stroke: #1f77b4"/>
    </g>
   </g>
   <g id="patch_9">
    <path d="M 55.28 534.76 
L 55.28 344.472 
" style="fill: none; stroke: #000000; stroke-width: 0.8; stroke-linejoin: miter; stroke-linecap: square"/>
   </g>
   <g id="patch_10">
    <path d="M 709.2 534.76 
L 709.2 344.472 
" style="fill: none; stroke: #000000; stroke-width: 0.8; stroke-linejoin: miter; stroke-linecap: square"/>
   </g>
   <g id="patch_11">
    <path d="M 55.28 534.76 
L 709.2 534.76 
" style="fill: none; stroke: #000000; stroke-width: 0.8; stroke-linejoin: miter; stroke-linecap: square"/>
   </g>
   <g id="patch_12">
    <path d="M 55.28 344.472 
L 709.2 344.472 
" style="fill: none; stroke: #000000; stroke-width: 0.8; stroke-linejoin: miter; stroke-linecap: square"/>
   </g>
   <g id="text_31">
    <!-- Jitter -->
    <g transform="translate(369.268125 338.472) scale(0.1 -0.1)">
     <use xlink:href="#DejaVuSerif-4a"/>
     <use xlink:href="#DejaVuSerif-69" x="40.087891"/>
     <use xlink:href="#DejaVuSerif-74" x="72.070312"/>
     <use xlink:href="#DejaVuSerif-74" x="112.255859"/>
     <use xlink:href="#DejaVuSerif-65" x="152.441406"/>
     <use xlink:href="#DejaVuSerif-72" x="211.621094"/>
    </g>
   </g>
   <g id="legend_2">
    <g id="patch_13">
     <path d="M 661.4025 362.6145 
L 703.6 362.6145 
Q 705.2 362.6145 705.2 361.0145 
L 705.2 350.072 
Q 705.2 348.472 703.6 348.472 
L 661.4025 348.472 
Q 659.8025 348.472 659.8025 350.072 
L 659.8025 361.0145 
Q 659.8025 362.6145 661.4025 362.6145 
z
" style="fill: #ffffff; opacity: 0.8; stroke: #cccccc; stroke-linejoin: miter"/>
    </g>
    <g id="line2d_52">
     <path d="M 663.0025 354.95075 
L 671.0025 354.95075 
L 679.0025 354.95075 
" style="fill: none; stroke: #1f77b4; stroke-width: 1.5; stroke-linecap: square"/>
     <g>
      <use xlink:href="#m2d6775e175" x="671.0025" y="354.95075" style="fill: #1f77b4; stroke: #1f77b4"/>
     </g>
    </g>
    <g id="text_32">
     <!-- BTP -->
     <g transform="translate(685.4025 357.75075) scale(0.08 -0.08)">
      <use xlink:href="#DejaVuSerif-42"/>
      <use xlink:href="#DejaVuSerif-54" x="73.486328"/>
      <use xlink:href="#DejaVuSerif-50" x="140.185547"/>
     </g>
    </g>
   </g>
  </g>
  <g id="text_33">
   <!-- Iperf3 UDP statistics  -->
   <g transform="translate(287.503125 20.638125) scale(0.12 -0.12)">
    <defs>
     <path id="DejaVuSerif-Bold-49" d="M 300 0 
L 300 378 
L 897 378 
L 897 4288 
L 300 4288 
L 300 4666 
L 2700 4666 
L 2700 4288 
L 2100 4288 
L 2100 378 
L 2700 378 
L 2700 0 
L 300 0 
z
" transform="scale(0.015625)"/>
     <path id="DejaVuSerif-Bold-70" d="M 1728 1825 
L 1728 1497 
Q 1728 916 1876 656 
Q 2025 397 2356 397 
Q 2697 397 2836 672 
Q 2975 947 2975 1663 
Q 2975 2378 2836 2651 
Q 2697 2925 2356 2925 
Q 2025 2925 1876 2665 
Q 1728 2406 1728 1825 
z
M 622 2944 
L 147 2944 
L 147 3322 
L 1728 3322 
L 1728 2900 
Q 1869 3159 2106 3286 
Q 2344 3413 2694 3413 
Q 3403 3413 3811 2945 
Q 4219 2478 4219 1663 
Q 4219 847 3811 378 
Q 3403 -91 2694 -91 
Q 2344 -91 2106 36 
Q 1869 163 1728 422 
L 1728 -953 
L 2241 -953 
L 2241 -1331 
L 147 -1331 
L 147 -953 
L 622 -953 
L 622 2944 
z
" transform="scale(0.015625)"/>
     <path id="DejaVuSerif-Bold-65" d="M 2566 1875 
Q 2566 2531 2444 2795 
Q 2322 3059 2028 3059 
Q 1744 3059 1620 2800 
Q 1497 2541 1497 1931 
L 1497 1875 
L 2566 1875 
z
M 3781 1503 
L 1497 1503 
L 1497 1478 
Q 1497 834 1690 548 
Q 1884 263 2316 263 
Q 2675 263 2897 453 
Q 3119 644 3181 1006 
L 3700 1006 
Q 3566 441 3166 175 
Q 2766 -91 2047 -91 
Q 1184 -91 723 364 
Q 263 819 263 1663 
Q 263 2488 734 2950 
Q 1206 3413 2047 3413 
Q 2872 3413 3312 2927 
Q 3753 2441 3781 1503 
z
" transform="scale(0.015625)"/>
     <path id="DejaVuSerif-Bold-72" d="M 3438 3359 
L 3438 2369 
L 3084 2369 
Q 3066 2634 2941 2764 
Q 2816 2894 2578 2894 
Q 2216 2894 2006 2575 
Q 1797 2256 1797 1691 
L 1797 378 
L 2400 378 
L 2400 0 
L 219 0 
L 219 378 
L 691 378 
L 691 2944 
L 184 2944 
L 184 3322 
L 1797 3322 
L 1797 2731 
Q 1959 3078 2226 3245 
Q 2494 3413 2881 3413 
Q 2978 3413 3117 3398 
Q 3256 3384 3438 3359 
z
" transform="scale(0.015625)"/>
     <path id="DejaVuSerif-Bold-66" d="M 3097 4031 
L 2747 4031 
Q 2722 4275 2605 4394 
Q 2488 4513 2272 4513 
Q 2022 4513 1909 4333 
Q 1797 4153 1797 3750 
L 1797 3322 
L 2631 3322 
L 2631 2944 
L 1797 2944 
L 1797 378 
L 2438 378 
L 2438 0 
L 219 0 
L 219 378 
L 691 378 
L 691 2944 
L 197 2944 
L 197 3322 
L 691 3322 
L 691 3738 
Q 691 4291 1044 4577 
Q 1397 4863 2081 4863 
Q 2347 4863 2600 4833 
Q 2853 4803 3097 4744 
L 3097 4031 
z
" transform="scale(0.015625)"/>
     <path id="DejaVuSerif-Bold-33" d="M 550 4531 
Q 963 4641 1350 4695 
Q 1738 4750 2106 4750 
Q 2950 4750 3401 4448 
Q 3853 4147 3853 3584 
Q 3853 3163 3593 2900 
Q 3334 2638 2834 2547 
Q 3444 2450 3744 2131 
Q 4044 1813 4044 1259 
Q 4044 606 3526 257 
Q 3009 -91 2028 -91 
Q 1659 -91 1267 -28 
Q 875 34 447 159 
L 447 1184 
L 825 1184 
Q 859 741 1103 508 
Q 1347 275 1778 275 
Q 2253 275 2512 539 
Q 2772 803 2772 1288 
Q 2772 1794 2501 2069 
Q 2231 2344 1734 2344 
L 1528 2344 
L 1528 2719 
L 1691 2719 
Q 2150 2719 2381 2931 
Q 2613 3144 2613 3566 
Q 2613 3963 2395 4173 
Q 2178 4384 1772 4384 
Q 1403 4384 1187 4182 
Q 972 3981 928 3597 
L 550 3597 
L 550 4531 
z
" transform="scale(0.015625)"/>
     <path id="DejaVuSerif-Bold-20" transform="scale(0.015625)"/>
     <path id="DejaVuSerif-Bold-55" d="M 813 4288 
L 219 4288 
L 219 4666 
L 2619 4666 
L 2619 4288 
L 2022 4288 
L 2022 1953 
Q 2022 1081 2294 732 
Q 2566 384 3225 384 
Q 3869 384 4139 736 
Q 4409 1088 4409 1953 
L 4409 4288 
L 3816 4288 
L 3816 4666 
L 5441 4666 
L 5441 4288 
L 4844 4288 
L 4844 1888 
Q 4844 819 4381 364 
Q 3919 -91 2828 -91 
Q 1744 -91 1278 368 
Q 813 828 813 1894 
L 813 4288 
z
" transform="scale(0.015625)"/>
     <path id="DejaVuSerif-Bold-44" d="M 2100 378 
L 2534 378 
Q 3266 378 3605 847 
Q 3944 1316 3944 2338 
Q 3944 3353 3606 3820 
Q 3269 4288 2534 4288 
L 2100 4288 
L 2100 378 
z
M 300 0 
L 300 378 
L 897 378 
L 897 4288 
L 300 4288 
L 300 4666 
L 2694 4666 
Q 3950 4666 4615 4066 
Q 5281 3466 5281 2338 
Q 5281 1203 4614 601 
Q 3947 0 2694 0 
L 300 0 
z
" transform="scale(0.015625)"/>
     <path id="DejaVuSerif-Bold-50" d="M 300 0 
L 300 378 
L 897 378 
L 897 4288 
L 300 4288 
L 300 4666 
L 2956 4666 
Q 3734 4666 4193 4295 
Q 4653 3925 4653 3303 
Q 4653 2678 4192 2304 
Q 3731 1931 2956 1931 
L 2100 1931 
L 2100 378 
L 2853 378 
L 2853 0 
L 300 0 
z
M 2100 2309 
L 2450 2309 
Q 2856 2309 3098 2579 
Q 3341 2850 3341 3303 
Q 3341 3753 3100 4020 
Q 2859 4288 2450 4288 
L 2100 4288 
L 2100 2309 
z
" transform="scale(0.015625)"/>
     <path id="DejaVuSerif-Bold-73" d="M 300 97 
L 300 1025 
L 653 1025 
Q 697 653 931 458 
Q 1166 263 1569 263 
Q 1906 263 2086 380 
Q 2266 497 2266 716 
Q 2266 916 2152 1025 
Q 2038 1134 1709 1216 
L 1253 1331 
Q 738 1459 506 1698 
Q 275 1938 275 2344 
Q 275 2884 650 3148 
Q 1025 3413 1806 3413 
Q 2100 3413 2433 3364 
Q 2766 3316 3169 3213 
L 3169 2375 
L 2816 2375 
Q 2788 2716 2573 2887 
Q 2359 3059 1959 3059 
Q 1622 3059 1448 2951 
Q 1275 2844 1275 2638 
Q 1275 2469 1375 2372 
Q 1475 2275 1734 2209 
L 2188 2094 
Q 2841 1928 3091 1684 
Q 3341 1441 3341 1006 
Q 3341 444 2939 176 
Q 2538 -91 1691 -91 
Q 1381 -91 1034 -44 
Q 688 3 300 97 
z
" transform="scale(0.015625)"/>
     <path id="DejaVuSerif-Bold-74" d="M 634 2944 
L 153 2944 
L 153 3322 
L 634 3322 
L 634 4353 
L 1741 4353 
L 1741 3322 
L 2663 3322 
L 2663 2944 
L 1741 2944 
L 1741 909 
Q 1741 475 1809 369 
Q 1878 263 2059 263 
Q 2259 263 2356 397 
Q 2453 531 2459 813 
L 2925 813 
Q 2897 313 2651 111 
Q 2406 -91 1806 -91 
Q 1122 -91 878 123 
Q 634 338 634 909 
L 634 2944 
z
" transform="scale(0.015625)"/>
     <path id="DejaVuSerif-Bold-61" d="M 3525 2041 
L 3525 378 
L 4000 378 
L 4000 0 
L 2419 0 
L 2419 422 
Q 2200 159 1931 34 
Q 1663 -91 1319 -91 
Q 809 -91 536 182 
Q 263 456 263 966 
Q 263 1525 655 1803 
Q 1047 2081 1838 2081 
L 2419 2081 
L 2419 2278 
Q 2419 2681 2228 2873 
Q 2038 3066 1638 3066 
Q 1306 3066 1126 2930 
Q 947 2794 872 2484 
L 519 2484 
L 519 3200 
Q 816 3306 1134 3359 
Q 1453 3413 1806 3413 
Q 2697 3413 3111 3081 
Q 3525 2750 3525 2041 
z
M 2419 1044 
L 2419 1709 
L 2003 1709 
Q 1694 1709 1528 1540 
Q 1363 1372 1363 1056 
Q 1363 741 1483 584 
Q 1603 428 1850 428 
Q 2106 428 2262 597 
Q 2419 766 2419 1044 
z
" transform="scale(0.015625)"/>
     <path id="DejaVuSerif-Bold-69" d="M 588 4263 
Q 588 4516 763 4689 
Q 938 4863 1191 4863 
Q 1438 4863 1611 4689 
Q 1784 4516 1784 4263 
Q 1784 4016 1611 3842 
Q 1438 3669 1191 3669 
Q 938 3669 763 3841 
Q 588 4013 588 4263 
z
M 1797 378 
L 2272 378 
L 2272 0 
L 219 0 
L 219 378 
L 691 378 
L 691 2944 
L 219 2944 
L 219 3322 
L 1797 3322 
L 1797 378 
z
" transform="scale(0.015625)"/>
     <path id="DejaVuSerif-Bold-63" d="M 3609 1038 
Q 3491 469 3123 189 
Q 2756 -91 2125 -91 
Q 1238 -91 750 368 
Q 263 828 263 1663 
Q 263 2488 744 2950 
Q 1225 3413 2081 3413 
Q 2428 3413 2781 3347 
Q 3134 3281 3500 3150 
L 3500 2228 
L 3150 2228 
Q 3100 2650 2903 2854 
Q 2706 3059 2350 3059 
Q 1888 3059 1692 2746 
Q 1497 2434 1497 1663 
Q 1497 909 1687 586 
Q 1878 263 2309 263 
Q 2644 263 2845 463 
Q 3047 663 3091 1038 
L 3609 1038 
z
" transform="scale(0.015625)"/>
    </defs>
    <use xlink:href="#DejaVuSerif-Bold-49"/>
    <use xlink:href="#DejaVuSerif-Bold-70" x="46.777344"/>
    <use xlink:href="#DejaVuSerif-Bold-65" x="116.699219"/>
    <use xlink:href="#DejaVuSerif-Bold-72" x="180.322266"/>
    <use xlink:href="#DejaVuSerif-Bold-66" x="233.007812"/>
    <use xlink:href="#DejaVuSerif-Bold-33" x="276.025391"/>
    <use xlink:href="#DejaVuSerif-Bold-20" x="345.605469"/>
    <use xlink:href="#DejaVuSerif-Bold-55" x="380.419922"/>
    <use xlink:href="#DejaVuSerif-Bold-44" x="467.626953"/>
    <use xlink:href="#DejaVuSerif-Bold-50" x="554.345703"/>
    <use xlink:href="#DejaVuSerif-Bold-20" x="629.541016"/>
    <use xlink:href="#DejaVuSerif-Bold-73" x="664.355469"/>
    <use xlink:href="#DejaVuSerif-Bold-74" x="720.654297"/>
    <use xlink:href="#DejaVuSerif-Bold-61" x="766.845703"/>
    <use xlink:href="#DejaVuSerif-Bold-74" x="831.640625"/>
    <use xlink:href="#DejaVuSerif-Bold-69" x="877.832031"/>
    <use xlink:href="#DejaVuSerif-Bold-73" x="915.820312"/>
    <use xlink:href="#DejaVuSerif-Bold-74" x="972.119141"/>
    <use xlink:href="#DejaVuSerif-Bold-69" x="1018.310547"/>
    <use xlink:href="#DejaVuSerif-Bold-63" x="1056.298828"/>
    <use xlink:href="#DejaVuSerif-Bold-73" x="1117.1875"/>
    <use xlink:href="#DejaVuSerif-Bold-20" x="1173.486328"/>
   </g>
   <!-- Linear 1 hops  -->
   <g transform="translate(311.895 34.0755) scale(0.12 -0.12)">
    <defs>
     <path id="DejaVuSerif-Bold-4c" d="M 300 0 
L 300 378 
L 897 378 
L 897 4288 
L 300 4288 
L 300 4666 
L 2700 4666 
L 2700 4288 
L 2100 4288 
L 2100 428 
L 3938 428 
L 3938 1166 
L 4359 1166 
L 4359 0 
L 300 0 
z
" transform="scale(0.015625)"/>
     <path id="DejaVuSerif-Bold-6e" d="M 219 0 
L 219 378 
L 691 378 
L 691 2944 
L 219 2944 
L 219 3322 
L 1797 3322 
L 1797 2853 
Q 1997 3150 2253 3281 
Q 2509 3413 2900 3413 
Q 3459 3413 3745 3083 
Q 4031 2753 4031 2113 
L 4031 378 
L 4506 378 
L 4506 0 
L 2522 0 
L 2522 378 
L 2925 378 
L 2925 2144 
Q 2925 2566 2817 2730 
Q 2709 2894 2444 2894 
Q 2109 2894 1953 2648 
Q 1797 2403 1797 1869 
L 1797 378 
L 2203 378 
L 2203 0 
L 219 0 
z
" transform="scale(0.015625)"/>
     <path id="DejaVuSerif-Bold-31" d="M 878 0 
L 878 378 
L 1753 378 
L 1753 4153 
L 781 3578 
L 781 4044 
L 1953 4750 
L 2938 4750 
L 2938 378 
L 3816 378 
L 3816 0 
L 878 0 
z
" transform="scale(0.015625)"/>
     <path id="DejaVuSerif-Bold-68" d="M 219 0 
L 219 378 
L 691 378 
L 691 4488 
L 197 4488 
L 197 4863 
L 1797 4863 
L 1797 2853 
Q 1997 3150 2253 3281 
Q 2509 3413 2900 3413 
Q 3459 3413 3745 3083 
Q 4031 2753 4031 2113 
L 4031 378 
L 4506 378 
L 4506 0 
L 2522 0 
L 2522 378 
L 2925 378 
L 2925 2144 
Q 2925 2566 2817 2730 
Q 2709 2894 2444 2894 
Q 2109 2894 1953 2648 
Q 1797 2403 1797 1869 
L 1797 378 
L 2203 378 
L 2203 0 
L 219 0 
z
" transform="scale(0.015625)"/>
     <path id="DejaVuSerif-Bold-6f" d="M 2138 263 
Q 2488 263 2630 563 
Q 2772 863 2772 1663 
Q 2772 2463 2631 2761 
Q 2491 3059 2138 3059 
Q 1784 3059 1640 2757 
Q 1497 2456 1497 1663 
Q 1497 869 1640 566 
Q 1784 263 2138 263 
z
M 2138 -91 
Q 1259 -91 761 376 
Q 263 844 263 1663 
Q 263 2484 761 2948 
Q 1259 3413 2138 3413 
Q 3019 3413 3516 2948 
Q 4013 2484 4013 1663 
Q 4013 844 3514 376 
Q 3016 -91 2138 -91 
z
" transform="scale(0.015625)"/>
    </defs>
    <use xlink:href="#DejaVuSerif-Bold-4c"/>
    <use xlink:href="#DejaVuSerif-Bold-69" x="70.3125"/>
    <use xlink:href="#DejaVuSerif-Bold-6e" x="108.300781"/>
    <use xlink:href="#DejaVuSerif-Bold-65" x="181.005859"/>
    <use xlink:href="#DejaVuSerif-Bold-61" x="244.628906"/>
    <use xlink:href="#DejaVuSerif-Bold-72" x="309.423828"/>
    <use xlink:href="#DejaVuSerif-Bold-20" x="362.109375"/>
    <use xlink:href="#DejaVuSerif-Bold-31" x="396.923828"/>
    <use xlink:href="#DejaVuSerif-Bold-20" x="466.503906"/>
    <use xlink:href="#DejaVuSerif-Bold-68" x="501.318359"/>
    <use xlink:href="#DejaVuSerif-Bold-6f" x="574.023438"/>
    <use xlink:href="#DejaVuSerif-Bold-70" x="640.722656"/>
    <use xlink:href="#DejaVuSerif-Bold-73" x="710.644531"/>
    <use xlink:href="#DejaVuSerif-Bold-20" x="766.943359"/>
   </g>
   <!-- loss 20%,latency 10ms,jitter 0ms,bandwidth 100Mbps. -->
   <g transform="translate(176.649375 47.512875) scale(0.12 -0.12)">
    <defs>
     <path id="DejaVuSerif-Bold-6c" d="M 1797 378 
L 2272 378 
L 2272 0 
L 219 0 
L 219 378 
L 691 378 
L 691 4488 
L 219 4488 
L 219 4863 
L 1797 4863 
L 1797 378 
z
" transform="scale(0.015625)"/>
     <path id="DejaVuSerif-Bold-32" d="M 844 3513 
L 469 3513 
L 469 4519 
Q 850 4634 1223 4692 
Q 1597 4750 1978 4750 
Q 2869 4750 3367 4386 
Q 3866 4022 3866 3372 
Q 3866 2909 3591 2542 
Q 3316 2175 2541 1672 
L 1241 819 
L 3450 819 
L 3450 1369 
L 3878 1369 
L 3878 0 
L 428 0 
L 428 763 
L 1119 1241 
Q 2003 1850 2297 2278 
Q 2591 2706 2591 3278 
Q 2591 3819 2367 4101 
Q 2144 4384 1716 4384 
Q 1347 4384 1125 4161 
Q 903 3938 844 3513 
z
" transform="scale(0.015625)"/>
     <path id="DejaVuSerif-Bold-30" d="M 2228 275 
Q 2603 275 2742 615 
Q 2881 956 2881 2328 
Q 2881 3691 2742 4037 
Q 2603 4384 2228 4384 
Q 1853 4384 1714 4043 
Q 1575 3703 1575 2328 
Q 1575 956 1714 615 
Q 1853 275 2228 275 
z
M 2228 -91 
Q 1294 -91 797 532 
Q 300 1156 300 2328 
Q 300 3500 797 4125 
Q 1294 4750 2228 4750 
Q 3159 4750 3656 4125 
Q 4153 3500 4153 2328 
Q 4153 1156 3656 532 
Q 3159 -91 2228 -91 
z
" transform="scale(0.015625)"/>
     <path id="DejaVuSerif-Bold-25" d="M 1381 4434 
Q 1181 4434 1093 4217 
Q 1006 4000 1006 3481 
Q 1006 2959 1093 2740 
Q 1181 2522 1381 2522 
Q 1584 2522 1671 2740 
Q 1759 2959 1759 3481 
Q 1759 4000 1671 4217 
Q 1584 4434 1381 4434 
z
M 1381 4750 
Q 1978 4750 2295 4423 
Q 2613 4097 2613 3481 
Q 2613 2866 2295 2537 
Q 1978 2209 1381 2209 
Q 788 2209 470 2537 
Q 153 2866 153 3481 
Q 153 4097 470 4423 
Q 788 4750 1381 4750 
z
M 4231 4750 
L 4769 4750 
L 1850 -91 
L 1313 -91 
L 4231 4750 
z
M 4697 2450 
Q 5294 2450 5609 2123 
Q 5925 1797 5925 1184 
Q 5925 569 5609 239 
Q 5294 -91 4697 -91 
Q 4103 -91 3786 239 
Q 3469 569 3469 1184 
Q 3469 1797 3786 2123 
Q 4103 2450 4697 2450 
z
M 4697 2138 
Q 4494 2138 4406 1920 
Q 4319 1703 4319 1184 
Q 4319 663 4408 444 
Q 4497 225 4697 225 
Q 4900 225 4987 444 
Q 5075 663 5075 1184 
Q 5075 1703 4987 1920 
Q 4900 2138 4697 2138 
z
" transform="scale(0.015625)"/>
     <path id="DejaVuSerif-Bold-2c" d="M 84 -616 
Q 409 -353 562 -28 
Q 716 297 716 728 
L 716 997 
L 1606 997 
L 1606 972 
Q 1606 281 1317 -217 
Q 1028 -716 428 -1056 
L 84 -616 
z
" transform="scale(0.015625)"/>
     <path id="DejaVuSerif-Bold-79" d="M 1997 -750 
Q 1847 -1116 1634 -1269 
Q 1422 -1422 1063 -1422 
Q 909 -1422 721 -1387 
Q 534 -1353 313 -1288 
L 313 -594 
L 666 -597 
Q 675 -838 779 -953 
Q 884 -1069 1094 -1069 
Q 1297 -1069 1422 -958 
Q 1547 -847 1672 -538 
L 1722 -422 
L 275 2944 
L -84 2944 
L -84 3322 
L 1831 3322 
L 1831 2944 
L 1434 2944 
L 2278 978 
L 3066 2944 
L 2625 2944 
L 2625 3322 
L 3872 3322 
L 3872 2944 
L 3469 2944 
L 1997 -750 
z
" transform="scale(0.015625)"/>
     <path id="DejaVuSerif-Bold-6d" d="M 3884 2778 
Q 4116 3109 4384 3261 
Q 4653 3413 5013 3413 
Q 5584 3413 5867 3089 
Q 6150 2766 6150 2113 
L 6150 378 
L 6625 378 
L 6625 0 
L 4647 0 
L 4647 378 
L 5044 378 
L 5044 1947 
Q 5044 2569 4948 2731 
Q 4853 2894 4594 2894 
Q 4300 2894 4137 2667 
Q 3975 2441 3975 2022 
L 3975 378 
L 4372 378 
L 4372 0 
L 2472 0 
L 2472 378 
L 2869 378 
L 2869 1947 
Q 2869 2569 2772 2731 
Q 2675 2894 2419 2894 
Q 2122 2894 1959 2667 
Q 1797 2441 1797 2022 
L 1797 378 
L 2194 378 
L 2194 0 
L 219 0 
L 219 378 
L 691 378 
L 691 2944 
L 219 2944 
L 219 3322 
L 1797 3322 
L 1797 2853 
Q 1991 3144 2241 3278 
Q 2491 3413 2834 3413 
Q 3241 3413 3494 3258 
Q 3747 3103 3884 2778 
z
" transform="scale(0.015625)"/>
     <path id="DejaVuSerif-Bold-6a" d="M 556 4263 
Q 556 4516 729 4689 
Q 903 4863 1159 4863 
Q 1403 4863 1578 4688 
Q 1753 4513 1753 4263 
Q 1753 4016 1579 3842 
Q 1406 3669 1159 3669 
Q 906 3669 731 3841 
Q 556 4013 556 4263 
z
M 684 2944 
L 213 2944 
L 213 3322 
L 1791 3322 
L 1791 -391 
Q 1791 -900 1430 -1161 
Q 1069 -1422 366 -1422 
Q 178 -1422 -34 -1390 
Q -247 -1359 -475 -1300 
L -475 -594 
L -122 -597 
Q -116 -847 -23 -958 
Q 69 -1069 275 -1069 
Q 503 -1069 593 -922 
Q 684 -775 684 -391 
L 684 2944 
z
" transform="scale(0.015625)"/>
     <path id="DejaVuSerif-Bold-62" d="M 622 378 
L 622 4488 
L 147 4488 
L 147 4863 
L 1728 4863 
L 1728 2900 
Q 1869 3159 2106 3286 
Q 2344 3413 2694 3413 
Q 3403 3413 3811 2945 
Q 4219 2478 4219 1663 
Q 4219 847 3811 378 
Q 3403 -91 2694 -91 
Q 2344 -91 2106 36 
Q 1869 163 1728 422 
L 1728 0 
L 147 0 
L 147 378 
L 622 378 
z
M 1728 1497 
Q 1728 916 1876 656 
Q 2025 397 2356 397 
Q 2697 397 2836 672 
Q 2975 947 2975 1663 
Q 2975 2378 2836 2651 
Q 2697 2925 2356 2925 
Q 2025 2925 1876 2665 
Q 1728 2406 1728 1825 
L 1728 1497 
z
" transform="scale(0.015625)"/>
     <path id="DejaVuSerif-Bold-64" d="M 2747 1497 
L 2747 1825 
Q 2747 2406 2597 2665 
Q 2447 2925 2119 2925 
Q 1775 2925 1636 2651 
Q 1497 2378 1497 1663 
Q 1497 947 1637 672 
Q 1778 397 2119 397 
Q 2447 397 2597 656 
Q 2747 916 2747 1497 
z
M 3853 378 
L 4325 378 
L 4325 0 
L 2747 0 
L 2747 422 
Q 2606 163 2367 36 
Q 2128 -91 1778 -91 
Q 1072 -91 667 378 
Q 263 847 263 1663 
Q 263 2481 667 2947 
Q 1072 3413 1778 3413 
Q 2128 3413 2367 3286 
Q 2606 3159 2747 2900 
L 2747 4488 
L 2272 4488 
L 2272 4863 
L 3853 4863 
L 3853 378 
z
" transform="scale(0.015625)"/>
     <path id="DejaVuSerif-Bold-77" d="M 3450 3322 
L 4206 1106 
L 4831 2944 
L 4397 2944 
L 4397 3322 
L 5638 3322 
L 5638 2944 
L 5247 2944 
L 4244 0 
L 3481 0 
L 2778 2081 
L 2069 0 
L 1313 0 
L 306 2944 
L -56 2944 
L -56 3322 
L 1825 3322 
L 1825 2944 
L 1434 2944 
L 2047 1147 
L 2791 3322 
L 3450 3322 
z
" transform="scale(0.015625)"/>
     <path id="DejaVuSerif-Bold-4d" d="M 269 0 
L 269 378 
L 863 378 
L 863 4288 
L 269 4288 
L 269 4666 
L 2194 4666 
L 3525 1672 
L 4863 4666 
L 6784 4666 
L 6784 4288 
L 6188 4288 
L 6188 378 
L 6784 378 
L 6784 0 
L 4384 0 
L 4384 378 
L 4978 378 
L 4978 3938 
L 3531 684 
L 2741 684 
L 1300 3938 
L 1300 378 
L 1894 378 
L 1894 0 
L 269 0 
z
" transform="scale(0.015625)"/>
     <path id="DejaVuSerif-Bold-2e" d="M 519 506 
Q 519 750 694 925 
Q 869 1100 1113 1100 
Q 1359 1100 1534 925 
Q 1709 750 1709 506 
Q 1709 259 1534 84 
Q 1359 -91 1113 -91 
Q 869 -91 694 84 
Q 519 259 519 506 
z
" transform="scale(0.015625)"/>
    </defs>
    <use xlink:href="#DejaVuSerif-Bold-6c"/>
    <use xlink:href="#DejaVuSerif-Bold-6f" x="37.988281"/>
    <use xlink:href="#DejaVuSerif-Bold-73" x="104.6875"/>
    <use xlink:href="#DejaVuSerif-Bold-73" x="160.986328"/>
    <use xlink:href="#DejaVuSerif-Bold-20" x="217.285156"/>
    <use xlink:href="#DejaVuSerif-Bold-32" x="252.099609"/>
    <use xlink:href="#DejaVuSerif-Bold-30" x="321.679688"/>
    <use xlink:href="#DejaVuSerif-Bold-25" x="391.259766"/>
    <use xlink:href="#DejaVuSerif-Bold-2c" x="486.279297"/>
    <use xlink:href="#DejaVuSerif-Bold-6c" x="521.09375"/>
    <use xlink:href="#DejaVuSerif-Bold-61" x="559.082031"/>
    <use xlink:href="#DejaVuSerif-Bold-74" x="623.876953"/>
    <use xlink:href="#DejaVuSerif-Bold-65" x="670.068359"/>
    <use xlink:href="#DejaVuSerif-Bold-6e" x="733.691406"/>
    <use xlink:href="#DejaVuSerif-Bold-63" x="806.396484"/>
    <use xlink:href="#DejaVuSerif-Bold-79" x="867.285156"/>
    <use xlink:href="#DejaVuSerif-Bold-20" x="925.390625"/>
    <use xlink:href="#DejaVuSerif-Bold-31" x="960.205078"/>
    <use xlink:href="#DejaVuSerif-Bold-30" x="1029.785156"/>
    <use xlink:href="#DejaVuSerif-Bold-6d" x="1099.365234"/>
    <use xlink:href="#DejaVuSerif-Bold-73" x="1205.175781"/>
    <use xlink:href="#DejaVuSerif-Bold-2c" x="1261.474609"/>
    <use xlink:href="#DejaVuSerif-Bold-6a" x="1296.289062"/>
    <use xlink:href="#DejaVuSerif-Bold-69" x="1332.470703"/>
    <use xlink:href="#DejaVuSerif-Bold-74" x="1370.458984"/>
    <use xlink:href="#DejaVuSerif-Bold-74" x="1416.650391"/>
    <use xlink:href="#DejaVuSerif-Bold-65" x="1462.841797"/>
    <use xlink:href="#DejaVuSerif-Bold-72" x="1526.464844"/>
    <use xlink:href="#DejaVuSerif-Bold-20" x="1579.150391"/>
    <use xlink:href="#DejaVuSerif-Bold-30" x="1613.964844"/>
    <use xlink:href="#DejaVuSerif-Bold-6d" x="1683.544922"/>
    <use xlink:href="#DejaVuSerif-Bold-73" x="1789.355469"/>
    <use xlink:href="#DejaVuSerif-Bold-2c" x="1845.654297"/>
    <use xlink:href="#DejaVuSerif-Bold-62" x="1880.46875"/>
    <use xlink:href="#DejaVuSerif-Bold-61" x="1950.390625"/>
    <use xlink:href="#DejaVuSerif-Bold-6e" x="2015.185547"/>
    <use xlink:href="#DejaVuSerif-Bold-64" x="2087.890625"/>
    <use xlink:href="#DejaVuSerif-Bold-77" x="2157.8125"/>
    <use xlink:href="#DejaVuSerif-Bold-69" x="2243.896484"/>
    <use xlink:href="#DejaVuSerif-Bold-64" x="2281.884766"/>
    <use xlink:href="#DejaVuSerif-Bold-74" x="2351.806641"/>
    <use xlink:href="#DejaVuSerif-Bold-68" x="2397.998047"/>
    <use xlink:href="#DejaVuSerif-Bold-20" x="2470.703125"/>
    <use xlink:href="#DejaVuSerif-Bold-31" x="2505.517578"/>
    <use xlink:href="#DejaVuSerif-Bold-30" x="2575.097656"/>
    <use xlink:href="#DejaVuSerif-Bold-30" x="2644.677734"/>
    <use xlink:href="#DejaVuSerif-Bold-4d" x="2714.257812"/>
    <use xlink:href="#DejaVuSerif-Bold-62" x="2824.951172"/>
    <use xlink:href="#DejaVuSerif-Bold-70" x="2894.873047"/>
    <use xlink:href="#DejaVuSerif-Bold-73" x="2964.794922"/>
    <use xlink:href="#DejaVuSerif-Bold-2e" x="3021.09375"/>
   </g>
  </g>
 </g>
 <defs>
  <clipPath id="pca459afd59">
   <rect x="55.28" y="99.024" width="653.92" height="190.288"/>
  </clipPath>
  <clipPath id="p12a12bb8ed">
   <rect x="55.28" y="344.472" width="653.92" height="190.288"/>
  </clipPath>
 </defs>
</svg>
