<?xml version="1.0" encoding="utf-8" standalone="no"?>
<!DOCTYPE svg PUBLIC "-//W3C//DTD SVG 1.1//EN"
  "http://www.w3.org/Graphics/SVG/1.1/DTD/svg11.dtd">
<svg xmlns:xlink="http://www.w3.org/1999/xlink" width="460.8pt" height="345.6pt" viewBox="0 0 460.8 345.6" xmlns="http://www.w3.org/2000/svg" version="1.1">
 <metadata>
  <rdf:RDF xmlns:dc="http://purl.org/dc/elements/1.1/" xmlns:cc="http://creativecommons.org/ns#" xmlns:rdf="http://www.w3.org/1999/02/22-rdf-syntax-ns#">
   <cc:Work>
    <dc:type rdf:resource="http://purl.org/dc/dcmitype/StillImage"/>
    <dc:date>2024-08-23T03:28:29.496748</dc:date>
    <dc:format>image/svg+xml</dc:format>
    <dc:creator>
     <cc:Agent>
      <dc:title>Matplotlib v3.9.2, https://matplotlib.org/</dc:title>
     </cc:Agent>
    </dc:creator>
   </cc:Work>
  </rdf:RDF>
 </metadata>
 <defs>
  <style type="text/css">*{stroke-linejoin: round; stroke-linecap: butt}</style>
 </defs>
 <g id="figure_1">
  <g id="patch_1">
   <path d="M 0 345.6 
L 460.8 345.6 
L 460.8 0 
L 0 0 
z
" style="fill: #ffffff"/>
  </g>
  <g id="axes_1">
   <g id="patch_2">
    <path d="M 57.6 307.584 
L 414.72 307.584 
L 414.72 41.472 
L 57.6 41.472 
z
" style="fill: #ffffff"/>
   </g>
   <g id="matplotlib.axis_1">
    <g id="xtick_1">
     <g id="line2d_1">
      <defs>
       <path id="maca7fedd7f" d="M 0 0 
L 0 3.5 
" style="stroke: #000000; stroke-width: 0.8"/>
      </defs>
      <g>
       <use xlink:href="#maca7fedd7f" x="91.124581" y="307.584" style="stroke: #000000; stroke-width: 0.8"/>
      </g>
     </g>
     <g id="text_1">
      <!-- 100 -->
      <g transform="translate(81.580831 322.182437) scale(0.1 -0.1)">
       <defs>
        <path id="DejaVuSerif-31" d="M 909 0 
L 909 331 
L 1722 331 
L 1722 4213 
L 781 3603 
L 781 4013 
L 1919 4750 
L 2350 4750 
L 2350 331 
L 3163 331 
L 3163 0 
L 909 0 
z
" transform="scale(0.015625)"/>
        <path id="DejaVuSerif-30" d="M 2034 219 
Q 2513 219 2750 744 
Q 2988 1269 2988 2328 
Q 2988 3391 2750 3916 
Q 2513 4441 2034 4441 
Q 1556 4441 1318 3916 
Q 1081 3391 1081 2328 
Q 1081 1269 1318 744 
Q 1556 219 2034 219 
z
M 2034 -91 
Q 1275 -91 848 546 
Q 422 1184 422 2328 
Q 422 3475 848 4112 
Q 1275 4750 2034 4750 
Q 2797 4750 3222 4112 
Q 3647 3475 3647 2328 
Q 3647 1184 3222 546 
Q 2797 -91 2034 -91 
z
" transform="scale(0.015625)"/>
       </defs>
       <use xlink:href="#DejaVuSerif-31"/>
       <use xlink:href="#DejaVuSerif-30" x="63.623047"/>
       <use xlink:href="#DejaVuSerif-30" x="127.246094"/>
      </g>
     </g>
    </g>
    <g id="xtick_2">
     <g id="line2d_2">
      <g>
       <use xlink:href="#maca7fedd7f" x="134.354214" y="307.584" style="stroke: #000000; stroke-width: 0.8"/>
      </g>
     </g>
     <g id="text_2">
      <!-- 200 -->
      <g transform="translate(124.810464 322.182437) scale(0.1 -0.1)">
       <defs>
        <path id="DejaVuSerif-32" d="M 819 3553 
L 469 3553 
L 469 4384 
Q 803 4563 1142 4656 
Q 1481 4750 1806 4750 
Q 2534 4750 2956 4397 
Q 3378 4044 3378 3438 
Q 3378 2753 2422 1800 
Q 2347 1728 2309 1691 
L 1131 513 
L 3078 513 
L 3078 1088 
L 3444 1088 
L 3444 0 
L 434 0 
L 434 341 
L 1850 1753 
Q 2319 2222 2519 2614 
Q 2719 3006 2719 3438 
Q 2719 3909 2473 4175 
Q 2228 4441 1797 4441 
Q 1350 4441 1106 4219 
Q 863 3997 819 3553 
z
" transform="scale(0.015625)"/>
       </defs>
       <use xlink:href="#DejaVuSerif-32"/>
       <use xlink:href="#DejaVuSerif-30" x="63.623047"/>
       <use xlink:href="#DejaVuSerif-30" x="127.246094"/>
      </g>
     </g>
    </g>
    <g id="xtick_3">
     <g id="line2d_3">
      <g>
       <use xlink:href="#maca7fedd7f" x="177.583847" y="307.584" style="stroke: #000000; stroke-width: 0.8"/>
      </g>
     </g>
     <g id="text_3">
      <!-- 300 -->
      <g transform="translate(168.040097 322.182437) scale(0.1 -0.1)">
       <defs>
        <path id="DejaVuSerif-33" d="M 622 4469 
Q 988 4606 1323 4678 
Q 1659 4750 1953 4750 
Q 2638 4750 3022 4454 
Q 3406 4159 3406 3634 
Q 3406 3213 3140 2930 
Q 2875 2647 2388 2547 
Q 2963 2466 3280 2130 
Q 3597 1794 3597 1259 
Q 3597 606 3158 257 
Q 2719 -91 1894 -91 
Q 1528 -91 1179 -12 
Q 831 66 488 225 
L 488 1131 
L 838 1131 
Q 869 681 1141 450 
Q 1413 219 1906 219 
Q 2384 219 2661 495 
Q 2938 772 2938 1253 
Q 2938 1803 2653 2086 
Q 2369 2369 1819 2369 
L 1522 2369 
L 1522 2688 
L 1678 2688 
Q 2225 2688 2498 2914 
Q 2772 3141 2772 3597 
Q 2772 4006 2547 4223 
Q 2322 4441 1900 4441 
Q 1478 4441 1245 4241 
Q 1013 4041 972 3647 
L 622 3647 
L 622 4469 
z
" transform="scale(0.015625)"/>
       </defs>
       <use xlink:href="#DejaVuSerif-33"/>
       <use xlink:href="#DejaVuSerif-30" x="63.623047"/>
       <use xlink:href="#DejaVuSerif-30" x="127.246094"/>
      </g>
     </g>
    </g>
    <g id="xtick_4">
     <g id="line2d_4">
      <g>
       <use xlink:href="#maca7fedd7f" x="220.81348" y="307.584" style="stroke: #000000; stroke-width: 0.8"/>
      </g>
     </g>
     <g id="text_4">
      <!-- 400 -->
      <g transform="translate(211.26973 322.182437) scale(0.1 -0.1)">
       <defs>
        <path id="DejaVuSerif-34" d="M 2234 1581 
L 2234 4063 
L 641 1581 
L 2234 1581 
z
M 3609 0 
L 1484 0 
L 1484 331 
L 2234 331 
L 2234 1247 
L 197 1247 
L 197 1588 
L 2241 4750 
L 2859 4750 
L 2859 1581 
L 3750 1581 
L 3750 1247 
L 2859 1247 
L 2859 331 
L 3609 331 
L 3609 0 
z
" transform="scale(0.015625)"/>
       </defs>
       <use xlink:href="#DejaVuSerif-34"/>
       <use xlink:href="#DejaVuSerif-30" x="63.623047"/>
       <use xlink:href="#DejaVuSerif-30" x="127.246094"/>
      </g>
     </g>
    </g>
    <g id="xtick_5">
     <g id="line2d_5">
      <g>
       <use xlink:href="#maca7fedd7f" x="264.043113" y="307.584" style="stroke: #000000; stroke-width: 0.8"/>
      </g>
     </g>
     <g id="text_5">
      <!-- 500 -->
      <g transform="translate(254.499363 322.182437) scale(0.1 -0.1)">
       <defs>
        <path id="DejaVuSerif-35" d="M 3219 4666 
L 3219 4153 
L 1081 4153 
L 1081 2816 
Q 1244 2928 1461 2984 
Q 1678 3041 1947 3041 
Q 2703 3041 3140 2622 
Q 3578 2203 3578 1478 
Q 3578 738 3136 323 
Q 2694 -91 1894 -91 
Q 1572 -91 1234 -12 
Q 897 66 544 225 
L 544 1131 
L 897 1131 
Q 925 688 1179 453 
Q 1434 219 1894 219 
Q 2388 219 2653 544 
Q 2919 869 2919 1478 
Q 2919 2084 2655 2407 
Q 2391 2731 1894 2731 
Q 1613 2731 1398 2631 
Q 1184 2531 1019 2322 
L 750 2322 
L 750 4666 
L 3219 4666 
z
" transform="scale(0.015625)"/>
       </defs>
       <use xlink:href="#DejaVuSerif-35"/>
       <use xlink:href="#DejaVuSerif-30" x="63.623047"/>
       <use xlink:href="#DejaVuSerif-30" x="127.246094"/>
      </g>
     </g>
    </g>
    <g id="xtick_6">
     <g id="line2d_6">
      <g>
       <use xlink:href="#maca7fedd7f" x="307.272747" y="307.584" style="stroke: #000000; stroke-width: 0.8"/>
      </g>
     </g>
     <g id="text_6">
      <!-- 600 -->
      <g transform="translate(297.728997 322.182437) scale(0.1 -0.1)">
       <defs>
        <path id="DejaVuSerif-36" d="M 2094 219 
Q 2534 219 2771 542 
Q 3009 866 3009 1472 
Q 3009 2078 2771 2401 
Q 2534 2725 2094 2725 
Q 1647 2725 1412 2412 
Q 1178 2100 1178 1509 
Q 1178 888 1415 553 
Q 1653 219 2094 219 
z
M 1075 2569 
Q 1288 2803 1556 2918 
Q 1825 3034 2163 3034 
Q 2859 3034 3264 2615 
Q 3669 2197 3669 1472 
Q 3669 763 3233 336 
Q 2797 -91 2069 -91 
Q 1278 -91 853 498 
Q 428 1088 428 2181 
Q 428 3406 931 4078 
Q 1434 4750 2350 4750 
Q 2597 4750 2869 4703 
Q 3141 4656 3425 4563 
L 3425 3794 
L 3072 3794 
Q 3034 4109 2831 4275 
Q 2628 4441 2284 4441 
Q 1678 4441 1381 3981 
Q 1084 3522 1075 2569 
z
" transform="scale(0.015625)"/>
       </defs>
       <use xlink:href="#DejaVuSerif-36"/>
       <use xlink:href="#DejaVuSerif-30" x="63.623047"/>
       <use xlink:href="#DejaVuSerif-30" x="127.246094"/>
      </g>
     </g>
    </g>
    <g id="xtick_7">
     <g id="line2d_7">
      <g>
       <use xlink:href="#maca7fedd7f" x="350.50238" y="307.584" style="stroke: #000000; stroke-width: 0.8"/>
      </g>
     </g>
     <g id="text_7">
      <!-- 700 -->
      <g transform="translate(340.95863 322.182437) scale(0.1 -0.1)">
       <defs>
        <path id="DejaVuSerif-37" d="M 3609 4347 
L 1784 0 
L 1319 0 
L 3059 4153 
L 903 4153 
L 903 3578 
L 538 3578 
L 538 4666 
L 3609 4666 
L 3609 4347 
z
" transform="scale(0.015625)"/>
       </defs>
       <use xlink:href="#DejaVuSerif-37"/>
       <use xlink:href="#DejaVuSerif-30" x="63.623047"/>
       <use xlink:href="#DejaVuSerif-30" x="127.246094"/>
      </g>
     </g>
    </g>
    <g id="xtick_8">
     <g id="line2d_8">
      <g>
       <use xlink:href="#maca7fedd7f" x="393.732013" y="307.584" style="stroke: #000000; stroke-width: 0.8"/>
      </g>
     </g>
     <g id="text_8">
      <!-- 800 -->
      <g transform="translate(384.188263 322.182437) scale(0.1 -0.1)">
       <defs>
        <path id="DejaVuSerif-38" d="M 2981 1275 
Q 2981 1775 2732 2051 
Q 2484 2328 2034 2328 
Q 1584 2328 1336 2051 
Q 1088 1775 1088 1275 
Q 1088 772 1336 495 
Q 1584 219 2034 219 
Q 2484 219 2732 495 
Q 2981 772 2981 1275 
z
M 2853 3541 
Q 2853 3966 2637 4203 
Q 2422 4441 2034 4441 
Q 1650 4441 1433 4203 
Q 1216 3966 1216 3541 
Q 1216 3113 1433 2875 
Q 1650 2638 2034 2638 
Q 2422 2638 2637 2875 
Q 2853 3113 2853 3541 
z
M 2516 2484 
Q 3047 2413 3344 2092 
Q 3641 1772 3641 1275 
Q 3641 619 3225 264 
Q 2809 -91 2034 -91 
Q 1263 -91 845 264 
Q 428 619 428 1275 
Q 428 1772 725 2092 
Q 1022 2413 1556 2484 
Q 1084 2569 832 2842 
Q 581 3116 581 3541 
Q 581 4103 968 4426 
Q 1356 4750 2034 4750 
Q 2713 4750 3100 4426 
Q 3488 4103 3488 3541 
Q 3488 3116 3236 2842 
Q 2984 2569 2516 2484 
z
" transform="scale(0.015625)"/>
       </defs>
       <use xlink:href="#DejaVuSerif-38"/>
       <use xlink:href="#DejaVuSerif-30" x="63.623047"/>
       <use xlink:href="#DejaVuSerif-30" x="127.246094"/>
      </g>
     </g>
    </g>
    <g id="text_9">
     <!-- RTT (ms) -->
     <g transform="translate(215.435 334.340875) scale(0.08 -0.08)">
      <defs>
       <path id="DejaVuSerif-Bold-52" d="M 3397 2278 
Q 3675 2238 3865 2094 
Q 4056 1950 4197 1678 
L 4878 378 
L 5356 378 
L 5356 0 
L 3822 0 
L 3078 1409 
Q 2863 1847 2711 1967 
Q 2559 2088 2291 2088 
L 2100 2088 
L 2100 378 
L 2700 378 
L 2700 0 
L 300 0 
L 300 378 
L 897 378 
L 897 4288 
L 300 4288 
L 300 4666 
L 2963 4666 
Q 3775 4666 4217 4339 
Q 4659 4013 4659 3413 
Q 4659 2925 4345 2642 
Q 4031 2359 3397 2278 
z
M 2100 2463 
L 2509 2463 
Q 2947 2463 3183 2700 
Q 3419 2938 3419 3378 
Q 3419 3819 3183 4053 
Q 2947 4288 2509 4288 
L 2100 4288 
L 2100 2463 
z
" transform="scale(0.015625)"/>
       <path id="DejaVuSerif-Bold-54" d="M 1159 0 
L 1159 378 
L 1778 378 
L 1778 4238 
L 500 4238 
L 500 3500 
L 72 3500 
L 72 4666 
L 4697 4666 
L 4697 3500 
L 4275 3500 
L 4275 4238 
L 2988 4238 
L 2988 378 
L 3609 378 
L 3609 0 
L 1159 0 
z
" transform="scale(0.015625)"/>
       <path id="DejaVuSerif-Bold-20" transform="scale(0.015625)"/>
       <path id="DejaVuSerif-Bold-28" d="M 2694 -997 
Q 1641 -606 1122 122 
Q 603 850 603 1931 
Q 603 3013 1115 3731 
Q 1628 4450 2694 4863 
L 2694 4488 
Q 2200 4188 1983 3598 
Q 1766 3009 1766 1931 
Q 1766 856 1983 267 
Q 2200 -322 2694 -622 
L 2694 -997 
z
" transform="scale(0.015625)"/>
       <path id="DejaVuSerif-Bold-6d" d="M 3884 2778 
Q 4116 3109 4384 3261 
Q 4653 3413 5013 3413 
Q 5584 3413 5867 3089 
Q 6150 2766 6150 2113 
L 6150 378 
L 6625 378 
L 6625 0 
L 4647 0 
L 4647 378 
L 5044 378 
L 5044 1947 
Q 5044 2569 4948 2731 
Q 4853 2894 4594 2894 
Q 4300 2894 4137 2667 
Q 3975 2441 3975 2022 
L 3975 378 
L 4372 378 
L 4372 0 
L 2472 0 
L 2472 378 
L 2869 378 
L 2869 1947 
Q 2869 2569 2772 2731 
Q 2675 2894 2419 2894 
Q 2122 2894 1959 2667 
Q 1797 2441 1797 2022 
L 1797 378 
L 2194 378 
L 2194 0 
L 219 0 
L 219 378 
L 691 378 
L 691 2944 
L 219 2944 
L 219 3322 
L 1797 3322 
L 1797 2853 
Q 1991 3144 2241 3278 
Q 2491 3413 2834 3413 
Q 3241 3413 3494 3258 
Q 3747 3103 3884 2778 
z
" transform="scale(0.015625)"/>
       <path id="DejaVuSerif-Bold-73" d="M 300 97 
L 300 1025 
L 653 1025 
Q 697 653 931 458 
Q 1166 263 1569 263 
Q 1906 263 2086 380 
Q 2266 497 2266 716 
Q 2266 916 2152 1025 
Q 2038 1134 1709 1216 
L 1253 1331 
Q 738 1459 506 1698 
Q 275 1938 275 2344 
Q 275 2884 650 3148 
Q 1025 3413 1806 3413 
Q 2100 3413 2433 3364 
Q 2766 3316 3169 3213 
L 3169 2375 
L 2816 2375 
Q 2788 2716 2573 2887 
Q 2359 3059 1959 3059 
Q 1622 3059 1448 2951 
Q 1275 2844 1275 2638 
Q 1275 2469 1375 2372 
Q 1475 2275 1734 2209 
L 2188 2094 
Q 2841 1928 3091 1684 
Q 3341 1441 3341 1006 
Q 3341 444 2939 176 
Q 2538 -91 1691 -91 
Q 1381 -91 1034 -44 
Q 688 3 300 97 
z
" transform="scale(0.015625)"/>
       <path id="DejaVuSerif-Bold-29" d="M 325 -997 
L 325 -622 
Q 819 -322 1036 267 
Q 1253 856 1253 1931 
Q 1253 3009 1036 3598 
Q 819 4188 325 4488 
L 325 4863 
Q 1391 4450 1905 3731 
Q 2419 3013 2419 1931 
Q 2419 850 1898 122 
Q 1378 -606 325 -997 
z
" transform="scale(0.015625)"/>
      </defs>
      <use xlink:href="#DejaVuSerif-Bold-52"/>
      <use xlink:href="#DejaVuSerif-Bold-54" x="81.355469"/>
      <use xlink:href="#DejaVuSerif-Bold-54" x="152.144531"/>
      <use xlink:href="#DejaVuSerif-Bold-20" x="226.558594"/>
      <use xlink:href="#DejaVuSerif-Bold-28" x="261.373047"/>
      <use xlink:href="#DejaVuSerif-Bold-6d" x="308.6875"/>
      <use xlink:href="#DejaVuSerif-Bold-73" x="414.498047"/>
      <use xlink:href="#DejaVuSerif-Bold-29" x="470.796875"/>
     </g>
    </g>
   </g>
   <g id="matplotlib.axis_2">
    <g id="ytick_1">
     <g id="line2d_9">
      <defs>
       <path id="m5ba9bc2da2" d="M 0 0 
L -3.5 0 
" style="stroke: #000000; stroke-width: 0.8"/>
      </defs>
      <g>
       <use xlink:href="#m5ba9bc2da2" x="57.6" y="295.609021" style="stroke: #000000; stroke-width: 0.8"/>
      </g>
     </g>
     <g id="text_10">
      <!-- 0.0 -->
      <g transform="translate(34.696875 299.408239) scale(0.1 -0.1)">
       <defs>
        <path id="DejaVuSerif-2e" d="M 603 325 
Q 603 500 722 622 
Q 841 744 1019 744 
Q 1191 744 1312 622 
Q 1434 500 1434 325 
Q 1434 153 1312 31 
Q 1191 -91 1019 -91 
Q 841 -91 722 29 
Q 603 150 603 325 
z
" transform="scale(0.015625)"/>
       </defs>
       <use xlink:href="#DejaVuSerif-30"/>
       <use xlink:href="#DejaVuSerif-2e" x="63.623047"/>
       <use xlink:href="#DejaVuSerif-30" x="95.410156"/>
      </g>
     </g>
    </g>
    <g id="ytick_2">
     <g id="line2d_10">
      <g>
       <use xlink:href="#m5ba9bc2da2" x="57.6" y="247.200816" style="stroke: #000000; stroke-width: 0.8"/>
      </g>
     </g>
     <g id="text_11">
      <!-- 0.2 -->
      <g transform="translate(34.696875 251.000035) scale(0.1 -0.1)">
       <use xlink:href="#DejaVuSerif-30"/>
       <use xlink:href="#DejaVuSerif-2e" x="63.623047"/>
       <use xlink:href="#DejaVuSerif-32" x="95.410156"/>
      </g>
     </g>
    </g>
    <g id="ytick_3">
     <g id="line2d_11">
      <g>
       <use xlink:href="#m5ba9bc2da2" x="57.6" y="198.792612" style="stroke: #000000; stroke-width: 0.8"/>
      </g>
     </g>
     <g id="text_12">
      <!-- 0.4 -->
      <g transform="translate(34.696875 202.591831) scale(0.1 -0.1)">
       <use xlink:href="#DejaVuSerif-30"/>
       <use xlink:href="#DejaVuSerif-2e" x="63.623047"/>
       <use xlink:href="#DejaVuSerif-34" x="95.410156"/>
      </g>
     </g>
    </g>
    <g id="ytick_4">
     <g id="line2d_12">
      <g>
       <use xlink:href="#m5ba9bc2da2" x="57.6" y="150.384408" style="stroke: #000000; stroke-width: 0.8"/>
      </g>
     </g>
     <g id="text_13">
      <!-- 0.6 -->
      <g transform="translate(34.696875 154.183627) scale(0.1 -0.1)">
       <use xlink:href="#DejaVuSerif-30"/>
       <use xlink:href="#DejaVuSerif-2e" x="63.623047"/>
       <use xlink:href="#DejaVuSerif-36" x="95.410156"/>
      </g>
     </g>
    </g>
    <g id="ytick_5">
     <g id="line2d_13">
      <g>
       <use xlink:href="#m5ba9bc2da2" x="57.6" y="101.976204" style="stroke: #000000; stroke-width: 0.8"/>
      </g>
     </g>
     <g id="text_14">
      <!-- 0.8 -->
      <g transform="translate(34.696875 105.775423) scale(0.1 -0.1)">
       <use xlink:href="#DejaVuSerif-30"/>
       <use xlink:href="#DejaVuSerif-2e" x="63.623047"/>
       <use xlink:href="#DejaVuSerif-38" x="95.410156"/>
      </g>
     </g>
    </g>
    <g id="ytick_6">
     <g id="line2d_14">
      <g>
       <use xlink:href="#m5ba9bc2da2" x="57.6" y="53.568" style="stroke: #000000; stroke-width: 0.8"/>
      </g>
     </g>
     <g id="text_15">
      <!-- 1.0 -->
      <g transform="translate(34.696875 57.367219) scale(0.1 -0.1)">
       <use xlink:href="#DejaVuSerif-31"/>
       <use xlink:href="#DejaVuSerif-2e" x="63.623047"/>
       <use xlink:href="#DejaVuSerif-30" x="95.410156"/>
      </g>
     </g>
    </g>
    <g id="text_16">
     <!-- Cumulative Probability -->
     <g transform="translate(28.919375 226.199875) rotate(-90) scale(0.08 -0.08)">
      <defs>
       <path id="DejaVuSerif-Bold-43" d="M 4769 1331 
Q 4584 609 4106 259 
Q 3628 -91 2822 -91 
Q 1641 -91 955 561 
Q 269 1213 269 2328 
Q 269 3447 955 4098 
Q 1641 4750 2822 4750 
Q 3238 4750 3688 4650 
Q 4138 4550 4641 4347 
L 4641 3200 
L 4244 3200 
Q 4122 3788 3800 4080 
Q 3478 4372 2950 4372 
Q 2269 4372 1937 3870 
Q 1606 3369 1606 2328 
Q 1606 1288 1937 788 
Q 2269 288 2956 288 
Q 3422 288 3717 547 
Q 4013 806 4147 1331 
L 4769 1331 
z
" transform="scale(0.015625)"/>
       <path id="DejaVuSerif-Bold-75" d="M 3963 3322 
L 3963 378 
L 4434 378 
L 4434 0 
L 2853 0 
L 2853 469 
Q 2656 172 2400 40 
Q 2144 -91 1753 -91 
Q 1194 -91 908 239 
Q 622 569 622 1209 
L 622 2944 
L 147 2944 
L 147 3322 
L 1728 3322 
L 1728 1381 
Q 1728 763 1831 595 
Q 1934 428 2209 428 
Q 2544 428 2698 675 
Q 2853 922 2853 1459 
L 2853 2944 
L 2450 2944 
L 2450 3322 
L 3963 3322 
z
" transform="scale(0.015625)"/>
       <path id="DejaVuSerif-Bold-6c" d="M 1797 378 
L 2272 378 
L 2272 0 
L 219 0 
L 219 378 
L 691 378 
L 691 4488 
L 219 4488 
L 219 4863 
L 1797 4863 
L 1797 378 
z
" transform="scale(0.015625)"/>
       <path id="DejaVuSerif-Bold-61" d="M 3525 2041 
L 3525 378 
L 4000 378 
L 4000 0 
L 2419 0 
L 2419 422 
Q 2200 159 1931 34 
Q 1663 -91 1319 -91 
Q 809 -91 536 182 
Q 263 456 263 966 
Q 263 1525 655 1803 
Q 1047 2081 1838 2081 
L 2419 2081 
L 2419 2278 
Q 2419 2681 2228 2873 
Q 2038 3066 1638 3066 
Q 1306 3066 1126 2930 
Q 947 2794 872 2484 
L 519 2484 
L 519 3200 
Q 816 3306 1134 3359 
Q 1453 3413 1806 3413 
Q 2697 3413 3111 3081 
Q 3525 2750 3525 2041 
z
M 2419 1044 
L 2419 1709 
L 2003 1709 
Q 1694 1709 1528 1540 
Q 1363 1372 1363 1056 
Q 1363 741 1483 584 
Q 1603 428 1850 428 
Q 2106 428 2262 597 
Q 2419 766 2419 1044 
z
" transform="scale(0.015625)"/>
       <path id="DejaVuSerif-Bold-74" d="M 634 2944 
L 153 2944 
L 153 3322 
L 634 3322 
L 634 4353 
L 1741 4353 
L 1741 3322 
L 2663 3322 
L 2663 2944 
L 1741 2944 
L 1741 909 
Q 1741 475 1809 369 
Q 1878 263 2059 263 
Q 2259 263 2356 397 
Q 2453 531 2459 813 
L 2925 813 
Q 2897 313 2651 111 
Q 2406 -91 1806 -91 
Q 1122 -91 878 123 
Q 634 338 634 909 
L 634 2944 
z
" transform="scale(0.015625)"/>
       <path id="DejaVuSerif-Bold-69" d="M 588 4263 
Q 588 4516 763 4689 
Q 938 4863 1191 4863 
Q 1438 4863 1611 4689 
Q 1784 4516 1784 4263 
Q 1784 4016 1611 3842 
Q 1438 3669 1191 3669 
Q 938 3669 763 3841 
Q 588 4013 588 4263 
z
M 1797 378 
L 2272 378 
L 2272 0 
L 219 0 
L 219 378 
L 691 378 
L 691 2944 
L 219 2944 
L 219 3322 
L 1797 3322 
L 1797 378 
z
" transform="scale(0.015625)"/>
       <path id="DejaVuSerif-Bold-76" d="M 1428 0 
L 250 2944 
L -116 2944 
L -116 3322 
L 1791 3322 
L 1791 2944 
L 1388 2944 
L 2228 844 
L 3066 2944 
L 2631 2944 
L 2631 3322 
L 3878 3322 
L 3878 2944 
L 3494 2944 
L 2316 0 
L 1428 0 
z
" transform="scale(0.015625)"/>
       <path id="DejaVuSerif-Bold-65" d="M 2566 1875 
Q 2566 2531 2444 2795 
Q 2322 3059 2028 3059 
Q 1744 3059 1620 2800 
Q 1497 2541 1497 1931 
L 1497 1875 
L 2566 1875 
z
M 3781 1503 
L 1497 1503 
L 1497 1478 
Q 1497 834 1690 548 
Q 1884 263 2316 263 
Q 2675 263 2897 453 
Q 3119 644 3181 1006 
L 3700 1006 
Q 3566 441 3166 175 
Q 2766 -91 2047 -91 
Q 1184 -91 723 364 
Q 263 819 263 1663 
Q 263 2488 734 2950 
Q 1206 3413 2047 3413 
Q 2872 3413 3312 2927 
Q 3753 2441 3781 1503 
z
" transform="scale(0.015625)"/>
       <path id="DejaVuSerif-Bold-50" d="M 300 0 
L 300 378 
L 897 378 
L 897 4288 
L 300 4288 
L 300 4666 
L 2956 4666 
Q 3734 4666 4193 4295 
Q 4653 3925 4653 3303 
Q 4653 2678 4192 2304 
Q 3731 1931 2956 1931 
L 2100 1931 
L 2100 378 
L 2853 378 
L 2853 0 
L 300 0 
z
M 2100 2309 
L 2450 2309 
Q 2856 2309 3098 2579 
Q 3341 2850 3341 3303 
Q 3341 3753 3100 4020 
Q 2859 4288 2450 4288 
L 2100 4288 
L 2100 2309 
z
" transform="scale(0.015625)"/>
       <path id="DejaVuSerif-Bold-72" d="M 3438 3359 
L 3438 2369 
L 3084 2369 
Q 3066 2634 2941 2764 
Q 2816 2894 2578 2894 
Q 2216 2894 2006 2575 
Q 1797 2256 1797 1691 
L 1797 378 
L 2400 378 
L 2400 0 
L 219 0 
L 219 378 
L 691 378 
L 691 2944 
L 184 2944 
L 184 3322 
L 1797 3322 
L 1797 2731 
Q 1959 3078 2226 3245 
Q 2494 3413 2881 3413 
Q 2978 3413 3117 3398 
Q 3256 3384 3438 3359 
z
" transform="scale(0.015625)"/>
       <path id="DejaVuSerif-Bold-6f" d="M 2138 263 
Q 2488 263 2630 563 
Q 2772 863 2772 1663 
Q 2772 2463 2631 2761 
Q 2491 3059 2138 3059 
Q 1784 3059 1640 2757 
Q 1497 2456 1497 1663 
Q 1497 869 1640 566 
Q 1784 263 2138 263 
z
M 2138 -91 
Q 1259 -91 761 376 
Q 263 844 263 1663 
Q 263 2484 761 2948 
Q 1259 3413 2138 3413 
Q 3019 3413 3516 2948 
Q 4013 2484 4013 1663 
Q 4013 844 3514 376 
Q 3016 -91 2138 -91 
z
" transform="scale(0.015625)"/>
       <path id="DejaVuSerif-Bold-62" d="M 622 378 
L 622 4488 
L 147 4488 
L 147 4863 
L 1728 4863 
L 1728 2900 
Q 1869 3159 2106 3286 
Q 2344 3413 2694 3413 
Q 3403 3413 3811 2945 
Q 4219 2478 4219 1663 
Q 4219 847 3811 378 
Q 3403 -91 2694 -91 
Q 2344 -91 2106 36 
Q 1869 163 1728 422 
L 1728 0 
L 147 0 
L 147 378 
L 622 378 
z
M 1728 1497 
Q 1728 916 1876 656 
Q 2025 397 2356 397 
Q 2697 397 2836 672 
Q 2975 947 2975 1663 
Q 2975 2378 2836 2651 
Q 2697 2925 2356 2925 
Q 2025 2925 1876 2665 
Q 1728 2406 1728 1825 
L 1728 1497 
z
" transform="scale(0.015625)"/>
       <path id="DejaVuSerif-Bold-79" d="M 1997 -750 
Q 1847 -1116 1634 -1269 
Q 1422 -1422 1063 -1422 
Q 909 -1422 721 -1387 
Q 534 -1353 313 -1288 
L 313 -594 
L 666 -597 
Q 675 -838 779 -953 
Q 884 -1069 1094 -1069 
Q 1297 -1069 1422 -958 
Q 1547 -847 1672 -538 
L 1722 -422 
L 275 2944 
L -84 2944 
L -84 3322 
L 1831 3322 
L 1831 2944 
L 1434 2944 
L 2278 978 
L 3066 2944 
L 2625 2944 
L 2625 3322 
L 3872 3322 
L 3872 2944 
L 3469 2944 
L 1997 -750 
z
" transform="scale(0.015625)"/>
      </defs>
      <use xlink:href="#DejaVuSerif-Bold-43"/>
      <use xlink:href="#DejaVuSerif-Bold-75" x="79.589844"/>
      <use xlink:href="#DejaVuSerif-Bold-6d" x="152.294922"/>
      <use xlink:href="#DejaVuSerif-Bold-75" x="258.105469"/>
      <use xlink:href="#DejaVuSerif-Bold-6c" x="330.810547"/>
      <use xlink:href="#DejaVuSerif-Bold-61" x="368.798828"/>
      <use xlink:href="#DejaVuSerif-Bold-74" x="433.59375"/>
      <use xlink:href="#DejaVuSerif-Bold-69" x="479.785156"/>
      <use xlink:href="#DejaVuSerif-Bold-76" x="517.773438"/>
      <use xlink:href="#DejaVuSerif-Bold-65" x="575.878906"/>
      <use xlink:href="#DejaVuSerif-Bold-20" x="639.501953"/>
      <use xlink:href="#DejaVuSerif-Bold-50" x="674.316406"/>
      <use xlink:href="#DejaVuSerif-Bold-72" x="749.511719"/>
      <use xlink:href="#DejaVuSerif-Bold-6f" x="802.197266"/>
      <use xlink:href="#DejaVuSerif-Bold-62" x="868.896484"/>
      <use xlink:href="#DejaVuSerif-Bold-61" x="938.818359"/>
      <use xlink:href="#DejaVuSerif-Bold-62" x="1003.613281"/>
      <use xlink:href="#DejaVuSerif-Bold-69" x="1073.535156"/>
      <use xlink:href="#DejaVuSerif-Bold-6c" x="1111.523438"/>
      <use xlink:href="#DejaVuSerif-Bold-69" x="1149.511719"/>
      <use xlink:href="#DejaVuSerif-Bold-74" x="1187.5"/>
      <use xlink:href="#DejaVuSerif-Bold-79" x="1233.691406"/>
     </g>
    </g>
   </g>
   <g id="line2d_15">
    <path d="M 73.832727 295.488 
L 74.265024 295.366979 
L 74.265024 295.003918 
L 75.129616 294.882897 
L 75.129616 291.978405 
L 75.561913 291.857385 
L 75.561913 289.436974 
L 75.994209 289.315954 
L 75.994209 287.863708 
L 76.426505 287.742687 
L 76.426505 286.290441 
L 76.858802 286.169421 
L 76.858802 284.596154 
L 77.291098 284.475134 
L 77.291098 282.901867 
L 77.723394 282.780846 
L 77.723394 281.449621 
L 78.155691 281.3286 
L 78.155691 279.755334 
L 78.587987 279.634313 
L 78.587987 278.90819 
L 79.020283 278.78717 
L 79.020283 269.105529 
L 79.45258 268.984508 
L 79.45258 186.206479 
L 79.884876 186.085459 
L 79.884876 177.371982 
L 80.317172 177.250961 
L 80.317172 169.989731 
L 80.749469 169.86871 
L 80.749469 166.359116 
L 81.181765 166.238095 
L 81.181765 164.906869 
L 81.614061 164.785849 
L 81.614061 162.970541 
L 82.046358 162.849521 
L 82.046358 162.7285 
L 82.478654 162.60748 
L 82.478654 162.365439 
L 82.91095 162.244418 
L 82.91095 162.002377 
L 83.343247 161.881357 
L 83.343247 158.371762 
L 83.775543 158.250741 
L 83.775543 127.390511 
L 84.207839 127.269491 
L 84.207839 119.524178 
L 84.640136 119.403158 
L 84.640136 103.670491 
L 85.072432 103.549471 
L 85.072432 96.28824 
L 85.504728 96.16722 
L 85.504728 95.441097 
L 85.937025 95.320076 
L 85.937025 94.230891 
L 87.233914 93.86783 
L 87.233914 93.625789 
L 87.66621 93.504768 
L 87.66621 92.294563 
L 88.098506 92.173543 
L 88.098506 86.969661 
L 88.530803 86.84864 
L 88.530803 85.154353 
L 88.963099 85.033333 
L 88.963099 77.409041 
L 89.395395 77.28802 
L 89.395395 74.86761 
L 89.827692 74.746589 
L 89.827692 74.625569 
L 90.259988 74.504548 
L 90.259988 74.020466 
L 90.692284 73.899446 
L 90.692284 73.657405 
L 91.989173 73.294343 
L 91.989173 72.326179 
L 92.42147 72.205159 
L 92.42147 67.7274 
L 92.853766 67.606379 
L 92.853766 66.033113 
L 93.286062 65.912092 
L 93.286062 64.217805 
L 93.718359 64.096784 
L 93.718359 63.12862 
L 95.015248 62.765559 
L 96.312137 62.644538 
L 96.312137 62.281477 
L 96.744433 62.160456 
L 96.744433 59.982087 
L 97.176729 59.861067 
L 97.176729 58.529841 
L 97.609026 58.40882 
L 97.609026 57.440656 
L 98.041322 57.319636 
L 98.041322 56.351472 
L 101.067396 56.109431 
L 101.499693 55.98841 
L 101.499693 55.504328 
L 101.931989 55.383308 
L 101.931989 55.020246 
L 102.364285 54.899226 
L 102.364285 54.415144 
L 105.39036 54.173103 
L 105.39036 54.052082 
L 105.822656 53.931062 
L 105.822656 53.689021 
L 109.713323 53.568 
L 109.713323 53.568 
" clip-path="url(#p21bdbc646f)" style="fill: none; stroke: #1f77b4; stroke-width: 1.5; stroke-linecap: square"/>
   </g>
   <g id="line2d_16">
    <path d="M 74.265024 295.488 
L 74.265024 295.124938 
L 74.69732 295.003918 
L 74.69732 294.882897 
L 75.129616 294.761877 
L 75.129616 292.825549 
L 75.561913 292.704528 
L 75.561913 291.373303 
L 75.994209 291.252282 
L 75.994209 288.952892 
L 76.426505 288.831872 
L 76.426505 286.653503 
L 76.858802 286.532482 
L 76.858802 285.564318 
L 77.291098 285.443298 
L 77.291098 283.991052 
L 77.723394 283.870031 
L 77.723394 282.538805 
L 78.155691 282.417785 
L 78.155691 281.3286 
L 78.587987 281.20758 
L 78.587987 280.239416 
L 79.020283 280.118395 
L 79.020283 270.194713 
L 79.45258 270.073693 
L 79.45258 194.556894 
L 79.884876 194.435874 
L 79.884876 186.690561 
L 80.317172 186.569541 
L 80.317172 176.524838 
L 80.749469 176.403818 
L 80.749469 171.684018 
L 81.181765 171.562997 
L 81.181765 171.441977 
L 81.614061 171.320956 
L 81.614061 169.505649 
L 82.046358 169.384628 
L 82.046358 169.021567 
L 82.478654 168.900546 
L 82.478654 168.537485 
L 82.91095 168.416464 
L 82.91095 168.295444 
L 83.343247 168.174423 
L 83.343247 165.02789 
L 83.775543 164.906869 
L 83.775543 136.58807 
L 84.207839 136.46705 
L 84.207839 128.479696 
L 84.640136 128.358675 
L 84.640136 109.721517 
L 85.072432 109.600496 
L 85.072432 102.218245 
L 85.504728 102.097225 
L 85.504728 101.613143 
L 85.937025 101.492122 
L 85.937025 100.523958 
L 86.369321 100.402937 
L 86.369321 99.797835 
L 86.801617 99.676814 
L 86.801617 99.555794 
L 87.233914 99.434773 
L 87.233914 98.829671 
L 87.66621 98.70865 
L 87.66621 98.103548 
L 88.098506 97.982527 
L 88.098506 91.810481 
L 88.530803 91.689461 
L 88.530803 89.14803 
L 88.963099 89.02701 
L 88.963099 82.491902 
L 89.395395 82.370881 
L 89.395395 78.135164 
L 89.827692 78.014143 
L 89.827692 77.772102 
L 90.259988 77.651082 
L 90.259988 77.166999 
L 90.692284 77.045979 
L 90.692284 76.682917 
L 91.556877 76.561897 
L 91.556877 76.319856 
L 91.989173 76.198835 
L 91.989173 75.593733 
L 92.42147 75.472712 
L 92.42147 69.663728 
L 92.853766 69.542707 
L 92.853766 67.364338 
L 93.286062 67.243318 
L 93.286062 66.154133 
L 93.718359 66.033113 
L 93.718359 65.185969 
L 94.150655 65.064948 
L 94.150655 64.943928 
L 94.582951 64.822907 
L 94.582951 64.580866 
L 96.312137 64.459846 
L 96.312137 64.096784 
L 96.744433 63.975764 
L 96.744433 60.466169 
L 97.176729 60.345149 
L 97.176729 59.376984 
L 97.609026 59.255964 
L 97.609026 58.650861 
L 98.041322 58.529841 
L 98.041322 57.924738 
L 98.473618 57.803718 
L 98.473618 57.682697 
L 98.905915 57.561677 
L 98.905915 57.440656 
L 101.067396 57.198615 
L 101.067396 56.835554 
L 101.499693 56.714533 
L 101.499693 56.593513 
L 102.364285 56.351472 
L 102.364285 55.98841 
L 105.39036 55.746369 
L 105.39036 55.504328 
L 106.687249 55.141267 
L 106.687249 55.020246 
L 110.145619 54.778205 
L 111.010212 54.536164 
L 114.468582 54.294123 
L 115.333175 54.173103 
L 122.682213 53.810041 
L 123.114509 53.689021 
L 127.437472 53.568 
L 127.437472 53.568 
" clip-path="url(#p21bdbc646f)" style="fill: none; stroke: #ff7f0e; stroke-width: 1.5; stroke-linecap: square"/>
   </g>
   <g id="line2d_17">
    <path d="M 75.129616 295.488 
L 75.561913 295.366979 
L 75.561913 294.882897 
L 75.994209 294.761877 
L 75.994209 294.156774 
L 76.426505 294.035754 
L 76.426505 293.430651 
L 76.858802 293.309631 
L 76.858802 292.583508 
L 77.291098 292.462487 
L 77.291098 291.494323 
L 77.723394 291.373303 
L 77.723394 290.7682 
L 78.155691 290.64718 
L 78.155691 290.042077 
L 79.45258 289.679016 
L 79.45258 284.717175 
L 79.884876 284.596154 
L 79.884876 275.519616 
L 80.317172 275.398595 
L 80.317172 263.901647 
L 80.749469 263.780626 
L 80.749469 249.742247 
L 81.181765 249.621227 
L 81.181765 235.703868 
L 81.614061 235.582847 
L 81.614061 223.359776 
L 82.046358 223.238755 
L 82.046358 215.977525 
L 82.478654 215.856504 
L 82.478654 206.658945 
L 82.91095 206.537925 
L 82.91095 199.034653 
L 83.343247 198.913633 
L 83.343247 192.499546 
L 83.775543 192.378525 
L 83.775543 181.244638 
L 84.207839 181.123618 
L 84.207839 169.263608 
L 84.640136 169.142587 
L 84.640136 158.734823 
L 85.072432 158.613803 
L 85.072432 148.32706 
L 85.504728 148.206039 
L 85.504728 138.403378 
L 85.937025 138.282357 
L 85.937025 131.505209 
L 86.369321 131.384188 
L 86.369321 127.269491 
L 86.801617 127.14847 
L 86.801617 123.396834 
L 87.233914 123.275814 
L 87.233914 121.460506 
L 87.66621 121.339486 
L 87.66621 119.766219 
L 88.098506 119.645199 
L 88.098506 116.377645 
L 88.530803 116.256624 
L 88.530803 112.86805 
L 88.963099 112.74703 
L 88.963099 109.479476 
L 89.395395 109.358455 
L 89.395395 106.211922 
L 89.827692 106.090901 
L 89.827692 103.065389 
L 90.259988 102.944368 
L 90.259988 100.281917 
L 90.692284 100.160896 
L 90.692284 98.70865 
L 91.124581 98.58763 
L 91.124581 96.651302 
L 91.556877 96.530281 
L 91.556877 96.16722 
L 91.989173 96.046199 
L 91.989173 95.441097 
L 92.42147 95.320076 
L 92.42147 94.593953 
L 92.853766 94.472932 
L 92.853766 93.020686 
L 93.286062 92.899666 
L 93.286062 90.963338 
L 93.718359 90.842317 
L 93.718359 88.542927 
L 94.150655 88.421907 
L 94.150655 86.84864 
L 94.582951 86.72762 
L 94.582951 83.944148 
L 95.015248 83.823128 
L 95.015248 81.402717 
L 95.447544 81.281697 
L 95.447544 79.950471 
L 95.87984 79.829451 
L 95.87984 79.103328 
L 96.312137 78.982307 
L 96.312137 78.256184 
L 96.744433 78.135164 
L 96.744433 77.530061 
L 97.176729 77.409041 
L 97.176729 76.319856 
L 97.609026 76.198835 
L 97.609026 74.383528 
L 98.041322 74.262507 
L 98.041322 72.326179 
L 98.473618 72.205159 
L 98.473618 70.631892 
L 98.905915 70.510871 
L 98.905915 69.542707 
L 99.338211 69.421687 
L 99.338211 68.453523 
L 99.770507 68.332502 
L 99.770507 67.243318 
L 100.202804 67.122297 
L 100.202804 66.759236 
L 100.6351 66.638215 
L 100.6351 66.154133 
L 101.067396 66.033113 
L 101.067396 65.791072 
L 101.499693 65.670051 
L 101.499693 64.943928 
L 101.931989 64.822907 
L 101.931989 64.580866 
L 102.364285 64.459846 
L 102.364285 63.370661 
L 102.796582 63.249641 
L 102.796582 62.765559 
L 103.228878 62.644538 
L 103.228878 62.281477 
L 103.661174 62.160456 
L 103.661174 61.434333 
L 104.093471 61.313313 
L 104.093471 60.950251 
L 104.958063 60.70821 
L 104.958063 60.345149 
L 105.822656 60.224128 
L 105.822656 60.103108 
L 106.254952 59.982087 
L 106.254952 59.861067 
L 106.687249 59.740046 
L 106.687249 59.013923 
L 107.119545 58.892902 
L 107.119545 58.771882 
L 107.551841 58.650861 
L 107.551841 58.529841 
L 107.984138 58.40882 
L 107.984138 57.682697 
L 108.416434 57.561677 
L 108.416434 57.440656 
L 109.281027 57.198615 
L 109.281027 57.077595 
L 111.010212 56.593513 
L 111.010212 56.472492 
L 111.874805 56.351472 
L 111.874805 56.230451 
L 112.307101 56.109431 
L 112.307101 55.86739 
L 113.171693 55.625349 
L 114.468582 55.383308 
L 115.333175 55.141267 
L 115.333175 55.020246 
L 116.197768 54.899226 
L 116.197768 54.778205 
L 116.630064 54.657185 
L 116.630064 54.536164 
L 120.520731 54.173103 
L 120.953027 54.052082 
L 129.166658 53.568 
L 129.166658 53.568 
" clip-path="url(#p21bdbc646f)" style="fill: none; stroke: #2ca02c; stroke-width: 1.5; stroke-linecap: square"/>
   </g>
   <g id="line2d_18">
    <path d="M 73.832727 295.488 
L 73.832727 293.18861 
L 74.265024 293.06759 
L 74.265024 291.373303 
L 75.561913 291.010241 
L 75.561913 290.889221 
L 75.994209 290.7682 
L 75.994209 290.64718 
L 76.858802 290.405139 
L 78.155691 290.163098 
L 78.155691 277.213903 
L 78.587987 277.092882 
L 78.587987 270.194713 
L 79.020283 270.073693 
L 79.020283 269.710631 
L 79.45258 269.589611 
L 79.45258 268.863488 
L 79.884876 268.742467 
L 79.884876 268.500426 
L 80.749469 268.258385 
L 80.749469 268.016344 
L 81.181765 267.895324 
L 81.181765 267.774303 
L 81.614061 267.653283 
L 81.614061 267.290221 
L 82.046358 267.169201 
L 82.046358 266.806139 
L 82.478654 266.685119 
L 82.478654 260.634093 
L 82.91095 260.513073 
L 82.91095 253.493883 
L 83.343247 253.372862 
L 83.343247 253.251842 
L 83.775543 253.130821 
L 83.775543 252.162657 
L 84.207839 252.041637 
L 84.207839 251.678575 
L 84.640136 251.557555 
L 84.640136 251.315514 
L 85.072432 251.194493 
L 85.072432 250.952452 
L 85.504728 250.831432 
L 85.504728 250.589391 
L 85.937025 250.46837 
L 85.937025 250.34735 
L 86.369321 250.226329 
L 86.369321 249.863268 
L 86.801617 249.742247 
L 86.801617 244.054283 
L 87.233914 243.933263 
L 87.233914 235.340806 
L 87.66621 235.219786 
L 87.66621 234.493663 
L 88.098506 234.372642 
L 88.098506 232.920396 
L 88.530803 232.799376 
L 88.530803 231.952232 
L 88.963099 231.831212 
L 88.963099 231.226109 
L 89.395395 231.105089 
L 89.395395 230.863048 
L 89.827692 230.742027 
L 89.827692 230.621007 
L 90.259988 230.499986 
L 90.259988 230.015904 
L 90.692284 229.894883 
L 90.692284 229.04774 
L 91.124581 228.926719 
L 91.124581 222.996714 
L 91.556877 222.875694 
L 91.556877 213.436094 
L 91.989173 213.315074 
L 91.989173 210.652622 
L 92.42147 210.531602 
L 92.42147 207.143028 
L 92.853766 207.022007 
L 92.853766 205.690781 
L 93.286062 205.569761 
L 93.286062 204.480576 
L 93.718359 204.359556 
L 93.718359 203.149351 
L 94.150655 203.02833 
L 94.150655 202.423228 
L 94.582951 202.302207 
L 94.582951 202.181187 
L 95.015248 202.060166 
L 95.015248 201.092002 
L 95.447544 200.970981 
L 95.447544 196.856284 
L 95.87984 196.735264 
L 95.87984 188.626889 
L 96.312137 188.505869 
L 96.312137 187.295664 
L 96.744433 187.174643 
L 96.744433 184.996274 
L 97.176729 184.875254 
L 97.176729 183.665049 
L 97.609026 183.544028 
L 97.609026 182.575864 
L 98.041322 182.454843 
L 98.041322 181.365659 
L 98.473618 181.244638 
L 98.473618 181.123618 
L 99.338211 180.881577 
L 99.338211 180.276474 
L 99.770507 180.155454 
L 99.770507 176.161777 
L 100.202804 176.040756 
L 100.202804 169.505649 
L 100.6351 169.384628 
L 100.6351 167.32728 
L 101.067396 167.206259 
L 101.067396 164.543808 
L 101.499693 164.422787 
L 101.499693 163.091562 
L 101.931989 162.970541 
L 101.931989 162.002377 
L 102.364285 161.881357 
L 102.364285 160.913193 
L 102.796582 160.792172 
L 102.796582 160.429111 
L 103.661174 160.18707 
L 103.661174 159.824008 
L 104.093471 159.702987 
L 104.093471 155.46727 
L 104.525767 155.346249 
L 104.525767 148.085019 
L 104.958063 147.963998 
L 104.958063 144.454403 
L 105.39036 144.333383 
L 105.39036 142.276034 
L 105.822656 142.155014 
L 105.822656 140.702767 
L 106.254952 140.581747 
L 106.254952 139.613583 
L 106.687249 139.492562 
L 106.687249 138.88746 
L 107.119545 138.766439 
L 107.119545 138.161337 
L 107.551841 138.040316 
L 107.551841 137.798275 
L 107.984138 137.677255 
L 107.984138 137.435214 
L 108.416434 137.314193 
L 108.416434 133.925619 
L 108.84873 133.804598 
L 108.84873 126.301327 
L 109.281027 126.180306 
L 109.281027 123.154793 
L 109.713323 123.033773 
L 109.713323 121.218465 
L 110.145619 121.097445 
L 110.145619 119.645199 
L 110.577916 119.524178 
L 110.577916 118.556014 
L 111.010212 118.434993 
L 111.010212 117.70887 
L 111.442508 117.58785 
L 111.442508 116.982747 
L 111.874805 116.861727 
L 111.874805 116.619686 
L 112.307101 116.498665 
L 112.307101 116.377645 
L 112.739397 116.256624 
L 112.739397 113.957235 
L 113.171693 113.836214 
L 113.171693 107.422127 
L 113.60399 107.301107 
L 113.60399 105.001717 
L 114.036286 104.880696 
L 114.036286 103.30743 
L 114.468582 103.186409 
L 114.468582 101.613143 
L 114.900879 101.492122 
L 114.900879 100.523958 
L 115.333175 100.402937 
L 115.333175 99.676814 
L 115.765471 99.555794 
L 115.765471 98.950691 
L 116.197768 98.829671 
L 116.197768 98.58763 
L 116.630064 98.466609 
L 116.630064 98.224568 
L 117.06236 98.103548 
L 117.06236 96.046199 
L 117.494657 95.925179 
L 117.494657 92.899666 
L 117.926953 92.778645 
L 117.926953 89.995174 
L 118.359249 89.874153 
L 118.359249 88.663948 
L 118.791546 88.542927 
L 118.791546 87.332722 
L 119.223842 87.211702 
L 119.223842 86.243538 
L 119.656138 86.122517 
L 119.656138 85.396394 
L 120.088435 85.275374 
L 120.088435 85.033333 
L 120.953027 84.791292 
L 120.953027 84.670271 
L 121.385324 84.549251 
L 121.385324 83.581087 
L 121.81762 83.460066 
L 121.81762 81.402717 
L 122.249916 81.281697 
L 122.249916 79.345369 
L 122.682213 79.224348 
L 122.682213 78.377205 
L 123.114509 78.256184 
L 123.114509 77.651082 
L 123.546805 77.530061 
L 123.546805 76.682917 
L 123.979102 76.561897 
L 123.979102 76.440876 
L 124.411398 76.319856 
L 124.411398 76.198835 
L 125.275991 75.956794 
L 125.275991 75.835774 
L 125.708287 75.714753 
L 125.708287 75.109651 
L 126.140583 74.98863 
L 126.140583 73.899446 
L 126.57288 73.778425 
L 126.57288 72.205159 
L 127.005176 72.084138 
L 127.005176 71.115974 
L 127.437472 70.994953 
L 127.437472 70.873933 
L 127.869769 70.752912 
L 127.869769 70.14781 
L 128.734361 69.905769 
L 128.734361 69.784748 
L 129.166658 69.663728 
L 130.03125 69.542707 
L 130.03125 69.421687 
L 130.463547 69.300666 
L 130.463547 68.332502 
L 130.895843 68.211482 
L 130.895843 67.001277 
L 131.328139 66.880256 
L 131.328139 65.912092 
L 132.192732 65.670051 
L 132.192732 65.185969 
L 132.625028 65.064948 
L 132.625028 64.822907 
L 133.489621 64.580866 
L 134.354214 64.459846 
L 134.354214 64.338825 
L 134.78651 64.217805 
L 134.78651 63.370661 
L 135.218806 63.249641 
L 135.218806 62.160456 
L 135.651103 62.039436 
L 135.651103 61.555354 
L 136.947992 61.313313 
L 136.947992 61.192292 
L 137.380288 61.071272 
L 138.677177 60.829231 
L 139.109473 60.70821 
L 139.109473 60.224128 
L 139.54177 60.103108 
L 139.54177 59.376984 
L 139.974066 59.255964 
L 139.974066 58.892902 
L 140.838659 58.650861 
L 143.432437 58.40882 
L 143.432437 58.166779 
L 143.864733 58.045759 
L 143.864733 57.803718 
L 144.297029 57.682697 
L 144.297029 57.319636 
L 145.161622 57.077595 
L 147.7554 56.835554 
L 147.7554 56.593513 
L 149.052289 56.230451 
L 149.052289 56.109431 
L 149.484585 55.98841 
L 152.078363 55.746369 
L 152.51066 55.625349 
L 152.51066 55.504328 
L 153.807549 55.141267 
L 156.833623 54.899226 
L 156.833623 54.778205 
L 157.698216 54.657185 
L 161.156586 54.415144 
L 161.156586 54.294123 
L 162.021179 54.173103 
L 165.47955 54.052082 
L 165.47955 53.931062 
L 166.344142 53.810041 
L 174.125476 53.568 
L 174.125476 53.568 
" clip-path="url(#p21bdbc646f)" style="fill: none; stroke: #d62728; stroke-width: 1.5; stroke-linecap: square"/>
   </g>
   <g id="line2d_19">
    <path d="M 73.832727 295.488 
L 78.155691 295.366979 
L 78.155691 292.946569 
L 78.587987 292.825549 
L 78.587987 292.583508 
L 79.020283 292.462487 
L 79.020283 292.341467 
L 79.45258 292.220446 
L 79.45258 291.736364 
L 79.884876 291.615344 
L 79.884876 291.252282 
L 80.317172 291.131262 
L 80.317172 290.889221 
L 80.749469 290.7682 
L 80.749469 290.526159 
L 81.181765 290.405139 
L 81.181765 290.284118 
L 82.046358 290.163098 
L 82.046358 290.042077 
L 82.478654 289.921057 
L 82.478654 287.258605 
L 82.91095 287.137585 
L 82.91095 285.443298 
L 83.343247 285.322277 
L 83.343247 284.838195 
L 83.775543 284.717175 
L 83.775543 284.475134 
L 84.207839 284.354113 
L 84.207839 283.506969 
L 84.640136 283.385949 
L 84.640136 283.264928 
L 85.072432 283.143908 
L 85.072432 282.780846 
L 85.504728 282.659826 
L 85.504728 282.175744 
L 85.937025 282.054723 
L 85.937025 281.933703 
L 86.369321 281.812682 
L 86.369321 281.3286 
L 86.801617 281.20758 
L 86.801617 279.634313 
L 87.233914 279.513293 
L 87.233914 279.029211 
L 87.66621 278.90819 
L 87.66621 278.666149 
L 88.098506 278.545129 
L 88.098506 278.303088 
L 89.395395 277.940026 
L 89.395395 277.213903 
L 89.827692 277.092882 
L 89.827692 276.6088 
L 90.259988 276.48778 
L 90.259988 276.245739 
L 90.692284 276.124718 
L 90.692284 275.277575 
L 91.124581 275.156554 
L 91.124581 273.704308 
L 91.556877 273.583288 
L 91.556877 273.099206 
L 91.989173 272.978185 
L 91.989173 272.736144 
L 92.42147 272.615124 
L 92.42147 272.494103 
L 92.853766 272.373083 
L 92.853766 272.131042 
L 93.286062 272.010021 
L 93.286062 271.041857 
L 93.718359 270.920836 
L 93.718359 270.557775 
L 94.150655 270.436754 
L 94.150655 269.952672 
L 94.582951 269.831652 
L 94.582951 269.589611 
L 95.015248 269.46859 
L 95.015248 268.500426 
L 95.447544 268.379406 
L 95.447544 267.04818 
L 95.87984 266.92716 
L 95.87984 266.322057 
L 96.312137 266.201037 
L 96.312137 265.837975 
L 96.744433 265.716954 
L 96.744433 265.353893 
L 97.176729 265.232872 
L 97.176729 264.869811 
L 97.609026 264.74879 
L 97.609026 263.417565 
L 98.041322 263.296544 
L 98.041322 263.054503 
L 98.473618 262.933483 
L 98.473618 262.20736 
L 98.905915 262.086339 
L 98.905915 261.360216 
L 99.338211 261.239196 
L 99.338211 259.90797 
L 99.770507 259.786949 
L 99.770507 258.334703 
L 100.202804 258.213683 
L 100.202804 257.245519 
L 100.6351 257.124498 
L 100.6351 256.761437 
L 101.067396 256.640416 
L 101.067396 256.035314 
L 101.499693 255.914293 
L 101.499693 255.551232 
L 101.931989 255.430211 
L 101.931989 254.098985 
L 102.364285 253.977965 
L 102.364285 253.493883 
L 102.796582 253.372862 
L 102.796582 252.525719 
L 103.228878 252.404698 
L 103.228878 251.315514 
L 103.661174 251.194493 
L 103.661174 250.105309 
L 104.093471 249.984288 
L 104.093471 248.895104 
L 104.525767 248.774083 
L 104.525767 247.805919 
L 104.958063 247.684898 
L 104.958063 247.321837 
L 105.39036 247.200816 
L 105.39036 246.595714 
L 105.822656 246.474693 
L 105.822656 245.74857 
L 106.254952 245.62755 
L 106.254952 244.175304 
L 106.687249 244.054283 
L 106.687249 243.086119 
L 107.119545 242.965099 
L 107.119545 242.117955 
L 107.551841 241.996934 
L 107.551841 240.544688 
L 107.984138 240.423668 
L 107.984138 239.092442 
L 108.416434 238.971422 
L 108.416434 237.640196 
L 108.84873 237.519176 
L 108.84873 236.30897 
L 109.281027 236.18795 
L 109.281027 235.582847 
L 109.713323 235.461827 
L 109.713323 234.493663 
L 110.145619 234.372642 
L 110.145619 233.646519 
L 110.577916 233.525499 
L 110.577916 231.952232 
L 111.010212 231.831212 
L 111.010212 230.621007 
L 111.442508 230.499986 
L 111.442508 229.16876 
L 111.874805 229.04774 
L 111.874805 227.958555 
L 112.307101 227.837535 
L 112.307101 226.869371 
L 112.739397 226.74835 
L 112.739397 225.054063 
L 113.171693 224.933043 
L 113.171693 222.270591 
L 113.60399 222.149571 
L 113.60399 221.302427 
L 114.036286 221.181407 
L 114.036286 220.092222 
L 114.468582 219.971202 
L 114.468582 219.124058 
L 114.900879 219.003038 
L 114.900879 218.034873 
L 115.333175 217.913853 
L 115.333175 216.703648 
L 115.765471 216.582627 
L 115.765471 215.251402 
L 116.197768 215.130381 
L 116.197768 214.162217 
L 116.630064 214.041197 
L 116.630064 213.799156 
L 117.06236 213.678135 
L 117.06236 211.620786 
L 117.494657 211.499766 
L 117.494657 209.200376 
L 117.926953 209.079356 
L 117.926953 208.353233 
L 118.359249 208.232212 
L 118.359249 207.385069 
L 118.791546 207.264048 
L 118.791546 206.537925 
L 119.223842 206.416904 
L 119.223842 205.932822 
L 119.656138 205.811802 
L 119.656138 204.964658 
L 120.088435 204.843638 
L 120.088435 203.875474 
L 120.520731 203.754453 
L 120.520731 202.90731 
L 120.953027 202.786289 
L 120.953027 202.544248 
L 121.385324 202.423228 
L 121.385324 201.455064 
L 121.81762 201.334043 
L 121.81762 200.002817 
L 122.249916 199.881797 
L 122.249916 199.518735 
L 122.682213 199.397715 
L 122.682213 198.550571 
L 123.114509 198.429551 
L 123.114509 197.340366 
L 123.546805 197.219346 
L 123.546805 196.735264 
L 123.979102 196.614243 
L 123.979102 195.646079 
L 124.411398 195.525059 
L 124.411398 194.919956 
L 124.843694 194.798935 
L 124.843694 194.072812 
L 125.275991 193.951792 
L 125.275991 193.58873 
L 125.708287 193.46771 
L 125.708287 192.620566 
L 126.140583 192.499546 
L 126.140583 190.805259 
L 126.57288 190.684238 
L 126.57288 190.079136 
L 127.005176 189.958115 
L 127.005176 189.110971 
L 127.437472 188.989951 
L 127.437472 187.900766 
L 127.869769 187.779746 
L 127.869769 186.690561 
L 128.302065 186.569541 
L 128.302065 185.843418 
L 128.734361 185.722397 
L 128.734361 185.238315 
L 129.166658 185.117295 
L 129.166658 184.875254 
L 129.598954 184.754233 
L 129.598954 184.512192 
L 130.03125 184.391172 
L 130.03125 183.059946 
L 130.463547 182.938925 
L 130.463547 181.365659 
L 130.895843 181.244638 
L 130.895843 180.518515 
L 131.328139 180.397495 
L 131.328139 180.034433 
L 131.760436 179.913413 
L 131.760436 179.30831 
L 132.192732 179.18729 
L 132.192732 177.735044 
L 132.625028 177.614023 
L 132.625028 176.8879 
L 133.057325 176.766879 
L 133.057325 176.403818 
L 133.489621 176.282797 
L 133.489621 175.919736 
L 133.921917 175.798715 
L 133.921917 175.677695 
L 134.354214 175.556674 
L 134.354214 174.346469 
L 134.78651 174.225449 
L 134.78651 172.894223 
L 135.218806 172.773203 
L 135.218806 172.289121 
L 135.651103 172.1681 
L 135.651103 171.926059 
L 136.083399 171.805039 
L 136.083399 171.199936 
L 136.515695 171.078915 
L 136.515695 169.86871 
L 136.947992 169.74769 
L 136.947992 168.779526 
L 137.380288 168.658505 
L 137.380288 167.932382 
L 137.812584 167.811362 
L 137.812584 167.32728 
L 138.244881 167.206259 
L 138.244881 166.722177 
L 138.677177 166.601157 
L 138.677177 165.875034 
L 139.109473 165.754013 
L 139.109473 164.301767 
L 139.54177 164.180746 
L 139.54177 163.333603 
L 139.974066 163.212582 
L 139.974066 162.7285 
L 140.406362 162.60748 
L 140.406362 161.760336 
L 140.838659 161.639316 
L 140.838659 160.913193 
L 141.270955 160.792172 
L 141.270955 160.066049 
L 141.703251 159.945029 
L 141.703251 159.339926 
L 142.135548 159.218905 
L 142.135548 158.613803 
L 142.567844 158.492782 
L 142.567844 157.766659 
L 143.00014 157.645639 
L 143.00014 157.161557 
L 143.432437 157.040536 
L 143.432437 155.346249 
L 143.864733 155.225229 
L 143.864733 154.499106 
L 144.297029 154.378085 
L 144.297029 153.772982 
L 144.729326 153.651962 
L 144.729326 153.046859 
L 145.161622 152.925839 
L 145.161622 152.320736 
L 145.593918 152.199716 
L 145.593918 151.594613 
L 146.026215 151.473593 
L 146.026215 150.86849 
L 146.458511 150.74747 
L 146.458511 150.263388 
L 146.890807 150.142367 
L 146.890807 149.174203 
L 147.323104 149.053183 
L 147.323104 148.690121 
L 147.7554 148.569101 
L 147.7554 146.753793 
L 148.187696 146.632772 
L 148.187696 146.14869 
L 148.619993 146.02767 
L 148.619993 145.664608 
L 149.052289 145.543588 
L 149.052289 144.817465 
L 149.484585 144.696444 
L 149.484585 144.212362 
L 149.916882 144.091342 
L 149.916882 143.486239 
L 150.349178 143.365219 
L 150.349178 143.002157 
L 150.781474 142.881137 
L 150.781474 142.155014 
L 151.213771 142.033993 
L 151.213771 141.42889 
L 151.646067 141.30787 
L 151.646067 140.702767 
L 152.078363 140.581747 
L 152.078363 139.371542 
L 152.51066 139.250521 
L 152.51066 138.645419 
L 152.942956 138.524398 
L 152.942956 138.040316 
L 153.375252 137.919296 
L 153.375252 137.556234 
L 153.807549 137.435214 
L 153.807549 136.951132 
L 154.239845 136.830111 
L 154.239845 136.346029 
L 154.672141 136.225009 
L 154.672141 135.982967 
L 155.104438 135.861947 
L 155.104438 135.256844 
L 155.536734 135.135824 
L 155.536734 135.014803 
L 155.96903 134.893783 
L 155.96903 134.530721 
L 156.401327 134.409701 
L 156.401327 133.562557 
L 156.833623 133.441537 
L 156.833623 132.836434 
L 157.265919 132.715414 
L 157.265919 132.110311 
L 157.698216 131.989291 
L 157.698216 131.626229 
L 158.130512 131.505209 
L 158.130512 130.779086 
L 158.562808 130.658065 
L 158.562808 130.295004 
L 158.995105 130.173983 
L 158.995105 129.931942 
L 159.427401 129.810921 
L 159.427401 129.44786 
L 159.859697 129.326839 
L 159.859697 129.205819 
L 160.291994 129.084798 
L 160.291994 128.963778 
L 160.72429 128.842757 
L 160.72429 128.479696 
L 161.156586 128.358675 
L 161.156586 127.269491 
L 161.588883 127.14847 
L 161.588883 126.906429 
L 162.021179 126.785409 
L 162.021179 126.422347 
L 162.453475 126.301327 
L 162.453475 125.575204 
L 162.885772 125.454183 
L 162.885772 124.849081 
L 163.318068 124.72806 
L 163.318068 124.364998 
L 163.750364 124.243978 
L 163.750364 124.001937 
L 164.614957 123.759896 
L 164.614957 123.638875 
L 165.047253 123.517855 
L 165.047253 123.033773 
L 165.47955 122.912752 
L 165.47955 121.823568 
L 165.911846 121.702547 
L 165.911846 121.581527 
L 166.344142 121.460506 
L 166.344142 121.339486 
L 166.776439 121.218465 
L 166.776439 120.492342 
L 167.208735 120.371322 
L 167.208735 120.129281 
L 167.641031 120.00826 
L 167.641031 119.766219 
L 168.073328 119.645199 
L 168.073328 119.282137 
L 168.93792 119.040096 
L 168.93792 118.919076 
L 169.370217 118.798055 
L 169.370217 118.434993 
L 169.802513 118.313973 
L 169.802513 117.345809 
L 170.234809 117.224788 
L 170.234809 117.103768 
L 170.667106 116.982747 
L 170.667106 116.861727 
L 171.099402 116.740706 
L 171.099402 116.256624 
L 171.531698 116.135604 
L 171.531698 115.893563 
L 171.963995 115.772542 
L 171.963995 115.530501 
L 172.396291 115.409481 
L 172.396291 115.16744 
L 172.828587 115.046419 
L 172.828587 114.925399 
L 173.260884 114.804378 
L 173.260884 114.683358 
L 173.69318 114.562337 
L 173.69318 114.320296 
L 174.125476 114.199276 
L 174.125476 113.110091 
L 174.557773 112.989071 
L 174.557773 112.74703 
L 174.990069 112.626009 
L 174.990069 112.504988 
L 175.422365 112.383968 
L 175.422365 112.020906 
L 175.854662 111.899886 
L 175.854662 111.536824 
L 176.286958 111.415804 
L 176.286958 111.294783 
L 176.719254 111.173763 
L 176.719254 110.931722 
L 177.151551 110.810701 
L 177.151551 110.56866 
L 177.583847 110.44764 
L 177.583847 110.326619 
L 178.016143 110.205599 
L 178.016143 110.084578 
L 178.44844 109.963558 
L 178.44844 109.237435 
L 178.880736 109.116414 
L 178.880736 108.753353 
L 179.313032 108.632332 
L 179.313032 108.511312 
L 179.745329 108.390291 
L 179.745329 108.02723 
L 180.177625 107.906209 
L 180.177625 107.785189 
L 181.474514 107.422127 
L 181.474514 107.301107 
L 181.90681 107.180086 
L 181.90681 106.938045 
L 182.339107 106.817025 
L 182.339107 106.696004 
L 182.771403 106.574983 
L 182.771403 106.090901 
L 183.203699 105.969881 
L 183.203699 105.72784 
L 183.635996 105.606819 
L 183.635996 105.364778 
L 184.068292 105.243758 
L 184.068292 105.001717 
L 184.500588 104.880696 
L 184.500588 104.759676 
L 184.932885 104.638655 
L 185.797477 104.517635 
L 185.797477 104.396614 
L 186.229774 104.275594 
L 186.229774 104.154573 
L 186.66207 104.033553 
L 186.66207 103.912532 
L 187.094366 103.791512 
L 187.094366 103.42845 
L 187.526663 103.30743 
L 187.526663 103.065389 
L 187.958959 102.944368 
L 187.958959 102.460286 
L 188.391255 102.339266 
L 188.391255 102.218245 
L 188.823552 102.097225 
L 188.823552 101.976204 
L 190.120441 101.613143 
L 190.120441 101.492122 
L 191.41733 101.129061 
L 191.41733 100.88702 
L 191.849626 100.765999 
L 191.849626 100.402937 
L 192.281922 100.281917 
L 192.281922 99.797835 
L 192.714219 99.676814 
L 192.714219 99.555794 
L 194.443404 99.071712 
L 195.740293 98.829671 
L 195.740293 98.70865 
L 196.172589 98.58763 
L 196.172589 98.224568 
L 196.604886 98.103548 
L 196.604886 97.861507 
L 197.037182 97.740486 
L 197.037182 97.498445 
L 197.469478 97.377425 
L 198.334071 97.256404 
L 198.334071 97.014363 
L 198.766367 96.893343 
L 200.063256 96.651302 
L 200.063256 96.409261 
L 200.495553 96.28824 
L 200.495553 96.046199 
L 200.927849 95.925179 
L 200.927849 95.804158 
L 201.360145 95.683138 
L 201.360145 95.441097 
L 201.792442 95.320076 
L 202.657034 95.199056 
L 202.657034 95.078035 
L 203.089331 94.957015 
L 204.38622 94.714973 
L 204.38622 94.593953 
L 204.818516 94.472932 
L 204.818516 94.230891 
L 205.250812 94.109871 
L 205.250812 93.98885 
L 205.683109 93.86783 
L 205.683109 93.746809 
L 206.115405 93.625789 
L 206.115405 93.504768 
L 206.979998 93.383748 
L 206.979998 93.262727 
L 207.412294 93.141707 
L 208.709183 93.020686 
L 208.709183 92.899666 
L 209.141479 92.778645 
L 209.141479 92.657625 
L 209.573776 92.536604 
L 209.573776 92.415584 
L 210.006072 92.294563 
L 210.006072 92.173543 
L 210.438368 92.052522 
L 210.438368 91.931502 
L 211.735257 91.689461 
L 211.735257 91.56844 
L 213.032146 91.44742 
L 213.032146 91.326399 
L 213.464443 91.205379 
L 213.464443 91.084358 
L 213.896739 90.963338 
L 213.896739 90.842317 
L 214.329035 90.721297 
L 214.329035 90.600276 
L 214.761332 90.479256 
L 214.761332 90.358235 
L 216.058221 90.116194 
L 216.058221 89.995174 
L 217.787406 89.753133 
L 218.219702 89.632112 
L 218.219702 89.511092 
L 220.381184 88.905989 
L 220.381184 88.784968 
L 222.110369 88.663948 
L 222.110369 88.542927 
L 222.542666 88.421907 
L 222.542666 88.300886 
L 222.974962 88.179866 
L 224.271851 87.937825 
L 224.271851 87.816804 
L 224.704147 87.695784 
L 224.704147 87.574763 
L 226.433333 87.453743 
L 226.433333 87.332722 
L 227.297925 87.090681 
L 227.297925 86.969661 
L 228.162518 86.72762 
L 229.027111 86.606599 
L 229.027111 86.485579 
L 230.756296 86.364558 
L 230.756296 86.243538 
L 231.188592 86.122517 
L 231.188592 86.001497 
L 231.620889 85.880476 
L 231.620889 85.759456 
L 232.485481 85.517415 
L 233.350074 85.396394 
L 235.511556 85.154353 
L 235.511556 85.033333 
L 235.943852 84.912312 
L 235.943852 84.791292 
L 236.808444 84.549251 
L 236.808444 84.42823 
L 238.969926 84.065169 
L 239.834519 83.823128 
L 239.834519 83.702107 
L 241.131408 83.339046 
L 241.131408 83.218025 
L 241.996 83.097005 
L 241.996 82.975984 
L 243.292889 82.854963 
L 243.292889 82.733943 
L 244.157482 82.491902 
L 245.454371 82.249861 
L 246.318964 82.00782 
L 246.318964 81.886799 
L 248.480445 81.644758 
L 248.480445 81.523738 
L 248.912742 81.402717 
L 248.912742 81.281697 
L 251.074223 80.676594 
L 252.803409 80.434553 
L 252.803409 80.313533 
L 253.235705 80.192512 
L 254.100298 80.071492 
L 254.100298 79.950471 
L 254.532594 79.829451 
L 255.829483 79.58741 
L 256.261779 79.466389 
L 257.126372 79.345369 
L 257.126372 79.224348 
L 257.558668 79.103328 
L 257.558668 78.982307 
L 258.423261 78.740266 
L 258.423261 78.498225 
L 258.855557 78.377205 
L 260.152446 78.135164 
L 260.584743 78.014143 
L 261.449335 77.893123 
L 261.449335 77.772102 
L 261.881632 77.651082 
L 261.881632 77.530061 
L 262.746224 77.409041 
L 262.746224 77.28802 
L 263.178521 77.166999 
L 263.178521 77.045979 
L 263.610817 76.924958 
L 263.610817 76.803938 
L 264.47541 76.561897 
L 264.47541 76.440876 
L 264.907706 76.319856 
L 264.907706 76.198835 
L 265.772299 76.077815 
L 265.772299 75.956794 
L 266.204595 75.835774 
L 267.069188 75.714753 
L 267.069188 75.593733 
L 267.93378 75.472712 
L 267.93378 75.351692 
L 269.230669 74.98863 
L 270.527558 74.746589 
L 270.527558 74.504548 
L 271.392151 74.383528 
L 271.392151 74.262507 
L 272.256744 74.141487 
L 272.256744 74.020466 
L 272.68904 73.899446 
L 272.68904 73.778425 
L 273.553633 73.536384 
L 274.850522 73.294343 
L 274.850522 73.173323 
L 277.012003 72.810261 
L 277.012003 72.56822 
L 277.4443 72.4472 
L 277.4443 72.326179 
L 279.173485 72.084138 
L 279.173485 71.963118 
L 280.038078 71.842097 
L 280.038078 71.721077 
L 281.334967 71.358015 
L 281.334967 71.115974 
L 281.767263 70.994953 
L 281.767263 70.873933 
L 284.361041 70.631892 
L 284.361041 70.389851 
L 285.225634 70.14781 
L 285.225634 70.026789 
L 285.65793 69.905769 
L 285.65793 69.784748 
L 286.090226 69.663728 
L 286.954819 69.542707 
L 286.954819 69.421687 
L 288.684004 69.179646 
L 288.684004 68.816584 
L 289.980893 68.574543 
L 289.980893 68.332502 
L 292.142375 68.090461 
L 292.142375 67.84842 
L 293.006968 67.7274 
L 293.006968 67.606379 
L 297.329931 67.001277 
L 297.329931 66.880256 
L 299.059116 66.638215 
L 299.059116 66.275154 
L 301.652894 66.033113 
L 301.652894 65.912092 
L 302.949783 65.670051 
L 302.949783 65.549031 
L 303.38208 65.42801 
L 303.38208 65.306989 
L 305.975858 65.185969 
L 305.975858 65.064948 
L 307.272747 64.701887 
L 307.272747 64.580866 
L 307.705043 64.459846 
L 310.731117 64.217805 
L 312.028006 64.096784 
L 316.35097 63.854743 
L 328.887563 62.644538 
L 333.210527 62.402497 
L 333.642823 62.281477 
L 338.398083 62.039436 
L 339.262675 61.918415 
L 341.424157 61.676374 
L 342.721046 61.555354 
L 342.721046 61.434333 
L 343.153342 61.313313 
L 343.153342 61.192292 
L 343.585639 61.071272 
L 345.74712 60.829231 
L 347.044009 60.58719 
L 347.044009 60.466169 
L 349.637787 60.224128 
L 350.934676 59.861067 
L 350.934676 59.740046 
L 353.528454 59.498005 
L 354.393047 59.255964 
L 354.393047 58.892902 
L 354.825343 58.771882 
L 357.851418 58.529841 
L 358.283714 58.40882 
L 358.283714 58.2878 
L 358.71601 58.166779 
L 358.71601 57.924738 
L 361.742084 57.682697 
L 361.742084 57.561677 
L 362.174381 57.440656 
L 362.174381 57.319636 
L 362.606677 57.198615 
L 362.606677 56.835554 
L 363.47127 56.714533 
L 366.065048 56.472492 
L 366.065048 56.230451 
L 366.497344 56.109431 
L 366.497344 55.86739 
L 369.955715 55.504328 
L 370.388011 55.383308 
L 370.388011 55.262287 
L 370.820307 55.141267 
L 376.872456 54.657185 
L 387.679864 53.931062 
L 398.487273 53.568 
L 398.487273 53.568 
" clip-path="url(#p21bdbc646f)" style="fill: none; stroke: #9467bd; stroke-width: 1.5; stroke-linecap: square"/>
   </g>
   <g id="patch_3">
    <path d="M 57.6 307.584 
L 57.6 41.472 
" style="fill: none; stroke: #000000; stroke-width: 0.8; stroke-linejoin: miter; stroke-linecap: square"/>
   </g>
   <g id="patch_4">
    <path d="M 414.72 307.584 
L 414.72 41.472 
" style="fill: none; stroke: #000000; stroke-width: 0.8; stroke-linejoin: miter; stroke-linecap: square"/>
   </g>
   <g id="patch_5">
    <path d="M 57.6 307.584 
L 414.72 307.584 
" style="fill: none; stroke: #000000; stroke-width: 0.8; stroke-linejoin: miter; stroke-linecap: square"/>
   </g>
   <g id="patch_6">
    <path d="M 57.6 41.472 
L 414.72 41.472 
" style="fill: none; stroke: #000000; stroke-width: 0.8; stroke-linejoin: miter; stroke-linecap: square"/>
   </g>
   <g id="text_17">
    <!-- RTT of all TCP messages -->
    <g transform="translate(167.049844 35.472) scale(0.1 -0.1)">
     <defs>
      <path id="DejaVuSerif-Bold-66" d="M 3097 4031 
L 2747 4031 
Q 2722 4275 2605 4394 
Q 2488 4513 2272 4513 
Q 2022 4513 1909 4333 
Q 1797 4153 1797 3750 
L 1797 3322 
L 2631 3322 
L 2631 2944 
L 1797 2944 
L 1797 378 
L 2438 378 
L 2438 0 
L 219 0 
L 219 378 
L 691 378 
L 691 2944 
L 197 2944 
L 197 3322 
L 691 3322 
L 691 3738 
Q 691 4291 1044 4577 
Q 1397 4863 2081 4863 
Q 2347 4863 2600 4833 
Q 2853 4803 3097 4744 
L 3097 4031 
z
" transform="scale(0.015625)"/>
      <path id="DejaVuSerif-Bold-67" d="M 3853 2944 
L 3853 44 
Q 3853 -656 3354 -1039 
Q 2856 -1422 1947 -1422 
Q 1616 -1422 1275 -1370 
Q 934 -1319 575 -1216 
L 575 -422 
L 928 -422 
Q 975 -750 1192 -909 
Q 1409 -1069 1813 -1069 
Q 2325 -1069 2536 -823 
Q 2747 -578 2747 44 
L 2747 422 
Q 2606 163 2367 36 
Q 2128 -91 1778 -91 
Q 1072 -91 667 378 
Q 263 847 263 1663 
Q 263 2481 667 2947 
Q 1072 3413 1778 3413 
Q 2128 3413 2367 3286 
Q 2606 3159 2747 2900 
L 2747 3322 
L 4325 3322 
L 4325 2944 
L 3853 2944 
z
M 2747 1825 
Q 2747 2406 2597 2665 
Q 2447 2925 2119 2925 
Q 1775 2925 1636 2651 
Q 1497 2378 1497 1663 
Q 1497 947 1637 672 
Q 1778 397 2119 397 
Q 2447 397 2597 656 
Q 2747 916 2747 1497 
L 2747 1825 
z
" transform="scale(0.015625)"/>
     </defs>
     <use xlink:href="#DejaVuSerif-Bold-52"/>
     <use xlink:href="#DejaVuSerif-Bold-54" x="81.355469"/>
     <use xlink:href="#DejaVuSerif-Bold-54" x="152.144531"/>
     <use xlink:href="#DejaVuSerif-Bold-20" x="226.558594"/>
     <use xlink:href="#DejaVuSerif-Bold-6f" x="261.373047"/>
     <use xlink:href="#DejaVuSerif-Bold-66" x="328.072266"/>
     <use xlink:href="#DejaVuSerif-Bold-20" x="371.089844"/>
     <use xlink:href="#DejaVuSerif-Bold-61" x="405.904297"/>
     <use xlink:href="#DejaVuSerif-Bold-6c" x="470.699219"/>
     <use xlink:href="#DejaVuSerif-Bold-6c" x="508.6875"/>
     <use xlink:href="#DejaVuSerif-Bold-20" x="546.675781"/>
     <use xlink:href="#DejaVuSerif-Bold-54" x="581.490234"/>
     <use xlink:href="#DejaVuSerif-Bold-43" x="655.904297"/>
     <use xlink:href="#DejaVuSerif-Bold-50" x="735.494141"/>
     <use xlink:href="#DejaVuSerif-Bold-20" x="810.689453"/>
     <use xlink:href="#DejaVuSerif-Bold-6d" x="845.503906"/>
     <use xlink:href="#DejaVuSerif-Bold-65" x="951.314453"/>
     <use xlink:href="#DejaVuSerif-Bold-73" x="1014.9375"/>
     <use xlink:href="#DejaVuSerif-Bold-73" x="1071.236328"/>
     <use xlink:href="#DejaVuSerif-Bold-61" x="1127.535156"/>
     <use xlink:href="#DejaVuSerif-Bold-67" x="1192.330078"/>
     <use xlink:href="#DejaVuSerif-Bold-65" x="1262.251953"/>
     <use xlink:href="#DejaVuSerif-Bold-73" x="1325.875"/>
    </g>
   </g>
   <g id="legend_1">
    <g id="patch_7">
     <path d="M 329.97375 303.584 
L 409.12 303.584 
Q 410.72 303.584 410.72 301.984 
L 410.72 244.0715 
Q 410.72 242.4715 409.12 242.4715 
L 329.97375 242.4715 
Q 328.37375 242.4715 328.37375 244.0715 
L 328.37375 301.984 
Q 328.37375 303.584 329.97375 303.584 
z
" style="fill: #ffffff; opacity: 0.8; stroke: #cccccc; stroke-linejoin: miter"/>
    </g>
    <g id="line2d_20">
     <path d="M 331.57375 248.95025 
L 339.57375 248.95025 
L 347.57375 248.95025 
" style="fill: none; stroke: #1f77b4; stroke-width: 1.5; stroke-linecap: square"/>
    </g>
    <g id="text_18">
     <!-- BTP -->
     <g transform="translate(353.97375 251.75025) scale(0.08 -0.08)">
      <defs>
       <path id="DejaVuSerif-42" d="M 1581 331 
L 2516 331 
Q 3078 331 3337 575 
Q 3597 819 3597 1350 
Q 3597 1878 3339 2120 
Q 3081 2363 2516 2363 
L 1581 2363 
L 1581 331 
z
M 1581 2694 
L 2375 2694 
Q 2888 2694 3123 2891 
Q 3359 3088 3359 3513 
Q 3359 3941 3123 4136 
Q 2888 4331 2375 4331 
L 1581 4331 
L 1581 2694 
z
M 353 0 
L 353 331 
L 947 331 
L 947 4331 
L 353 4331 
L 353 4666 
L 2656 4666 
Q 3363 4666 3720 4377 
Q 4078 4088 4078 3513 
Q 4078 3097 3829 2850 
Q 3581 2603 3103 2547 
Q 3697 2472 4005 2167 
Q 4313 1863 4313 1350 
Q 4313 656 3875 328 
Q 3438 0 2509 0 
L 353 0 
z
" transform="scale(0.015625)"/>
       <path id="DejaVuSerif-54" d="M 1222 0 
L 1222 331 
L 1819 331 
L 1819 4294 
L 447 4294 
L 447 3566 
L 63 3566 
L 63 4666 
L 4206 4666 
L 4206 3566 
L 3822 3566 
L 3822 4294 
L 2450 4294 
L 2450 331 
L 3047 331 
L 3047 0 
L 1222 0 
z
" transform="scale(0.015625)"/>
       <path id="DejaVuSerif-50" d="M 1581 2375 
L 2406 2375 
Q 2872 2375 3115 2626 
Q 3359 2878 3359 3353 
Q 3359 3831 3115 4081 
Q 2872 4331 2406 4331 
L 1581 4331 
L 1581 2375 
z
M 353 0 
L 353 331 
L 947 331 
L 947 4331 
L 353 4331 
L 353 4666 
L 2559 4666 
Q 3259 4666 3668 4311 
Q 4078 3956 4078 3353 
Q 4078 2753 3668 2397 
Q 3259 2041 2559 2041 
L 1581 2041 
L 1581 331 
L 2303 331 
L 2303 0 
L 353 0 
z
" transform="scale(0.015625)"/>
      </defs>
      <use xlink:href="#DejaVuSerif-42"/>
      <use xlink:href="#DejaVuSerif-54" x="73.486328"/>
      <use xlink:href="#DejaVuSerif-50" x="140.185547"/>
     </g>
    </g>
    <g id="line2d_21">
     <path d="M 331.57375 260.69275 
L 339.57375 260.69275 
L 347.57375 260.69275 
" style="fill: none; stroke: #ff7f0e; stroke-width: 1.5; stroke-linecap: square"/>
    </g>
    <g id="text_19">
     <!-- BRTP -->
     <g transform="translate(353.97375 263.49275) scale(0.08 -0.08)">
      <defs>
       <path id="DejaVuSerif-52" d="M 3066 2316 
Q 3284 2256 3442 2114 
Q 3600 1972 3725 1716 
L 4403 331 
L 4972 331 
L 4972 0 
L 3872 0 
L 3144 1484 
Q 2934 1916 2759 2042 
Q 2584 2169 2278 2169 
L 1581 2169 
L 1581 331 
L 2241 331 
L 2241 0 
L 353 0 
L 353 331 
L 947 331 
L 947 4331 
L 353 4331 
L 353 4666 
L 2719 4666 
Q 3400 4666 3770 4341 
Q 4141 4016 4141 3419 
Q 4141 2938 3870 2661 
Q 3600 2384 3066 2316 
z
M 1581 2503 
L 2503 2503 
Q 2975 2503 3200 2726 
Q 3425 2950 3425 3419 
Q 3425 3888 3200 4109 
Q 2975 4331 2503 4331 
L 1581 4331 
L 1581 2503 
z
" transform="scale(0.015625)"/>
      </defs>
      <use xlink:href="#DejaVuSerif-42"/>
      <use xlink:href="#DejaVuSerif-52" x="73.486328"/>
      <use xlink:href="#DejaVuSerif-54" x="147.029297"/>
      <use xlink:href="#DejaVuSerif-50" x="213.728516"/>
     </g>
    </g>
    <g id="line2d_22">
     <path d="M 331.57375 272.43525 
L 339.57375 272.43525 
L 347.57375 272.43525 
" style="fill: none; stroke: #2ca02c; stroke-width: 1.5; stroke-linecap: square"/>
    </g>
    <g id="text_20">
     <!-- BRTP-PROXY -->
     <g transform="translate(353.97375 275.23525) scale(0.08 -0.08)">
      <defs>
       <path id="DejaVuSerif-2d" d="M 281 1959 
L 1881 1959 
L 1881 1472 
L 281 1472 
L 281 1959 
z
" transform="scale(0.015625)"/>
       <path id="DejaVuSerif-4f" d="M 2625 244 
Q 3391 244 3781 770 
Q 4172 1297 4172 2328 
Q 4172 3363 3781 3889 
Q 3391 4416 2625 4416 
Q 1856 4416 1465 3889 
Q 1075 3363 1075 2328 
Q 1075 1297 1465 770 
Q 1856 244 2625 244 
z
M 2625 -91 
Q 2150 -91 1751 65 
Q 1353 222 1050 525 
Q 700 875 529 1319 
Q 359 1763 359 2328 
Q 359 2894 529 3339 
Q 700 3784 1050 4134 
Q 1356 4441 1750 4595 
Q 2144 4750 2625 4750 
Q 3641 4750 4266 4084 
Q 4891 3419 4891 2328 
Q 4891 1769 4719 1320 
Q 4547 872 4197 525 
Q 3891 219 3497 64 
Q 3103 -91 2625 -91 
z
" transform="scale(0.015625)"/>
       <path id="DejaVuSerif-58" d="M 2119 1997 
L 978 331 
L 1581 331 
L 1581 0 
L 38 0 
L 38 331 
L 575 331 
L 1919 2291 
L 556 4331 
L 56 4331 
L 56 4666 
L 1906 4666 
L 1906 4331 
L 1356 4331 
L 2356 2828 
L 3384 4331 
L 2784 4331 
L 2784 4666 
L 4313 4666 
L 4313 4331 
L 3788 4331 
L 2553 2534 
L 4025 331 
L 4525 331 
L 4525 0 
L 2675 0 
L 2675 331 
L 3231 331 
L 2119 1997 
z
" transform="scale(0.015625)"/>
       <path id="DejaVuSerif-59" d="M 1209 0 
L 1209 331 
L 1806 331 
L 1806 2009 
L 366 4331 
L -72 4331 
L -72 4666 
L 1663 4666 
L 1663 4331 
L 1119 4331 
L 2284 2444 
L 3450 4331 
L 2925 4331 
L 2925 4666 
L 4281 4666 
L 4281 4331 
L 3841 4331 
L 2438 2069 
L 2438 331 
L 3034 331 
L 3034 0 
L 1209 0 
z
" transform="scale(0.015625)"/>
      </defs>
      <use xlink:href="#DejaVuSerif-42"/>
      <use xlink:href="#DejaVuSerif-52" x="73.486328"/>
      <use xlink:href="#DejaVuSerif-54" x="147.029297"/>
      <use xlink:href="#DejaVuSerif-50" x="213.728516"/>
      <use xlink:href="#DejaVuSerif-2d" x="275.513672"/>
      <use xlink:href="#DejaVuSerif-50" x="309.302734"/>
      <use xlink:href="#DejaVuSerif-52" x="376.587891"/>
      <use xlink:href="#DejaVuSerif-4f" x="451.880859"/>
      <use xlink:href="#DejaVuSerif-58" x="532.113281"/>
      <use xlink:href="#DejaVuSerif-59" x="603.304688"/>
     </g>
    </g>
    <g id="line2d_23">
     <path d="M 331.57375 284.17775 
L 339.57375 284.17775 
L 347.57375 284.17775 
" style="fill: none; stroke: #d62728; stroke-width: 1.5; stroke-linecap: square"/>
    </g>
    <g id="text_21">
     <!-- KCP -->
     <g transform="translate(353.97375 286.97775) scale(0.08 -0.08)">
      <defs>
       <path id="DejaVuSerif-4b" d="M 353 0 
L 353 331 
L 947 331 
L 947 4331 
L 353 4331 
L 353 4666 
L 2175 4666 
L 2175 4331 
L 1581 4331 
L 1581 2566 
L 3591 4331 
L 3084 4331 
L 3084 4666 
L 4634 4666 
L 4634 4331 
L 4109 4331 
L 2106 2572 
L 4347 331 
L 4878 331 
L 4878 0 
L 3794 0 
L 1581 2216 
L 1581 331 
L 2175 331 
L 2175 0 
L 353 0 
z
" transform="scale(0.015625)"/>
       <path id="DejaVuSerif-43" d="M 4513 1234 
Q 4306 581 3820 245 
Q 3334 -91 2591 -91 
Q 2134 -91 1743 65 
Q 1353 222 1050 525 
Q 700 875 529 1320 
Q 359 1766 359 2328 
Q 359 3416 987 4083 
Q 1616 4750 2644 4750 
Q 3025 4750 3456 4650 
Q 3888 4550 4384 4347 
L 4384 3272 
L 4031 3272 
Q 3916 3859 3567 4137 
Q 3219 4416 2591 4416 
Q 1844 4416 1459 3886 
Q 1075 3356 1075 2328 
Q 1075 1303 1459 773 
Q 1844 244 2591 244 
Q 3113 244 3450 492 
Q 3788 741 3938 1234 
L 4513 1234 
z
" transform="scale(0.015625)"/>
      </defs>
      <use xlink:href="#DejaVuSerif-4b"/>
      <use xlink:href="#DejaVuSerif-43" x="72.082031"/>
      <use xlink:href="#DejaVuSerif-50" x="148.595703"/>
     </g>
    </g>
    <g id="line2d_24">
     <path d="M 331.57375 295.92025 
L 339.57375 295.92025 
L 347.57375 295.92025 
" style="fill: none; stroke: #9467bd; stroke-width: 1.5; stroke-linecap: square"/>
    </g>
    <g id="text_22">
     <!-- TCP-BBR -->
     <g transform="translate(353.97375 298.72025) scale(0.08 -0.08)">
      <use xlink:href="#DejaVuSerif-54"/>
      <use xlink:href="#DejaVuSerif-43" x="66.699219"/>
      <use xlink:href="#DejaVuSerif-50" x="143.212891"/>
      <use xlink:href="#DejaVuSerif-2d" x="204.998047"/>
      <use xlink:href="#DejaVuSerif-42" x="238.787109"/>
      <use xlink:href="#DejaVuSerif-42" x="312.273438"/>
      <use xlink:href="#DejaVuSerif-52" x="385.759766"/>
     </g>
    </g>
   </g>
  </g>
 </g>
 <defs>
  <clipPath id="p21bdbc646f">
   <rect x="57.6" y="41.472" width="357.12" height="266.112"/>
  </clipPath>
 </defs>
</svg>
