<?xml version="1.0" encoding="utf-8" standalone="no"?>
<!DOCTYPE svg PUBLIC "-//W3C//DTD SVG 1.1//EN"
  "http://www.w3.org/Graphics/SVG/1.1/DTD/svg11.dtd">
<svg xmlns:xlink="http://www.w3.org/1999/xlink" width="460.8pt" height="345.6pt" viewBox="0 0 460.8 345.6" xmlns="http://www.w3.org/2000/svg" version="1.1">
 <metadata>
  <rdf:RDF xmlns:dc="http://purl.org/dc/elements/1.1/" xmlns:cc="http://creativecommons.org/ns#" xmlns:rdf="http://www.w3.org/1999/02/22-rdf-syntax-ns#">
   <cc:Work>
    <dc:type rdf:resource="http://purl.org/dc/dcmitype/StillImage"/>
    <dc:date>2024-08-23T01:54:51.479412</dc:date>
    <dc:format>image/svg+xml</dc:format>
    <dc:creator>
     <cc:Agent>
      <dc:title>Matplotlib v3.9.2, https://matplotlib.org/</dc:title>
     </cc:Agent>
    </dc:creator>
   </cc:Work>
  </rdf:RDF>
 </metadata>
 <defs>
  <style type="text/css">*{stroke-linejoin: round; stroke-linecap: butt}</style>
 </defs>
 <g id="figure_1">
  <g id="patch_1">
   <path d="M 0 345.6 
L 460.8 345.6 
L 460.8 0 
L 0 0 
z
" style="fill: #ffffff"/>
  </g>
  <g id="axes_1">
   <g id="patch_2">
    <path d="M 57.6 307.584 
L 414.72 307.584 
L 414.72 41.472 
L 57.6 41.472 
z
" style="fill: #ffffff"/>
   </g>
   <g id="matplotlib.axis_1">
    <g id="xtick_1">
     <g id="line2d_1">
      <defs>
       <path id="m0f695bdd6c" d="M 0 0 
L 0 3.5 
" style="stroke: #000000; stroke-width: 0.8"/>
      </defs>
      <g>
       <use xlink:href="#m0f695bdd6c" x="115.813918" y="307.584" style="stroke: #000000; stroke-width: 0.8"/>
      </g>
     </g>
     <g id="text_1">
      <!-- 50 -->
      <g transform="translate(109.451418 322.182437) scale(0.1 -0.1)">
       <defs>
        <path id="DejaVuSerif-35" d="M 3219 4666 
L 3219 4153 
L 1081 4153 
L 1081 2816 
Q 1244 2928 1461 2984 
Q 1678 3041 1947 3041 
Q 2703 3041 3140 2622 
Q 3578 2203 3578 1478 
Q 3578 738 3136 323 
Q 2694 -91 1894 -91 
Q 1572 -91 1234 -12 
Q 897 66 544 225 
L 544 1131 
L 897 1131 
Q 925 688 1179 453 
Q 1434 219 1894 219 
Q 2388 219 2653 544 
Q 2919 869 2919 1478 
Q 2919 2084 2655 2407 
Q 2391 2731 1894 2731 
Q 1613 2731 1398 2631 
Q 1184 2531 1019 2322 
L 750 2322 
L 750 4666 
L 3219 4666 
z
" transform="scale(0.015625)"/>
        <path id="DejaVuSerif-30" d="M 2034 219 
Q 2513 219 2750 744 
Q 2988 1269 2988 2328 
Q 2988 3391 2750 3916 
Q 2513 4441 2034 4441 
Q 1556 4441 1318 3916 
Q 1081 3391 1081 2328 
Q 1081 1269 1318 744 
Q 1556 219 2034 219 
z
M 2034 -91 
Q 1275 -91 848 546 
Q 422 1184 422 2328 
Q 422 3475 848 4112 
Q 1275 4750 2034 4750 
Q 2797 4750 3222 4112 
Q 3647 3475 3647 2328 
Q 3647 1184 3222 546 
Q 2797 -91 2034 -91 
z
" transform="scale(0.015625)"/>
       </defs>
       <use xlink:href="#DejaVuSerif-35"/>
       <use xlink:href="#DejaVuSerif-30" x="63.623047"/>
      </g>
     </g>
    </g>
    <g id="xtick_2">
     <g id="line2d_2">
      <g>
       <use xlink:href="#m0f695bdd6c" x="185.782571" y="307.584" style="stroke: #000000; stroke-width: 0.8"/>
      </g>
     </g>
     <g id="text_2">
      <!-- 100 -->
      <g transform="translate(176.238821 322.182437) scale(0.1 -0.1)">
       <defs>
        <path id="DejaVuSerif-31" d="M 909 0 
L 909 331 
L 1722 331 
L 1722 4213 
L 781 3603 
L 781 4013 
L 1919 4750 
L 2350 4750 
L 2350 331 
L 3163 331 
L 3163 0 
L 909 0 
z
" transform="scale(0.015625)"/>
       </defs>
       <use xlink:href="#DejaVuSerif-31"/>
       <use xlink:href="#DejaVuSerif-30" x="63.623047"/>
       <use xlink:href="#DejaVuSerif-30" x="127.246094"/>
      </g>
     </g>
    </g>
    <g id="xtick_3">
     <g id="line2d_3">
      <g>
       <use xlink:href="#m0f695bdd6c" x="255.751223" y="307.584" style="stroke: #000000; stroke-width: 0.8"/>
      </g>
     </g>
     <g id="text_3">
      <!-- 150 -->
      <g transform="translate(246.207473 322.182437) scale(0.1 -0.1)">
       <use xlink:href="#DejaVuSerif-31"/>
       <use xlink:href="#DejaVuSerif-35" x="63.623047"/>
       <use xlink:href="#DejaVuSerif-30" x="127.246094"/>
      </g>
     </g>
    </g>
    <g id="xtick_4">
     <g id="line2d_4">
      <g>
       <use xlink:href="#m0f695bdd6c" x="325.719875" y="307.584" style="stroke: #000000; stroke-width: 0.8"/>
      </g>
     </g>
     <g id="text_4">
      <!-- 200 -->
      <g transform="translate(316.176125 322.182437) scale(0.1 -0.1)">
       <defs>
        <path id="DejaVuSerif-32" d="M 819 3553 
L 469 3553 
L 469 4384 
Q 803 4563 1142 4656 
Q 1481 4750 1806 4750 
Q 2534 4750 2956 4397 
Q 3378 4044 3378 3438 
Q 3378 2753 2422 1800 
Q 2347 1728 2309 1691 
L 1131 513 
L 3078 513 
L 3078 1088 
L 3444 1088 
L 3444 0 
L 434 0 
L 434 341 
L 1850 1753 
Q 2319 2222 2519 2614 
Q 2719 3006 2719 3438 
Q 2719 3909 2473 4175 
Q 2228 4441 1797 4441 
Q 1350 4441 1106 4219 
Q 863 3997 819 3553 
z
" transform="scale(0.015625)"/>
       </defs>
       <use xlink:href="#DejaVuSerif-32"/>
       <use xlink:href="#DejaVuSerif-30" x="63.623047"/>
       <use xlink:href="#DejaVuSerif-30" x="127.246094"/>
      </g>
     </g>
    </g>
    <g id="xtick_5">
     <g id="line2d_5">
      <g>
       <use xlink:href="#m0f695bdd6c" x="395.688527" y="307.584" style="stroke: #000000; stroke-width: 0.8"/>
      </g>
     </g>
     <g id="text_5">
      <!-- 250 -->
      <g transform="translate(386.144777 322.182437) scale(0.1 -0.1)">
       <use xlink:href="#DejaVuSerif-32"/>
       <use xlink:href="#DejaVuSerif-35" x="63.623047"/>
       <use xlink:href="#DejaVuSerif-30" x="127.246094"/>
      </g>
     </g>
    </g>
    <g id="text_6">
     <!-- RTT (ms) -->
     <g transform="translate(215.435 334.340875) scale(0.08 -0.08)">
      <defs>
       <path id="DejaVuSerif-Bold-52" d="M 3397 2278 
Q 3675 2238 3865 2094 
Q 4056 1950 4197 1678 
L 4878 378 
L 5356 378 
L 5356 0 
L 3822 0 
L 3078 1409 
Q 2863 1847 2711 1967 
Q 2559 2088 2291 2088 
L 2100 2088 
L 2100 378 
L 2700 378 
L 2700 0 
L 300 0 
L 300 378 
L 897 378 
L 897 4288 
L 300 4288 
L 300 4666 
L 2963 4666 
Q 3775 4666 4217 4339 
Q 4659 4013 4659 3413 
Q 4659 2925 4345 2642 
Q 4031 2359 3397 2278 
z
M 2100 2463 
L 2509 2463 
Q 2947 2463 3183 2700 
Q 3419 2938 3419 3378 
Q 3419 3819 3183 4053 
Q 2947 4288 2509 4288 
L 2100 4288 
L 2100 2463 
z
" transform="scale(0.015625)"/>
       <path id="DejaVuSerif-Bold-54" d="M 1159 0 
L 1159 378 
L 1778 378 
L 1778 4238 
L 500 4238 
L 500 3500 
L 72 3500 
L 72 4666 
L 4697 4666 
L 4697 3500 
L 4275 3500 
L 4275 4238 
L 2988 4238 
L 2988 378 
L 3609 378 
L 3609 0 
L 1159 0 
z
" transform="scale(0.015625)"/>
       <path id="DejaVuSerif-Bold-20" transform="scale(0.015625)"/>
       <path id="DejaVuSerif-Bold-28" d="M 2694 -997 
Q 1641 -606 1122 122 
Q 603 850 603 1931 
Q 603 3013 1115 3731 
Q 1628 4450 2694 4863 
L 2694 4488 
Q 2200 4188 1983 3598 
Q 1766 3009 1766 1931 
Q 1766 856 1983 267 
Q 2200 -322 2694 -622 
L 2694 -997 
z
" transform="scale(0.015625)"/>
       <path id="DejaVuSerif-Bold-6d" d="M 3884 2778 
Q 4116 3109 4384 3261 
Q 4653 3413 5013 3413 
Q 5584 3413 5867 3089 
Q 6150 2766 6150 2113 
L 6150 378 
L 6625 378 
L 6625 0 
L 4647 0 
L 4647 378 
L 5044 378 
L 5044 1947 
Q 5044 2569 4948 2731 
Q 4853 2894 4594 2894 
Q 4300 2894 4137 2667 
Q 3975 2441 3975 2022 
L 3975 378 
L 4372 378 
L 4372 0 
L 2472 0 
L 2472 378 
L 2869 378 
L 2869 1947 
Q 2869 2569 2772 2731 
Q 2675 2894 2419 2894 
Q 2122 2894 1959 2667 
Q 1797 2441 1797 2022 
L 1797 378 
L 2194 378 
L 2194 0 
L 219 0 
L 219 378 
L 691 378 
L 691 2944 
L 219 2944 
L 219 3322 
L 1797 3322 
L 1797 2853 
Q 1991 3144 2241 3278 
Q 2491 3413 2834 3413 
Q 3241 3413 3494 3258 
Q 3747 3103 3884 2778 
z
" transform="scale(0.015625)"/>
       <path id="DejaVuSerif-Bold-73" d="M 300 97 
L 300 1025 
L 653 1025 
Q 697 653 931 458 
Q 1166 263 1569 263 
Q 1906 263 2086 380 
Q 2266 497 2266 716 
Q 2266 916 2152 1025 
Q 2038 1134 1709 1216 
L 1253 1331 
Q 738 1459 506 1698 
Q 275 1938 275 2344 
Q 275 2884 650 3148 
Q 1025 3413 1806 3413 
Q 2100 3413 2433 3364 
Q 2766 3316 3169 3213 
L 3169 2375 
L 2816 2375 
Q 2788 2716 2573 2887 
Q 2359 3059 1959 3059 
Q 1622 3059 1448 2951 
Q 1275 2844 1275 2638 
Q 1275 2469 1375 2372 
Q 1475 2275 1734 2209 
L 2188 2094 
Q 2841 1928 3091 1684 
Q 3341 1441 3341 1006 
Q 3341 444 2939 176 
Q 2538 -91 1691 -91 
Q 1381 -91 1034 -44 
Q 688 3 300 97 
z
" transform="scale(0.015625)"/>
       <path id="DejaVuSerif-Bold-29" d="M 325 -997 
L 325 -622 
Q 819 -322 1036 267 
Q 1253 856 1253 1931 
Q 1253 3009 1036 3598 
Q 819 4188 325 4488 
L 325 4863 
Q 1391 4450 1905 3731 
Q 2419 3013 2419 1931 
Q 2419 850 1898 122 
Q 1378 -606 325 -997 
z
" transform="scale(0.015625)"/>
      </defs>
      <use xlink:href="#DejaVuSerif-Bold-52"/>
      <use xlink:href="#DejaVuSerif-Bold-54" x="81.355469"/>
      <use xlink:href="#DejaVuSerif-Bold-54" x="152.144531"/>
      <use xlink:href="#DejaVuSerif-Bold-20" x="226.558594"/>
      <use xlink:href="#DejaVuSerif-Bold-28" x="261.373047"/>
      <use xlink:href="#DejaVuSerif-Bold-6d" x="308.6875"/>
      <use xlink:href="#DejaVuSerif-Bold-73" x="414.498047"/>
      <use xlink:href="#DejaVuSerif-Bold-29" x="470.796875"/>
     </g>
    </g>
   </g>
   <g id="matplotlib.axis_2">
    <g id="ytick_1">
     <g id="line2d_6">
      <defs>
       <path id="md8653bec02" d="M 0 0 
L -3.5 0 
" style="stroke: #000000; stroke-width: 0.8"/>
      </defs>
      <g>
       <use xlink:href="#md8653bec02" x="57.6" y="295.730162" style="stroke: #000000; stroke-width: 0.8"/>
      </g>
     </g>
     <g id="text_7">
      <!-- 0.0 -->
      <g transform="translate(34.696875 299.529381) scale(0.1 -0.1)">
       <defs>
        <path id="DejaVuSerif-2e" d="M 603 325 
Q 603 500 722 622 
Q 841 744 1019 744 
Q 1191 744 1312 622 
Q 1434 500 1434 325 
Q 1434 153 1312 31 
Q 1191 -91 1019 -91 
Q 841 -91 722 29 
Q 603 150 603 325 
z
" transform="scale(0.015625)"/>
       </defs>
       <use xlink:href="#DejaVuSerif-30"/>
       <use xlink:href="#DejaVuSerif-2e" x="63.623047"/>
       <use xlink:href="#DejaVuSerif-30" x="95.410156"/>
      </g>
     </g>
    </g>
    <g id="ytick_2">
     <g id="line2d_7">
      <g>
       <use xlink:href="#md8653bec02" x="57.6" y="247.29773" style="stroke: #000000; stroke-width: 0.8"/>
      </g>
     </g>
     <g id="text_8">
      <!-- 0.2 -->
      <g transform="translate(34.696875 251.096948) scale(0.1 -0.1)">
       <use xlink:href="#DejaVuSerif-30"/>
       <use xlink:href="#DejaVuSerif-2e" x="63.623047"/>
       <use xlink:href="#DejaVuSerif-32" x="95.410156"/>
      </g>
     </g>
    </g>
    <g id="ytick_3">
     <g id="line2d_8">
      <g>
       <use xlink:href="#md8653bec02" x="57.6" y="198.865297" style="stroke: #000000; stroke-width: 0.8"/>
      </g>
     </g>
     <g id="text_9">
      <!-- 0.4 -->
      <g transform="translate(34.696875 202.664516) scale(0.1 -0.1)">
       <defs>
        <path id="DejaVuSerif-34" d="M 2234 1581 
L 2234 4063 
L 641 1581 
L 2234 1581 
z
M 3609 0 
L 1484 0 
L 1484 331 
L 2234 331 
L 2234 1247 
L 197 1247 
L 197 1588 
L 2241 4750 
L 2859 4750 
L 2859 1581 
L 3750 1581 
L 3750 1247 
L 2859 1247 
L 2859 331 
L 3609 331 
L 3609 0 
z
" transform="scale(0.015625)"/>
       </defs>
       <use xlink:href="#DejaVuSerif-30"/>
       <use xlink:href="#DejaVuSerif-2e" x="63.623047"/>
       <use xlink:href="#DejaVuSerif-34" x="95.410156"/>
      </g>
     </g>
    </g>
    <g id="ytick_4">
     <g id="line2d_9">
      <g>
       <use xlink:href="#md8653bec02" x="57.6" y="150.432865" style="stroke: #000000; stroke-width: 0.8"/>
      </g>
     </g>
     <g id="text_10">
      <!-- 0.6 -->
      <g transform="translate(34.696875 154.232084) scale(0.1 -0.1)">
       <defs>
        <path id="DejaVuSerif-36" d="M 2094 219 
Q 2534 219 2771 542 
Q 3009 866 3009 1472 
Q 3009 2078 2771 2401 
Q 2534 2725 2094 2725 
Q 1647 2725 1412 2412 
Q 1178 2100 1178 1509 
Q 1178 888 1415 553 
Q 1653 219 2094 219 
z
M 1075 2569 
Q 1288 2803 1556 2918 
Q 1825 3034 2163 3034 
Q 2859 3034 3264 2615 
Q 3669 2197 3669 1472 
Q 3669 763 3233 336 
Q 2797 -91 2069 -91 
Q 1278 -91 853 498 
Q 428 1088 428 2181 
Q 428 3406 931 4078 
Q 1434 4750 2350 4750 
Q 2597 4750 2869 4703 
Q 3141 4656 3425 4563 
L 3425 3794 
L 3072 3794 
Q 3034 4109 2831 4275 
Q 2628 4441 2284 4441 
Q 1678 4441 1381 3981 
Q 1084 3522 1075 2569 
z
" transform="scale(0.015625)"/>
       </defs>
       <use xlink:href="#DejaVuSerif-30"/>
       <use xlink:href="#DejaVuSerif-2e" x="63.623047"/>
       <use xlink:href="#DejaVuSerif-36" x="95.410156"/>
      </g>
     </g>
    </g>
    <g id="ytick_5">
     <g id="line2d_10">
      <g>
       <use xlink:href="#md8653bec02" x="57.6" y="102.000432" style="stroke: #000000; stroke-width: 0.8"/>
      </g>
     </g>
     <g id="text_11">
      <!-- 0.8 -->
      <g transform="translate(34.696875 105.799651) scale(0.1 -0.1)">
       <defs>
        <path id="DejaVuSerif-38" d="M 2981 1275 
Q 2981 1775 2732 2051 
Q 2484 2328 2034 2328 
Q 1584 2328 1336 2051 
Q 1088 1775 1088 1275 
Q 1088 772 1336 495 
Q 1584 219 2034 219 
Q 2484 219 2732 495 
Q 2981 772 2981 1275 
z
M 2853 3541 
Q 2853 3966 2637 4203 
Q 2422 4441 2034 4441 
Q 1650 4441 1433 4203 
Q 1216 3966 1216 3541 
Q 1216 3113 1433 2875 
Q 1650 2638 2034 2638 
Q 2422 2638 2637 2875 
Q 2853 3113 2853 3541 
z
M 2516 2484 
Q 3047 2413 3344 2092 
Q 3641 1772 3641 1275 
Q 3641 619 3225 264 
Q 2809 -91 2034 -91 
Q 1263 -91 845 264 
Q 428 619 428 1275 
Q 428 1772 725 2092 
Q 1022 2413 1556 2484 
Q 1084 2569 832 2842 
Q 581 3116 581 3541 
Q 581 4103 968 4426 
Q 1356 4750 2034 4750 
Q 2713 4750 3100 4426 
Q 3488 4103 3488 3541 
Q 3488 3116 3236 2842 
Q 2984 2569 2516 2484 
z
" transform="scale(0.015625)"/>
       </defs>
       <use xlink:href="#DejaVuSerif-30"/>
       <use xlink:href="#DejaVuSerif-2e" x="63.623047"/>
       <use xlink:href="#DejaVuSerif-38" x="95.410156"/>
      </g>
     </g>
    </g>
    <g id="ytick_6">
     <g id="line2d_11">
      <g>
       <use xlink:href="#md8653bec02" x="57.6" y="53.568" style="stroke: #000000; stroke-width: 0.8"/>
      </g>
     </g>
     <g id="text_12">
      <!-- 1.0 -->
      <g transform="translate(34.696875 57.367219) scale(0.1 -0.1)">
       <use xlink:href="#DejaVuSerif-31"/>
       <use xlink:href="#DejaVuSerif-2e" x="63.623047"/>
       <use xlink:href="#DejaVuSerif-30" x="95.410156"/>
      </g>
     </g>
    </g>
    <g id="text_13">
     <!-- Cumulative Probability -->
     <g transform="translate(28.919375 226.199875) rotate(-90) scale(0.08 -0.08)">
      <defs>
       <path id="DejaVuSerif-Bold-43" d="M 4769 1331 
Q 4584 609 4106 259 
Q 3628 -91 2822 -91 
Q 1641 -91 955 561 
Q 269 1213 269 2328 
Q 269 3447 955 4098 
Q 1641 4750 2822 4750 
Q 3238 4750 3688 4650 
Q 4138 4550 4641 4347 
L 4641 3200 
L 4244 3200 
Q 4122 3788 3800 4080 
Q 3478 4372 2950 4372 
Q 2269 4372 1937 3870 
Q 1606 3369 1606 2328 
Q 1606 1288 1937 788 
Q 2269 288 2956 288 
Q 3422 288 3717 547 
Q 4013 806 4147 1331 
L 4769 1331 
z
" transform="scale(0.015625)"/>
       <path id="DejaVuSerif-Bold-75" d="M 3963 3322 
L 3963 378 
L 4434 378 
L 4434 0 
L 2853 0 
L 2853 469 
Q 2656 172 2400 40 
Q 2144 -91 1753 -91 
Q 1194 -91 908 239 
Q 622 569 622 1209 
L 622 2944 
L 147 2944 
L 147 3322 
L 1728 3322 
L 1728 1381 
Q 1728 763 1831 595 
Q 1934 428 2209 428 
Q 2544 428 2698 675 
Q 2853 922 2853 1459 
L 2853 2944 
L 2450 2944 
L 2450 3322 
L 3963 3322 
z
" transform="scale(0.015625)"/>
       <path id="DejaVuSerif-Bold-6c" d="M 1797 378 
L 2272 378 
L 2272 0 
L 219 0 
L 219 378 
L 691 378 
L 691 4488 
L 219 4488 
L 219 4863 
L 1797 4863 
L 1797 378 
z
" transform="scale(0.015625)"/>
       <path id="DejaVuSerif-Bold-61" d="M 3525 2041 
L 3525 378 
L 4000 378 
L 4000 0 
L 2419 0 
L 2419 422 
Q 2200 159 1931 34 
Q 1663 -91 1319 -91 
Q 809 -91 536 182 
Q 263 456 263 966 
Q 263 1525 655 1803 
Q 1047 2081 1838 2081 
L 2419 2081 
L 2419 2278 
Q 2419 2681 2228 2873 
Q 2038 3066 1638 3066 
Q 1306 3066 1126 2930 
Q 947 2794 872 2484 
L 519 2484 
L 519 3200 
Q 816 3306 1134 3359 
Q 1453 3413 1806 3413 
Q 2697 3413 3111 3081 
Q 3525 2750 3525 2041 
z
M 2419 1044 
L 2419 1709 
L 2003 1709 
Q 1694 1709 1528 1540 
Q 1363 1372 1363 1056 
Q 1363 741 1483 584 
Q 1603 428 1850 428 
Q 2106 428 2262 597 
Q 2419 766 2419 1044 
z
" transform="scale(0.015625)"/>
       <path id="DejaVuSerif-Bold-74" d="M 634 2944 
L 153 2944 
L 153 3322 
L 634 3322 
L 634 4353 
L 1741 4353 
L 1741 3322 
L 2663 3322 
L 2663 2944 
L 1741 2944 
L 1741 909 
Q 1741 475 1809 369 
Q 1878 263 2059 263 
Q 2259 263 2356 397 
Q 2453 531 2459 813 
L 2925 813 
Q 2897 313 2651 111 
Q 2406 -91 1806 -91 
Q 1122 -91 878 123 
Q 634 338 634 909 
L 634 2944 
z
" transform="scale(0.015625)"/>
       <path id="DejaVuSerif-Bold-69" d="M 588 4263 
Q 588 4516 763 4689 
Q 938 4863 1191 4863 
Q 1438 4863 1611 4689 
Q 1784 4516 1784 4263 
Q 1784 4016 1611 3842 
Q 1438 3669 1191 3669 
Q 938 3669 763 3841 
Q 588 4013 588 4263 
z
M 1797 378 
L 2272 378 
L 2272 0 
L 219 0 
L 219 378 
L 691 378 
L 691 2944 
L 219 2944 
L 219 3322 
L 1797 3322 
L 1797 378 
z
" transform="scale(0.015625)"/>
       <path id="DejaVuSerif-Bold-76" d="M 1428 0 
L 250 2944 
L -116 2944 
L -116 3322 
L 1791 3322 
L 1791 2944 
L 1388 2944 
L 2228 844 
L 3066 2944 
L 2631 2944 
L 2631 3322 
L 3878 3322 
L 3878 2944 
L 3494 2944 
L 2316 0 
L 1428 0 
z
" transform="scale(0.015625)"/>
       <path id="DejaVuSerif-Bold-65" d="M 2566 1875 
Q 2566 2531 2444 2795 
Q 2322 3059 2028 3059 
Q 1744 3059 1620 2800 
Q 1497 2541 1497 1931 
L 1497 1875 
L 2566 1875 
z
M 3781 1503 
L 1497 1503 
L 1497 1478 
Q 1497 834 1690 548 
Q 1884 263 2316 263 
Q 2675 263 2897 453 
Q 3119 644 3181 1006 
L 3700 1006 
Q 3566 441 3166 175 
Q 2766 -91 2047 -91 
Q 1184 -91 723 364 
Q 263 819 263 1663 
Q 263 2488 734 2950 
Q 1206 3413 2047 3413 
Q 2872 3413 3312 2927 
Q 3753 2441 3781 1503 
z
" transform="scale(0.015625)"/>
       <path id="DejaVuSerif-Bold-50" d="M 300 0 
L 300 378 
L 897 378 
L 897 4288 
L 300 4288 
L 300 4666 
L 2956 4666 
Q 3734 4666 4193 4295 
Q 4653 3925 4653 3303 
Q 4653 2678 4192 2304 
Q 3731 1931 2956 1931 
L 2100 1931 
L 2100 378 
L 2853 378 
L 2853 0 
L 300 0 
z
M 2100 2309 
L 2450 2309 
Q 2856 2309 3098 2579 
Q 3341 2850 3341 3303 
Q 3341 3753 3100 4020 
Q 2859 4288 2450 4288 
L 2100 4288 
L 2100 2309 
z
" transform="scale(0.015625)"/>
       <path id="DejaVuSerif-Bold-72" d="M 3438 3359 
L 3438 2369 
L 3084 2369 
Q 3066 2634 2941 2764 
Q 2816 2894 2578 2894 
Q 2216 2894 2006 2575 
Q 1797 2256 1797 1691 
L 1797 378 
L 2400 378 
L 2400 0 
L 219 0 
L 219 378 
L 691 378 
L 691 2944 
L 184 2944 
L 184 3322 
L 1797 3322 
L 1797 2731 
Q 1959 3078 2226 3245 
Q 2494 3413 2881 3413 
Q 2978 3413 3117 3398 
Q 3256 3384 3438 3359 
z
" transform="scale(0.015625)"/>
       <path id="DejaVuSerif-Bold-6f" d="M 2138 263 
Q 2488 263 2630 563 
Q 2772 863 2772 1663 
Q 2772 2463 2631 2761 
Q 2491 3059 2138 3059 
Q 1784 3059 1640 2757 
Q 1497 2456 1497 1663 
Q 1497 869 1640 566 
Q 1784 263 2138 263 
z
M 2138 -91 
Q 1259 -91 761 376 
Q 263 844 263 1663 
Q 263 2484 761 2948 
Q 1259 3413 2138 3413 
Q 3019 3413 3516 2948 
Q 4013 2484 4013 1663 
Q 4013 844 3514 376 
Q 3016 -91 2138 -91 
z
" transform="scale(0.015625)"/>
       <path id="DejaVuSerif-Bold-62" d="M 622 378 
L 622 4488 
L 147 4488 
L 147 4863 
L 1728 4863 
L 1728 2900 
Q 1869 3159 2106 3286 
Q 2344 3413 2694 3413 
Q 3403 3413 3811 2945 
Q 4219 2478 4219 1663 
Q 4219 847 3811 378 
Q 3403 -91 2694 -91 
Q 2344 -91 2106 36 
Q 1869 163 1728 422 
L 1728 0 
L 147 0 
L 147 378 
L 622 378 
z
M 1728 1497 
Q 1728 916 1876 656 
Q 2025 397 2356 397 
Q 2697 397 2836 672 
Q 2975 947 2975 1663 
Q 2975 2378 2836 2651 
Q 2697 2925 2356 2925 
Q 2025 2925 1876 2665 
Q 1728 2406 1728 1825 
L 1728 1497 
z
" transform="scale(0.015625)"/>
       <path id="DejaVuSerif-Bold-79" d="M 1997 -750 
Q 1847 -1116 1634 -1269 
Q 1422 -1422 1063 -1422 
Q 909 -1422 721 -1387 
Q 534 -1353 313 -1288 
L 313 -594 
L 666 -597 
Q 675 -838 779 -953 
Q 884 -1069 1094 -1069 
Q 1297 -1069 1422 -958 
Q 1547 -847 1672 -538 
L 1722 -422 
L 275 2944 
L -84 2944 
L -84 3322 
L 1831 3322 
L 1831 2944 
L 1434 2944 
L 2278 978 
L 3066 2944 
L 2625 2944 
L 2625 3322 
L 3872 3322 
L 3872 2944 
L 3469 2944 
L 1997 -750 
z
" transform="scale(0.015625)"/>
      </defs>
      <use xlink:href="#DejaVuSerif-Bold-43"/>
      <use xlink:href="#DejaVuSerif-Bold-75" x="79.589844"/>
      <use xlink:href="#DejaVuSerif-Bold-6d" x="152.294922"/>
      <use xlink:href="#DejaVuSerif-Bold-75" x="258.105469"/>
      <use xlink:href="#DejaVuSerif-Bold-6c" x="330.810547"/>
      <use xlink:href="#DejaVuSerif-Bold-61" x="368.798828"/>
      <use xlink:href="#DejaVuSerif-Bold-74" x="433.59375"/>
      <use xlink:href="#DejaVuSerif-Bold-69" x="479.785156"/>
      <use xlink:href="#DejaVuSerif-Bold-76" x="517.773438"/>
      <use xlink:href="#DejaVuSerif-Bold-65" x="575.878906"/>
      <use xlink:href="#DejaVuSerif-Bold-20" x="639.501953"/>
      <use xlink:href="#DejaVuSerif-Bold-50" x="674.316406"/>
      <use xlink:href="#DejaVuSerif-Bold-72" x="749.511719"/>
      <use xlink:href="#DejaVuSerif-Bold-6f" x="802.197266"/>
      <use xlink:href="#DejaVuSerif-Bold-62" x="868.896484"/>
      <use xlink:href="#DejaVuSerif-Bold-61" x="938.818359"/>
      <use xlink:href="#DejaVuSerif-Bold-62" x="1003.613281"/>
      <use xlink:href="#DejaVuSerif-Bold-69" x="1073.535156"/>
      <use xlink:href="#DejaVuSerif-Bold-6c" x="1111.523438"/>
      <use xlink:href="#DejaVuSerif-Bold-69" x="1149.511719"/>
      <use xlink:href="#DejaVuSerif-Bold-74" x="1187.5"/>
      <use xlink:href="#DejaVuSerif-Bold-79" x="1233.691406"/>
     </g>
    </g>
   </g>
   <g id="line2d_12">
    <path d="M 73.832727 295.488 
L 75.2321 295.245838 
L 75.2321 291.613405 
L 76.631473 291.371243 
L 76.631473 289.91827 
L 78.030846 289.676108 
L 78.030846 287.012324 
L 79.430219 286.770162 
L 79.430219 280.95827 
L 80.829592 280.716108 
L 80.829592 273.935568 
L 82.228966 273.693405 
L 82.228966 258.195027 
L 83.628339 257.952865 
L 83.628339 241.485838 
L 85.027712 241.243676 
L 85.027712 225.745297 
L 86.427085 225.503135 
L 86.427085 208.551784 
L 87.826458 208.309622 
L 87.826458 196.443676 
L 89.225831 196.201514 
L 89.225831 189.905297 
L 90.625204 189.663135 
L 90.625204 157.939892 
L 92.024577 157.69773 
L 92.024577 88.923676 
L 93.42395 88.681514 
L 93.42395 82.627459 
L 94.823323 82.385297 
L 94.823323 80.690162 
L 96.222696 80.448 
L 96.222696 79.479351 
L 97.622069 79.237189 
L 97.622069 78.752865 
L 99.021442 78.510703 
L 99.021442 76.815568 
L 100.420815 76.573405 
L 100.420815 75.362595 
L 101.820188 75.120432 
L 101.820188 74.151784 
L 103.219561 73.909622 
L 103.219561 73.183135 
L 106.018307 72.698811 
L 106.018307 71.003676 
L 107.41768 70.761514 
L 107.41768 70.277189 
L 108.817053 70.035027 
L 108.817053 66.886919 
L 110.216426 66.644757 
L 110.216426 65.191784 
L 111.615799 64.949622 
L 111.615799 64.223135 
L 113.015172 63.980973 
L 113.015172 63.012324 
L 114.414545 62.770162 
L 114.414545 61.801514 
L 115.813918 61.559351 
L 120.012038 61.317189 
L 120.012038 59.622054 
L 122.810784 59.13773 
L 122.810784 57.926919 
L 125.60953 57.684757 
L 127.008903 57.442595 
L 127.008903 57.200432 
L 128.408276 56.95827 
L 128.408276 56.473946 
L 129.807649 56.231784 
L 134.005768 55.989622 
L 134.005768 54.294486 
L 136.804514 54.052324 
L 138.203887 53.810162 
L 141.002633 53.568 
L 141.002633 53.568 
" clip-path="url(#pfca1732111)" style="fill: none; stroke: #1f77b4; stroke-width: 1.5; stroke-linecap: square"/>
   </g>
   <g id="line2d_13">
    <path d="M 73.832727 295.488 
L 75.2321 295.245838 
L 75.2321 293.308541 
L 76.631473 293.066378 
L 76.631473 292.582054 
L 78.030846 292.339892 
L 78.030846 289.676108 
L 79.430219 289.433946 
L 79.430219 282.411243 
L 80.829592 282.169081 
L 80.829592 275.872865 
L 82.228966 275.630703 
L 82.228966 263.280432 
L 83.628339 263.03827 
L 83.628339 249.235027 
L 85.027712 248.992865 
L 85.027712 236.400432 
L 86.427085 236.15827 
L 86.427085 225.745297 
L 87.826458 225.503135 
L 87.826458 216.300973 
L 89.225831 216.058811 
L 89.225831 212.426378 
L 90.625204 212.184216 
L 90.625204 186.757189 
L 92.024577 186.515027 
L 92.024577 127.911784 
L 93.42395 127.669622 
L 93.42395 123.310703 
L 94.823323 123.068541 
L 94.823323 119.436108 
L 96.222696 119.193946 
L 96.222696 117.256649 
L 97.622069 117.014486 
L 97.622069 113.382054 
L 99.021442 113.139892 
L 99.021442 109.507459 
L 100.420815 109.265297 
L 100.420815 104.422054 
L 101.820188 104.179892 
L 101.820188 100.789622 
L 103.219561 100.547459 
L 103.219561 98.368 
L 104.618934 98.125838 
L 104.618934 96.430703 
L 106.018307 96.188541 
L 106.018307 93.766919 
L 107.41768 93.524757 
L 107.41768 89.892324 
L 108.817053 89.650162 
L 108.817053 72.940973 
L 110.216426 72.698811 
L 110.216426 71.003676 
L 111.615799 70.761514 
L 111.615799 70.519351 
L 113.015172 70.277189 
L 113.015172 69.550703 
L 114.414545 69.308541 
L 114.414545 68.339892 
L 115.813918 68.09773 
L 115.813918 67.613405 
L 118.612665 67.129081 
L 118.612665 66.886919 
L 120.012038 66.644757 
L 120.012038 64.223135 
L 121.411411 63.980973 
L 121.411411 63.496649 
L 122.810784 63.254486 
L 122.810784 61.559351 
L 124.210157 61.317189 
L 124.210157 61.075027 
L 127.008903 60.590703 
L 127.008903 60.348541 
L 129.807649 60.106378 
L 129.807649 59.379892 
L 132.606395 59.13773 
L 132.606395 58.895568 
L 134.005768 58.653405 
L 134.005768 56.716108 
L 135.405141 56.473946 
L 135.405141 55.989622 
L 136.804514 55.747459 
L 136.804514 55.263135 
L 138.203887 55.020973 
L 147.999498 54.778811 
L 147.999498 54.536649 
L 149.398871 54.294486 
L 149.398871 53.810162 
L 150.798245 53.568 
L 150.798245 53.568 
" clip-path="url(#pfca1732111)" style="fill: none; stroke: #ff7f0e; stroke-width: 1.5; stroke-linecap: square"/>
   </g>
   <g id="line2d_14">
    <path d="M 73.832727 295.488 
L 73.832727 292.339892 
L 75.2321 292.09773 
L 75.2321 290.644757 
L 87.826458 290.402595 
L 87.826458 240.275027 
L 89.225831 240.032865 
L 89.225831 197.412324 
L 90.625204 197.170162 
L 90.625204 184.57773 
L 92.024577 184.335568 
L 92.024577 180.945297 
L 93.42395 180.703135 
L 93.42395 179.250162 
L 94.823323 179.008 
L 94.823323 178.765838 
L 99.021442 178.039351 
L 99.021442 177.312865 
L 100.420815 177.070703 
L 100.420815 174.406919 
L 101.820188 174.164757 
L 101.820188 162.783135 
L 103.219561 162.540973 
L 103.219561 155.51827 
L 104.618934 155.276108 
L 104.618934 153.580973 
L 106.018307 153.338811 
L 106.018307 152.128 
L 107.41768 151.885838 
L 113.015172 151.401514 
L 114.414545 151.159351 
L 114.414545 150.675027 
L 115.813918 150.432865 
L 115.813918 142.199351 
L 117.213292 141.957189 
L 117.213292 132.028541 
L 118.612665 131.786378 
L 118.612665 126.458811 
L 120.012038 126.216649 
L 120.012038 123.552865 
L 124.210157 122.826378 
L 124.210157 122.584216 
L 127.008903 122.342054 
L 127.008903 122.099892 
L 128.408276 121.85773 
L 128.408276 121.131243 
L 129.807649 120.889081 
L 129.807649 110.476108 
L 131.207022 110.233946 
L 131.207022 98.125838 
L 132.606395 97.883676 
L 132.606395 93.040432 
L 134.005768 92.79827 
L 134.005768 88.923676 
L 135.405141 88.681514 
L 135.405141 87.712865 
L 136.804514 87.470703 
L 136.804514 86.986378 
L 138.203887 86.744216 
L 138.203887 86.502054 
L 139.60326 86.259892 
L 139.60326 85.775568 
L 141.002633 85.533405 
L 141.002633 85.049081 
L 142.402006 84.806919 
L 142.402006 84.564757 
L 143.801379 84.322595 
L 143.801379 82.869622 
L 145.200752 82.627459 
L 145.200752 80.448 
L 146.600125 80.205838 
L 146.600125 77.299892 
L 147.999498 77.05773 
L 147.999498 75.120432 
L 149.398871 74.87827 
L 149.398871 73.425297 
L 152.197618 72.940973 
L 154.996364 72.698811 
L 154.996364 72.456649 
L 157.79511 72.214486 
L 157.79511 71.003676 
L 159.194483 70.761514 
L 159.194483 68.582054 
L 160.593856 68.339892 
L 160.593856 66.160432 
L 161.993229 65.91827 
L 161.993229 64.949622 
L 163.392602 64.707459 
L 163.392602 63.738811 
L 164.791975 63.496649 
L 164.791975 63.254486 
L 167.590721 62.770162 
L 171.78884 62.528 
L 171.78884 62.285838 
L 173.188213 62.043676 
L 173.188213 60.590703 
L 174.587586 60.348541 
L 174.587586 58.411243 
L 175.986959 58.169081 
L 175.986959 57.684757 
L 177.386332 57.442595 
L 177.386332 57.200432 
L 180.185078 56.716108 
L 185.782571 56.473946 
L 188.581317 55.989622 
L 188.581317 55.747459 
L 191.380063 55.505297 
L 191.380063 55.263135 
L 194.178809 55.020973 
L 205.373793 54.536649 
L 208.172539 54.294486 
L 219.367524 54.052324 
L 223.565643 53.810162 
L 237.559373 53.568 
L 237.559373 53.568 
" clip-path="url(#pfca1732111)" style="fill: none; stroke: #2ca02c; stroke-width: 1.5; stroke-linecap: square"/>
   </g>
   <g id="line2d_15">
    <path d="M 73.832727 295.488 
L 73.832727 295.245838 
L 78.030846 295.003676 
L 78.030846 291.855568 
L 79.430219 291.613405 
L 79.430219 289.676108 
L 80.829592 289.433946 
L 80.829592 287.738811 
L 82.228966 287.496649 
L 82.228966 287.254486 
L 83.628339 287.012324 
L 83.628339 286.528 
L 85.027712 286.285838 
L 85.027712 284.348541 
L 86.427085 284.106378 
L 86.427085 281.200432 
L 87.826458 280.95827 
L 87.826458 234.463135 
L 89.225831 234.220973 
L 89.225831 221.870703 
L 90.625204 221.628541 
L 90.625204 218.480432 
L 92.024577 218.23827 
L 92.024577 214.605838 
L 93.42395 214.363676 
L 93.42395 211.942054 
L 94.823323 211.699892 
L 94.823323 210.246919 
L 96.222696 210.004757 
L 96.222696 209.762595 
L 97.622069 209.520432 
L 97.622069 209.036108 
L 99.021442 208.793946 
L 99.021442 207.098811 
L 100.420815 206.856649 
L 100.420815 202.739892 
L 101.820188 202.49773 
L 101.820188 162.783135 
L 103.219561 162.540973 
L 103.219561 151.643676 
L 104.618934 151.401514 
L 104.618934 150.675027 
L 106.018307 150.432865 
L 106.018307 146.800432 
L 107.41768 146.55827 
L 107.41768 145.347459 
L 108.817053 145.105297 
L 108.817053 144.620973 
L 110.216426 144.378811 
L 110.216426 143.652324 
L 111.615799 143.410162 
L 111.615799 142.441514 
L 113.015172 142.199351 
L 113.015172 141.715027 
L 114.414545 141.472865 
L 114.414545 139.535568 
L 115.813918 139.293405 
L 115.813918 129.122595 
L 117.213292 128.880432 
L 117.213292 123.068541 
L 118.612665 122.826378 
L 118.612665 122.584216 
L 120.012038 122.342054 
L 120.012038 119.67827 
L 121.411411 119.436108 
L 121.411411 118.225297 
L 122.810784 117.983135 
L 122.810784 117.256649 
L 124.210157 117.014486 
L 124.210157 115.803676 
L 125.60953 115.561514 
L 125.60953 115.077189 
L 128.408276 114.835027 
L 128.408276 112.655568 
L 129.807649 112.413405 
L 129.807649 104.422054 
L 131.207022 104.179892 
L 131.207022 100.063135 
L 134.005768 99.578811 
L 134.005768 98.125838 
L 135.405141 97.883676 
L 135.405141 96.672865 
L 136.804514 96.430703 
L 136.804514 96.188541 
L 138.203887 95.946378 
L 138.203887 95.462054 
L 139.60326 95.219892 
L 142.402006 94.97773 
L 142.402006 93.282595 
L 143.801379 93.040432 
L 143.801379 87.955027 
L 145.200752 87.712865 
L 145.200752 85.533405 
L 146.600125 85.291243 
L 146.600125 85.049081 
L 149.398871 84.564757 
L 149.398871 83.83827 
L 156.395737 82.627459 
L 156.395737 82.143135 
L 157.79511 81.900973 
L 157.79511 78.995027 
L 159.194483 78.752865 
L 159.194483 77.542054 
L 161.993229 77.05773 
L 161.993229 76.815568 
L 163.392602 76.573405 
L 163.392602 76.089081 
L 167.590721 75.846919 
L 168.990094 75.604757 
L 168.990094 75.362595 
L 171.78884 74.87827 
L 171.78884 72.214486 
L 173.188213 71.972324 
L 173.188213 71.488 
L 177.386332 70.761514 
L 177.386332 70.519351 
L 181.584451 70.277189 
L 185.782571 69.550703 
L 185.782571 68.824216 
L 187.181944 68.582054 
L 187.181944 67.855568 
L 191.380063 67.129081 
L 198.376928 66.886919 
L 198.376928 66.644757 
L 201.175674 66.160432 
L 201.175674 65.676108 
L 203.97442 65.433946 
L 203.97442 65.191784 
L 212.370658 64.949622 
L 212.370658 64.465297 
L 215.169404 64.223135 
L 215.169404 63.980973 
L 220.766897 63.738811 
L 222.16627 63.496649 
L 226.364389 63.254486 
L 226.364389 63.012324 
L 227.763762 62.770162 
L 230.562508 62.528 
L 234.760627 62.285838 
L 237.559373 61.801514 
L 248.754357 61.559351 
L 251.553103 61.317189 
L 279.540564 60.832865 
L 279.540564 60.590703 
L 293.534295 60.348541 
L 293.534295 60.106378 
L 299.131787 59.864216 
L 300.53116 59.622054 
L 307.528025 59.13773 
L 307.528025 58.895568 
L 313.125517 58.653405 
L 314.52489 58.411243 
L 320.122382 58.169081 
L 322.921129 57.684757 
L 327.119248 57.442595 
L 327.119248 57.200432 
L 328.518621 56.95827 
L 328.518621 56.716108 
L 329.917994 56.473946 
L 334.116113 56.231784 
L 335.515486 55.989622 
L 342.512351 55.747459 
L 343.911724 55.505297 
L 370.499812 54.536649 
L 371.899185 54.294486 
L 384.493542 53.810162 
L 398.487273 53.568 
L 398.487273 53.568 
" clip-path="url(#pfca1732111)" style="fill: none; stroke: #d62728; stroke-width: 1.5; stroke-linecap: square"/>
   </g>
   <g id="patch_3">
    <path d="M 57.6 307.584 
L 57.6 41.472 
" style="fill: none; stroke: #000000; stroke-width: 0.8; stroke-linejoin: miter; stroke-linecap: square"/>
   </g>
   <g id="patch_4">
    <path d="M 414.72 307.584 
L 414.72 41.472 
" style="fill: none; stroke: #000000; stroke-width: 0.8; stroke-linejoin: miter; stroke-linecap: square"/>
   </g>
   <g id="patch_5">
    <path d="M 57.6 307.584 
L 414.72 307.584 
" style="fill: none; stroke: #000000; stroke-width: 0.8; stroke-linejoin: miter; stroke-linecap: square"/>
   </g>
   <g id="patch_6">
    <path d="M 57.6 41.472 
L 414.72 41.472 
" style="fill: none; stroke: #000000; stroke-width: 0.8; stroke-linejoin: miter; stroke-linecap: square"/>
   </g>
   <g id="text_14">
    <!-- RTT of all TCP messages -->
    <g transform="translate(167.049844 35.472) scale(0.1 -0.1)">
     <defs>
      <path id="DejaVuSerif-Bold-66" d="M 3097 4031 
L 2747 4031 
Q 2722 4275 2605 4394 
Q 2488 4513 2272 4513 
Q 2022 4513 1909 4333 
Q 1797 4153 1797 3750 
L 1797 3322 
L 2631 3322 
L 2631 2944 
L 1797 2944 
L 1797 378 
L 2438 378 
L 2438 0 
L 219 0 
L 219 378 
L 691 378 
L 691 2944 
L 197 2944 
L 197 3322 
L 691 3322 
L 691 3738 
Q 691 4291 1044 4577 
Q 1397 4863 2081 4863 
Q 2347 4863 2600 4833 
Q 2853 4803 3097 4744 
L 3097 4031 
z
" transform="scale(0.015625)"/>
      <path id="DejaVuSerif-Bold-67" d="M 3853 2944 
L 3853 44 
Q 3853 -656 3354 -1039 
Q 2856 -1422 1947 -1422 
Q 1616 -1422 1275 -1370 
Q 934 -1319 575 -1216 
L 575 -422 
L 928 -422 
Q 975 -750 1192 -909 
Q 1409 -1069 1813 -1069 
Q 2325 -1069 2536 -823 
Q 2747 -578 2747 44 
L 2747 422 
Q 2606 163 2367 36 
Q 2128 -91 1778 -91 
Q 1072 -91 667 378 
Q 263 847 263 1663 
Q 263 2481 667 2947 
Q 1072 3413 1778 3413 
Q 2128 3413 2367 3286 
Q 2606 3159 2747 2900 
L 2747 3322 
L 4325 3322 
L 4325 2944 
L 3853 2944 
z
M 2747 1825 
Q 2747 2406 2597 2665 
Q 2447 2925 2119 2925 
Q 1775 2925 1636 2651 
Q 1497 2378 1497 1663 
Q 1497 947 1637 672 
Q 1778 397 2119 397 
Q 2447 397 2597 656 
Q 2747 916 2747 1497 
L 2747 1825 
z
" transform="scale(0.015625)"/>
     </defs>
     <use xlink:href="#DejaVuSerif-Bold-52"/>
     <use xlink:href="#DejaVuSerif-Bold-54" x="81.355469"/>
     <use xlink:href="#DejaVuSerif-Bold-54" x="152.144531"/>
     <use xlink:href="#DejaVuSerif-Bold-20" x="226.558594"/>
     <use xlink:href="#DejaVuSerif-Bold-6f" x="261.373047"/>
     <use xlink:href="#DejaVuSerif-Bold-66" x="328.072266"/>
     <use xlink:href="#DejaVuSerif-Bold-20" x="371.089844"/>
     <use xlink:href="#DejaVuSerif-Bold-61" x="405.904297"/>
     <use xlink:href="#DejaVuSerif-Bold-6c" x="470.699219"/>
     <use xlink:href="#DejaVuSerif-Bold-6c" x="508.6875"/>
     <use xlink:href="#DejaVuSerif-Bold-20" x="546.675781"/>
     <use xlink:href="#DejaVuSerif-Bold-54" x="581.490234"/>
     <use xlink:href="#DejaVuSerif-Bold-43" x="655.904297"/>
     <use xlink:href="#DejaVuSerif-Bold-50" x="735.494141"/>
     <use xlink:href="#DejaVuSerif-Bold-20" x="810.689453"/>
     <use xlink:href="#DejaVuSerif-Bold-6d" x="845.503906"/>
     <use xlink:href="#DejaVuSerif-Bold-65" x="951.314453"/>
     <use xlink:href="#DejaVuSerif-Bold-73" x="1014.9375"/>
     <use xlink:href="#DejaVuSerif-Bold-73" x="1071.236328"/>
     <use xlink:href="#DejaVuSerif-Bold-61" x="1127.535156"/>
     <use xlink:href="#DejaVuSerif-Bold-67" x="1192.330078"/>
     <use xlink:href="#DejaVuSerif-Bold-65" x="1262.251953"/>
     <use xlink:href="#DejaVuSerif-Bold-73" x="1325.875"/>
    </g>
   </g>
   <g id="legend_1">
    <g id="patch_7">
     <path d="M 346.635 303.584 
L 409.12 303.584 
Q 410.72 303.584 410.72 301.984 
L 410.72 255.814 
Q 410.72 254.214 409.12 254.214 
L 346.635 254.214 
Q 345.035 254.214 345.035 255.814 
L 345.035 301.984 
Q 345.035 303.584 346.635 303.584 
z
" style="fill: #ffffff; opacity: 0.8; stroke: #cccccc; stroke-linejoin: miter"/>
    </g>
    <g id="line2d_16">
     <path d="M 348.235 260.69275 
L 356.235 260.69275 
L 364.235 260.69275 
" style="fill: none; stroke: #1f77b4; stroke-width: 1.5; stroke-linecap: square"/>
    </g>
    <g id="text_15">
     <!-- BTP -->
     <g transform="translate(370.635 263.49275) scale(0.08 -0.08)">
      <defs>
       <path id="DejaVuSerif-42" d="M 1581 331 
L 2516 331 
Q 3078 331 3337 575 
Q 3597 819 3597 1350 
Q 3597 1878 3339 2120 
Q 3081 2363 2516 2363 
L 1581 2363 
L 1581 331 
z
M 1581 2694 
L 2375 2694 
Q 2888 2694 3123 2891 
Q 3359 3088 3359 3513 
Q 3359 3941 3123 4136 
Q 2888 4331 2375 4331 
L 1581 4331 
L 1581 2694 
z
M 353 0 
L 353 331 
L 947 331 
L 947 4331 
L 353 4331 
L 353 4666 
L 2656 4666 
Q 3363 4666 3720 4377 
Q 4078 4088 4078 3513 
Q 4078 3097 3829 2850 
Q 3581 2603 3103 2547 
Q 3697 2472 4005 2167 
Q 4313 1863 4313 1350 
Q 4313 656 3875 328 
Q 3438 0 2509 0 
L 353 0 
z
" transform="scale(0.015625)"/>
       <path id="DejaVuSerif-54" d="M 1222 0 
L 1222 331 
L 1819 331 
L 1819 4294 
L 447 4294 
L 447 3566 
L 63 3566 
L 63 4666 
L 4206 4666 
L 4206 3566 
L 3822 3566 
L 3822 4294 
L 2450 4294 
L 2450 331 
L 3047 331 
L 3047 0 
L 1222 0 
z
" transform="scale(0.015625)"/>
       <path id="DejaVuSerif-50" d="M 1581 2375 
L 2406 2375 
Q 2872 2375 3115 2626 
Q 3359 2878 3359 3353 
Q 3359 3831 3115 4081 
Q 2872 4331 2406 4331 
L 1581 4331 
L 1581 2375 
z
M 353 0 
L 353 331 
L 947 331 
L 947 4331 
L 353 4331 
L 353 4666 
L 2559 4666 
Q 3259 4666 3668 4311 
Q 4078 3956 4078 3353 
Q 4078 2753 3668 2397 
Q 3259 2041 2559 2041 
L 1581 2041 
L 1581 331 
L 2303 331 
L 2303 0 
L 353 0 
z
" transform="scale(0.015625)"/>
      </defs>
      <use xlink:href="#DejaVuSerif-42"/>
      <use xlink:href="#DejaVuSerif-54" x="73.486328"/>
      <use xlink:href="#DejaVuSerif-50" x="140.185547"/>
     </g>
    </g>
    <g id="line2d_17">
     <path d="M 348.235 272.43525 
L 356.235 272.43525 
L 364.235 272.43525 
" style="fill: none; stroke: #ff7f0e; stroke-width: 1.5; stroke-linecap: square"/>
    </g>
    <g id="text_16">
     <!-- BRTP -->
     <g transform="translate(370.635 275.23525) scale(0.08 -0.08)">
      <defs>
       <path id="DejaVuSerif-52" d="M 3066 2316 
Q 3284 2256 3442 2114 
Q 3600 1972 3725 1716 
L 4403 331 
L 4972 331 
L 4972 0 
L 3872 0 
L 3144 1484 
Q 2934 1916 2759 2042 
Q 2584 2169 2278 2169 
L 1581 2169 
L 1581 331 
L 2241 331 
L 2241 0 
L 353 0 
L 353 331 
L 947 331 
L 947 4331 
L 353 4331 
L 353 4666 
L 2719 4666 
Q 3400 4666 3770 4341 
Q 4141 4016 4141 3419 
Q 4141 2938 3870 2661 
Q 3600 2384 3066 2316 
z
M 1581 2503 
L 2503 2503 
Q 2975 2503 3200 2726 
Q 3425 2950 3425 3419 
Q 3425 3888 3200 4109 
Q 2975 4331 2503 4331 
L 1581 4331 
L 1581 2503 
z
" transform="scale(0.015625)"/>
      </defs>
      <use xlink:href="#DejaVuSerif-42"/>
      <use xlink:href="#DejaVuSerif-52" x="73.486328"/>
      <use xlink:href="#DejaVuSerif-54" x="147.029297"/>
      <use xlink:href="#DejaVuSerif-50" x="213.728516"/>
     </g>
    </g>
    <g id="line2d_18">
     <path d="M 348.235 284.17775 
L 356.235 284.17775 
L 364.235 284.17775 
" style="fill: none; stroke: #2ca02c; stroke-width: 1.5; stroke-linecap: square"/>
    </g>
    <g id="text_17">
     <!-- KCP -->
     <g transform="translate(370.635 286.97775) scale(0.08 -0.08)">
      <defs>
       <path id="DejaVuSerif-4b" d="M 353 0 
L 353 331 
L 947 331 
L 947 4331 
L 353 4331 
L 353 4666 
L 2175 4666 
L 2175 4331 
L 1581 4331 
L 1581 2566 
L 3591 4331 
L 3084 4331 
L 3084 4666 
L 4634 4666 
L 4634 4331 
L 4109 4331 
L 2106 2572 
L 4347 331 
L 4878 331 
L 4878 0 
L 3794 0 
L 1581 2216 
L 1581 331 
L 2175 331 
L 2175 0 
L 353 0 
z
" transform="scale(0.015625)"/>
       <path id="DejaVuSerif-43" d="M 4513 1234 
Q 4306 581 3820 245 
Q 3334 -91 2591 -91 
Q 2134 -91 1743 65 
Q 1353 222 1050 525 
Q 700 875 529 1320 
Q 359 1766 359 2328 
Q 359 3416 987 4083 
Q 1616 4750 2644 4750 
Q 3025 4750 3456 4650 
Q 3888 4550 4384 4347 
L 4384 3272 
L 4031 3272 
Q 3916 3859 3567 4137 
Q 3219 4416 2591 4416 
Q 1844 4416 1459 3886 
Q 1075 3356 1075 2328 
Q 1075 1303 1459 773 
Q 1844 244 2591 244 
Q 3113 244 3450 492 
Q 3788 741 3938 1234 
L 4513 1234 
z
" transform="scale(0.015625)"/>
      </defs>
      <use xlink:href="#DejaVuSerif-4b"/>
      <use xlink:href="#DejaVuSerif-43" x="72.082031"/>
      <use xlink:href="#DejaVuSerif-50" x="148.595703"/>
     </g>
    </g>
    <g id="line2d_19">
     <path d="M 348.235 295.92025 
L 356.235 295.92025 
L 364.235 295.92025 
" style="fill: none; stroke: #d62728; stroke-width: 1.5; stroke-linecap: square"/>
    </g>
    <g id="text_18">
     <!-- TCP-BBR -->
     <g transform="translate(370.635 298.72025) scale(0.08 -0.08)">
      <defs>
       <path id="DejaVuSerif-2d" d="M 281 1959 
L 1881 1959 
L 1881 1472 
L 281 1472 
L 281 1959 
z
" transform="scale(0.015625)"/>
      </defs>
      <use xlink:href="#DejaVuSerif-54"/>
      <use xlink:href="#DejaVuSerif-43" x="66.699219"/>
      <use xlink:href="#DejaVuSerif-50" x="143.212891"/>
      <use xlink:href="#DejaVuSerif-2d" x="204.998047"/>
      <use xlink:href="#DejaVuSerif-42" x="238.787109"/>
      <use xlink:href="#DejaVuSerif-42" x="312.273438"/>
      <use xlink:href="#DejaVuSerif-52" x="385.759766"/>
     </g>
    </g>
   </g>
  </g>
 </g>
 <defs>
  <clipPath id="pfca1732111">
   <rect x="57.6" y="41.472" width="357.12" height="266.112"/>
  </clipPath>
 </defs>
</svg>
