<?xml version="1.0" encoding="utf-8" standalone="no"?>
<!DOCTYPE svg PUBLIC "-//W3C//DTD SVG 1.1//EN"
  "http://www.w3.org/Graphics/SVG/1.1/DTD/svg11.dtd">
<svg xmlns:xlink="http://www.w3.org/1999/xlink" width="460.8pt" height="345.6pt" viewBox="0 0 460.8 345.6" xmlns="http://www.w3.org/2000/svg" version="1.1">
 <metadata>
  <rdf:RDF xmlns:dc="http://purl.org/dc/elements/1.1/" xmlns:cc="http://creativecommons.org/ns#" xmlns:rdf="http://www.w3.org/1999/02/22-rdf-syntax-ns#">
   <cc:Work>
    <dc:type rdf:resource="http://purl.org/dc/dcmitype/StillImage"/>
    <dc:date>2024-08-23T03:20:31.760913</dc:date>
    <dc:format>image/svg+xml</dc:format>
    <dc:creator>
     <cc:Agent>
      <dc:title>Matplotlib v3.9.2, https://matplotlib.org/</dc:title>
     </cc:Agent>
    </dc:creator>
   </cc:Work>
  </rdf:RDF>
 </metadata>
 <defs>
  <style type="text/css">*{stroke-linejoin: round; stroke-linecap: butt}</style>
 </defs>
 <g id="figure_1">
  <g id="patch_1">
   <path d="M 0 345.6 
L 460.8 345.6 
L 460.8 0 
L 0 0 
z
" style="fill: #ffffff"/>
  </g>
  <g id="axes_1">
   <g id="patch_2">
    <path d="M 57.6 307.584 
L 414.72 307.584 
L 414.72 41.472 
L 57.6 41.472 
z
" style="fill: #ffffff"/>
   </g>
   <g id="matplotlib.axis_1">
    <g id="xtick_1">
     <g id="line2d_1">
      <defs>
       <path id="ma9a4709c67" d="M 0 0 
L 0 3.5 
" style="stroke: #000000; stroke-width: 0.8"/>
      </defs>
      <g>
       <use xlink:href="#ma9a4709c67" x="108.00689" y="307.584" style="stroke: #000000; stroke-width: 0.8"/>
      </g>
     </g>
     <g id="text_1">
      <!-- 50 -->
      <g transform="translate(101.64439 322.182437) scale(0.1 -0.1)">
       <defs>
        <path id="DejaVuSerif-35" d="M 3219 4666 
L 3219 4153 
L 1081 4153 
L 1081 2816 
Q 1244 2928 1461 2984 
Q 1678 3041 1947 3041 
Q 2703 3041 3140 2622 
Q 3578 2203 3578 1478 
Q 3578 738 3136 323 
Q 2694 -91 1894 -91 
Q 1572 -91 1234 -12 
Q 897 66 544 225 
L 544 1131 
L 897 1131 
Q 925 688 1179 453 
Q 1434 219 1894 219 
Q 2388 219 2653 544 
Q 2919 869 2919 1478 
Q 2919 2084 2655 2407 
Q 2391 2731 1894 2731 
Q 1613 2731 1398 2631 
Q 1184 2531 1019 2322 
L 750 2322 
L 750 4666 
L 3219 4666 
z
" transform="scale(0.015625)"/>
        <path id="DejaVuSerif-30" d="M 2034 219 
Q 2513 219 2750 744 
Q 2988 1269 2988 2328 
Q 2988 3391 2750 3916 
Q 2513 4441 2034 4441 
Q 1556 4441 1318 3916 
Q 1081 3391 1081 2328 
Q 1081 1269 1318 744 
Q 1556 219 2034 219 
z
M 2034 -91 
Q 1275 -91 848 546 
Q 422 1184 422 2328 
Q 422 3475 848 4112 
Q 1275 4750 2034 4750 
Q 2797 4750 3222 4112 
Q 3647 3475 3647 2328 
Q 3647 1184 3222 546 
Q 2797 -91 2034 -91 
z
" transform="scale(0.015625)"/>
       </defs>
       <use xlink:href="#DejaVuSerif-35"/>
       <use xlink:href="#DejaVuSerif-30" x="63.623047"/>
      </g>
     </g>
    </g>
    <g id="xtick_2">
     <g id="line2d_2">
      <g>
       <use xlink:href="#ma9a4709c67" x="164.963828" y="307.584" style="stroke: #000000; stroke-width: 0.8"/>
      </g>
     </g>
     <g id="text_2">
      <!-- 100 -->
      <g transform="translate(155.420078 322.182437) scale(0.1 -0.1)">
       <defs>
        <path id="DejaVuSerif-31" d="M 909 0 
L 909 331 
L 1722 331 
L 1722 4213 
L 781 3603 
L 781 4013 
L 1919 4750 
L 2350 4750 
L 2350 331 
L 3163 331 
L 3163 0 
L 909 0 
z
" transform="scale(0.015625)"/>
       </defs>
       <use xlink:href="#DejaVuSerif-31"/>
       <use xlink:href="#DejaVuSerif-30" x="63.623047"/>
       <use xlink:href="#DejaVuSerif-30" x="127.246094"/>
      </g>
     </g>
    </g>
    <g id="xtick_3">
     <g id="line2d_3">
      <g>
       <use xlink:href="#ma9a4709c67" x="221.920766" y="307.584" style="stroke: #000000; stroke-width: 0.8"/>
      </g>
     </g>
     <g id="text_3">
      <!-- 150 -->
      <g transform="translate(212.377016 322.182437) scale(0.1 -0.1)">
       <use xlink:href="#DejaVuSerif-31"/>
       <use xlink:href="#DejaVuSerif-35" x="63.623047"/>
       <use xlink:href="#DejaVuSerif-30" x="127.246094"/>
      </g>
     </g>
    </g>
    <g id="xtick_4">
     <g id="line2d_4">
      <g>
       <use xlink:href="#ma9a4709c67" x="278.877703" y="307.584" style="stroke: #000000; stroke-width: 0.8"/>
      </g>
     </g>
     <g id="text_4">
      <!-- 200 -->
      <g transform="translate(269.333953 322.182437) scale(0.1 -0.1)">
       <defs>
        <path id="DejaVuSerif-32" d="M 819 3553 
L 469 3553 
L 469 4384 
Q 803 4563 1142 4656 
Q 1481 4750 1806 4750 
Q 2534 4750 2956 4397 
Q 3378 4044 3378 3438 
Q 3378 2753 2422 1800 
Q 2347 1728 2309 1691 
L 1131 513 
L 3078 513 
L 3078 1088 
L 3444 1088 
L 3444 0 
L 434 0 
L 434 341 
L 1850 1753 
Q 2319 2222 2519 2614 
Q 2719 3006 2719 3438 
Q 2719 3909 2473 4175 
Q 2228 4441 1797 4441 
Q 1350 4441 1106 4219 
Q 863 3997 819 3553 
z
" transform="scale(0.015625)"/>
       </defs>
       <use xlink:href="#DejaVuSerif-32"/>
       <use xlink:href="#DejaVuSerif-30" x="63.623047"/>
       <use xlink:href="#DejaVuSerif-30" x="127.246094"/>
      </g>
     </g>
    </g>
    <g id="xtick_5">
     <g id="line2d_5">
      <g>
       <use xlink:href="#ma9a4709c67" x="335.834641" y="307.584" style="stroke: #000000; stroke-width: 0.8"/>
      </g>
     </g>
     <g id="text_5">
      <!-- 250 -->
      <g transform="translate(326.290891 322.182437) scale(0.1 -0.1)">
       <use xlink:href="#DejaVuSerif-32"/>
       <use xlink:href="#DejaVuSerif-35" x="63.623047"/>
       <use xlink:href="#DejaVuSerif-30" x="127.246094"/>
      </g>
     </g>
    </g>
    <g id="xtick_6">
     <g id="line2d_6">
      <g>
       <use xlink:href="#ma9a4709c67" x="392.791579" y="307.584" style="stroke: #000000; stroke-width: 0.8"/>
      </g>
     </g>
     <g id="text_6">
      <!-- 300 -->
      <g transform="translate(383.247829 322.182437) scale(0.1 -0.1)">
       <defs>
        <path id="DejaVuSerif-33" d="M 622 4469 
Q 988 4606 1323 4678 
Q 1659 4750 1953 4750 
Q 2638 4750 3022 4454 
Q 3406 4159 3406 3634 
Q 3406 3213 3140 2930 
Q 2875 2647 2388 2547 
Q 2963 2466 3280 2130 
Q 3597 1794 3597 1259 
Q 3597 606 3158 257 
Q 2719 -91 1894 -91 
Q 1528 -91 1179 -12 
Q 831 66 488 225 
L 488 1131 
L 838 1131 
Q 869 681 1141 450 
Q 1413 219 1906 219 
Q 2384 219 2661 495 
Q 2938 772 2938 1253 
Q 2938 1803 2653 2086 
Q 2369 2369 1819 2369 
L 1522 2369 
L 1522 2688 
L 1678 2688 
Q 2225 2688 2498 2914 
Q 2772 3141 2772 3597 
Q 2772 4006 2547 4223 
Q 2322 4441 1900 4441 
Q 1478 4441 1245 4241 
Q 1013 4041 972 3647 
L 622 3647 
L 622 4469 
z
" transform="scale(0.015625)"/>
       </defs>
       <use xlink:href="#DejaVuSerif-33"/>
       <use xlink:href="#DejaVuSerif-30" x="63.623047"/>
       <use xlink:href="#DejaVuSerif-30" x="127.246094"/>
      </g>
     </g>
    </g>
    <g id="text_7">
     <!-- RTT (ms) -->
     <g transform="translate(215.435 334.340875) scale(0.08 -0.08)">
      <defs>
       <path id="DejaVuSerif-Bold-52" d="M 3397 2278 
Q 3675 2238 3865 2094 
Q 4056 1950 4197 1678 
L 4878 378 
L 5356 378 
L 5356 0 
L 3822 0 
L 3078 1409 
Q 2863 1847 2711 1967 
Q 2559 2088 2291 2088 
L 2100 2088 
L 2100 378 
L 2700 378 
L 2700 0 
L 300 0 
L 300 378 
L 897 378 
L 897 4288 
L 300 4288 
L 300 4666 
L 2963 4666 
Q 3775 4666 4217 4339 
Q 4659 4013 4659 3413 
Q 4659 2925 4345 2642 
Q 4031 2359 3397 2278 
z
M 2100 2463 
L 2509 2463 
Q 2947 2463 3183 2700 
Q 3419 2938 3419 3378 
Q 3419 3819 3183 4053 
Q 2947 4288 2509 4288 
L 2100 4288 
L 2100 2463 
z
" transform="scale(0.015625)"/>
       <path id="DejaVuSerif-Bold-54" d="M 1159 0 
L 1159 378 
L 1778 378 
L 1778 4238 
L 500 4238 
L 500 3500 
L 72 3500 
L 72 4666 
L 4697 4666 
L 4697 3500 
L 4275 3500 
L 4275 4238 
L 2988 4238 
L 2988 378 
L 3609 378 
L 3609 0 
L 1159 0 
z
" transform="scale(0.015625)"/>
       <path id="DejaVuSerif-Bold-20" transform="scale(0.015625)"/>
       <path id="DejaVuSerif-Bold-28" d="M 2694 -997 
Q 1641 -606 1122 122 
Q 603 850 603 1931 
Q 603 3013 1115 3731 
Q 1628 4450 2694 4863 
L 2694 4488 
Q 2200 4188 1983 3598 
Q 1766 3009 1766 1931 
Q 1766 856 1983 267 
Q 2200 -322 2694 -622 
L 2694 -997 
z
" transform="scale(0.015625)"/>
       <path id="DejaVuSerif-Bold-6d" d="M 3884 2778 
Q 4116 3109 4384 3261 
Q 4653 3413 5013 3413 
Q 5584 3413 5867 3089 
Q 6150 2766 6150 2113 
L 6150 378 
L 6625 378 
L 6625 0 
L 4647 0 
L 4647 378 
L 5044 378 
L 5044 1947 
Q 5044 2569 4948 2731 
Q 4853 2894 4594 2894 
Q 4300 2894 4137 2667 
Q 3975 2441 3975 2022 
L 3975 378 
L 4372 378 
L 4372 0 
L 2472 0 
L 2472 378 
L 2869 378 
L 2869 1947 
Q 2869 2569 2772 2731 
Q 2675 2894 2419 2894 
Q 2122 2894 1959 2667 
Q 1797 2441 1797 2022 
L 1797 378 
L 2194 378 
L 2194 0 
L 219 0 
L 219 378 
L 691 378 
L 691 2944 
L 219 2944 
L 219 3322 
L 1797 3322 
L 1797 2853 
Q 1991 3144 2241 3278 
Q 2491 3413 2834 3413 
Q 3241 3413 3494 3258 
Q 3747 3103 3884 2778 
z
" transform="scale(0.015625)"/>
       <path id="DejaVuSerif-Bold-73" d="M 300 97 
L 300 1025 
L 653 1025 
Q 697 653 931 458 
Q 1166 263 1569 263 
Q 1906 263 2086 380 
Q 2266 497 2266 716 
Q 2266 916 2152 1025 
Q 2038 1134 1709 1216 
L 1253 1331 
Q 738 1459 506 1698 
Q 275 1938 275 2344 
Q 275 2884 650 3148 
Q 1025 3413 1806 3413 
Q 2100 3413 2433 3364 
Q 2766 3316 3169 3213 
L 3169 2375 
L 2816 2375 
Q 2788 2716 2573 2887 
Q 2359 3059 1959 3059 
Q 1622 3059 1448 2951 
Q 1275 2844 1275 2638 
Q 1275 2469 1375 2372 
Q 1475 2275 1734 2209 
L 2188 2094 
Q 2841 1928 3091 1684 
Q 3341 1441 3341 1006 
Q 3341 444 2939 176 
Q 2538 -91 1691 -91 
Q 1381 -91 1034 -44 
Q 688 3 300 97 
z
" transform="scale(0.015625)"/>
       <path id="DejaVuSerif-Bold-29" d="M 325 -997 
L 325 -622 
Q 819 -322 1036 267 
Q 1253 856 1253 1931 
Q 1253 3009 1036 3598 
Q 819 4188 325 4488 
L 325 4863 
Q 1391 4450 1905 3731 
Q 2419 3013 2419 1931 
Q 2419 850 1898 122 
Q 1378 -606 325 -997 
z
" transform="scale(0.015625)"/>
      </defs>
      <use xlink:href="#DejaVuSerif-Bold-52"/>
      <use xlink:href="#DejaVuSerif-Bold-54" x="81.355469"/>
      <use xlink:href="#DejaVuSerif-Bold-54" x="152.144531"/>
      <use xlink:href="#DejaVuSerif-Bold-20" x="226.558594"/>
      <use xlink:href="#DejaVuSerif-Bold-28" x="261.373047"/>
      <use xlink:href="#DejaVuSerif-Bold-6d" x="308.6875"/>
      <use xlink:href="#DejaVuSerif-Bold-73" x="414.498047"/>
      <use xlink:href="#DejaVuSerif-Bold-29" x="470.796875"/>
     </g>
    </g>
   </g>
   <g id="matplotlib.axis_2">
    <g id="ytick_1">
     <g id="line2d_7">
      <defs>
       <path id="m9dc8f8c34c" d="M 0 0 
L -3.5 0 
" style="stroke: #000000; stroke-width: 0.8"/>
      </defs>
      <g>
       <use xlink:href="#m9dc8f8c34c" x="57.6" y="295.609021" style="stroke: #000000; stroke-width: 0.8"/>
      </g>
     </g>
     <g id="text_8">
      <!-- 0.0 -->
      <g transform="translate(34.696875 299.408239) scale(0.1 -0.1)">
       <defs>
        <path id="DejaVuSerif-2e" d="M 603 325 
Q 603 500 722 622 
Q 841 744 1019 744 
Q 1191 744 1312 622 
Q 1434 500 1434 325 
Q 1434 153 1312 31 
Q 1191 -91 1019 -91 
Q 841 -91 722 29 
Q 603 150 603 325 
z
" transform="scale(0.015625)"/>
       </defs>
       <use xlink:href="#DejaVuSerif-30"/>
       <use xlink:href="#DejaVuSerif-2e" x="63.623047"/>
       <use xlink:href="#DejaVuSerif-30" x="95.410156"/>
      </g>
     </g>
    </g>
    <g id="ytick_2">
     <g id="line2d_8">
      <g>
       <use xlink:href="#m9dc8f8c34c" x="57.6" y="247.200816" style="stroke: #000000; stroke-width: 0.8"/>
      </g>
     </g>
     <g id="text_9">
      <!-- 0.2 -->
      <g transform="translate(34.696875 251.000035) scale(0.1 -0.1)">
       <use xlink:href="#DejaVuSerif-30"/>
       <use xlink:href="#DejaVuSerif-2e" x="63.623047"/>
       <use xlink:href="#DejaVuSerif-32" x="95.410156"/>
      </g>
     </g>
    </g>
    <g id="ytick_3">
     <g id="line2d_9">
      <g>
       <use xlink:href="#m9dc8f8c34c" x="57.6" y="198.792612" style="stroke: #000000; stroke-width: 0.8"/>
      </g>
     </g>
     <g id="text_10">
      <!-- 0.4 -->
      <g transform="translate(34.696875 202.591831) scale(0.1 -0.1)">
       <defs>
        <path id="DejaVuSerif-34" d="M 2234 1581 
L 2234 4063 
L 641 1581 
L 2234 1581 
z
M 3609 0 
L 1484 0 
L 1484 331 
L 2234 331 
L 2234 1247 
L 197 1247 
L 197 1588 
L 2241 4750 
L 2859 4750 
L 2859 1581 
L 3750 1581 
L 3750 1247 
L 2859 1247 
L 2859 331 
L 3609 331 
L 3609 0 
z
" transform="scale(0.015625)"/>
       </defs>
       <use xlink:href="#DejaVuSerif-30"/>
       <use xlink:href="#DejaVuSerif-2e" x="63.623047"/>
       <use xlink:href="#DejaVuSerif-34" x="95.410156"/>
      </g>
     </g>
    </g>
    <g id="ytick_4">
     <g id="line2d_10">
      <g>
       <use xlink:href="#m9dc8f8c34c" x="57.6" y="150.384408" style="stroke: #000000; stroke-width: 0.8"/>
      </g>
     </g>
     <g id="text_11">
      <!-- 0.6 -->
      <g transform="translate(34.696875 154.183627) scale(0.1 -0.1)">
       <defs>
        <path id="DejaVuSerif-36" d="M 2094 219 
Q 2534 219 2771 542 
Q 3009 866 3009 1472 
Q 3009 2078 2771 2401 
Q 2534 2725 2094 2725 
Q 1647 2725 1412 2412 
Q 1178 2100 1178 1509 
Q 1178 888 1415 553 
Q 1653 219 2094 219 
z
M 1075 2569 
Q 1288 2803 1556 2918 
Q 1825 3034 2163 3034 
Q 2859 3034 3264 2615 
Q 3669 2197 3669 1472 
Q 3669 763 3233 336 
Q 2797 -91 2069 -91 
Q 1278 -91 853 498 
Q 428 1088 428 2181 
Q 428 3406 931 4078 
Q 1434 4750 2350 4750 
Q 2597 4750 2869 4703 
Q 3141 4656 3425 4563 
L 3425 3794 
L 3072 3794 
Q 3034 4109 2831 4275 
Q 2628 4441 2284 4441 
Q 1678 4441 1381 3981 
Q 1084 3522 1075 2569 
z
" transform="scale(0.015625)"/>
       </defs>
       <use xlink:href="#DejaVuSerif-30"/>
       <use xlink:href="#DejaVuSerif-2e" x="63.623047"/>
       <use xlink:href="#DejaVuSerif-36" x="95.410156"/>
      </g>
     </g>
    </g>
    <g id="ytick_5">
     <g id="line2d_11">
      <g>
       <use xlink:href="#m9dc8f8c34c" x="57.6" y="101.976204" style="stroke: #000000; stroke-width: 0.8"/>
      </g>
     </g>
     <g id="text_12">
      <!-- 0.8 -->
      <g transform="translate(34.696875 105.775423) scale(0.1 -0.1)">
       <defs>
        <path id="DejaVuSerif-38" d="M 2981 1275 
Q 2981 1775 2732 2051 
Q 2484 2328 2034 2328 
Q 1584 2328 1336 2051 
Q 1088 1775 1088 1275 
Q 1088 772 1336 495 
Q 1584 219 2034 219 
Q 2484 219 2732 495 
Q 2981 772 2981 1275 
z
M 2853 3541 
Q 2853 3966 2637 4203 
Q 2422 4441 2034 4441 
Q 1650 4441 1433 4203 
Q 1216 3966 1216 3541 
Q 1216 3113 1433 2875 
Q 1650 2638 2034 2638 
Q 2422 2638 2637 2875 
Q 2853 3113 2853 3541 
z
M 2516 2484 
Q 3047 2413 3344 2092 
Q 3641 1772 3641 1275 
Q 3641 619 3225 264 
Q 2809 -91 2034 -91 
Q 1263 -91 845 264 
Q 428 619 428 1275 
Q 428 1772 725 2092 
Q 1022 2413 1556 2484 
Q 1084 2569 832 2842 
Q 581 3116 581 3541 
Q 581 4103 968 4426 
Q 1356 4750 2034 4750 
Q 2713 4750 3100 4426 
Q 3488 4103 3488 3541 
Q 3488 3116 3236 2842 
Q 2984 2569 2516 2484 
z
" transform="scale(0.015625)"/>
       </defs>
       <use xlink:href="#DejaVuSerif-30"/>
       <use xlink:href="#DejaVuSerif-2e" x="63.623047"/>
       <use xlink:href="#DejaVuSerif-38" x="95.410156"/>
      </g>
     </g>
    </g>
    <g id="ytick_6">
     <g id="line2d_12">
      <g>
       <use xlink:href="#m9dc8f8c34c" x="57.6" y="53.568" style="stroke: #000000; stroke-width: 0.8"/>
      </g>
     </g>
     <g id="text_13">
      <!-- 1.0 -->
      <g transform="translate(34.696875 57.367219) scale(0.1 -0.1)">
       <use xlink:href="#DejaVuSerif-31"/>
       <use xlink:href="#DejaVuSerif-2e" x="63.623047"/>
       <use xlink:href="#DejaVuSerif-30" x="95.410156"/>
      </g>
     </g>
    </g>
    <g id="text_14">
     <!-- Cumulative Probability -->
     <g transform="translate(28.919375 226.199875) rotate(-90) scale(0.08 -0.08)">
      <defs>
       <path id="DejaVuSerif-Bold-43" d="M 4769 1331 
Q 4584 609 4106 259 
Q 3628 -91 2822 -91 
Q 1641 -91 955 561 
Q 269 1213 269 2328 
Q 269 3447 955 4098 
Q 1641 4750 2822 4750 
Q 3238 4750 3688 4650 
Q 4138 4550 4641 4347 
L 4641 3200 
L 4244 3200 
Q 4122 3788 3800 4080 
Q 3478 4372 2950 4372 
Q 2269 4372 1937 3870 
Q 1606 3369 1606 2328 
Q 1606 1288 1937 788 
Q 2269 288 2956 288 
Q 3422 288 3717 547 
Q 4013 806 4147 1331 
L 4769 1331 
z
" transform="scale(0.015625)"/>
       <path id="DejaVuSerif-Bold-75" d="M 3963 3322 
L 3963 378 
L 4434 378 
L 4434 0 
L 2853 0 
L 2853 469 
Q 2656 172 2400 40 
Q 2144 -91 1753 -91 
Q 1194 -91 908 239 
Q 622 569 622 1209 
L 622 2944 
L 147 2944 
L 147 3322 
L 1728 3322 
L 1728 1381 
Q 1728 763 1831 595 
Q 1934 428 2209 428 
Q 2544 428 2698 675 
Q 2853 922 2853 1459 
L 2853 2944 
L 2450 2944 
L 2450 3322 
L 3963 3322 
z
" transform="scale(0.015625)"/>
       <path id="DejaVuSerif-Bold-6c" d="M 1797 378 
L 2272 378 
L 2272 0 
L 219 0 
L 219 378 
L 691 378 
L 691 4488 
L 219 4488 
L 219 4863 
L 1797 4863 
L 1797 378 
z
" transform="scale(0.015625)"/>
       <path id="DejaVuSerif-Bold-61" d="M 3525 2041 
L 3525 378 
L 4000 378 
L 4000 0 
L 2419 0 
L 2419 422 
Q 2200 159 1931 34 
Q 1663 -91 1319 -91 
Q 809 -91 536 182 
Q 263 456 263 966 
Q 263 1525 655 1803 
Q 1047 2081 1838 2081 
L 2419 2081 
L 2419 2278 
Q 2419 2681 2228 2873 
Q 2038 3066 1638 3066 
Q 1306 3066 1126 2930 
Q 947 2794 872 2484 
L 519 2484 
L 519 3200 
Q 816 3306 1134 3359 
Q 1453 3413 1806 3413 
Q 2697 3413 3111 3081 
Q 3525 2750 3525 2041 
z
M 2419 1044 
L 2419 1709 
L 2003 1709 
Q 1694 1709 1528 1540 
Q 1363 1372 1363 1056 
Q 1363 741 1483 584 
Q 1603 428 1850 428 
Q 2106 428 2262 597 
Q 2419 766 2419 1044 
z
" transform="scale(0.015625)"/>
       <path id="DejaVuSerif-Bold-74" d="M 634 2944 
L 153 2944 
L 153 3322 
L 634 3322 
L 634 4353 
L 1741 4353 
L 1741 3322 
L 2663 3322 
L 2663 2944 
L 1741 2944 
L 1741 909 
Q 1741 475 1809 369 
Q 1878 263 2059 263 
Q 2259 263 2356 397 
Q 2453 531 2459 813 
L 2925 813 
Q 2897 313 2651 111 
Q 2406 -91 1806 -91 
Q 1122 -91 878 123 
Q 634 338 634 909 
L 634 2944 
z
" transform="scale(0.015625)"/>
       <path id="DejaVuSerif-Bold-69" d="M 588 4263 
Q 588 4516 763 4689 
Q 938 4863 1191 4863 
Q 1438 4863 1611 4689 
Q 1784 4516 1784 4263 
Q 1784 4016 1611 3842 
Q 1438 3669 1191 3669 
Q 938 3669 763 3841 
Q 588 4013 588 4263 
z
M 1797 378 
L 2272 378 
L 2272 0 
L 219 0 
L 219 378 
L 691 378 
L 691 2944 
L 219 2944 
L 219 3322 
L 1797 3322 
L 1797 378 
z
" transform="scale(0.015625)"/>
       <path id="DejaVuSerif-Bold-76" d="M 1428 0 
L 250 2944 
L -116 2944 
L -116 3322 
L 1791 3322 
L 1791 2944 
L 1388 2944 
L 2228 844 
L 3066 2944 
L 2631 2944 
L 2631 3322 
L 3878 3322 
L 3878 2944 
L 3494 2944 
L 2316 0 
L 1428 0 
z
" transform="scale(0.015625)"/>
       <path id="DejaVuSerif-Bold-65" d="M 2566 1875 
Q 2566 2531 2444 2795 
Q 2322 3059 2028 3059 
Q 1744 3059 1620 2800 
Q 1497 2541 1497 1931 
L 1497 1875 
L 2566 1875 
z
M 3781 1503 
L 1497 1503 
L 1497 1478 
Q 1497 834 1690 548 
Q 1884 263 2316 263 
Q 2675 263 2897 453 
Q 3119 644 3181 1006 
L 3700 1006 
Q 3566 441 3166 175 
Q 2766 -91 2047 -91 
Q 1184 -91 723 364 
Q 263 819 263 1663 
Q 263 2488 734 2950 
Q 1206 3413 2047 3413 
Q 2872 3413 3312 2927 
Q 3753 2441 3781 1503 
z
" transform="scale(0.015625)"/>
       <path id="DejaVuSerif-Bold-50" d="M 300 0 
L 300 378 
L 897 378 
L 897 4288 
L 300 4288 
L 300 4666 
L 2956 4666 
Q 3734 4666 4193 4295 
Q 4653 3925 4653 3303 
Q 4653 2678 4192 2304 
Q 3731 1931 2956 1931 
L 2100 1931 
L 2100 378 
L 2853 378 
L 2853 0 
L 300 0 
z
M 2100 2309 
L 2450 2309 
Q 2856 2309 3098 2579 
Q 3341 2850 3341 3303 
Q 3341 3753 3100 4020 
Q 2859 4288 2450 4288 
L 2100 4288 
L 2100 2309 
z
" transform="scale(0.015625)"/>
       <path id="DejaVuSerif-Bold-72" d="M 3438 3359 
L 3438 2369 
L 3084 2369 
Q 3066 2634 2941 2764 
Q 2816 2894 2578 2894 
Q 2216 2894 2006 2575 
Q 1797 2256 1797 1691 
L 1797 378 
L 2400 378 
L 2400 0 
L 219 0 
L 219 378 
L 691 378 
L 691 2944 
L 184 2944 
L 184 3322 
L 1797 3322 
L 1797 2731 
Q 1959 3078 2226 3245 
Q 2494 3413 2881 3413 
Q 2978 3413 3117 3398 
Q 3256 3384 3438 3359 
z
" transform="scale(0.015625)"/>
       <path id="DejaVuSerif-Bold-6f" d="M 2138 263 
Q 2488 263 2630 563 
Q 2772 863 2772 1663 
Q 2772 2463 2631 2761 
Q 2491 3059 2138 3059 
Q 1784 3059 1640 2757 
Q 1497 2456 1497 1663 
Q 1497 869 1640 566 
Q 1784 263 2138 263 
z
M 2138 -91 
Q 1259 -91 761 376 
Q 263 844 263 1663 
Q 263 2484 761 2948 
Q 1259 3413 2138 3413 
Q 3019 3413 3516 2948 
Q 4013 2484 4013 1663 
Q 4013 844 3514 376 
Q 3016 -91 2138 -91 
z
" transform="scale(0.015625)"/>
       <path id="DejaVuSerif-Bold-62" d="M 622 378 
L 622 4488 
L 147 4488 
L 147 4863 
L 1728 4863 
L 1728 2900 
Q 1869 3159 2106 3286 
Q 2344 3413 2694 3413 
Q 3403 3413 3811 2945 
Q 4219 2478 4219 1663 
Q 4219 847 3811 378 
Q 3403 -91 2694 -91 
Q 2344 -91 2106 36 
Q 1869 163 1728 422 
L 1728 0 
L 147 0 
L 147 378 
L 622 378 
z
M 1728 1497 
Q 1728 916 1876 656 
Q 2025 397 2356 397 
Q 2697 397 2836 672 
Q 2975 947 2975 1663 
Q 2975 2378 2836 2651 
Q 2697 2925 2356 2925 
Q 2025 2925 1876 2665 
Q 1728 2406 1728 1825 
L 1728 1497 
z
" transform="scale(0.015625)"/>
       <path id="DejaVuSerif-Bold-79" d="M 1997 -750 
Q 1847 -1116 1634 -1269 
Q 1422 -1422 1063 -1422 
Q 909 -1422 721 -1387 
Q 534 -1353 313 -1288 
L 313 -594 
L 666 -597 
Q 675 -838 779 -953 
Q 884 -1069 1094 -1069 
Q 1297 -1069 1422 -958 
Q 1547 -847 1672 -538 
L 1722 -422 
L 275 2944 
L -84 2944 
L -84 3322 
L 1831 3322 
L 1831 2944 
L 1434 2944 
L 2278 978 
L 3066 2944 
L 2625 2944 
L 2625 3322 
L 3872 3322 
L 3872 2944 
L 3469 2944 
L 1997 -750 
z
" transform="scale(0.015625)"/>
      </defs>
      <use xlink:href="#DejaVuSerif-Bold-43"/>
      <use xlink:href="#DejaVuSerif-Bold-75" x="79.589844"/>
      <use xlink:href="#DejaVuSerif-Bold-6d" x="152.294922"/>
      <use xlink:href="#DejaVuSerif-Bold-75" x="258.105469"/>
      <use xlink:href="#DejaVuSerif-Bold-6c" x="330.810547"/>
      <use xlink:href="#DejaVuSerif-Bold-61" x="368.798828"/>
      <use xlink:href="#DejaVuSerif-Bold-74" x="433.59375"/>
      <use xlink:href="#DejaVuSerif-Bold-69" x="479.785156"/>
      <use xlink:href="#DejaVuSerif-Bold-76" x="517.773438"/>
      <use xlink:href="#DejaVuSerif-Bold-65" x="575.878906"/>
      <use xlink:href="#DejaVuSerif-Bold-20" x="639.501953"/>
      <use xlink:href="#DejaVuSerif-Bold-50" x="674.316406"/>
      <use xlink:href="#DejaVuSerif-Bold-72" x="749.511719"/>
      <use xlink:href="#DejaVuSerif-Bold-6f" x="802.197266"/>
      <use xlink:href="#DejaVuSerif-Bold-62" x="868.896484"/>
      <use xlink:href="#DejaVuSerif-Bold-61" x="938.818359"/>
      <use xlink:href="#DejaVuSerif-Bold-62" x="1003.613281"/>
      <use xlink:href="#DejaVuSerif-Bold-69" x="1073.535156"/>
      <use xlink:href="#DejaVuSerif-Bold-6c" x="1111.523438"/>
      <use xlink:href="#DejaVuSerif-Bold-69" x="1149.511719"/>
      <use xlink:href="#DejaVuSerif-Bold-74" x="1187.5"/>
      <use xlink:href="#DejaVuSerif-Bold-79" x="1233.691406"/>
     </g>
    </g>
   </g>
   <g id="line2d_13">
    <path d="M 73.832727 295.488 
L 73.832727 294.156774 
L 74.971866 294.035754 
L 74.971866 291.736364 
L 76.111005 291.615344 
L 76.111005 291.010241 
L 77.250144 290.889221 
L 77.250144 287.137585 
L 78.389282 287.016564 
L 78.389282 285.322277 
L 79.528421 285.201257 
L 79.528421 278.424108 
L 80.66756 278.303088 
L 80.66756 263.780626 
L 81.806699 263.659606 
L 81.806699 250.226329 
L 82.945837 250.105309 
L 82.945837 236.793053 
L 84.084976 236.672032 
L 84.084976 223.117735 
L 85.224115 222.996714 
L 85.224115 208.716294 
L 86.363254 208.595274 
L 86.363254 203.996494 
L 87.502392 203.875474 
L 87.502392 172.410141 
L 88.641531 172.289121 
L 88.641531 110.326619 
L 89.78067 110.205599 
L 89.78067 105.485799 
L 90.919809 105.364778 
L 90.919809 99.676814 
L 92.058947 99.555794 
L 92.058947 96.772322 
L 93.198086 96.651302 
L 93.198086 94.230891 
L 94.337225 94.109871 
L 94.337225 92.052522 
L 95.476364 91.931502 
L 95.476364 90.479256 
L 96.615502 90.358235 
L 96.615502 88.905989 
L 97.754641 88.784968 
L 97.754641 87.453743 
L 98.89378 87.332722 
L 98.89378 84.912312 
L 100.032919 84.791292 
L 100.032919 81.765779 
L 101.172057 81.644758 
L 101.172057 76.924958 
L 102.311196 76.803938 
L 102.311196 66.638215 
L 103.450335 66.517195 
L 103.450335 64.943928 
L 104.589474 64.822907 
L 104.589474 63.975764 
L 105.728612 63.854743 
L 105.728612 63.612702 
L 106.867751 63.491682 
L 106.867751 63.249641 
L 108.00689 63.12862 
L 108.00689 62.523518 
L 110.285167 62.281477 
L 110.285167 61.918415 
L 111.424306 61.797395 
L 111.424306 60.345149 
L 112.563445 60.224128 
L 112.563445 59.740046 
L 113.702584 59.619026 
L 113.702584 58.771882 
L 114.841722 58.650861 
L 114.841722 58.2878 
L 115.980861 58.166779 
L 115.980861 57.803718 
L 118.259139 57.561677 
L 118.259139 57.440656 
L 119.398278 57.319636 
L 119.398278 56.956574 
L 120.537416 56.835554 
L 120.537416 56.714533 
L 122.815694 56.472492 
L 122.815694 55.020246 
L 125.093971 54.778205 
L 125.093971 54.294123 
L 136.485359 54.173103 
L 136.485359 54.052082 
L 137.624498 53.931062 
L 137.624498 53.810041 
L 149.015885 53.568 
L 149.015885 53.568 
" clip-path="url(#p4f4ea03268)" style="fill: none; stroke: #1f77b4; stroke-width: 1.5; stroke-linecap: square"/>
   </g>
   <g id="line2d_14">
    <path d="M 73.832727 295.488 
L 73.832727 294.156774 
L 74.971866 294.035754 
L 74.971866 291.857385 
L 76.111005 291.736364 
L 76.111005 290.526159 
L 77.250144 290.405139 
L 77.250144 285.080236 
L 78.389282 284.959216 
L 78.389282 283.385949 
L 79.528421 283.264928 
L 79.528421 275.519616 
L 80.66756 275.398595 
L 80.66756 257.48756 
L 81.806699 257.366539 
L 81.806699 241.391832 
L 82.945837 241.270811 
L 82.945837 226.62733 
L 84.084976 226.506309 
L 84.084976 213.678135 
L 85.224115 213.557115 
L 85.224115 202.786289 
L 86.363254 202.665269 
L 86.363254 197.340366 
L 87.502392 197.219346 
L 87.502392 165.02789 
L 88.641531 164.906869 
L 88.641531 97.498445 
L 89.78067 97.377425 
L 89.78067 94.351912 
L 90.919809 94.230891 
L 90.919809 89.390071 
L 92.058947 89.269051 
L 92.058947 87.937825 
L 93.198086 87.816804 
L 93.198086 86.001497 
L 94.337225 85.880476 
L 94.337225 84.42823 
L 95.476364 84.30721 
L 95.476364 82.975984 
L 96.615502 82.854963 
L 96.615502 82.00782 
L 97.754641 81.886799 
L 97.754641 81.039656 
L 98.89378 80.918635 
L 98.89378 79.58741 
L 100.032919 79.466389 
L 100.032919 77.893123 
L 101.172057 77.772102 
L 101.172057 74.98863 
L 102.311196 74.86761 
L 102.311196 66.880256 
L 103.450335 66.759236 
L 103.450335 66.033113 
L 104.589474 65.912092 
L 104.589474 65.549031 
L 105.728612 65.42801 
L 105.728612 65.185969 
L 106.867751 65.064948 
L 106.867751 64.459846 
L 108.00689 64.338825 
L 110.285167 64.217805 
L 110.285167 63.491682 
L 111.424306 63.370661 
L 111.424306 61.434333 
L 112.563445 61.313313 
L 112.563445 60.829231 
L 113.702584 60.70821 
L 113.702584 59.255964 
L 114.841722 59.134943 
L 114.841722 58.892902 
L 115.980861 58.771882 
L 115.980861 58.650861 
L 117.12 58.529841 
L 117.12 58.2878 
L 118.259139 58.166779 
L 118.259139 57.924738 
L 119.398278 57.803718 
L 119.398278 57.319636 
L 122.815694 57.077595 
L 122.815694 55.141267 
L 125.093971 54.899226 
L 125.093971 54.536164 
L 126.23311 54.415144 
L 136.485359 54.173103 
L 136.485359 54.052082 
L 137.624498 53.931062 
L 158.128995 53.568 
L 158.128995 53.568 
" clip-path="url(#p4f4ea03268)" style="fill: none; stroke: #ff7f0e; stroke-width: 1.5; stroke-linecap: square"/>
   </g>
   <g id="line2d_15">
    <path d="M 80.66756 295.488 
L 80.66756 295.366979 
L 81.806699 295.245959 
L 81.806699 295.124938 
L 82.945837 295.003918 
L 82.945837 294.761877 
L 85.224115 294.519836 
L 85.224115 294.156774 
L 87.502392 294.035754 
L 87.502392 286.895544 
L 88.641531 286.774523 
L 88.641531 264.990831 
L 89.78067 264.869811 
L 89.78067 237.882237 
L 90.919809 237.761217 
L 90.919809 206.295884 
L 92.058947 206.174863 
L 92.058947 171.926059 
L 93.198086 171.805039 
L 93.198086 136.346029 
L 94.337225 136.225009 
L 94.337225 120.371322 
L 95.476364 120.250301 
L 95.476364 107.906209 
L 96.615502 107.785189 
L 96.615502 100.523958 
L 97.754641 100.402937 
L 97.754641 97.982527 
L 98.89378 97.861507 
L 98.89378 96.046199 
L 100.032919 95.925179 
L 100.032919 93.746809 
L 101.172057 93.625789 
L 101.172057 90.116194 
L 102.311196 89.995174 
L 102.311196 87.090681 
L 103.450335 86.969661 
L 103.450335 83.339046 
L 104.589474 83.218025 
L 104.589474 80.555574 
L 105.728612 80.434553 
L 105.728612 78.014143 
L 106.867751 77.893123 
L 106.867751 76.198835 
L 108.00689 76.077815 
L 108.00689 73.173323 
L 109.146029 73.052302 
L 109.146029 71.236994 
L 110.285167 71.115974 
L 110.285167 70.994953 
L 111.424306 70.873933 
L 111.424306 70.389851 
L 112.563445 70.26883 
L 112.563445 68.816584 
L 113.702584 68.695564 
L 113.702584 67.606379 
L 114.841722 67.485359 
L 114.841722 66.517195 
L 115.980861 66.396174 
L 115.980861 64.943928 
L 117.12 64.822907 
L 117.12 63.612702 
L 118.259139 63.491682 
L 118.259139 63.0076 
L 119.398278 62.886579 
L 119.398278 62.765559 
L 122.815694 62.402497 
L 122.815694 61.797395 
L 123.954833 61.676374 
L 123.954833 60.950251 
L 125.093971 60.829231 
L 125.093971 60.224128 
L 126.23311 60.103108 
L 126.23311 59.134943 
L 127.372249 59.013923 
L 127.372249 58.166779 
L 128.511388 58.045759 
L 128.511388 57.319636 
L 129.650526 57.198615 
L 129.650526 56.472492 
L 130.789665 56.351472 
L 130.789665 56.109431 
L 134.207081 55.86739 
L 136.485359 55.625349 
L 136.485359 55.504328 
L 138.763636 55.383308 
L 138.763636 55.020246 
L 139.902775 54.899226 
L 139.902775 54.778205 
L 141.041914 54.657185 
L 150.155024 54.415144 
L 150.155024 54.294123 
L 151.294163 54.173103 
L 151.294163 54.052082 
L 152.433301 53.931062 
L 161.546411 53.810041 
L 161.546411 53.689021 
L 162.68555 53.568 
L 162.68555 53.568 
" clip-path="url(#p4f4ea03268)" style="fill: none; stroke: #2ca02c; stroke-width: 1.5; stroke-linecap: square"/>
   </g>
   <g id="line2d_16">
    <path d="M 73.832727 295.488 
L 73.832727 293.793713 
L 74.971866 293.672692 
L 74.971866 292.220446 
L 85.224115 292.099426 
L 85.224115 245.74857 
L 86.363254 245.62755 
L 86.363254 197.461387 
L 87.502392 197.340366 
L 87.502392 187.053623 
L 88.641531 186.932602 
L 88.641531 182.212802 
L 89.78067 182.091782 
L 89.78067 180.034433 
L 90.919809 179.913413 
L 90.919809 177.250961 
L 92.058947 177.129941 
L 92.058947 175.556674 
L 93.198086 175.435654 
L 93.198086 174.709531 
L 94.337225 174.58851 
L 94.337225 173.378305 
L 95.476364 173.257285 
L 95.476364 170.110751 
L 96.615502 169.989731 
L 96.615502 159.945029 
L 97.754641 159.824008 
L 97.754641 152.320736 
L 98.89378 152.199716 
L 98.89378 150.74747 
L 100.032919 150.626449 
L 100.032919 149.900326 
L 101.172057 149.779306 
L 101.172057 149.537265 
L 102.311196 149.416244 
L 102.311196 149.053183 
L 103.450335 148.932162 
L 103.450335 148.811142 
L 106.867751 148.690121 
L 106.867751 148.569101 
L 108.00689 148.44808 
L 108.00689 139.976644 
L 109.146029 139.855624 
L 109.146029 126.785409 
L 110.285167 126.664388 
L 110.285167 123.759896 
L 111.424306 123.638875 
L 111.424306 121.823568 
L 112.563445 121.702547 
L 112.563445 120.734383 
L 113.702584 120.613363 
L 113.702584 119.403158 
L 114.841722 119.282137 
L 114.841722 118.798055 
L 115.980861 118.677035 
L 115.980861 118.434993 
L 117.12 118.313973 
L 117.12 118.192952 
L 118.259139 118.071932 
L 118.259139 117.70887 
L 119.398278 117.58785 
L 119.398278 108.753353 
L 120.537416 108.632332 
L 120.537416 92.778645 
L 121.676555 92.657625 
L 121.676555 88.300886 
L 122.815694 88.179866 
L 122.815694 85.759456 
L 123.954833 85.638435 
L 123.954833 84.912312 
L 125.093971 84.791292 
L 125.093971 83.581087 
L 126.23311 83.460066 
L 126.23311 82.491902 
L 127.372249 82.370881 
L 127.372249 81.886799 
L 128.511388 81.765779 
L 128.511388 81.523738 
L 129.650526 81.402717 
L 129.650526 81.160676 
L 130.789665 81.039656 
L 130.789665 79.345369 
L 131.928804 79.224348 
L 131.928804 77.28802 
L 133.067943 77.166999 
L 133.067943 76.319856 
L 134.207081 76.198835 
L 134.207081 74.86761 
L 135.34622 74.746589 
L 135.34622 74.141487 
L 136.485359 74.020466 
L 136.485359 73.173323 
L 137.624498 73.052302 
L 137.624498 72.4472 
L 138.763636 72.326179 
L 138.763636 71.963118 
L 139.902775 71.842097 
L 139.902775 71.600056 
L 142.181053 71.358015 
L 142.181053 70.026789 
L 143.320191 69.905769 
L 143.320191 68.332502 
L 144.45933 68.211482 
L 144.45933 66.517195 
L 145.598469 66.396174 
L 145.598469 65.549031 
L 146.737608 65.42801 
L 146.737608 64.701887 
L 147.876746 64.580866 
L 147.876746 63.612702 
L 149.015885 63.491682 
L 149.015885 63.12862 
L 150.155024 63.0076 
L 150.155024 62.886579 
L 151.294163 62.765559 
L 151.294163 62.281477 
L 153.57244 62.039436 
L 153.57244 61.192292 
L 154.711579 61.071272 
L 154.711579 60.58719 
L 155.850718 60.466169 
L 155.850718 59.498005 
L 156.989856 59.376984 
L 156.989856 58.771882 
L 158.128995 58.650861 
L 158.128995 58.40882 
L 159.268134 58.2878 
L 159.268134 57.924738 
L 160.407273 57.803718 
L 160.407273 57.682697 
L 161.546411 57.561677 
L 161.546411 57.440656 
L 162.68555 57.319636 
L 162.68555 57.077595 
L 166.102967 56.835554 
L 167.242105 56.714533 
L 167.242105 56.472492 
L 169.520383 56.230451 
L 169.520383 56.109431 
L 170.659522 55.98841 
L 170.659522 55.86739 
L 174.076938 55.504328 
L 174.076938 55.383308 
L 177.494354 55.141267 
L 178.633493 55.020246 
L 178.633493 54.657185 
L 183.190048 54.173103 
L 190.02488 53.931062 
L 192.303158 53.689021 
L 203.694545 53.568 
L 203.694545 53.568 
" clip-path="url(#p4f4ea03268)" style="fill: none; stroke: #d62728; stroke-width: 1.5; stroke-linecap: square"/>
   </g>
   <g id="line2d_17">
    <path d="M 73.832727 295.488 
L 73.832727 293.793713 
L 74.971866 293.672692 
L 74.971866 292.462487 
L 77.250144 292.341467 
L 77.250144 290.889221 
L 78.389282 290.7682 
L 78.389282 287.500646 
L 79.528421 287.379626 
L 79.528421 284.112072 
L 80.66756 283.991052 
L 80.66756 278.182067 
L 81.806699 278.061047 
L 81.806699 276.6088 
L 82.945837 276.48778 
L 82.945837 274.430431 
L 84.084976 274.309411 
L 84.084976 268.258385 
L 85.224115 268.137365 
L 85.224115 212.104868 
L 86.363254 211.983848 
L 86.363254 196.735264 
L 87.502392 196.614243 
L 87.502392 194.798935 
L 88.641531 194.677915 
L 88.641531 192.499546 
L 89.78067 192.378525 
L 89.78067 190.563218 
L 90.919809 190.442197 
L 90.919809 187.295664 
L 92.058947 187.174643 
L 92.058947 185.480356 
L 93.198086 185.359336 
L 93.198086 184.270151 
L 94.337225 184.149131 
L 94.337225 182.212802 
L 95.476364 182.091782 
L 95.476364 178.824228 
L 96.615502 178.703208 
L 96.615502 151.473593 
L 97.754641 151.352572 
L 97.754641 141.670931 
L 98.89378 141.549911 
L 98.89378 140.218685 
L 100.032919 140.097665 
L 100.032919 138.403378 
L 101.172057 138.282357 
L 101.172057 136.46705 
L 102.311196 136.346029 
L 102.311196 134.530721 
L 103.450335 134.409701 
L 103.450335 132.594393 
L 104.589474 132.473373 
L 104.589474 130.900106 
L 105.728612 130.779086 
L 105.728612 129.56888 
L 106.867751 129.44786 
L 106.867751 127.269491 
L 108.00689 127.14847 
L 108.00689 116.740706 
L 109.146029 116.619686 
L 109.146029 111.536824 
L 110.285167 111.415804 
L 110.285167 110.56866 
L 111.424306 110.44764 
L 111.424306 109.842537 
L 112.563445 109.721517 
L 112.563445 108.511312 
L 113.702584 108.390291 
L 113.702584 107.059066 
L 114.841722 106.938045 
L 114.841722 105.364778 
L 115.980861 105.243758 
L 115.980861 103.791512 
L 117.12 103.670491 
L 117.12 102.702327 
L 118.259139 102.581307 
L 118.259139 101.371102 
L 119.398278 101.250081 
L 119.398278 93.383748 
L 120.537416 93.262727 
L 120.537416 88.300886 
L 121.676555 88.179866 
L 121.676555 87.816804 
L 122.815694 87.695784 
L 122.815694 87.211702 
L 123.954833 87.090681 
L 123.954833 86.485579 
L 125.093971 86.364558 
L 125.093971 85.154353 
L 126.23311 85.033333 
L 126.23311 84.549251 
L 127.372249 84.42823 
L 127.372249 83.581087 
L 128.511388 83.460066 
L 128.511388 82.733943 
L 130.789665 82.491902 
L 130.789665 78.982307 
L 131.928804 78.861287 
L 131.928804 76.803938 
L 133.067943 76.682917 
L 133.067943 76.319856 
L 136.485359 76.077815 
L 136.485359 75.109651 
L 138.763636 74.98863 
L 138.763636 74.504548 
L 139.902775 74.383528 
L 139.902775 74.141487 
L 142.181053 73.899446 
L 142.181053 73.052302 
L 143.320191 72.931282 
L 143.320191 71.963118 
L 144.45933 71.842097 
L 144.45933 71.600056 
L 145.598469 71.479036 
L 145.598469 71.236994 
L 147.876746 70.994953 
L 147.876746 70.510871 
L 149.015885 70.389851 
L 149.015885 70.26883 
L 150.155024 70.14781 
L 150.155024 69.905769 
L 151.294163 69.784748 
L 151.294163 69.542707 
L 153.57244 69.300666 
L 153.57244 68.937605 
L 154.711579 68.816584 
L 154.711579 68.453523 
L 155.850718 68.332502 
L 155.850718 68.090461 
L 156.989856 67.969441 
L 156.989856 67.84842 
L 160.407273 67.485359 
L 164.963828 67.243318 
L 167.242105 67.001277 
L 167.242105 66.880256 
L 168.381244 66.759236 
L 168.381244 66.396174 
L 169.520383 66.275154 
L 169.520383 66.154133 
L 170.659522 66.033113 
L 170.659522 65.912092 
L 171.79866 65.791072 
L 171.79866 65.670051 
L 172.937799 65.549031 
L 180.91177 65.185969 
L 182.050909 65.064948 
L 182.050909 64.943928 
L 183.190048 64.822907 
L 183.190048 64.701887 
L 185.468325 64.580866 
L 185.468325 64.459846 
L 192.303158 64.096784 
L 192.303158 63.975764 
L 193.442297 63.854743 
L 197.998852 63.612702 
L 200.277129 63.370661 
L 203.694545 63.12862 
L 203.694545 63.0076 
L 207.111962 62.765559 
L 210.529378 62.402497 
L 210.529378 62.281477 
L 211.668517 62.160456 
L 213.946794 62.039436 
L 213.946794 61.918415 
L 215.085933 61.797395 
L 215.085933 61.676374 
L 216.225072 61.555354 
L 216.225072 61.434333 
L 217.364211 61.313313 
L 217.364211 61.071272 
L 218.503349 60.950251 
L 220.781627 60.829231 
L 220.781627 60.70821 
L 223.059904 60.466169 
L 223.059904 60.345149 
L 224.199043 60.224128 
L 224.199043 60.103108 
L 226.477321 59.861067 
L 226.477321 59.740046 
L 227.616459 59.619026 
L 229.894737 59.498005 
L 229.894737 59.376984 
L 233.312153 59.134943 
L 234.451292 59.013923 
L 237.868708 58.771882 
L 239.007847 58.650861 
L 246.981818 58.40882 
L 249.260096 58.2878 
L 258.373206 58.045759 
L 259.512344 57.924738 
L 270.903732 57.682697 
L 270.903732 57.561677 
L 282.29512 57.440656 
L 282.29512 57.198615 
L 303.938756 56.835554 
L 305.077895 56.714533 
L 305.077895 56.593513 
L 317.608421 56.351472 
L 328.999809 56.109431 
L 330.138947 55.98841 
L 344.947751 55.625349 
L 346.08689 55.504328 
L 356.339139 55.383308 
L 356.339139 55.262287 
L 358.617416 55.141267 
L 367.730526 55.020246 
L 367.730526 54.899226 
L 370.008804 54.778205 
L 379.121914 54.536164 
L 379.121914 54.415144 
L 380.261053 54.294123 
L 387.095885 54.173103 
L 387.095885 54.052082 
L 390.513301 53.810041 
L 391.65244 53.689021 
L 398.487273 53.568 
L 398.487273 53.568 
" clip-path="url(#p4f4ea03268)" style="fill: none; stroke: #9467bd; stroke-width: 1.5; stroke-linecap: square"/>
   </g>
   <g id="patch_3">
    <path d="M 57.6 307.584 
L 57.6 41.472 
" style="fill: none; stroke: #000000; stroke-width: 0.8; stroke-linejoin: miter; stroke-linecap: square"/>
   </g>
   <g id="patch_4">
    <path d="M 414.72 307.584 
L 414.72 41.472 
" style="fill: none; stroke: #000000; stroke-width: 0.8; stroke-linejoin: miter; stroke-linecap: square"/>
   </g>
   <g id="patch_5">
    <path d="M 57.6 307.584 
L 414.72 307.584 
" style="fill: none; stroke: #000000; stroke-width: 0.8; stroke-linejoin: miter; stroke-linecap: square"/>
   </g>
   <g id="patch_6">
    <path d="M 57.6 41.472 
L 414.72 41.472 
" style="fill: none; stroke: #000000; stroke-width: 0.8; stroke-linejoin: miter; stroke-linecap: square"/>
   </g>
   <g id="text_15">
    <!-- RTT of all TCP messages -->
    <g transform="translate(167.049844 35.472) scale(0.1 -0.1)">
     <defs>
      <path id="DejaVuSerif-Bold-66" d="M 3097 4031 
L 2747 4031 
Q 2722 4275 2605 4394 
Q 2488 4513 2272 4513 
Q 2022 4513 1909 4333 
Q 1797 4153 1797 3750 
L 1797 3322 
L 2631 3322 
L 2631 2944 
L 1797 2944 
L 1797 378 
L 2438 378 
L 2438 0 
L 219 0 
L 219 378 
L 691 378 
L 691 2944 
L 197 2944 
L 197 3322 
L 691 3322 
L 691 3738 
Q 691 4291 1044 4577 
Q 1397 4863 2081 4863 
Q 2347 4863 2600 4833 
Q 2853 4803 3097 4744 
L 3097 4031 
z
" transform="scale(0.015625)"/>
      <path id="DejaVuSerif-Bold-67" d="M 3853 2944 
L 3853 44 
Q 3853 -656 3354 -1039 
Q 2856 -1422 1947 -1422 
Q 1616 -1422 1275 -1370 
Q 934 -1319 575 -1216 
L 575 -422 
L 928 -422 
Q 975 -750 1192 -909 
Q 1409 -1069 1813 -1069 
Q 2325 -1069 2536 -823 
Q 2747 -578 2747 44 
L 2747 422 
Q 2606 163 2367 36 
Q 2128 -91 1778 -91 
Q 1072 -91 667 378 
Q 263 847 263 1663 
Q 263 2481 667 2947 
Q 1072 3413 1778 3413 
Q 2128 3413 2367 3286 
Q 2606 3159 2747 2900 
L 2747 3322 
L 4325 3322 
L 4325 2944 
L 3853 2944 
z
M 2747 1825 
Q 2747 2406 2597 2665 
Q 2447 2925 2119 2925 
Q 1775 2925 1636 2651 
Q 1497 2378 1497 1663 
Q 1497 947 1637 672 
Q 1778 397 2119 397 
Q 2447 397 2597 656 
Q 2747 916 2747 1497 
L 2747 1825 
z
" transform="scale(0.015625)"/>
     </defs>
     <use xlink:href="#DejaVuSerif-Bold-52"/>
     <use xlink:href="#DejaVuSerif-Bold-54" x="81.355469"/>
     <use xlink:href="#DejaVuSerif-Bold-54" x="152.144531"/>
     <use xlink:href="#DejaVuSerif-Bold-20" x="226.558594"/>
     <use xlink:href="#DejaVuSerif-Bold-6f" x="261.373047"/>
     <use xlink:href="#DejaVuSerif-Bold-66" x="328.072266"/>
     <use xlink:href="#DejaVuSerif-Bold-20" x="371.089844"/>
     <use xlink:href="#DejaVuSerif-Bold-61" x="405.904297"/>
     <use xlink:href="#DejaVuSerif-Bold-6c" x="470.699219"/>
     <use xlink:href="#DejaVuSerif-Bold-6c" x="508.6875"/>
     <use xlink:href="#DejaVuSerif-Bold-20" x="546.675781"/>
     <use xlink:href="#DejaVuSerif-Bold-54" x="581.490234"/>
     <use xlink:href="#DejaVuSerif-Bold-43" x="655.904297"/>
     <use xlink:href="#DejaVuSerif-Bold-50" x="735.494141"/>
     <use xlink:href="#DejaVuSerif-Bold-20" x="810.689453"/>
     <use xlink:href="#DejaVuSerif-Bold-6d" x="845.503906"/>
     <use xlink:href="#DejaVuSerif-Bold-65" x="951.314453"/>
     <use xlink:href="#DejaVuSerif-Bold-73" x="1014.9375"/>
     <use xlink:href="#DejaVuSerif-Bold-73" x="1071.236328"/>
     <use xlink:href="#DejaVuSerif-Bold-61" x="1127.535156"/>
     <use xlink:href="#DejaVuSerif-Bold-67" x="1192.330078"/>
     <use xlink:href="#DejaVuSerif-Bold-65" x="1262.251953"/>
     <use xlink:href="#DejaVuSerif-Bold-73" x="1325.875"/>
    </g>
   </g>
   <g id="legend_1">
    <g id="patch_7">
     <path d="M 329.97375 303.584 
L 409.12 303.584 
Q 410.72 303.584 410.72 301.984 
L 410.72 244.0715 
Q 410.72 242.4715 409.12 242.4715 
L 329.97375 242.4715 
Q 328.37375 242.4715 328.37375 244.0715 
L 328.37375 301.984 
Q 328.37375 303.584 329.97375 303.584 
z
" style="fill: #ffffff; opacity: 0.8; stroke: #cccccc; stroke-linejoin: miter"/>
    </g>
    <g id="line2d_18">
     <path d="M 331.57375 248.95025 
L 339.57375 248.95025 
L 347.57375 248.95025 
" style="fill: none; stroke: #1f77b4; stroke-width: 1.5; stroke-linecap: square"/>
    </g>
    <g id="text_16">
     <!-- BTP -->
     <g transform="translate(353.97375 251.75025) scale(0.08 -0.08)">
      <defs>
       <path id="DejaVuSerif-42" d="M 1581 331 
L 2516 331 
Q 3078 331 3337 575 
Q 3597 819 3597 1350 
Q 3597 1878 3339 2120 
Q 3081 2363 2516 2363 
L 1581 2363 
L 1581 331 
z
M 1581 2694 
L 2375 2694 
Q 2888 2694 3123 2891 
Q 3359 3088 3359 3513 
Q 3359 3941 3123 4136 
Q 2888 4331 2375 4331 
L 1581 4331 
L 1581 2694 
z
M 353 0 
L 353 331 
L 947 331 
L 947 4331 
L 353 4331 
L 353 4666 
L 2656 4666 
Q 3363 4666 3720 4377 
Q 4078 4088 4078 3513 
Q 4078 3097 3829 2850 
Q 3581 2603 3103 2547 
Q 3697 2472 4005 2167 
Q 4313 1863 4313 1350 
Q 4313 656 3875 328 
Q 3438 0 2509 0 
L 353 0 
z
" transform="scale(0.015625)"/>
       <path id="DejaVuSerif-54" d="M 1222 0 
L 1222 331 
L 1819 331 
L 1819 4294 
L 447 4294 
L 447 3566 
L 63 3566 
L 63 4666 
L 4206 4666 
L 4206 3566 
L 3822 3566 
L 3822 4294 
L 2450 4294 
L 2450 331 
L 3047 331 
L 3047 0 
L 1222 0 
z
" transform="scale(0.015625)"/>
       <path id="DejaVuSerif-50" d="M 1581 2375 
L 2406 2375 
Q 2872 2375 3115 2626 
Q 3359 2878 3359 3353 
Q 3359 3831 3115 4081 
Q 2872 4331 2406 4331 
L 1581 4331 
L 1581 2375 
z
M 353 0 
L 353 331 
L 947 331 
L 947 4331 
L 353 4331 
L 353 4666 
L 2559 4666 
Q 3259 4666 3668 4311 
Q 4078 3956 4078 3353 
Q 4078 2753 3668 2397 
Q 3259 2041 2559 2041 
L 1581 2041 
L 1581 331 
L 2303 331 
L 2303 0 
L 353 0 
z
" transform="scale(0.015625)"/>
      </defs>
      <use xlink:href="#DejaVuSerif-42"/>
      <use xlink:href="#DejaVuSerif-54" x="73.486328"/>
      <use xlink:href="#DejaVuSerif-50" x="140.185547"/>
     </g>
    </g>
    <g id="line2d_19">
     <path d="M 331.57375 260.69275 
L 339.57375 260.69275 
L 347.57375 260.69275 
" style="fill: none; stroke: #ff7f0e; stroke-width: 1.5; stroke-linecap: square"/>
    </g>
    <g id="text_17">
     <!-- BRTP -->
     <g transform="translate(353.97375 263.49275) scale(0.08 -0.08)">
      <defs>
       <path id="DejaVuSerif-52" d="M 3066 2316 
Q 3284 2256 3442 2114 
Q 3600 1972 3725 1716 
L 4403 331 
L 4972 331 
L 4972 0 
L 3872 0 
L 3144 1484 
Q 2934 1916 2759 2042 
Q 2584 2169 2278 2169 
L 1581 2169 
L 1581 331 
L 2241 331 
L 2241 0 
L 353 0 
L 353 331 
L 947 331 
L 947 4331 
L 353 4331 
L 353 4666 
L 2719 4666 
Q 3400 4666 3770 4341 
Q 4141 4016 4141 3419 
Q 4141 2938 3870 2661 
Q 3600 2384 3066 2316 
z
M 1581 2503 
L 2503 2503 
Q 2975 2503 3200 2726 
Q 3425 2950 3425 3419 
Q 3425 3888 3200 4109 
Q 2975 4331 2503 4331 
L 1581 4331 
L 1581 2503 
z
" transform="scale(0.015625)"/>
      </defs>
      <use xlink:href="#DejaVuSerif-42"/>
      <use xlink:href="#DejaVuSerif-52" x="73.486328"/>
      <use xlink:href="#DejaVuSerif-54" x="147.029297"/>
      <use xlink:href="#DejaVuSerif-50" x="213.728516"/>
     </g>
    </g>
    <g id="line2d_20">
     <path d="M 331.57375 272.43525 
L 339.57375 272.43525 
L 347.57375 272.43525 
" style="fill: none; stroke: #2ca02c; stroke-width: 1.5; stroke-linecap: square"/>
    </g>
    <g id="text_18">
     <!-- BRTP-PROXY -->
     <g transform="translate(353.97375 275.23525) scale(0.08 -0.08)">
      <defs>
       <path id="DejaVuSerif-2d" d="M 281 1959 
L 1881 1959 
L 1881 1472 
L 281 1472 
L 281 1959 
z
" transform="scale(0.015625)"/>
       <path id="DejaVuSerif-4f" d="M 2625 244 
Q 3391 244 3781 770 
Q 4172 1297 4172 2328 
Q 4172 3363 3781 3889 
Q 3391 4416 2625 4416 
Q 1856 4416 1465 3889 
Q 1075 3363 1075 2328 
Q 1075 1297 1465 770 
Q 1856 244 2625 244 
z
M 2625 -91 
Q 2150 -91 1751 65 
Q 1353 222 1050 525 
Q 700 875 529 1319 
Q 359 1763 359 2328 
Q 359 2894 529 3339 
Q 700 3784 1050 4134 
Q 1356 4441 1750 4595 
Q 2144 4750 2625 4750 
Q 3641 4750 4266 4084 
Q 4891 3419 4891 2328 
Q 4891 1769 4719 1320 
Q 4547 872 4197 525 
Q 3891 219 3497 64 
Q 3103 -91 2625 -91 
z
" transform="scale(0.015625)"/>
       <path id="DejaVuSerif-58" d="M 2119 1997 
L 978 331 
L 1581 331 
L 1581 0 
L 38 0 
L 38 331 
L 575 331 
L 1919 2291 
L 556 4331 
L 56 4331 
L 56 4666 
L 1906 4666 
L 1906 4331 
L 1356 4331 
L 2356 2828 
L 3384 4331 
L 2784 4331 
L 2784 4666 
L 4313 4666 
L 4313 4331 
L 3788 4331 
L 2553 2534 
L 4025 331 
L 4525 331 
L 4525 0 
L 2675 0 
L 2675 331 
L 3231 331 
L 2119 1997 
z
" transform="scale(0.015625)"/>
       <path id="DejaVuSerif-59" d="M 1209 0 
L 1209 331 
L 1806 331 
L 1806 2009 
L 366 4331 
L -72 4331 
L -72 4666 
L 1663 4666 
L 1663 4331 
L 1119 4331 
L 2284 2444 
L 3450 4331 
L 2925 4331 
L 2925 4666 
L 4281 4666 
L 4281 4331 
L 3841 4331 
L 2438 2069 
L 2438 331 
L 3034 331 
L 3034 0 
L 1209 0 
z
" transform="scale(0.015625)"/>
      </defs>
      <use xlink:href="#DejaVuSerif-42"/>
      <use xlink:href="#DejaVuSerif-52" x="73.486328"/>
      <use xlink:href="#DejaVuSerif-54" x="147.029297"/>
      <use xlink:href="#DejaVuSerif-50" x="213.728516"/>
      <use xlink:href="#DejaVuSerif-2d" x="275.513672"/>
      <use xlink:href="#DejaVuSerif-50" x="309.302734"/>
      <use xlink:href="#DejaVuSerif-52" x="376.587891"/>
      <use xlink:href="#DejaVuSerif-4f" x="451.880859"/>
      <use xlink:href="#DejaVuSerif-58" x="532.113281"/>
      <use xlink:href="#DejaVuSerif-59" x="603.304688"/>
     </g>
    </g>
    <g id="line2d_21">
     <path d="M 331.57375 284.17775 
L 339.57375 284.17775 
L 347.57375 284.17775 
" style="fill: none; stroke: #d62728; stroke-width: 1.5; stroke-linecap: square"/>
    </g>
    <g id="text_19">
     <!-- KCP -->
     <g transform="translate(353.97375 286.97775) scale(0.08 -0.08)">
      <defs>
       <path id="DejaVuSerif-4b" d="M 353 0 
L 353 331 
L 947 331 
L 947 4331 
L 353 4331 
L 353 4666 
L 2175 4666 
L 2175 4331 
L 1581 4331 
L 1581 2566 
L 3591 4331 
L 3084 4331 
L 3084 4666 
L 4634 4666 
L 4634 4331 
L 4109 4331 
L 2106 2572 
L 4347 331 
L 4878 331 
L 4878 0 
L 3794 0 
L 1581 2216 
L 1581 331 
L 2175 331 
L 2175 0 
L 353 0 
z
" transform="scale(0.015625)"/>
       <path id="DejaVuSerif-43" d="M 4513 1234 
Q 4306 581 3820 245 
Q 3334 -91 2591 -91 
Q 2134 -91 1743 65 
Q 1353 222 1050 525 
Q 700 875 529 1320 
Q 359 1766 359 2328 
Q 359 3416 987 4083 
Q 1616 4750 2644 4750 
Q 3025 4750 3456 4650 
Q 3888 4550 4384 4347 
L 4384 3272 
L 4031 3272 
Q 3916 3859 3567 4137 
Q 3219 4416 2591 4416 
Q 1844 4416 1459 3886 
Q 1075 3356 1075 2328 
Q 1075 1303 1459 773 
Q 1844 244 2591 244 
Q 3113 244 3450 492 
Q 3788 741 3938 1234 
L 4513 1234 
z
" transform="scale(0.015625)"/>
      </defs>
      <use xlink:href="#DejaVuSerif-4b"/>
      <use xlink:href="#DejaVuSerif-43" x="72.082031"/>
      <use xlink:href="#DejaVuSerif-50" x="148.595703"/>
     </g>
    </g>
    <g id="line2d_22">
     <path d="M 331.57375 295.92025 
L 339.57375 295.92025 
L 347.57375 295.92025 
" style="fill: none; stroke: #9467bd; stroke-width: 1.5; stroke-linecap: square"/>
    </g>
    <g id="text_20">
     <!-- TCP-BBR -->
     <g transform="translate(353.97375 298.72025) scale(0.08 -0.08)">
      <use xlink:href="#DejaVuSerif-54"/>
      <use xlink:href="#DejaVuSerif-43" x="66.699219"/>
      <use xlink:href="#DejaVuSerif-50" x="143.212891"/>
      <use xlink:href="#DejaVuSerif-2d" x="204.998047"/>
      <use xlink:href="#DejaVuSerif-42" x="238.787109"/>
      <use xlink:href="#DejaVuSerif-42" x="312.273438"/>
      <use xlink:href="#DejaVuSerif-52" x="385.759766"/>
     </g>
    </g>
   </g>
  </g>
 </g>
 <defs>
  <clipPath id="p4f4ea03268">
   <rect x="57.6" y="41.472" width="357.12" height="266.112"/>
  </clipPath>
 </defs>
</svg>
